<svg id="Layer_1" data-name="Layer 1" xmlns="http://www.w3.org/2000/svg" xmlns:xlink="http://www.w3.org/1999/xlink" width="1927.35" height="235.73" viewBox="0 0 1927.35 235.73"><defs><style>.cls-1{stroke-miterlimit:10;stroke-width:6px;fill:url(#linear-gradient);stroke:url(#linear-gradient-2);}.cls-2{fill:#fff;}.cls-3{opacity:0.11;fill:url(#radial-gradient);}</style><linearGradient id="linear-gradient" x1="-254.68" y1="607.82" x2="1361.93" y2="607.82" gradientTransform="translate(814.38 -2708.77) scale(0.27 4.81)" gradientUnits="userSpaceOnUse"><stop offset="0" stop-color="#6aacde"/><stop offset="0" stop-color="#f6fafd"/><stop offset="0" stop-color="#f2f9fe"/><stop offset="0" stop-color="#626161"/><stop offset="0" stop-color="#9dd8f7"/><stop offset="0.04" stop-color="#94d5f7"/><stop offset="0.1" stop-color="#a7dcf8"/><stop offset="0.12" stop-color="#8dd3f6"/><stop offset="0.14" stop-color="#abddf9"/><stop offset="0.2" stop-color="#80cff5"/><stop offset="0.51" stop-color="#5ea5db"/><stop offset="0.77" stop-color="#9dd8f7"/><stop offset="0.93" stop-color="#a4dbf8"/><stop offset="1" stop-color="#d2ecfc"/><stop offset="1" stop-color="#8ccbf1"/><stop offset="1" stop-color="#e8f5fc" stop-opacity="0.7"/></linearGradient><linearGradient id="linear-gradient-2" x1="-257.68" y1="607.82" x2="1364.93" y2="607.82" gradientTransform="translate(814.38 -2708.77) scale(0.27 4.81)" gradientUnits="userSpaceOnUse"><stop offset="0" stop-color="#fff"/><stop offset="1"/></linearGradient><radialGradient id="radial-gradient" cx="571.49" cy="-2.07" r="357.71" gradientTransform="matrix(2.27, 0.21, 0.47, 0.87, -319.14, -30.31)" gradientUnits="userSpaceOnUse"><stop offset="0" stop-color="#6aacde"/><stop offset="0" stop-color="#f6fafd"/><stop offset="0" stop-color="#f2f9fe"/><stop offset="0" stop-color="#626161"/><stop offset="0" stop-color="#fded4c"/><stop offset="0" stop-color="#ffe68b"/><stop offset="0.1" stop-color="#fbc78b"/><stop offset="0.16" stop-color="#fdf3a4"/><stop offset="0.2" stop-color="#f9ea3c"/><stop offset="0.49" stop-color="#ffdb5b"/><stop offset="0.57" stop-color="#f6e826"/><stop offset="0.77" stop-color="#f6a033"/><stop offset="0.93" stop-color="#e7a800"/><stop offset="1" stop-color="#d2ecfc"/><stop offset="1" stop-color="#8ccbf1"/><stop offset="1" stop-color="#e8f5fc" stop-opacity="0.7"/></radialGradient></defs><title>Artboard 56</title><rect class="cls-1" x="746.22" y="-745.25" width="432.68" height="1923.18" transform="translate(746.22 1178.9) rotate(-90)"/><ellipse class="cls-2" cx="73.47" cy="69.69" rx="31.7" ry="28.25"/><ellipse class="cls-2" cx="161.79" cy="75.69" rx="32.2" ry="28.69"/><ellipse class="cls-2" cx="138.13" cy="100.78" rx="33.34" ry="33.06"/><ellipse class="cls-2" cx="118.3" cy="67.72" rx="31.14" ry="27.75"/><ellipse class="cls-2" cx="89.3" cy="115.36" rx="29" ry="30.32"/><ellipse class="cls-2" cx="52.6" cy="103" rx="23.61" ry="17.02"/><ellipse class="cls-2" cx="47.22" cy="75.69" rx="23.61" ry="17.02"/><ellipse class="cls-2" cx="1788.93" cy="222.22" rx="27.77" ry="23.13"/><ellipse class="cls-2" cx="1866.28" cy="227.13" rx="28.2" ry="23.49"/><ellipse class="cls-2" cx="1845.55" cy="247.67" rx="29.2" ry="27.07"/><ellipse class="cls-2" cx="1828.19" cy="220.61" rx="27.27" ry="22.72"/><ellipse class="cls-2" cx="1802.8" cy="259.61" rx="25.39" ry="24.82"/><ellipse class="cls-2" cx="1770.65" cy="249.49" rx="20.68" ry="13.94"/><ellipse class="cls-2" cx="1765.94" cy="227.13" rx="20.68" ry="13.94"/><ellipse class="cls-2" cx="682.71" cy="65.18" rx="25.74" ry="18.54"/><ellipse class="cls-2" cx="754.43" cy="69.11" rx="26.15" ry="18.83"/><ellipse class="cls-2" cx="735.21" cy="85.58" rx="27.07" ry="21.69"/><ellipse class="cls-2" cx="719.11" cy="63.88" rx="25.29" ry="18.21"/><ellipse class="cls-2" cx="695.57" cy="95.15" rx="23.54" ry="19.89"/><ellipse class="cls-2" cx="665.76" cy="87.03" rx="19.17" ry="11.17"/><ellipse class="cls-2" cx="661.39" cy="69.11" rx="19.17" ry="11.17"/><ellipse class="cls-2" cx="318.93" cy="112.4" rx="43.35" ry="34.08"/><ellipse class="cls-2" cx="439.7" cy="119.63" rx="44.03" ry="34.61"/><ellipse class="cls-2" cx="407.34" cy="149.91" rx="45.58" ry="39.88"/><ellipse class="cls-2" cx="380.23" cy="110.02" rx="42.58" ry="33.48"/><ellipse class="cls-2" cx="340.58" cy="167.5" rx="39.65" ry="36.57"/><ellipse class="cls-2" cx="290.39" cy="152.58" rx="32.29" ry="20.54"/><ellipse class="cls-2" cx="283.04" cy="119.63" rx="32.29" ry="20.54"/><ellipse class="cls-2" cx="1018.82" cy="82.49" rx="31.32" ry="30.44"/><ellipse class="cls-2" cx="1106.08" cy="88.95" rx="31.82" ry="30.92"/><ellipse class="cls-2" cx="1082.71" cy="115.99" rx="32.94" ry="35.63"/><ellipse class="cls-2" cx="1063.11" cy="80.36" rx="30.77" ry="29.91"/><ellipse class="cls-2" cx="1034.47" cy="131.71" rx="28.65" ry="32.68"/><ellipse class="cls-2" cx="998.2" cy="118.38" rx="23.33" ry="18.35"/><ellipse class="cls-2" cx="992.88" cy="88.95" rx="23.33" ry="18.35"/><path class="cls-3" d="M767.62,56.82,78.42,171.15c-47.56,1.3-47.21,2.34-47.56,1.3L9-62.86-3.19-57.63,369.2-48.45l682.18,18.32c2.81.07,875.05,29.46,872.77,30.13L768,56.73A2.22,2.22,0,0,1,767.62,56.82Z"/></svg>