<svg id="Layer_1" data-name="Layer 1" xmlns="http://www.w3.org/2000/svg" width="252.84" height="308.82" viewBox="0 0 252.84 308.82"><defs><style>.cls-1{fill:#00a24e;}.cls-2{fill:none;}.cls-3{fill:#913a34;opacity:0.67;}.cls-4{fill:#c32b33;}.cls-5{fill:#78341f;}.cls-6{opacity:0.69;}.cls-7{fill:#0c0c15;opacity:0.77;}</style></defs><title>Artboard 18</title><rect class="cls-1" x="-1406.54" y="-217.65" width="1926.94" height="650.3"/><rect class="cls-2" x="-1012.53" y="-183.73" width="1055.68" height="652.45"/><path class="cls-3" d="M115.9-36.63c0-38.33,47-69.41,105-69.41S326-75,326-36.63s-63.16,77.88-101.48,49.1C175.39-24.4,115.9,1.71,115.9-36.63Z"/><rect class="cls-4" x="66.37" y="88.34" width="151.03" height="197.46" transform="translate(-67.26 80.36) rotate(-25.79)"/><path class="cls-5" d="M126.14.71a11.35,11.35,0,0,1-6.07,1.73A11.17,11.17,0,0,1,113,0a9.88,9.88,0,0,1-9.42,6.9,9.83,9.83,0,0,1-7.81-3.85A8.91,8.91,0,0,1,87.2,9.63a8.89,8.89,0,0,1-7.78-4.58L0,43.42l40.26,83.33,119-57.49Z"/><g class="cls-6"><rect class="cls-7" x="-919.66" y="-461.81" width="1140.34" height="648.08" rx="260.58"/></g></svg>