<svg id="Layer_1" data-name="Layer 1" xmlns="http://www.w3.org/2000/svg" xmlns:xlink="http://www.w3.org/1999/xlink" width="73.29" height="96.07" viewBox="0 0 73.29 96.07"><defs><style>.cls-1{fill:#00a24e;}.cls-2{stroke-miterlimit:10;stroke-width:6px;fill:url(#linear-gradient);stroke:url(#linear-gradient-2);}</style><linearGradient id="linear-gradient" x1="-569.62" y1="183.07" x2="1046.98" y2="183.07" gradientTransform="translate(583.73 -1089.41) scale(0.27 4.81)" gradientUnits="userSpaceOnUse"><stop offset="0" stop-color="#6aacde"/><stop offset="0" stop-color="#f6fafd"/><stop offset="0" stop-color="#f2f9fe"/><stop offset="0" stop-color="#626161"/><stop offset="0" stop-color="#9dd8f7"/><stop offset="0.04" stop-color="#94d5f7"/><stop offset="0.1" stop-color="#a7dcf8"/><stop offset="0.12" stop-color="#8dd3f6"/><stop offset="0.14" stop-color="#abddf9"/><stop offset="0.2" stop-color="#80cff5"/><stop offset="0.51" stop-color="#5ea5db"/><stop offset="0.77" stop-color="#9dd8f7"/><stop offset="0.93" stop-color="#a4dbf8"/><stop offset="1" stop-color="#d2ecfc"/><stop offset="1" stop-color="#8ccbf1"/><stop offset="1" stop-color="#e8f5fc" stop-opacity="0.7"/></linearGradient><linearGradient id="linear-gradient-2" x1="-572.62" y1="183.07" x2="1049.98" y2="183.07" gradientTransform="translate(583.73 -1089.41) scale(0.27 4.81)" gradientUnits="userSpaceOnUse"><stop offset="0" stop-color="#fff"/><stop offset="1"/></linearGradient></defs><title>Artboard 57</title><rect class="cls-1" x="-313.97" y="4.95" width="1926.94" height="650.3"/><rect class="cls-2" x="431.27" y="-1170" width="432.68" height="1923.18" transform="translate(856.03 439.2) rotate(-90)"/><polyline class="cls-1" points="139.51 -62.85 125.92 33.22 66.22 21.76"/><polyline class="cls-1" points="32.37 -61.46 18.78 34.61 -40.92 23.15"/><polyline class="cls-1" points="11.09 -59.45 -2.5 36.62 -62.2 25.16"/><polyline class="cls-1" points="46.74 -51.96 33.15 44.11 -26.55 32.66"/><polyline class="cls-1" points="119.06 -51.51 105.47 44.56 45.77 33.1"/><polyline class="cls-1" points="98.62 -58.21 85.03 37.86 25.33 26.4"/><polyline class="cls-1" points="70.09 -62.85 56.51 33.22 -3.19 21.76"/></svg>