<svg id="Layer_1" data-name="Layer 1" xmlns="http://www.w3.org/2000/svg" width="1000" height="1000" viewBox="0 0 1000 1000"><defs><style>.cls-1{fill:#723c29;}.cls-2{fill:#935934;}.cls-3{fill:#936037;opacity:0.45;}.cls-4{fill:#ce825d;}.cls-11,.cls-5{fill:#c96;}.cls-5,.cls-7{stroke:#c96;stroke-miterlimit:10;}.cls-6{fill:#fff;}.cls-7{fill:#d5965d;}.cls-8{fill:#683c11;}.cls-9{fill:#e20d18;opacity:0.85;}.cls-10{fill:#e64065;}.cls-12{fill:#010101;}.cls-13{fill:#230d0f;}</style></defs><title>Artboard 54</title><path class="cls-1" d="M390,49.86,426.1,80.39c20.25,17.13,21.73,46.28,3.3,65.1l-6.25,6.39c-18.43,18.81-49.77,20.18-70,3.06L317,124.41c-20.26-17.12-21.74-46.27-3.3-65.1L320,52.93C338.4,34.11,369.74,32.74,390,49.86Z"/><path class="cls-1" d="M794.23,129.39l-30,27.85c-19.36,18-50.73,18-70.08,0L689.62,153c-19.36-18-19.36-47.17,0-65.17L719.6,60c19.35-18,50.73-18,70.08,0l4.56,4.23C813.6,82.21,813.6,111.39,794.23,129.39Z"/><path class="cls-2" d="M193,720.13c-56.59-128-84.36-238.73-62-247.25s86.31,88.36,142.9,216.39"/><path class="cls-1" d="M857.53,964.2,562.83,972a74.77,74.77,0,0,1-21.76,2.39L221.91,962.66q-3.34-.12-6.65-.54L105.68,948.28c-54-6.83-79.19-66-44.8-105.29L416.29,436.62c21.32-24.37,58.36-31.07,88-15.91l212.3,108.75a66.31,66.31,0,0,1,32.54,36.28l94.25,262C856,862.91,895.91,954.12,857.53,964.2Z"/><path class="cls-2" d="M299.26,358.6C299.26,192.27,412.88,57.43,553,57.43S806.82,192.27,806.82,358.6"/><path class="cls-3" d="M300.81,354.4c0-164,113.28-297,253-297s253,133,253,297"/><path class="cls-4" d="M674.39,492.82c0,60.36-54.33,109.29-121.35,109.29S431.69,553.18,431.69,492.82"/><ellipse class="cls-5" cx="750.2" cy="468" rx="145.39" ry="129.62"/><path class="cls-6" d="M579.39,351c0-63.95,24.7-115.8,55.17-115.8S689.72,287,689.72,351"/><path class="cls-6" d="M419.51,351c0-66.32,25-120.09,55.92-120.09S531.35,284.67,531.35,351"/><ellipse class="cls-7" cx="375.72" cy="468" rx="137.46" ry="128.06"/><ellipse class="cls-6" cx="460.3" cy="286.07" rx="22.03" ry="20.3"/><ellipse class="cls-8" cx="474.4" cy="300.91" rx="30.84" ry="28.89"/><ellipse class="cls-8" cx="637.41" cy="300.12" rx="29.96" ry="28.11"/><path class="cls-9" d="M487.09,506.14C452.93,587.19,440,658.26,458.22,664.89s60.66-53.7,94.82-134.75"/><ellipse class="cls-1" cx="275.27" cy="63.53" rx="51.97" ry="139.66" transform="translate(171.53 326.3) rotate(-81.45)"/><ellipse class="cls-1" cx="854.17" cy="116.63" rx="48.71" ry="140.27" transform="translate(411.02 856.11) rotate(-66.84)"/><ellipse class="cls-10" cx="480.57" cy="675.71" ry="15.6"/><ellipse class="cls-11" cx="560.75" cy="435.21" rx="296.94" ry="94.48"/><path class="cls-12" d="M509.36,383.56c0-27.57,21.25-49.92,47.46-49.92s47.45,22.35,47.45,49.92"/><path class="cls-13" d="M749.75,980.42c0-62.87,33.93-113.84,75.78-113.84s75.78,51,75.78,113.84"/><path class="cls-13" d="M485.83,1008.09c0-64,37.75-116,84.32-116s84.33,51.92,84.33,116"/><path class="cls-13" d="M-15.42,950.11c0-64.92,33.73-117.54,75.34-117.54s75.34,52.62,75.34,117.54"/><path class="cls-13" d="M238.59,972.88c0-63.07,32.33-114.2,72.2-114.2S383,909.81,383,972.88"/><ellipse class="cls-12" cx="476.17" cy="295.44" rx="20.27" ry="18.74"/><ellipse class="cls-12" cx="636.53" cy="295.44" rx="20.27" ry="18.74"/><ellipse class="cls-6" cx="466.47" cy="291.54" rx="2.34" ry="7.51" transform="translate(-74.75 193.22) rotate(-21.71)"/><ellipse class="cls-6" cx="630.36" cy="285.29" rx="3.52" ry="5.47"/><ellipse class="cls-6" cx="626.84" cy="292.32" rx="2.38" ry="6.76" transform="translate(-64.74 282.75) rotate(-24.21)"/><ellipse class="cls-6" cx="471.76" cy="285.29" rx="3.52" ry="5.47"/><ellipse class="cls-12" cx="833.02" cy="398.51" rx="3.52" ry="3.12"/><ellipse class="cls-12" cx="873.55" cy="428.18" rx="3.52" ry="3.12"/><ellipse class="cls-12" cx="833.02" cy="442.24" rx="3.52" ry="3.12"/><ellipse class="cls-12" cx="260.29" cy="448.48" rx="3.52" ry="3.12"/><ellipse class="cls-12" cx="299.06" cy="439.11" rx="3.52" ry="3.12"/><ellipse class="cls-12" cx="277.91" cy="406.32" rx="3.52" ry="3.12"/><path class="cls-12" d="M511.9,195.79c.66,2.53-22.83-1.64-48,5.7s-42.23,25.75-42.89,23.23,13.78-28.06,38.9-35.4S511.25,193.27,511.9,195.79Z"/><path class="cls-12" d="M684.19,232c-1,2.7-17.54-18.52-41.76-28.71s-48.8-2.83-47.78-5.54S621.74,181,646,191.18,685.21,229.25,684.19,232Z"/><ellipse class="cls-7" cx="371.31" cy="466.44" rx="60.8" ry="64.03"/></svg>