<svg id="Layer_1" data-name="Layer 1" xmlns="http://www.w3.org/2000/svg" width="1177" height="1049" viewBox="0 0 1177 1049"><defs><style>.cls-1{fill:#913a34;opacity:0.67;}.cls-2,.cls-4{fill:#e7dbd2;}.cls-2{opacity:0.83;}.cls-3{fill:#bf5a4d;}</style></defs><title>beef</title><path class="cls-1" d="M299.83,514.2c0-119.44,120.29-216.27,268.67-216.27S837.17,394.76,837.17,514.2s-161.57,242.63-259.59,153C452,552.3,299.83,633.63,299.83,514.2Z"/><path class="cls-2" d="M312.84,466c0-87.92,114.46-159.18,255.66-159.18S824.16,378.12,824.16,466s-153.74,178.59-247,112.59C457.65,494.09,312.84,554,312.84,466Z"/><path class="cls-3" d="M355.33,436.21c0-76.37,98.55-138.28,220.11-138.28s220.1,61.91,220.1,138.28S663.18,591.36,582.87,534C480,460.58,355.33,512.58,355.33,436.21Z"/><ellipse class="cls-4" cx="599.3" cy="425.82" rx="16.96" ry="92.48" transform="translate(-1.04 850.17) rotate(-70.65)"/><ellipse class="cls-4" cx="683.64" cy="448.65" rx="60.03" ry="12.51" transform="translate(-124.14 575.69) rotate(-42.21)"/></svg>
