<svg id="Layer_1" data-name="Layer 1" xmlns="http://www.w3.org/2000/svg" width="1177" height="1049" viewBox="0 0 1177 1049"><defs><style>.cls-1{fill:#00813a;opacity:0.9;}.cls-10,.cls-2,.cls-3,.cls-4,.cls-5,.cls-6,.cls-7,.cls-8,.cls-9{fill:#a84571;}.cls-2{opacity:0.65;}.cls-4{opacity:0.79;}.cls-5{opacity:0.61;}.cls-6{opacity:0.72;}.cls-7{opacity:0.67;}.cls-8{opacity:0.84;}.cls-9{opacity:0.56;}.cls-10{opacity:0.75;}.cls-11{fill:#fdd676;}</style></defs><title>blomst</title><path class="cls-1" d="M622.79,607c0,87.59-20.2,158.59-24.42,158.59s8.38-71,8.38-158.59-12.61-158.59-8.38-158.59S622.79,519.43,622.79,607Z"/><ellipse class="cls-2" cx="588.18" cy="344.8" rx="17.81" ry="61.2"/><ellipse class="cls-3" cx="588.18" cy="494.48" rx="16.66" ry="62.59"/><ellipse class="cls-3" cx="672.58" cy="412.94" rx="65.05" ry="12.72"/><ellipse class="cls-3" cx="513.55" cy="431.89" rx="61.54" ry="12.67" transform="translate(-97.01 153.53) rotate(-15.55)"/><ellipse class="cls-4" cx="508.83" cy="448.42" rx="63.16" ry="10.87" transform="translate(-119.56 193.25) rotate(-19.29)"/><ellipse class="cls-5" cx="668.07" cy="437.97" rx="11.8" ry="64.78" transform="translate(88.71 987.95) rotate(-76.76)"/><ellipse class="cls-3" cx="516.27" cy="463.63" rx="63.16" ry="10.87" transform="translate(-151.23 274.07) rotate(-26.07)"/><ellipse class="cls-3" cx="526.3" cy="473.67" rx="63.16" ry="10.87" transform="translate(-180.77 436.21) rotate(-38.95)"/><ellipse class="cls-3" cx="658.56" cy="454.68" rx="11.8" ry="64.78" transform="translate(7.11 919.49) rotate(-70.13)"/><ellipse class="cls-6" cx="651.93" cy="465.92" rx="11.8" ry="64.78" transform="translate(-77.53 797.55) rotate(-60)"/><ellipse class="cls-3" cx="609.25" cy="348.77" rx="62.74" ry="13.99" transform="translate(130.19 861.93) rotate(-76.76)"/><ellipse class="cls-3" cx="556.85" cy="350.84" rx="13.99" ry="62.17" transform="translate(-84.63 203.63) rotate(-19.29)"/><ellipse class="cls-3" cx="657.67" cy="362.75" rx="65.05" ry="12.72" transform="translate(-91.33 418.54) rotate(-33.14)"/><ellipse class="cls-3" cx="526.3" cy="358.03" rx="13.99" ry="54.8" transform="translate(-108.07 410.49) rotate(-38.95)"/><ellipse class="cls-7" cx="632.26" cy="358.03" rx="63.59" ry="13.99" transform="translate(-24.41 669.03) rotate(-54.86)"/><ellipse class="cls-8" cx="554.86" cy="489.87" rx="62.59" ry="16.66" transform="translate(-94.44 845.2) rotate(-70.13)"/><ellipse class="cls-9" cx="624.18" cy="489.47" rx="16.66" ry="62.59" transform="translate(-145.18 296.44) rotate(-24.02)"/><ellipse class="cls-10" cx="674.24" cy="385.85" rx="70.01" ry="12.72" transform="translate(-66.66 152.31) rotate(-12.29)"/><ellipse class="cls-2" cx="495.3" cy="409.77" rx="61.54" ry="12.67"/><ellipse class="cls-3" cx="513.55" cy="387.35" rx="12.67" ry="61.54" transform="translate(-25.29 738.66) rotate(-70.13)"/><ellipse class="cls-3" cx="651.93" cy="483.55" rx="12.54" ry="58.3" transform="translate(-159.37 458.52) rotate(-34.8)"/><ellipse class="cls-11" cx="593.41" cy="416.09" rx="56.83" ry="28.74"/></svg>
