<svg id="Layer_1" data-name="Layer 1" xmlns="http://www.w3.org/2000/svg" width="1920" height="1080" viewBox="0 0 1920 1080"><defs><style>.cls-1{opacity:0.72;}.cls-2{fill:#0c0c15;opacity:0.67;}.cls-3{fill:#fff;}.cls-4{fill:#7d645e;}</style></defs><title>completed</title><g class="cls-1"><rect class="cls-2" x="361.41" y="171.72" width="1192.28" height="663.85" rx="260.58"/><path class="cls-3" d="M760.36,283.66a4.75,4.75,0,0,1-1.74,3.16,38.21,38.21,0,0,1-8.11,9.89q-5.93,5.31-9.57,5.3a6.32,6.32,0,0,1-1-.07c-2.67-.74-5.68-1.67-9-2.77a24.36,24.36,0,0,1-13.68-12.11A40.17,40.17,0,0,1,713,268.31a45.3,45.3,0,0,1,5.74-23q6.11-10.6,15.32-11,3.55-.17,10.44,3.16t9.07,6.61q2.19,3.28,3,14.36a11.39,11.39,0,0,1-.73,4.83c-.73,1.95-1.67,2.85-2.83,2.69a56.32,56.32,0,0,1-8-1.74q-5.84-1.67-6.29-2.77a1.73,1.73,0,0,1-.18-.71,3.24,3.24,0,0,1,.77-1.78,3.3,3.3,0,0,0,.78-1.78,44.5,44.5,0,0,0,.45-6.09q0-4.12-1.09-5.7-5.47,3.48-8.3,11.63a52.76,52.76,0,0,0-1,27.58c.91,3.5,2,5.63,3.28,6.37.61.31,2.29-.76,5.06-3.21a25.14,25.14,0,0,0,5.33-5.89,21.9,21.9,0,0,0,.82-2.54,2.77,2.77,0,0,1,1.46-1.74q1.56-.46,8,2.26T760.36,283.66Z"/><path class="cls-3" d="M795.18,301.54a13.29,13.29,0,0,1-4.28-.44c-1.58-.39-3.13-.8-4.65-1.22-1.83-.43-4.68-1.19-8.57-2.3q-7.3-2.76-11-10.92-3.28-7.2-3.29-17.41a69.51,69.51,0,0,1,3.29-19.38Q771.11,235,778.22,235a7.79,7.79,0,0,1,1.78.28c.76.18,1.35.3,1.78.36a49.66,49.66,0,0,1,8.66-1.67c.61,0,1.22,0,1.82.08q10.95,1.19,17.23,11.87,5.65,9.66,5.66,23,0,12.66-5.11,21.76Q804.58,300.59,795.18,301.54Zm-1.64-58q-2-.48-4,4.67t-4,5.14a3.12,3.12,0,0,1-1.32-.44,5.15,5.15,0,0,0-1.42-.51q-3.09,5.94-3.1,16.93a46.15,46.15,0,0,0,2.1,14.8q2.37,6.89,6.57,7.6,4.92.79,7.93-8.79A66.72,66.72,0,0,0,799,263a53.53,53.53,0,0,0-1.37-13.13Q796.19,244.17,793.54,243.54Z"/><path class="cls-3" d="M902.21,298.22q-.63,3.39-2.19,3.72c-1.45.31-4.25,0-8.38-1-4.38-1.06-6.87-2.11-7.48-3.17a2.66,2.66,0,0,1-.27-1.19,7.84,7.84,0,0,1,.23-1.54,8.82,8.82,0,0,0,.22-1.78V257.31q-4.27,7.28-11.21,32.76a2.55,2.55,0,0,0-.09.71,15,15,0,0,0,.32,2.53,17.49,17.49,0,0,1,.32,2.22,19.19,19.19,0,0,1-.28,3.16,2.45,2.45,0,0,1-1.91,1.9,14.36,14.36,0,0,1-3.19.24q-11.85,0-16.32-3.56a2,2,0,0,1-.55-2,6.91,6.91,0,0,0,0-2.3q-3.37-9-6-15.82-6.37-16.46-8.29-19.39v31.5a8.21,8.21,0,0,0,.73,2.84,19.94,19.94,0,0,1,1,2.77,12.7,12.7,0,0,1,.18,3.8c-.12,1.79-.54,2.9-1.27,3.32a4.73,4.73,0,0,1-2.1.32,37.66,37.66,0,0,1-8-1c-3.35-.68-5.32-1.4-5.93-2.13a2.08,2.08,0,0,1-.46-1.35,6.78,6.78,0,0,1,.32-1.58,6.47,6.47,0,0,0,.32-1.74V238.4a3.87,3.87,0,0,1,.91-2.18,4.33,4.33,0,0,1,2.1-1.62c1-.37,5,.26,11.94,1.9q10.86,2.44,11.49,4.27a3.84,3.84,0,0,1,.09,1.9q-.27,1.67-.27,2a2.84,2.84,0,0,0,.27,1.26l12.31,28.73q2.55-7,9.3-28.57,3.38-11,5.47-11.47a5.82,5.82,0,0,1,1.46-.16,32,32,0,0,1,5.2.71,40.66,40.66,0,0,0,5.56.95q7.2.56,8.29.71,4.29.72,4.83,2.61a3.58,3.58,0,0,1,.19,1.19,8.49,8.49,0,0,1-.46,2.26,8.26,8.26,0,0,0-.45,2.17v48.43a4.81,4.81,0,0,0,1.13,2.37C902,296.9,902.33,297.69,902.21,298.22Z"/><path class="cls-3" d="M946,239.27q8.76,4,8.75,13.84,0,7.13-6.47,18-7.2,12.19-14.68,12.19a5.83,5.83,0,0,1-3.23-1.23l-3.51-2.41v13.45a7.64,7.64,0,0,0,.45,2.38c.43,1.26.7,2.13.82,2.61a4.68,4.68,0,0,1-.68,2.57,3.08,3.08,0,0,1-2.51,2q-1.63.15-7.11-2-5.74-2.22-7.11-4c-.55-.74-.55-1.84,0-3.32a8.05,8.05,0,0,0,.64-2.61V242a5.13,5.13,0,0,0-.64-1.75,3.49,3.49,0,0,1-.55-1.81c.37-2.54,1.46-3.8,3.28-3.8a27.49,27.49,0,0,1,3.7.91,24.65,24.65,0,0,0,5.15,1,22,22,0,0,0,7-1.27,23.33,23.33,0,0,1,6.16-1.35,10.11,10.11,0,0,1,2.18.24A10.73,10.73,0,0,1,942,236.5,21.38,21.38,0,0,0,946,239.27Zm-7.56,6.09q-2.1,0-5.84,2a19.1,19.1,0,0,0-5.74,4.35v19.07q4.92-1.35,9.3-9.73,4-7.6,4-12.9C940.14,246.28,939.56,245.36,938.41,245.36Z"/><path class="cls-3" d="M1001.58,289.91q-1.1,3.72-3.46,4.51a4.68,4.68,0,0,1-2,.08,3.57,3.57,0,0,0-1.78.08l-13.49,4.9a3,3,0,0,0-1.32,1.35c-.46.74-.9,1.16-1.33,1.26-1.33.43-4.16,0-8.48-1.18s-6.92-2.35-7.84-3.41c-.67-.84-.88-2.16-.63-3.95a15.17,15.17,0,0,0,.18-2V238.4a2.79,2.79,0,0,0-.73-1.35,1.51,1.51,0,0,1-.55-1c.12-1,1.19-1.74,3.19-2.22,1.28-.26,4,.14,8.3,1.19q7.2,1.83,7.29,4.27a3.69,3.69,0,0,1-1,1.9,3.77,3.77,0,0,0-1,1.9V286.9l9.48-3.56a11.77,11.77,0,0,1,3.1-1.42q1.28-.17,6.84,3.36T1001.58,289.91Z"/><path class="cls-3" d="M1045.34,290.38a6.62,6.62,0,0,1-1.59,2.89,5.74,5.74,0,0,1-2.33,1.86,1.74,1.74,0,0,1-1-.28,3,3,0,0,0-1.18-.35.8.8,0,0,0-.37.08,37.92,37.92,0,0,0-5.65,1.9,54.4,54.4,0,0,0-12.4,6.88q-9.12-3.24-9.94-3.56c-3.77-1.43-5.65-2.48-5.65-3.17v-59.5c0-.37.71-.9,2.14-1.58a7,7,0,0,1,3.15-1,22,22,0,0,1,4.37,1.22,17,17,0,0,0,5.38,1.15,17.21,17.21,0,0,0,7.11-2.14q4-2.06,5-1.74c1.46.43,3.63,1.81,6.52,4.16s4.45,4,4.69,5c.12.48-.44,1.3-1.69,2.46s-2.26,1.74-3.05,1.74a3.29,3.29,0,0,1-1.46-.24c-.3-.16-.52-.21-.64-.16a58.14,58.14,0,0,0-6.11,1.5c-4.49,1.32-7.81,2.85-9.93,4.59v12.9a69,69,0,0,1,8.29-2.93q1.47-.15,6.16,3.52t4.69,5.11a3.21,3.21,0,0,1-1.27,2.06,6.13,6.13,0,0,1-2.46,1.5c-.61,0-1.68.05-3.2.16q-3.46.56-12.21,5.06v8.31q2.73-1.43,7.43-3.36c3.13-1.3,5.06-1.94,5.79-1.94s3,1.15,6.42,3.44S1045.46,289.75,1045.34,290.38Z"/><path class="cls-3" d="M1093.94,247.65a5.85,5.85,0,0,1-2-.51,4,4,0,0,0-2.1-.36l-9.39,2.22v41.62a11.79,11.79,0,0,0,1.28,5,5.33,5.33,0,0,1-.18,3q-.55,2.46-1.74,3.09a3.1,3.1,0,0,1-.91.08,48.31,48.31,0,0,1-8.38-1q-6-1.19-7.12-2.3c-.85-.95-.82-2.21.1-3.8a7.17,7.17,0,0,0,1.18-3V252.48l-6.47,1.42a5.82,5.82,0,0,0-1.51.68,2.59,2.59,0,0,1-1.77.43c-1.4-.32-3.32-1.88-5.75-4.71s-3.49-4.73-3.19-5.73q.74-1.83,4.29-2.77a6.59,6.59,0,0,1,2.37-.08,8.54,8.54,0,0,0,2.28,0l31.72-7a23.15,23.15,0,0,0,2.65-1,5.49,5.49,0,0,1,2.64-.4,4.48,4.48,0,0,1,3.46,1.74,13.26,13.26,0,0,1,1.37,3.56,19.3,19.3,0,0,1,.91,5.38,5.52,5.52,0,0,1-.5,2.65C1096.84,247.27,1095.76,247.6,1093.94,247.65Z"/><path class="cls-3" d="M1144.08,290.38a6.76,6.76,0,0,1-1.6,2.89,5.79,5.79,0,0,1-2.32,1.86,1.75,1.75,0,0,1-1-.28,3,3,0,0,0-1.18-.35.83.83,0,0,0-.37.08,37.92,37.92,0,0,0-5.65,1.9,54.4,54.4,0,0,0-12.4,6.88q-9.12-3.24-9.93-3.56c-3.77-1.43-5.66-2.48-5.66-3.17v-59.5c0-.37.72-.9,2.15-1.58a6.94,6.94,0,0,1,3.14-1,22,22,0,0,1,4.38,1.22A16.94,16.94,0,0,0,1119,237a17.29,17.29,0,0,0,7.11-2.14q4-2.06,5-1.74c1.46.43,3.63,1.81,6.52,4.16s4.45,4,4.69,5c.13.48-.44,1.3-1.68,2.46s-2.27,1.74-3.06,1.74a3.32,3.32,0,0,1-1.46-.24c-.3-.16-.51-.21-.63-.16a57.53,57.53,0,0,0-6.11,1.5q-6.75,2-9.94,4.59v12.9a69.2,69.2,0,0,1,8.3-2.93q1.46-.15,6.15,3.52t4.7,5.11a3.23,3.23,0,0,1-1.28,2.06,6,6,0,0,1-2.46,1.5c-.61,0-1.67.05-3.19.16q-3.47.56-12.22,5.06v8.31q2.73-1.43,7.43-3.36c3.13-1.3,5.06-1.94,5.79-1.94s3,1.15,6.43,3.44S1144.2,289.75,1144.08,290.38Z"/><path class="cls-3" d="M1194.31,260.71q0,8.63-5.38,18.75a75.23,75.23,0,0,1-10.76,15.35q-5.75,6.18-8.48,7.2a9.3,9.3,0,0,1-3.1.48,23.24,23.24,0,0,1-9.11-2.22,22,22,0,0,1-6.84-3.95v-57c.18-1.37,1.09-2.18,2.73-2.45a38.31,38.31,0,0,1,4.56.55c.55.06,2.36-.5,5.43-1.66a23,23,0,0,1,7.88-1.74,17,17,0,0,1,7.66,1.82,53.12,53.12,0,0,1,6.29,4.28q6.11,4.59,7.93,9.65Q1194.31,253.2,1194.31,260.71Zm-15.13-15.27a3.35,3.35,0,0,0-1.46-.24c-3.23,0-7.08,1.21-11.58,3.64v35.61q6.19-3.09,10.57-15.12a56.09,56.09,0,0,0,3.74-18.83Q1180.45,246.08,1179.18,245.44Z"/><path class="cls-3" d="M659.86,356.47c.17,1.32-.18,2.16-1.05,2.51a5.35,5.35,0,0,0-.7.3,81.7,81.7,0,0,0-6.7,11.89q-3.88,8.06-4.07,9.69a2.93,2.93,0,0,0,.18,1.06,3.68,3.68,0,0,1,.17,1.25c-.17,1.73-.67,2.65-1.48,2.78a11.69,11.69,0,0,1-3.05-.57,17.66,17.66,0,0,1-3.26-1.1c-1-.61-1.48-1.22-1.48-1.83a2.24,2.24,0,0,1,.3-1q.62-1.49,2.58-6.08-3.63-6.5-4.9-9a61.24,61.24,0,0,1-3.58-8.09,2.22,2.22,0,0,0-.51-.57,1,1,0,0,1-.41-.69c0-.38.56-1,1.7-1.71,2.42-1.62,4.09-2.38,5-2.28a1.93,1.93,0,0,1,1.27.8,2.39,2.39,0,0,1,.57,1,16.69,16.69,0,0,0,.26,2.31,35.46,35.46,0,0,0,4.2,10.22q2.46-5.21,2.76-5.73a42.31,42.31,0,0,1,3.76-6,10.78,10.78,0,0,1,.62-1.56,2.77,2.77,0,0,1,2.36-.72,9.81,9.81,0,0,1,3.22,1.33C659.05,355.5,659.8,356.09,659.86,356.47Z"/><path class="cls-3" d="M684,356.36c0-.28,0,2.14,0,7.25q0,21.66-7,22.34a8.31,8.31,0,0,1-3-.38l-3.39-1c-1-.2-1.94-.42-2.91-.67a4.94,4.94,0,0,1-2.3-1.15q-1.8-1.71-2.89-7.45a65.62,65.62,0,0,1-1-11.7,54.34,54.34,0,0,1,.61-8.69,1.72,1.72,0,0,1,1.27-1.52,11,11,0,0,1,3.35.53,9.07,9.07,0,0,1,3.34,1.18.81.81,0,0,1,.22.6,3.24,3.24,0,0,1-.43,1.35,2.63,2.63,0,0,0-.4,1.35,22.17,22.17,0,0,0-.22,4.18,96.57,96.57,0,0,0,.7,12.11c.59,4.66,1.43,6.94,2.54,6.84,1.4-.13,2.45-2.34,3.15-6.65a71.47,71.47,0,0,0,.83-11.73,30.06,30.06,0,0,0-.3-5.59,2.35,2.35,0,0,0-.18-1.25,7,7,0,0,1-.39-.91,1.64,1.64,0,0,1,1-1.94,1.84,1.84,0,0,1,.74-.11,16.8,16.8,0,0,1,3.68.57,8.17,8.17,0,0,1,2.76.95C684.1,355.06,684.13,355.55,684,356.36Z"/><path class="cls-3" d="M726.86,384.05c-.21,1.09-.56,1.68-1.05,1.78a10.82,10.82,0,0,1-4-.49c-2.1-.51-3.3-1-3.59-1.52a1.25,1.25,0,0,1-.13-.57,4.35,4.35,0,0,1,.11-.74,4.48,4.48,0,0,0,.11-.86V364.41q-2.06,3.49-5.38,15.73a1.16,1.16,0,0,0,0,.34,6.87,6.87,0,0,0,.16,1.21,8.23,8.23,0,0,1,.15,1.07,9.4,9.4,0,0,1-.13,1.52,1.19,1.19,0,0,1-.92.91,7.41,7.41,0,0,1-1.53.11q-5.7,0-7.84-1.71a1,1,0,0,1-.26-.95,3.17,3.17,0,0,0,0-1.1q-1.62-4.34-2.89-7.6a78.68,78.68,0,0,0-4-9.3v15.12a4,4,0,0,0,.35,1.36,9.81,9.81,0,0,1,.48,1.33,5.9,5.9,0,0,1,.09,1.83c-.06.86-.26,1.39-.61,1.59a2.29,2.29,0,0,1-1,.15,18.13,18.13,0,0,1-3.85-.49,6,6,0,0,1-2.85-1,1,1,0,0,1-.21-.64,3.23,3.23,0,0,1,.15-.76,3.31,3.31,0,0,0,.15-.84V355.33a1.85,1.85,0,0,1,.44-1,2.13,2.13,0,0,1,1-.78c.49-.18,2.4.13,5.73.91s5.31,1.47,5.51,2.05a1.76,1.76,0,0,1,0,.91,9.11,9.11,0,0,0-.13.95,1.31,1.31,0,0,0,.13.61l5.9,13.79q1.23-3.37,4.47-13.71,1.62-5.28,2.62-5.51a3,3,0,0,1,.7-.08,15.1,15.1,0,0,1,2.5.35,18.33,18.33,0,0,0,2.67.45c2.3.18,3.63.29,4,.34,1.37.23,2.14.65,2.32,1.26a1.7,1.7,0,0,1,.09.57,4.24,4.24,0,0,1-.22,1.08,3.83,3.83,0,0,0-.22,1v23.25a2.34,2.34,0,0,0,.55,1.14A1.7,1.7,0,0,1,726.86,384.05Z"/><path class="cls-3" d="M769.78,384.05c-.2,1.09-.55,1.68-1,1.78a10.77,10.77,0,0,1-4-.49c-2.1-.51-3.3-1-3.59-1.52a1.25,1.25,0,0,1-.13-.57,4.35,4.35,0,0,1,.11-.74,4.48,4.48,0,0,0,.11-.86V364.41q-2.06,3.49-5.38,15.73a1.16,1.16,0,0,0-.05.34,7.67,7.67,0,0,0,.15,1.21,7.23,7.23,0,0,1,.16,1.07,10.79,10.79,0,0,1-.13,1.52,1.2,1.2,0,0,1-.92.91,7.55,7.55,0,0,1-1.53.11q-5.7,0-7.84-1.71a1,1,0,0,1-.26-.95,3.17,3.17,0,0,0,0-1.1q-1.62-4.34-2.89-7.6a78.68,78.68,0,0,0-4-9.3v15.12a4,4,0,0,0,.35,1.36,9.81,9.81,0,0,1,.48,1.33,5.9,5.9,0,0,1,.09,1.83c-.06.86-.26,1.39-.61,1.59a2.32,2.32,0,0,1-1,.15,18.13,18.13,0,0,1-3.85-.49,6,6,0,0,1-2.85-1,1,1,0,0,1-.22-.64,3.41,3.41,0,0,1,.16-.76,3.31,3.31,0,0,0,.15-.84V355.33a1.85,1.85,0,0,1,.44-1,2.13,2.13,0,0,1,1-.78c.49-.18,2.4.13,5.73.91s5.31,1.47,5.51,2.05a1.87,1.87,0,0,1,.05.91c-.09.54-.14.85-.14.95a1.31,1.31,0,0,0,.14.61l5.9,13.79q1.23-3.37,4.47-13.71,1.62-5.28,2.62-5.51a3,3,0,0,1,.7-.08,15.1,15.1,0,0,1,2.5.35,18.33,18.33,0,0,0,2.67.45c2.3.18,3.63.29,4,.34,1.37.23,2.14.65,2.32,1.26a1.7,1.7,0,0,1,.09.57,4.24,4.24,0,0,1-.22,1.08,3.83,3.83,0,0,0-.22,1v23.25a2.34,2.34,0,0,0,.55,1.14Q769.87,383.66,769.78,384.05Z"/><path class="cls-3" d="M782.61,355.22a2,2,0,0,1-.2.72l-.24.57a15.46,15.46,0,0,0-.53,2.36v23.32a1.32,1.32,0,0,0,.27.81,1.15,1.15,0,0,1,.26.59c0,1.62-.35,2.5-1,2.62a15,15,0,0,1-3.07-.49,12.36,12.36,0,0,1-3.23-1c-.65-.48-1-.92-1-1.33a.54.54,0,0,1,.18-.34.94.94,0,0,0,.17-.65V355.68a.93.93,0,0,0-.15-.48.89.89,0,0,1-.15-.47c.06-.61.59-1,1.62-1.22a12.57,12.57,0,0,1,2,0,19.47,19.47,0,0,1,3.15.42C782,354.23,782.61,354.66,782.61,355.22Z"/><path class="cls-3" d="M794,373.57c-.06.93-.33,1.45-.83,1.55a2.18,2.18,0,0,1-.44,0,8.16,8.16,0,0,1-3.19-.87,10.8,10.8,0,0,1-3.15-2.09q-.52-.49,0-1.83c.35-.88.52-1.34.52-1.36V354.65c0-.66.44-1.11,1.32-1.37a2.83,2.83,0,0,1,.74-.07,10.32,10.32,0,0,1,2.8.45,4,4,0,0,1,2,1,10,10,0,0,1,.09,2.05v15.5a3.56,3.56,0,0,0,.09.66A4.49,4.49,0,0,1,794,373.57Zm0,5.5a5.81,5.81,0,0,1,0,1.86c-.11,1.32-.17,2.13-.17,2.43a11.86,11.86,0,0,1-.18,2.36,1.19,1.19,0,0,1-1.09,1,9.25,9.25,0,0,1-3-.76,8.07,8.07,0,0,1-3.15-1.64c-.21-.27-.13-.73.22-1.36a3.15,3.15,0,0,0,.3-1.41,26.7,26.7,0,0,1,0-3.19c.12-.91.56-1.35,1.32-1.33a13.6,13.6,0,0,1,3.41.86C793.08,378.4,793.87,378.79,794,379.07Z"/><path class="cls-3" d="M833.89,356.47c.18,1.32-.17,2.16-1,2.51a6.44,6.44,0,0,0-.7.3,81.89,81.89,0,0,0-6.69,11.89q-3.9,8.06-4.07,9.69a3.08,3.08,0,0,0,.17,1.06,3.49,3.49,0,0,1,.18,1.25c-.18,1.73-.67,2.65-1.49,2.78a11.64,11.64,0,0,1-3-.57,17.12,17.12,0,0,1-3.26-1.1c-1-.61-1.49-1.22-1.49-1.83a2.15,2.15,0,0,1,.31-1c.4-1,1.27-3,2.58-6.08q-3.63-6.5-4.9-9a60.2,60.2,0,0,1-3.59-8.09,2.33,2.33,0,0,0-.5-.57,1,1,0,0,1-.42-.69q0-.57,1.71-1.71,3.63-2.43,5-2.28a1.93,1.93,0,0,1,1.27.8,2.39,2.39,0,0,1,.57,1,15.6,15.6,0,0,0,.27,2.31,35.46,35.46,0,0,0,4.2,10.22q2.45-5.21,2.75-5.73a42.36,42.36,0,0,1,3.77-6,10.55,10.55,0,0,1,.61-1.56,2.77,2.77,0,0,1,2.36-.72,9.81,9.81,0,0,1,3.22,1.33C833.08,355.5,833.83,356.09,833.89,356.47Z"/><path class="cls-3" d="M849.6,385.64a6.33,6.33,0,0,1-2.05-.21c-.76-.19-1.51-.38-2.24-.58s-2.24-.57-4.11-1.11a9.46,9.46,0,0,1-5.29-5.24,20,20,0,0,1-1.58-8.35,33.47,33.47,0,0,1,1.58-9.31c1.42-4.76,3.28-7.14,5.55-7.14a3.8,3.8,0,0,1,.86.13,6.58,6.58,0,0,0,.85.17,23.57,23.57,0,0,1,4.16-.79l.87,0q5.25.57,8.27,5.7A21.5,21.5,0,0,1,859.19,370a21.06,21.06,0,0,1-2.45,10.45Q854.12,385.2,849.6,385.64Zm-.78-27.84c-.65-.15-1.28.6-1.91,2.24s-1.26,2.47-1.9,2.47a1.6,1.6,0,0,1-.64-.21,2.1,2.1,0,0,0-.67-.24c-1,1.9-1.49,4.6-1.49,8.12a22.29,22.29,0,0,0,1,7.11c.76,2.2,1.81,3.42,3.15,3.64,1.58.26,2.85-1.15,3.81-4.21a31.93,31.93,0,0,0,1.27-9.57,25.6,25.6,0,0,0-.66-6.31C850.32,359,849.66,358,848.82,357.8Z"/><path class="cls-3" d="M884.52,356.36q0-.42.05,7.25,0,21.66-7,22.34a8.31,8.31,0,0,1-3-.38l-3.4-1c-1-.2-1.93-.42-2.91-.67a5,5,0,0,1-2.29-1.15q-1.8-1.71-2.89-7.45a65.58,65.58,0,0,1-1-11.7,54.24,54.24,0,0,1,.62-8.69,1.71,1.71,0,0,1,1.27-1.52,10.92,10.92,0,0,1,3.34.53,9.16,9.16,0,0,1,3.35,1.18.81.81,0,0,1,.22.6,3.28,3.28,0,0,1-.44,1.35,2.7,2.7,0,0,0-.39,1.35,21.28,21.28,0,0,0-.22,4.18,94.71,94.71,0,0,0,.7,12.11q.87,7,2.54,6.84c1.4-.13,2.45-2.34,3.15-6.65a72.59,72.59,0,0,0,.83-11.73,30.06,30.06,0,0,0-.3-5.59,2.35,2.35,0,0,0-.18-1.25,7,7,0,0,1-.39-.91,1.64,1.64,0,0,1,1-1.94,1.81,1.81,0,0,1,.74-.11,16.88,16.88,0,0,1,3.68.57,8.27,8.27,0,0,1,2.76.95C884.61,355.06,884.64,355.55,884.52,356.36Z"/><path class="cls-3" d="M894.72,354c.11.23,0,.52-.37.86s-.55.54-.55.59-.12.64-.61,1.48-.83,1.42-.83,1.44c-.09.84-.33,1.33-.7,1.48a1.41,1.41,0,0,1-.44.08,3,3,0,0,1-1-.23l-1.1-.34-1.71-.38a1.94,1.94,0,0,1-1.18-.65q-.09-.18,1.14-1.71c1-1.24,1.59-2,1.71-2.12a6.61,6.61,0,0,0,.35-1.14c.17-.54.35-.81.52-.84a6.62,6.62,0,0,1,2.65.34C893.82,353.23,894.51,353.61,894.72,354Z"/><path class="cls-3" d="M921.19,380c.27.43-.25,1.49-1.55,3.17s-2.39,2.52-3.26,2.49a2.63,2.63,0,0,1-2.23-1.29,5.07,5.07,0,0,0-.66-1.1l-9.23-7.48v7a2.27,2.27,0,0,0,.37,1.07,2.19,2.19,0,0,1,.37.95c0,.76-.57,1.18-1.7,1.25a14.41,14.41,0,0,1-3.9-.42c-1.87-.35-2.8-.73-2.8-1.14a1.88,1.88,0,0,1,.11-.51,2.66,2.66,0,0,0,.11-.82V356.66a.85.85,0,0,0-.13-.47.67.67,0,0,1-.13-.33c0-.68.61-1.08,1.75-1.21a8.76,8.76,0,0,1,2.38.36,10.92,10.92,0,0,0,2.65.4,11.63,11.63,0,0,0,3-1.05,10.25,10.25,0,0,1,4-1,9.22,9.22,0,0,1,1.36.11,5.16,5.16,0,0,1,2.23,1c.67.51,1.32,1,1.93,1.52,1.6,1.32,2.43,2,2.49,2.09a3.9,3.9,0,0,1,1.23,2.54q.25,4.41-8.67,11.32,1.84,1.44,8.1,7a9.47,9.47,0,0,1,1.14.45A7.35,7.35,0,0,1,921.19,380Zm-9.67-21.23q-2.06,0-7.26,3.72v5.82q1.88-.65,4.94-3.92c2-2.17,3.07-3.8,3.07-4.86A.67.67,0,0,0,911.52,358.75Z"/><path class="cls-3" d="M943.91,380.29a3.23,3.23,0,0,1-.77,1.38,2.73,2.73,0,0,1-1.12.9.87.87,0,0,1-.48-.14,1.42,1.42,0,0,0-.57-.17.53.53,0,0,0-.17,0,19.3,19.3,0,0,0-2.72.91,26.15,26.15,0,0,0-6,3.31l-4.77-1.71c-1.81-.69-2.71-1.19-2.71-1.52V354.73c0-.18.34-.43,1-.76a3.5,3.5,0,0,1,1.51-.46,10.73,10.73,0,0,1,2.1.59,8.13,8.13,0,0,0,2.58.55,8.21,8.21,0,0,0,3.41-1c1.29-.65,2.09-.93,2.41-.83a10.84,10.84,0,0,1,3.13,2c1.38,1.13,2.14,1.93,2.25,2.41.06.23-.21.63-.81,1.18a2.46,2.46,0,0,1-1.46.84,1.51,1.51,0,0,1-.7-.12c-.15-.07-.25-.1-.31-.07a26.73,26.73,0,0,0-2.93.72,13.83,13.83,0,0,0-4.77,2.2v6.19a33.74,33.74,0,0,1,4-1.4c.47-.05,1.45.51,3,1.69s2.25,2,2.25,2.45a1.52,1.52,0,0,1-.61,1,2.93,2.93,0,0,1-1.18.72c-.3,0-.81,0-1.54.07a24.56,24.56,0,0,0-5.86,2.43v4c.87-.45,2.06-1,3.57-1.61a11.48,11.48,0,0,1,2.77-.93,9.42,9.42,0,0,1,3.09,1.65C943.17,379.28,944,380,943.91,380.29Z"/><path class="cls-3" d="M976.11,357a2.89,2.89,0,0,1-.61,1.29,2.17,2.17,0,0,1-1.49.87,1.79,1.79,0,0,1-.79-.13,2.2,2.2,0,0,0-.74-.17,15.36,15.36,0,0,0-3.76,1.1,22.45,22.45,0,0,0-4.68,2.16v7c.14-.05.83-.4,2.05-1.06a5,5,0,0,1,2-.68c.53,0,1.5.68,2.93,2.12s2.12,2.41,2.06,2.89a2.28,2.28,0,0,1-.88,1.37,2.94,2.94,0,0,1-1.22.68,1.15,1.15,0,0,1-.7-.09,1.88,1.88,0,0,0-.61-.17.54.54,0,0,0-.27.07l-2.23.84a12,12,0,0,0-3.1,1.56v5.54a1.33,1.33,0,0,0,.45.82,1.4,1.4,0,0,1,.46,1,2.51,2.51,0,0,1-2.32,2.55,21.35,21.35,0,0,1-4.15-2.17c-1.26-.88-1.88-1.65-1.88-2.31V356.89a2,2,0,0,0-.51-1.23c-.33-.42-.47-.73-.41-.93a2,2,0,0,1,.83-1.16,2.86,2.86,0,0,1,1.57-.63,7.93,7.93,0,0,1,2.41,1.08,11.7,11.7,0,0,0,2.67,1.24l4.81-1.71a9.93,9.93,0,0,1,2-.88c.73-.07,2,.49,3.68,1.69S976.17,356.44,976.11,357Z"/><path class="cls-3" d="M1000.88,383c0,.22-.09.77-.17,1.63a1.7,1.7,0,0,1-.35,1,1.9,1.9,0,0,1-.75.11,13,13,0,0,1-3.59-.65,7.11,7.11,0,0,1-3.15-1.44,5.72,5.72,0,0,1-.7-2.28,26.63,26.63,0,0,0-1.09-4.21,35.4,35.4,0,0,0-4.86,1,20.31,20.31,0,0,0-4.16,1.42c-.43,1.09-1,2.43-1.75,4-.08.36-.18.69-.28,1a1.38,1.38,0,0,1-.77.77.69.69,0,0,1-.39.08,11.68,11.68,0,0,1-3.52-.95c-1.65-.63-2.5-1.05-2.56-1.25-.12-.36.16-1.23.83-2.62.93-2,1.47-3.27,1.62-3.73a2.17,2.17,0,0,1-.92-1.59,2.12,2.12,0,0,1,0-.42c.06-.3.95-.85,2.67-1.63l5.65-16.75a5.85,5.85,0,0,0,0-1.67c-.06-.69,0-1.12.26-1.29a1.82,1.82,0,0,1,1-.19,27.16,27.16,0,0,1,5.87.91c2.54.61,4.05,1.15,4.55,1.63a100.91,100.91,0,0,0,2,12.65Q998.61,379,1000.88,383ZM989.46,371.4c-.38-1.6-.61-2.65-.7-3.15a44.27,44.27,0,0,1-.66-5.28c-.58,1.24-1.27,3-2.05,5.16a26.4,26.4,0,0,0-1.36,4.33A48,48,0,0,1,989.46,371.4Z"/><path class="cls-3" d="M1022.67,379.34a5.75,5.75,0,0,1-2.14,4.61,9.28,9.28,0,0,1-5.95,1.88,9.15,9.15,0,0,1-2.06-.26c-1.34-.33-2-.5-2.1-.5-.7-.12-1.41-.26-2.12-.4a4.08,4.08,0,0,1-1.86-.85,6.44,6.44,0,0,1-1.93-3,13.86,13.86,0,0,0-1.4-3,5.3,5.3,0,0,1-.83-1.07,1.37,1.37,0,0,1,.24-1.12,1.67,1.67,0,0,1,.9-.7,3.94,3.94,0,0,1,1-.08,26,26,0,0,1,3.74.33,6.92,6.92,0,0,1,2.48.59,9.47,9.47,0,0,1,.7,2.73c.26,1.52.65,2.37,1.18,2.55a1,1,0,0,0,.39.07c.56,0,1-.4,1.42-1.2a5.93,5.93,0,0,0,.59-2.71c0-2.2-.78-3.67-2.36-4.41a28,28,0,0,1-7.61-4.71,7.2,7.2,0,0,1-2.28-5.92,11.11,11.11,0,0,1,2.39-5.76,8,8,0,0,1,4.57-3.4q1-.18,6.13,1.68c.84.27,1.69.57,2.56.87a4.88,4.88,0,0,1,2.07,1.33q1.23,1.33,1.23,4.59c0,.41,0,1,0,1.79s0,1.16,0,1.44a4.27,4.27,0,0,0,.31.88,1.47,1.47,0,0,1,.17.83,1.72,1.72,0,0,1-1.62,1.86,9.45,9.45,0,0,1-3.23-.57,7.18,7.18,0,0,1-3.33-1.55,1.75,1.75,0,0,1-.09-.76c0-.38,0-1.24.16-2.59s.15-2.31.15-2.92c0-1.09-.15-1.62-.44-1.6a2.84,2.84,0,0,0-2.25,1.69,7.42,7.42,0,0,0-.9,3.67q0,3.42,2.32,4.86l5.25,2.89a10.12,10.12,0,0,1,3.46,2.81A9,9,0,0,1,1022.67,379.34Z"/><path class="cls-3" d="M1046.79,359.78a2.7,2.7,0,0,1-1-.25,1.89,1.89,0,0,0-1-.17l-4.51,1.06v20a5.56,5.56,0,0,0,.61,2.39,2.5,2.5,0,0,1-.09,1.45,2.08,2.08,0,0,1-.83,1.48,1.6,1.6,0,0,1-.43,0,22.93,22.93,0,0,1-4-.5c-1.93-.38-3.06-.74-3.41-1.1s-.4-1.06,0-1.82a3.48,3.48,0,0,0,.57-1.44V362.09l-3.11.69a2.52,2.52,0,0,0-.72.32,1.25,1.25,0,0,1-.85.21c-.68-.15-1.59-.91-2.76-2.26s-1.68-2.27-1.53-2.75.92-1,2-1.33a3.18,3.18,0,0,1,1.14,0,4,4,0,0,0,1.1,0l15.23-3.38a12.39,12.39,0,0,0,1.26-.46,2.72,2.72,0,0,1,1.27-.19,2.17,2.17,0,0,1,1.67.84,6.54,6.54,0,0,1,.65,1.71,9.4,9.4,0,0,1,.44,2.58,2.68,2.68,0,0,1-.24,1.27C1048.18,359.59,1047.66,359.75,1046.79,359.78Z"/><path class="cls-3" d="M1058.69,373.57c-.06.93-.34,1.45-.83,1.55a2.25,2.25,0,0,1-.44,0,8.2,8.2,0,0,1-3.2-.87,10.94,10.94,0,0,1-3.15-2.09q-.52-.49,0-1.83c.35-.88.53-1.34.53-1.36V354.65c0-.66.44-1.11,1.31-1.37a2.92,2.92,0,0,1,.75-.07,10.38,10.38,0,0,1,2.8.45,4.05,4.05,0,0,1,2,1,11.66,11.66,0,0,1,.08,2.05v15.5a3.56,3.56,0,0,0,.09.66A3.69,3.69,0,0,1,1058.69,373.57Zm0,5.5a5.81,5.81,0,0,1,0,1.86q-.18,2-.18,2.43a12.83,12.83,0,0,1-.17,2.36,1.21,1.21,0,0,1-1.1,1,9.3,9.3,0,0,1-3-.76,8.07,8.07,0,0,1-3.15-1.64c-.2-.27-.13-.73.22-1.36a3,3,0,0,0,.31-1.41,26.7,26.7,0,0,1,0-3.19c.11-.91.55-1.35,1.31-1.33a13.55,13.55,0,0,1,3.42.86C1057.78,378.4,1058.57,378.79,1058.69,379.07Z"/><path class="cls-3" d="M1091.29,380.06a2.9,2.9,0,0,1-1.66,2.16,2.16,2.16,0,0,1-.94,0,1.73,1.73,0,0,0-.86,0l-6.47,2.36a1.43,1.43,0,0,0-.64.64c-.22.36-.43.56-.63.61-.64.2-2,0-4.07-.57s-3.33-1.13-3.77-1.63a2.49,2.49,0,0,1-.3-1.9,7,7,0,0,0,.09-.95V355.33a1.28,1.28,0,0,0-.36-.64.75.75,0,0,1-.26-.46c.06-.48.57-.83,1.53-1.06a11.66,11.66,0,0,1,4,.57c2.3.58,3.47,1.26,3.5,2.05a1.79,1.79,0,0,1-.48.91,1.79,1.79,0,0,0-.49.91v21l4.56-1.71a5.59,5.59,0,0,1,1.48-.69c.41-.05,1.51.49,3.28,1.62S1091.41,379.71,1091.29,380.06Z"/><path class="cls-3" d="M1112.29,380.29a3.1,3.1,0,0,1-.76,1.38,2.73,2.73,0,0,1-1.12.9.85.85,0,0,1-.48-.14,1.42,1.42,0,0,0-.57-.17.53.53,0,0,0-.17,0,19.3,19.3,0,0,0-2.72.91,26.15,26.15,0,0,0-6,3.31l-4.77-1.71c-1.81-.69-2.71-1.19-2.71-1.52V354.73c0-.18.34-.43,1-.76a3.5,3.5,0,0,1,1.51-.46,10.73,10.73,0,0,1,2.1.59,8.13,8.13,0,0,0,2.58.55,8.21,8.21,0,0,0,3.41-1c1.29-.65,2.09-.93,2.41-.83a10.84,10.84,0,0,1,3.13,2c1.38,1.13,2.14,1.93,2.25,2.41.06.23-.21.63-.81,1.18a2.46,2.46,0,0,1-1.46.84,1.51,1.51,0,0,1-.7-.12c-.15-.07-.25-.1-.31-.07a26.73,26.73,0,0,0-2.93.72,13.83,13.83,0,0,0-4.77,2.2v6.19a33.74,33.74,0,0,1,4-1.4c.47-.05,1.45.51,3,1.69s2.26,2,2.26,2.45a1.57,1.57,0,0,1-.61,1,2.9,2.9,0,0,1-1.19.72c-.29,0-.8,0-1.53.07a24.56,24.56,0,0,0-5.86,2.43v4c.87-.45,2.06-1,3.57-1.61a11.48,11.48,0,0,1,2.77-.93,9.42,9.42,0,0,1,3.09,1.65C1111.56,379.28,1112.35,380,1112.29,380.29Z"/><path class="cls-3" d="M1135.62,359.78a2.61,2.61,0,0,1-1-.25,1.92,1.92,0,0,0-1-.17l-4.51,1.06v20a5.71,5.71,0,0,0,.61,2.39,2.56,2.56,0,0,1-.08,1.45,2.15,2.15,0,0,1-.83,1.48,1.7,1.7,0,0,1-.44,0,23,23,0,0,1-4-.5c-1.92-.38-3.06-.74-3.41-1.1s-.39-1.06,0-1.82a3.48,3.48,0,0,0,.57-1.44V362.09l-3.11.69a2.65,2.65,0,0,0-.72.32,1.24,1.24,0,0,1-.85.21,6.66,6.66,0,0,1-2.76-2.26c-1.17-1.35-1.68-2.27-1.53-2.75s.92-1,2.06-1.33a3.12,3.12,0,0,1,1.13,0,4,4,0,0,0,1.1,0l15.23-3.38a12.14,12.14,0,0,0,1.27-.46,2.7,2.7,0,0,1,1.27-.19,2.15,2.15,0,0,1,1.66.84,6.84,6.84,0,0,1,.66,1.71,9.35,9.35,0,0,1,.43,2.58,2.68,2.68,0,0,1-.24,1.27C1137,359.59,1136.49,359.75,1135.62,359.78Z"/><path class="cls-3" d="M1158.77,379.34a5.76,5.76,0,0,1-2.15,4.61,9.28,9.28,0,0,1-5.95,1.88,9,9,0,0,1-2.05-.26c-1.35-.33-2-.5-2.11-.5-.7-.12-1.4-.26-2.12-.4a4.18,4.18,0,0,1-1.86-.85,6.35,6.35,0,0,1-1.92-3,14.38,14.38,0,0,0-1.4-3,5.27,5.27,0,0,1-.84-1.07,1.41,1.41,0,0,1,.25-1.12,1.62,1.62,0,0,1,.89-.7,4.09,4.09,0,0,1,1-.08,26.09,26.09,0,0,1,3.74.33,6.91,6.91,0,0,1,2.47.59,8.78,8.78,0,0,1,.7,2.73c.26,1.52.66,2.37,1.18,2.55a1,1,0,0,0,.4.07c.55,0,1-.4,1.42-1.2a6.07,6.07,0,0,0,.59-2.71q0-3.3-2.36-4.41a28.12,28.12,0,0,1-7.62-4.71,7.19,7.19,0,0,1-2.27-5.92,11.09,11.09,0,0,1,2.38-5.76,8,8,0,0,1,4.57-3.4c.67-.12,2.72.44,6.13,1.68.85.27,1.7.57,2.56.87a5,5,0,0,1,2.08,1.33c.81.89,1.22,2.42,1.22,4.59,0,.41,0,1,0,1.79s0,1.16,0,1.44a4.73,4.73,0,0,0,.3.88,1.4,1.4,0,0,1,.18.83,1.73,1.73,0,0,1-1.62,1.86,9.49,9.49,0,0,1-3.24-.57,7.18,7.18,0,0,1-3.33-1.55,2,2,0,0,1-.08-.76c0-.38,0-1.24.15-2.59s.15-2.31.15-2.92c0-1.09-.14-1.62-.43-1.6a2.83,2.83,0,0,0-2.26,1.69,7.42,7.42,0,0,0-.9,3.67c0,2.28.78,3.9,2.32,4.86l5.26,2.89a10.07,10.07,0,0,1,3.45,2.81A9,9,0,0,1,1158.77,379.34Z"/><path class="cls-3" d="M1188.87,355.75a6.77,6.77,0,0,1,4.21,6.65c0,2.28-1,5.16-3.11,8.66-2.31,3.9-4.65,5.85-7,5.85a2.85,2.85,0,0,1-1.55-.59l-1.68-1.16v6.46a3.74,3.74,0,0,0,.21,1.14c.21.6.34,1,.4,1.25a2.2,2.2,0,0,1-.33,1.23,1.47,1.47,0,0,1-1.2,1,10,10,0,0,1-3.42-.95,8.77,8.77,0,0,1-3.41-1.9,1.68,1.68,0,0,1,0-1.59,3.91,3.91,0,0,0,.31-1.25V357a2.47,2.47,0,0,0-.31-.83,1.74,1.74,0,0,1-.26-.88c.17-1.21.7-1.82,1.57-1.82a13.74,13.74,0,0,1,1.77.44,11.17,11.17,0,0,0,2.48.47,10.4,10.4,0,0,0,3.34-.61,11.24,11.24,0,0,1,3-.64,5.35,5.35,0,0,1,1,.11,5.1,5.1,0,0,1,2.1,1.14A10.33,10.33,0,0,0,1188.87,355.75Zm-3.63,2.93a6.56,6.56,0,0,0-2.8.95,9,9,0,0,0-2.75,2.08v9.16q2.36-.64,4.46-4.67a13.93,13.93,0,0,0,1.92-6.19C1186.07,359.12,1185.8,358.68,1185.24,358.68Z"/><path class="cls-3" d="M1215.57,380.06a2.9,2.9,0,0,1-1.66,2.16,2.2,2.2,0,0,1-1,0,1.7,1.7,0,0,0-.85,0l-6.48,2.36a1.47,1.47,0,0,0-.63.64c-.22.36-.43.56-.63.61-.65.2-2,0-4.07-.57s-3.33-1.13-3.77-1.63a2.49,2.49,0,0,1-.3-1.9,8.55,8.55,0,0,0,.08-.95V355.33a1.26,1.26,0,0,0-.35-.64.75.75,0,0,1-.26-.46c.06-.48.57-.83,1.53-1.06a11.61,11.61,0,0,1,4,.57c2.31.58,3.48,1.26,3.5,2.05a1.79,1.79,0,0,1-.48.91,1.83,1.83,0,0,0-.48.91v21l4.55-1.71a5.86,5.86,0,0,1,1.49-.69c.41-.05,1.5.49,3.28,1.62S1215.68,379.71,1215.57,380.06Z"/><path class="cls-3" d="M1244.19,383c0,.22-.09.77-.18,1.63a1.64,1.64,0,0,1-.35,1,1.81,1.81,0,0,1-.74.11,12.92,12.92,0,0,1-3.59-.65,7,7,0,0,1-3.15-1.44,5.55,5.55,0,0,1-.7-2.28,26.52,26.52,0,0,0-1.1-4.21,35.64,35.64,0,0,0-4.85,1,20.08,20.08,0,0,0-4.16,1.42c-.44,1.09-1,2.43-1.75,4-.09.36-.18.69-.29,1a1.35,1.35,0,0,1-.76.77.71.71,0,0,1-.39.08,11.79,11.79,0,0,1-3.53-.95c-1.65-.63-2.5-1.05-2.56-1.25-.11-.36.16-1.23.83-2.62.94-2,1.48-3.27,1.62-3.73a2.2,2.2,0,0,1-.92-1.59,2.18,2.18,0,0,1,.05-.42c.06-.3.95-.85,2.67-1.63l5.64-16.75a5.74,5.74,0,0,0,0-1.67c-.06-.69,0-1.12.26-1.29a1.8,1.8,0,0,1,1-.19,27.09,27.09,0,0,1,5.86.91q3.81.92,4.55,1.63a104.85,104.85,0,0,0,2,12.65Q1241.91,379,1244.19,383Zm-11.42-11.55c-.38-1.6-.62-2.65-.7-3.15a42.31,42.31,0,0,1-.66-5.28q-.87,1.86-2.06,5.16a25.92,25.92,0,0,0-1.35,4.33A48,48,0,0,1,1232.77,371.4Z"/><path class="cls-3" d="M1269.61,356.47c.18,1.32-.17,2.16-1,2.51a6.44,6.44,0,0,0-.7.3,81.89,81.89,0,0,0-6.69,11.89q-3.9,8.06-4.07,9.69a2.85,2.85,0,0,0,.17,1.06,3.49,3.49,0,0,1,.18,1.25c-.18,1.73-.67,2.65-1.49,2.78a11.64,11.64,0,0,1-3-.57,17.12,17.12,0,0,1-3.26-1.1c-1-.61-1.49-1.22-1.49-1.83a2.15,2.15,0,0,1,.31-1q.6-1.49,2.58-6.08-3.63-6.5-4.9-9a60.2,60.2,0,0,1-3.59-8.09,2.33,2.33,0,0,0-.5-.57,1,1,0,0,1-.42-.69q0-.57,1.71-1.71,3.63-2.43,5-2.28a1.93,1.93,0,0,1,1.27.8,2.39,2.39,0,0,1,.57,1,15.6,15.6,0,0,0,.27,2.31,35.46,35.46,0,0,0,4.2,10.22q2.44-5.21,2.75-5.73a42.36,42.36,0,0,1,3.77-6,10.55,10.55,0,0,1,.61-1.56,2.77,2.77,0,0,1,2.36-.72,9.81,9.81,0,0,1,3.22,1.33C1268.8,355.5,1269.55,356.09,1269.61,356.47Z"/><path class="cls-3" d="M660.17,428.52c0,.23-.09.78-.18,1.64a1.67,1.67,0,0,1-.35,1,1.65,1.65,0,0,1-.74.12,12.92,12.92,0,0,1-3.59-.65,7,7,0,0,1-3.15-1.44,5.39,5.39,0,0,1-.7-2.28,27,27,0,0,0-1.1-4.22,37,37,0,0,0-4.85,1.05,20.08,20.08,0,0,0-4.16,1.42c-.44,1.09-1,2.43-1.75,4-.09.35-.18.69-.29,1a1.34,1.34,0,0,1-.76.78.83.83,0,0,1-.4.08,11.75,11.75,0,0,1-3.52-.95c-1.65-.63-2.5-1.05-2.56-1.25-.12-.36.16-1.23.83-2.62.94-2,1.48-3.27,1.62-3.73a2.2,2.2,0,0,1-.92-1.59,2.18,2.18,0,0,1,0-.42c.05-.3.94-.85,2.67-1.63L642,402.13a5.49,5.49,0,0,0,0-1.67c0-.69,0-1.12.27-1.3a1.86,1.86,0,0,1,1.05-.19,27.24,27.24,0,0,1,5.86.92c2.54.6,4.06,1.15,4.55,1.63a102.84,102.84,0,0,0,2,12.65Q657.89,424.58,660.17,428.52ZM648.74,417c-.38-1.6-.61-2.65-.7-3.15a42.32,42.32,0,0,1-.65-5.28c-.59,1.24-1.27,3-2.06,5.16A26.4,26.4,0,0,0,644,418C644.53,417.84,646.12,417.49,648.74,417Z"/><path class="cls-3" d="M686.25,417.13a2,2,0,0,1-1.54,1.94,1.09,1.09,0,0,1-.61-.14,1.42,1.42,0,0,0-.57-.17,1.62,1.62,0,0,0-.57.12,57.05,57.05,0,0,1-2.66,7.59,8.83,8.83,0,0,1-4.56,4.71,3.84,3.84,0,0,1-1.53.31,18.91,18.91,0,0,1-3.89-1c-.79-.18-2-.54-3.72-1.1s-3-2.34-3.94-4.9a24.3,24.3,0,0,1-1.27-8.32,29.24,29.24,0,0,1,2-11.17q2.19-5.36,5.78-6a7,7,0,0,1,.7,0,15.39,15.39,0,0,1,5.34,1.22,10.34,10.34,0,0,1,4.55,2.85,7,7,0,0,1,1.27,3.19,23.43,23.43,0,0,0,.48,2.39c.09.43.2.95.35,1.56a1.8,1.8,0,0,1-.44,1.16,2.07,2.07,0,0,1-.92.81,9.29,9.29,0,0,1-3.41-.55,13.48,13.48,0,0,1-3.41-1.16,1.65,1.65,0,0,1-.66-1.78.79.79,0,0,1,.22-.47.9.9,0,0,0,.22-.52c0-1.8-.23-2.69-.7-2.69q-1.49,0-2.63,4.33a36,36,0,0,0-1,9c0,4.81.78,7.57,2.32,8.28.47.2,1.1-.49,1.91-2.09a13.29,13.29,0,0,0,1.42-4.48,14.76,14.76,0,0,0-2.67-1.18q-1.58-.57-1.71-1a2.17,2.17,0,0,1,.44-1.61,3.12,3.12,0,0,1,1.29-1.35,5.13,5.13,0,0,1,1.9-.34,14.49,14.49,0,0,0,2-.08,17.82,17.82,0,0,0,2.4-.64,7,7,0,0,1,2.06-.46,2.33,2.33,0,0,1,.48,0,9.43,9.43,0,0,1,3.22,1.71C685.58,416.09,686.28,416.78,686.25,417.13Z"/><path class="cls-3" d="M713.16,428.52c0,.23-.09.78-.18,1.64a.89.89,0,0,1-1.09,1.14,13,13,0,0,1-3.59-.65,7.05,7.05,0,0,1-3.15-1.44,5.55,5.55,0,0,1-.7-2.28,27.08,27.08,0,0,0-1.09-4.22,37.39,37.39,0,0,0-4.86,1.05,20.08,20.08,0,0,0-4.16,1.42c-.43,1.09-1,2.43-1.75,4-.09.35-.18.69-.28,1a1.39,1.39,0,0,1-.77.78.81.81,0,0,1-.39.08,11.79,11.79,0,0,1-3.53-.95c-1.64-.63-2.5-1.05-2.55-1.25-.12-.36.16-1.23.83-2.62.93-2,1.47-3.27,1.62-3.73a2.17,2.17,0,0,1-.92-1.59,2.12,2.12,0,0,1,0-.42c.06-.3,1-.85,2.67-1.63L695,402.13a5.4,5.4,0,0,0,0-1.67c-.06-.69,0-1.12.26-1.3a1.91,1.91,0,0,1,1-.19,27.31,27.31,0,0,1,5.87.92c2.53.6,4.05,1.15,4.55,1.63a100.91,100.91,0,0,0,2,12.65Q710.88,424.58,713.16,428.52ZM701.74,417c-.38-1.6-.61-2.65-.7-3.15a44.27,44.27,0,0,1-.66-5.28c-.58,1.24-1.27,3-2,5.16A26.4,26.4,0,0,0,697,418,48,48,0,0,1,701.74,417Z"/><path class="cls-3" d="M725.37,400.8a2,2,0,0,1-.2.72l-.24.57a14.62,14.62,0,0,0-.52,2.35v23.33a1.31,1.31,0,0,0,.26.81,1.15,1.15,0,0,1,.26.59c0,1.62-.35,2.49-1,2.62a14.92,14.92,0,0,1-3.06-.49,12.35,12.35,0,0,1-3.24-.95c-.64-.48-1-.93-1-1.33a.5.5,0,0,1,.17-.34A1,1,0,0,0,717,428V401.25a.91.91,0,0,0-.16-.47.93.93,0,0,1-.15-.48c.06-.6.6-1,1.62-1.21a12.57,12.57,0,0,1,2,0,17.21,17.21,0,0,1,3.15.42C724.73,399.81,725.37,400.24,725.37,400.8Z"/><path class="cls-3" d="M753.9,400.8a1.87,1.87,0,0,1-.18.8,5.86,5.86,0,0,0-.39,1v25.07c0-.08.07.39.22,1.4.17,1.17,0,1.93-.53,2.28s-1.7.46-3.54.31a18.08,18.08,0,0,1-3.63-.72c-1.78-.49-2.76-1-2.94-1.52a7.33,7.33,0,0,0-.13-1.64q-2.44-5.61-5.69-12.34V426.7a1.74,1.74,0,0,0,.31.8,7.46,7.46,0,0,1,.39.68,3.08,3.08,0,0,1,.22,1.14,1.37,1.37,0,0,1-1.57,1.52,17.67,17.67,0,0,1-4.33-.76,8.55,8.55,0,0,1-3-1.18,1.26,1.26,0,0,1,0-1.55,4.18,4.18,0,0,0,.53-1.18V402.36a2.75,2.75,0,0,0-.14-.69,1.3,1.3,0,0,1,0-.72,2.69,2.69,0,0,1,1.71-1.75,3.77,3.77,0,0,1,1-.07,16.44,16.44,0,0,1,3.5.38,6.8,6.8,0,0,1,3.24,1.29c.81.76,1.88,3.07,3.19,6.95a72.52,72.52,0,0,0,3.77,9.65V402.47a3,3,0,0,0-.18-.86,2.85,2.85,0,0,1-.17-.85,1.16,1.16,0,0,1,.08-.42c.15-.43.7-.74,1.67-.95a7.47,7.47,0,0,1,2.18-.19,14.76,14.76,0,0,1,2.41.42C753.18,400,753.87,400.37,753.9,400.8Z"/><path class="cls-3" d="M780.22,705a4,4,0,0,1-.36,1.66,10.93,10.93,0,0,0-.82,2.14V761c0-.16.15.82.45,2.93.37,2.43,0,4-1.09,4.75s-3.56.95-7.39.63a36.79,36.79,0,0,1-7.56-1.5q-5.57-1.5-6.11-3.17a15.92,15.92,0,0,0-.27-3.4q-5.12-11.71-11.86-25.72V759a3.53,3.53,0,0,0,.64,1.66,12.6,12.6,0,0,1,.82,1.42,6.44,6.44,0,0,1,.46,2.37q0,3.16-3.28,3.17a37.53,37.53,0,0,1-9-1.58c-3.65-1.06-5.71-1.87-6.2-2.46q-1.1-1.26,0-3.24a8.48,8.48,0,0,0,1.1-2.45V708.26a5.91,5.91,0,0,0-.28-1.42,2.66,2.66,0,0,1-.09-1.5,5.55,5.55,0,0,1,3.56-3.64,7.45,7.45,0,0,1,2-.16,35.12,35.12,0,0,1,7.3.79q4.83.95,6.74,2.69,2.55,2.37,6.66,14.48,5,14.88,7.84,20.1V708.5a6.22,6.22,0,0,0-.37-1.78,6.42,6.42,0,0,1-.36-1.78,2.05,2.05,0,0,1,.18-.87c.3-.9,1.46-1.56,3.47-2a14.93,14.93,0,0,1,4.55-.39,30.65,30.65,0,0,1,5,.87C778.73,703.31,780.16,704.12,780.22,705Z"/><path class="cls-3" d="M829.09,757.24a6.66,6.66,0,0,1-1.6,2.89,5.73,5.73,0,0,1-2.32,1.86,1.73,1.73,0,0,1-1-.27,2.84,2.84,0,0,0-1.18-.36.94.94,0,0,0-.36.08,39.22,39.22,0,0,0-5.66,1.9,54.79,54.79,0,0,0-12.4,6.88c-6.07-2.16-9.39-3.35-9.93-3.56-3.77-1.42-5.66-2.48-5.66-3.16V704c0-.37.72-.9,2.15-1.58a7.07,7.07,0,0,1,3.14-.95,21.57,21.57,0,0,1,4.38,1.23,17.22,17.22,0,0,0,5.38,1.14,17.4,17.4,0,0,0,7.11-2.13q4-2.07,5-1.74,2.19.63,6.52,4.15c2.89,2.35,4.45,4,4.7,5,.12.48-.45,1.3-1.69,2.46s-2.27,1.74-3,1.74a3.29,3.29,0,0,1-1.46-.24c-.31-.16-.52-.21-.64-.16a60,60,0,0,0-6.11,1.51c-4.5,1.32-7.81,2.84-9.94,4.59v12.89a67.66,67.66,0,0,1,8.3-2.92q1.46-.16,6.15,3.52t4.7,5.1a3.21,3.21,0,0,1-1.28,2.06,6,6,0,0,1-2.46,1.5c-.61,0-1.67.06-3.19.16q-3.47.55-12.22,5.06v8.31c1.83-1,4.3-2.07,7.43-3.36s5.06-1.94,5.79-1.94,3,1.15,6.43,3.44S829.21,756.61,829.09,757.24Z"/><path class="cls-3" d="M892.54,706.68c.24,1.11-.64,2.74-2.64,4.91a6.24,6.24,0,0,1-2,1.3,5.4,5.4,0,0,0-2,1.39l-14.67,18.51L886,755.11a5.33,5.33,0,0,0,1.68,1.34,4,4,0,0,1,1.6,1.43,6.92,6.92,0,0,1,1,2.85,2.19,2.19,0,0,1-.55,1.5c-.67.84-2.47,2.11-5.42,3.8s-4.91,2.58-5.88,2.69a4.81,4.81,0,0,1-2.19-.56,3.79,3.79,0,0,1-2.28-1.74,18.47,18.47,0,0,0-1.37-5l-10.12-14.88L852.06,762a3.79,3.79,0,0,0-.55,1.9,6.18,6.18,0,0,1-.36,1.9,12.9,12.9,0,0,1-1.28,2.22,3.44,3.44,0,0,1-2.18,1.26c-1.46.27-4.06-.33-7.8-1.78s-6.06-2.78-7-4a2.16,2.16,0,0,1-.46-1.27q0-1.26,2.46-3.56a19.52,19.52,0,0,0,2.92-2.61l15.77-23.19-14.13-20.49a8.25,8.25,0,0,0-2-1.66c-1-.69-1.55-1.27-1.55-1.74q-.09-1.28,4.65-4.71t7.12-3.76a3.33,3.33,0,0,1,3.28,1,19.72,19.72,0,0,0,1.18,2.69L862.45,720l12-15.2a8.1,8.1,0,0,1,1-2.69q1-1.19,4.47-1.5c1.09-.11,3.4.65,6.93,2.25S892.3,705.73,892.54,706.68Z"/><path class="cls-3" d="M943.23,714.52a5.91,5.91,0,0,1-2-.52,4,4,0,0,0-2.1-.36l-9.38,2.22v41.62a11.76,11.76,0,0,0,1.27,5,5.33,5.33,0,0,1-.18,3c-.37,1.64-.94,2.67-1.73,3.09a3.2,3.2,0,0,1-.91.08,47.33,47.33,0,0,1-8.39-1c-4-.79-6.38-1.56-7.11-2.29-.86-1-.82-2.22.09-3.8a7.2,7.2,0,0,0,1.18-3V719.34l-6.47,1.43a5.35,5.35,0,0,0-1.5.67,2.61,2.61,0,0,1-1.78.43q-2.1-.47-5.75-4.7t-3.19-5.74c.49-1.21,1.92-2.14,4.29-2.77a6.85,6.85,0,0,1,2.37-.08,7.77,7.77,0,0,0,2.28,0l31.72-7a21.17,21.17,0,0,0,2.65-.95,5.49,5.49,0,0,1,2.64-.4,4.52,4.52,0,0,1,3.47,1.74,13.84,13.84,0,0,1,1.36,3.56,19.41,19.41,0,0,1,.92,5.39,5.53,5.53,0,0,1-.51,2.65C946.13,714.13,945.05,714.46,943.23,714.52Z"/><path class="cls-3" d="M1013.15,756.77q-1.1,3.72-3.46,4.51a4.52,4.52,0,0,1-2,.08,3.58,3.58,0,0,0-1.78.08l-13.49,4.9a3,3,0,0,0-1.32,1.35,2.59,2.59,0,0,1-1.33,1.27q-2,.63-8.48-1.19t-7.84-3.4a5.22,5.22,0,0,1-.63-4,14.88,14.88,0,0,0,.18-2V705.26a2.79,2.79,0,0,0-.73-1.35,1.49,1.49,0,0,1-.55-.95c.12-1,1.19-1.74,3.19-2.21,1.28-.27,4,.13,8.3,1.18,4.8,1.22,7.23,2.64,7.29,4.28a3.77,3.77,0,0,1-1,1.9,3.71,3.71,0,0,0-1,1.89v43.76L998,750.2a12.28,12.28,0,0,1,3.1-1.42q1.27-.16,6.84,3.36T1013.15,756.77Z"/><path class="cls-3" d="M1056.91,757.24a6.62,6.62,0,0,1-1.59,2.89A5.74,5.74,0,0,1,1053,762a1.71,1.71,0,0,1-1-.27,2.88,2.88,0,0,0-1.18-.36,1,1,0,0,0-.37.08,39.1,39.1,0,0,0-5.65,1.9,54.79,54.79,0,0,0-12.4,6.88q-9.12-3.24-9.94-3.56c-3.77-1.42-5.65-2.48-5.65-3.16V704c0-.37.71-.9,2.14-1.58a7.14,7.14,0,0,1,3.15-.95,21.37,21.37,0,0,1,4.37,1.23,13.07,13.07,0,0,0,12.49-1q4-2.07,5-1.74,2.19.63,6.52,4.15c2.88,2.35,4.45,4,4.69,5,.12.48-.44,1.3-1.69,2.46s-2.26,1.74-3,1.74a3.32,3.32,0,0,1-1.46-.24c-.3-.16-.52-.21-.64-.16a60.45,60.45,0,0,0-6.1,1.51c-4.5,1.32-7.82,2.84-9.94,4.59v12.89a67.44,67.44,0,0,1,8.29-2.92q1.47-.16,6.16,3.52t4.69,5.1a3.19,3.19,0,0,1-1.27,2.06,6.07,6.07,0,0,1-2.46,1.5c-.61,0-1.68.06-3.2.16q-3.46.55-12.21,5.06v8.31q2.73-1.43,7.43-3.36t5.79-1.94q1.27,0,6.43,3.44T1056.91,757.24Z"/><path class="cls-3" d="M1113.25,706.6q-4.74,10.53-10.75,32-5.48,19.39-5.38,22a26.5,26.5,0,0,0,.18,3.64,5.59,5.59,0,0,1-.64,3.32,3.37,3.37,0,0,1-2.46,2.14q-2.64.47-10.62-1.74t-9.16-3.88a4,4,0,0,1-.64-2.06,10,10,0,0,0-.27-2.13q-10.4-28.58-12.49-51.2a6.83,6.83,0,0,0-.46-1.66,4.23,4.23,0,0,1-.18-1.66,3.79,3.79,0,0,1,2.64-3.41q1.1-.31,7.66,1.51,6.93,1.89,7.66,3.24a7.24,7.24,0,0,1,0,3.32,5,5,0,0,1-.64,1.39,2.43,2.43,0,0,0-.46,1.54q1.38,8.31,2.56,14.64,2.91,15.2,4.55,18a169,169,0,0,1,5.48-18.83,158.36,158.36,0,0,0,5.46-19.15,19.55,19.55,0,0,1,.83-4,4.69,4.69,0,0,1,3-2.46c1-.26,3.25.19,6.84,1.35Q1111.79,704.47,1113.25,706.6Z"/><path class="cls-3" d="M1160.48,757.24a6.66,6.66,0,0,1-1.6,2.89,5.73,5.73,0,0,1-2.32,1.86,1.69,1.69,0,0,1-1-.27,2.92,2.92,0,0,0-1.19-.36.94.94,0,0,0-.36.08,39.22,39.22,0,0,0-5.66,1.9,55,55,0,0,0-12.4,6.88c-6.07-2.16-9.39-3.35-9.93-3.56-3.77-1.42-5.65-2.48-5.65-3.16V704c0-.37.71-.9,2.14-1.58a7.07,7.07,0,0,1,3.14-.95,21.57,21.57,0,0,1,4.38,1.23,17.22,17.22,0,0,0,5.38,1.14,17.4,17.4,0,0,0,7.11-2.13q4-2.07,5-1.74,2.19.63,6.52,4.15c2.89,2.35,4.45,4,4.7,5,.12.48-.44,1.3-1.69,2.46s-2.27,1.74-3,1.74a3.29,3.29,0,0,1-1.46-.24c-.31-.16-.52-.21-.64-.16a60,60,0,0,0-6.11,1.51c-4.5,1.32-7.81,2.84-9.94,4.59v12.89a67.66,67.66,0,0,1,8.3-2.92q1.46-.16,6.15,3.52t4.7,5.1a3.21,3.21,0,0,1-1.28,2.06,6,6,0,0,1-2.46,1.5c-.61,0-1.67.06-3.19.16q-3.46.55-12.22,5.06v8.31c1.83-1,4.3-2.07,7.43-3.36s5.06-1.94,5.79-1.94,3,1.15,6.43,3.44S1160.6,756.61,1160.48,757.24Z"/><path class="cls-3" d="M1207.34,756.77q-1.1,3.72-3.47,4.51a4.49,4.49,0,0,1-2,.08,3.53,3.53,0,0,0-1.77.08l-13.5,4.9a3.13,3.13,0,0,0-1.32,1.35A2.58,2.58,0,0,1,1184,769c-1.34.42-4.16,0-8.48-1.19s-6.93-2.35-7.84-3.4a5.21,5.21,0,0,1-.64-4,15.22,15.22,0,0,0,.19-2V705.26a2.87,2.87,0,0,0-.73-1.35,1.49,1.49,0,0,1-.55-.95c.12-1,1.18-1.74,3.19-2.21,1.28-.27,4,.13,8.3,1.18,4.8,1.22,7.23,2.64,7.29,4.28a3.85,3.85,0,0,1-1,1.9,3.75,3.75,0,0,0-1,1.89v43.76l9.48-3.56a12.46,12.46,0,0,1,3.1-1.42c.86-.11,3.13,1,6.84,3.36S1207.58,756,1207.34,756.77Z"/></g><ellipse class="cls-4" cx="824.11" cy="500.25" rx="26.53" ry="31.31" transform="translate(-115.22 283.31) rotate(-18.25)"/><ellipse class="cls-4" cx="891.81" cy="449.24" rx="29.55" ry="34.91" transform="translate(-72.72 190.74) rotate(-11.73)"/><ellipse class="cls-4" cx="992.24" cy="453.88" rx="32.72" ry="29.52" transform="translate(231.5 1236.07) rotate(-70.38)"/><ellipse class="cls-4" cx="1062.09" cy="496.06" rx="37.08" ry="27.33" transform="translate(6.18 1005.14) rotate(-50.78)"/><path class="cls-4" d="M1047.62,631.45c-2.94,59.18-71.71-18.12-130.49,2.81-61,21.71-81.2,29.3-78.26-29.88s47.8-104.12,110-100.86S1050.56,572.26,1047.62,631.45Z"/></svg>
