<svg id="Layer_1" data-name="Layer 1" xmlns="http://www.w3.org/2000/svg" xmlns:xlink="http://www.w3.org/1999/xlink" width="1920" height="1080" viewBox="0 0 1920 1080"><defs><style>.cls-1{fill:#00a24e;}.cls-15,.cls-16,.cls-2{stroke-miterlimit:10;}.cls-2{stroke-width:6px;fill:url(#linear-gradient);stroke:url(#linear-gradient-2);}.cls-3{fill:none;}.cls-4{fill:#913a34;}.cls-31,.cls-4,.cls-46{opacity:0.67;}.cls-5,.cls-7{fill:#e7dbd2;}.cls-5{opacity:0.83;}.cls-6{fill:#bf5a4d;}.cls-47,.cls-8{fill:#edebd5;}.cls-9{fill:#c32b33;}.cls-10{fill:#78341f;}.cls-11{fill:#fff;}.cls-12{fill:#723c29;}.cls-13{fill:#935934;}.cls-14{fill:#cd835d;}.cls-15,.cls-18{fill:#c96;}.cls-15,.cls-16{stroke:#c96;}.cls-16{fill:#d5975d;}.cls-17{fill:#e64165;}.cls-19{fill:#010101;}.cls-20{fill:#240c0e;}.cls-21,.cls-23{fill:#143d6c;}.cls-22{fill:#132237;}.cls-23{opacity:0.7;}.cls-24{fill:#7d645e;}.cls-25{fill:#00813a;opacity:0.9;}.cls-26,.cls-27,.cls-28,.cls-29,.cls-30,.cls-31,.cls-32,.cls-33,.cls-34{fill:#a84571;}.cls-26{opacity:0.65;}.cls-28{opacity:0.79;}.cls-29{opacity:0.61;}.cls-30,.cls-45{opacity:0.72;}.cls-32{opacity:0.84;}.cls-33{opacity:0.56;}.cls-34{opacity:0.75;}.cls-35{fill:#fdd676;}.cls-36{opacity:0.11;fill:url(#radial-gradient);}.cls-37{fill:#ffcd18;}.cls-38{fill:#acbe36;}.cls-39{fill:#ac8e13;}.cls-40{fill:#faed63;}.cls-41{fill:#cad000;}.cls-42{fill:#c3d219;}.cls-43{fill:#cdd500;}.cls-44{fill:#7e8c26;}.cls-46{fill:#0c0c15;}.cls-47{opacity:0.91;}.cls-48{fill:#982d3d;opacity:0.74;}</style><linearGradient id="linear-gradient" x1="-10104.82" y1="-2043.04" x2="-8488.21" y2="-2043.04" gradientTransform="translate(3447.1 10048.33) scale(0.27 4.81)" gradientUnits="userSpaceOnUse"><stop offset="0" stop-color="#6aacde"/><stop offset="0" stop-color="#f6fafd"/><stop offset="0" stop-color="#f2f9fe"/><stop offset="0" stop-color="#626161"/><stop offset="0" stop-color="#9dd8f7"/><stop offset="0.04" stop-color="#94d5f7"/><stop offset="0.1" stop-color="#a7dcf8"/><stop offset="0.12" stop-color="#8dd3f6"/><stop offset="0.14" stop-color="#abddf9"/><stop offset="0.2" stop-color="#80cff5"/><stop offset="0.51" stop-color="#5ea5db"/><stop offset="0.77" stop-color="#9dd8f7"/><stop offset="0.93" stop-color="#a4dbf8"/><stop offset="1" stop-color="#d2ecfc"/><stop offset="1" stop-color="#8ccbf1"/><stop offset="1" stop-color="#e8f5fc" stop-opacity="0.7"/></linearGradient><linearGradient id="linear-gradient-2" x1="-10107.82" y1="-2043.04" x2="-8485.21" y2="-2043.04" gradientTransform="translate(3447.1 10048.33) scale(0.27 4.81)" gradientUnits="userSpaceOnUse"><stop offset="0" stop-color="#fff"/><stop offset="1"/></linearGradient><radialGradient id="radial-gradient" cx="-76.91" cy="572.89" r="357.71" gradientTransform="matrix(2.27, 0.21, 0.47, 0.87, 880.66, -393.21)" gradientUnits="userSpaceOnUse"><stop offset="0" stop-color="#6aacde"/><stop offset="0" stop-color="#f6fafd"/><stop offset="0" stop-color="#f2f9fe"/><stop offset="0" stop-color="#626161"/><stop offset="0" stop-color="#fded4c"/><stop offset="0" stop-color="#ffe68b"/><stop offset="0.1" stop-color="#fbc78b"/><stop offset="0.16" stop-color="#fdf3a4"/><stop offset="0.2" stop-color="#f9ea3c"/><stop offset="0.49" stop-color="#ffdb5b"/><stop offset="0.57" stop-color="#f6e826"/><stop offset="0.77" stop-color="#f6a033"/><stop offset="0.93" stop-color="#e7a800"/><stop offset="1" stop-color="#d2ecfc"/><stop offset="1" stop-color="#8ccbf1"/><stop offset="1" stop-color="#e8f5fc" stop-opacity="0.7"/></radialGradient></defs><title>completedbaggrund</title><rect class="cls-1" x="-2.7" y="429.7" width="1926.94" height="650.3"/><rect class="cls-2" x="742.55" y="-745.25" width="432.68" height="1923.18" transform="translate(742.55 1175.23) rotate(-90)"/><polyline class="cls-1" points="450.78 361.9 437.19 457.97 377.5 446.51"/><rect class="cls-3" x="1108.61" y="957.39" width="540.92" height="62.39"/><rect class="cls-3" x="391.31" y="463.62" width="1055.68" height="652.45"/><rect class="cls-3" x="1262.92" y="524.96" width="17.1"/><rect class="cls-3" x="1026.4" y="659.68" width="17.1"/><line class="cls-3" x1="562.71" y1="986.67" x2="657.29" y2="849.8"/><polyline class="cls-1" points="1421.71 360.17 1412.12 424.46 1374.11 417.42"/><polyline class="cls-1" points="1295.27 347.04 1285.67 411.33 1247.66 404.29"/><polyline class="cls-1" points="546.3 347.04 536.71 411.33 498.7 404.29"/><polyline class="cls-1" points="634.22 345.17 624.25 424.44 578.73 414.73"/><polyline class="cls-1" points="463.9 361.65 453.92 440.93 408.4 431.22"/><polyline class="cls-1" points="1358.49 352.66 1348.89 416.95 1310.89 409.91"/><polyline class="cls-1" points="1263.97 352.24 1254.37 416.53 1216.36 409.49"/><polyline class="cls-1" points="602.53 360.17 592.93 424.46 554.92 417.42"/><polyline class="cls-1" points="511.5 347.04 501.91 411.33 463.9 404.29"/><polyline class="cls-1" points="1390.32 369.14 1380.73 433.44 1342.72 426.4"/><polyline class="cls-1" points="1063.32 458.66 1053.34 537.94 1007.82 528.22"/><polyline class="cls-1" points="1193.25 360.17 1183.65 424.46 1145.64 417.42"/><polyline class="cls-1" points="658.81 360.17 649.21 424.46 611.2 417.42"/><polyline class="cls-1" points="450.71 351.7 442.71 415.87 405.92 407.97"/><polyline class="cls-1" points="1445.04 353.5 1437.44 409.31 1401.86 409.09"/><path class="cls-4" d="M1519.73,610.72c0-38.33,47-69.41,105-69.41s105,31.08,105,69.41-63.15,77.88-101.47,49.1C1579.22,623,1519.73,649.05,1519.73,610.72Z"/><path class="cls-5" d="M1524.82,595.26c0-28.21,44.74-51.08,99.94-51.08s99.94,22.87,99.94,51.08-60.1,57.32-96.57,36.14C1581.43,604.27,1524.82,623.48,1524.82,595.26Z"/><path class="cls-6" d="M1541.43,585.69c0-24.51,38.52-44.38,86-44.38s86,19.87,86,44.38-51.74,49.8-83.13,31.39C1590.16,593.51,1541.43,610.2,1541.43,585.69Z"/><ellipse class="cls-7" cx="1636.8" cy="582.36" rx="5.54" ry="35.5" transform="translate(628.15 1996.88) rotate(-74.09)"/><ellipse class="cls-7" cx="1669.77" cy="589.68" rx="21.69" ry="4.35" transform="translate(-25.89 1100.17) rotate(-36.21)"/><path class="cls-8" d="M1447.25,512.26a24.24,24.24,0,0,0-2.09-17.42c-6.71-12.45-23.19-16.58-36.81-9.24s-19.22,23.39-12.5,35.84a23.59,23.59,0,0,0,4.07,5.43c-18.75,12.42-38.74,26.44-41,27.68l-40,18a22.37,22.37,0,0,0-2.41-7c-6.42-11.91-22.2-15.87-35.23-8.84s-18.39,22.39-12,34.3a23.53,23.53,0,0,0,16.11,11.72,22.57,22.57,0,0,0,.72,19.48c6.14,11.38,21.21,15.16,33.66,8.45s17.57-21.39,11.43-32.77a21.68,21.68,0,0,0-3.24-4.46l37.15-26.24c2.52-1.37,29.57-12.53,51.57-22.49a22.61,22.61,0,0,0,1.94,5c6.39,11.85,22.08,15.79,35,8.8s18.28-22.26,11.89-34.11A23.62,23.62,0,0,0,1447.25,512.26Z"/><rect class="cls-9" x="1470.21" y="735.69" width="151.03" height="197.46" transform="translate(-209.07 755.58) rotate(-25.79)"/><path class="cls-10" d="M1530,648.06a11.34,11.34,0,0,1-6.06,1.73,11.17,11.17,0,0,1-7.05-2.44,9.87,9.87,0,0,1-17.24,3,8.9,8.9,0,0,1-16.37,2l-79.41,38.37,40.26,83.33,119-57.49Z"/><ellipse class="cls-11" cx="69.8" cy="69.69" rx="31.7" ry="28.25"/><ellipse class="cls-11" cx="158.12" cy="75.69" rx="32.2" ry="28.69"/><ellipse class="cls-11" cx="134.46" cy="100.78" rx="33.34" ry="33.06"/><ellipse class="cls-11" cx="114.63" cy="67.72" rx="31.14" ry="27.75"/><ellipse class="cls-11" cx="85.63" cy="115.36" rx="29" ry="30.32"/><ellipse class="cls-11" cx="48.92" cy="103" rx="23.61" ry="17.02"/><ellipse class="cls-11" cx="43.54" cy="75.69" rx="23.61" ry="17.02"/><ellipse class="cls-11" cx="1797.45" cy="209.13" rx="24.22" ry="19.26"/><ellipse class="cls-11" cx="1864.91" cy="213.21" rx="24.6" ry="19.56"/><ellipse class="cls-11" cx="1846.84" cy="230.32" rx="25.46" ry="22.54"/><ellipse class="cls-11" cx="1831.69" cy="207.78" rx="23.79" ry="18.92"/><ellipse class="cls-11" cx="1809.54" cy="240.26" rx="22.15" ry="20.67"/><ellipse class="cls-11" cx="1781.5" cy="231.83" rx="18.04" ry="11.6"/><ellipse class="cls-11" cx="1777.39" cy="213.21" rx="18.04" ry="11.6"/><ellipse class="cls-11" cx="549.87" cy="68.76" rx="25.74" ry="18.54"/><ellipse class="cls-11" cx="621.59" cy="72.69" rx="26.15" ry="18.83"/><ellipse class="cls-11" cx="602.38" cy="89.16" rx="27.07" ry="21.69"/><ellipse class="cls-11" cx="586.28" cy="67.46" rx="25.29" ry="18.21"/><ellipse class="cls-11" cx="562.73" cy="98.73" rx="23.54" ry="19.89"/><ellipse class="cls-11" cx="532.93" cy="90.62" rx="19.17" ry="11.17"/><ellipse class="cls-11" cx="528.56" cy="72.69" rx="19.17" ry="11.17"/><polyline class="cls-1" points="343.64 363.29 330.05 459.36 270.35 447.91"/><polyline class="cls-1" points="707.72 361.27 694.13 457.34 634.44 445.88"/><polyline class="cls-1" points="883.1 368.92 869.51 464.99 809.81 453.53"/><polyline class="cls-1" points="839.98 363.29 826.39 459.36 766.69 447.91"/><polyline class="cls-1" points="731.43 420.51 717.85 516.58 658.15 505.13"/><polyline class="cls-1" points="655.25 355.94 641.66 452.01 581.97 440.55"/><polyline class="cls-1" points="1112.07 367.84 1098.48 463.91 1038.79 452.45"/><polyline class="cls-1" points="1203.56 367.84 1189.97 463.91 1130.27 452.45"/><polyline class="cls-1" points="1155.51 372.48 1141.92 468.55 1082.22 457.09"/><polyline class="cls-1" points="1371.33 363.29 1357.74 459.36 1298.04 447.91"/><polyline class="cls-1" points="1305.72 372.48 1292.13 468.55 1232.43 457.09"/><polyline class="cls-1" points="958.14 372.48 944.56 468.55 884.86 457.09"/><polyline class="cls-1" points="621.25 367.47 607.66 463.54 547.97 452.08"/><polyline class="cls-1" points="770.95 376.41 757.36 472.48 697.67 461.02"/><polyline class="cls-1" points="1853.03 355.94 1839.44 452.01 1779.74 440.55"/><ellipse class="cls-11" cx="315.26" cy="112.4" rx="43.35" ry="34.08"/><ellipse class="cls-11" cx="436.02" cy="119.63" rx="44.03" ry="34.61"/><ellipse class="cls-11" cx="403.67" cy="149.91" rx="45.58" ry="39.88"/><ellipse class="cls-11" cx="376.56" cy="110.02" rx="42.58" ry="33.48"/><ellipse class="cls-11" cx="336.91" cy="167.5" rx="39.65" ry="36.57"/><ellipse class="cls-11" cx="286.72" cy="152.58" rx="32.29" ry="20.54"/><ellipse class="cls-11" cx="279.36" cy="119.63" rx="32.29" ry="20.54"/><ellipse class="cls-11" cx="1075.41" cy="54.76" rx="25.99" ry="23.05"/><ellipse class="cls-11" cx="1147.83" cy="59.65" rx="26.4" ry="23.42"/><ellipse class="cls-11" cx="1128.43" cy="80.13" rx="27.33" ry="26.98"/><ellipse class="cls-11" cx="1112.17" cy="53.15" rx="25.53" ry="22.65"/><ellipse class="cls-11" cx="1088.4" cy="92.04" rx="23.77" ry="24.74"/><ellipse class="cls-11" cx="1058.3" cy="81.95" rx="19.36" ry="13.89"/><ellipse class="cls-11" cx="1053.89" cy="59.65" rx="19.36" ry="13.89"/><polyline class="cls-1" points="322.36 365.3 308.77 461.37 249.07 449.92"/><polyline class="cls-1" points="300.07 367.84 286.48 463.91 226.78 452.45"/><polyline class="cls-1" points="279.62 379.18 266.03 475.25 206.33 463.79"/><polyline class="cls-1" points="259.18 372.48 245.59 468.55 185.89 457.09"/><polyline class="cls-1" points="69.55 369.85 55.96 465.92 -3.74 454.46"/><polyline class="cls-1" points="112.78 361.27 99.19 457.34 39.49 445.88"/><polyline class="cls-1" points="230.65 367.84 217.06 463.91 157.37 452.45"/><polyline class="cls-1" points="195.01 367.6 181.43 463.67 121.73 452.21"/><polyline class="cls-1" points="164.36 372.8 150.77 468.87 91.07 457.41"/><polyline class="cls-1" points="617.36 365.3 603.77 461.37 544.08 449.92"/><polyline class="cls-1" points="588.46 367.33 574.87 463.4 515.18 451.94"/><polyline class="cls-1" points="358.01 372.8 344.43 468.87 284.73 457.41"/><polyline class="cls-1" points="1090.06 365.57 1076.47 461.64 1016.77 450.19"/><polyline class="cls-1" points="1061.16 367.6 1047.57 463.67 987.87 452.21"/><polyline class="cls-1" points="987.87 372.8 974.28 468.87 914.58 457.41"/><polyline class="cls-1" points="1901.88 357.66 1888.29 453.73 1828.59 442.27"/><polyline class="cls-1" points="1872.98 359.68 1859.39 455.75 1799.69 444.29"/><polyline class="cls-1" points="1799.69 364.88 1786.1 460.95 1726.4 449.5"/><polyline class="cls-1" points="1774.99 368.92 1761.4 464.99 1701.7 453.53"/><polyline class="cls-1" points="1746.09 370.94 1732.5 467.01 1672.8 455.55"/><polyline class="cls-1" points="1672.8 376.14 1659.21 472.21 1599.52 460.75"/><polyline class="cls-1" points="1749.55 356.07 1735.96 452.14 1676.27 440.68"/><polyline class="cls-1" points="1720.65 358.09 1707.06 454.16 1647.37 442.7"/><polyline class="cls-1" points="1647.37 363.29 1633.78 459.36 1574.08 447.91"/><polyline class="cls-1" points="1519.48 363.48 1505.89 459.55 1446.19 448.09"/><polyline class="cls-1" points="1490.58 365.5 1476.99 461.57 1417.29 450.12"/><polyline class="cls-1" points="1417.29 370.71 1403.7 466.78 1344.01 455.32"/><polyline class="cls-1" points="144.04 352.33 130.45 448.4 70.75 436.94"/><polyline class="cls-1" points="98.82 363.29 85.23 459.36 25.53 447.91"/><polyline class="cls-1" points="20.8 367.46 61.14 455.7 4.68 478.23"/><polyline class="cls-1" points="494.35 357.36 480.76 453.43 421.07 441.97"/><polyline class="cls-1" points="473.07 359.37 459.49 455.44 399.79 443.98"/><polyline class="cls-1" points="430.33 373.25 416.74 469.32 357.04 457.86"/><polyline class="cls-1" points="409.89 366.54 396.3 462.61 336.6 451.15"/><polyline class="cls-1" points="381.37 361.9 367.78 457.97 308.08 446.51"/><polyline class="cls-1" points="508.73 366.86 495.14 462.93 435.44 451.48"/><polyline class="cls-1" points="625.72 361.24 612.13 457.31 552.43 445.85"/><polyline class="cls-1" points="604.44 363.25 590.85 459.32 531.15 447.86"/><polyline class="cls-1" points="582.15 365.78 568.56 461.85 508.86 450.4"/><polyline class="cls-1" points="561.7 377.13 548.11 473.2 488.41 461.74"/><polyline class="cls-1" points="541.26 370.43 527.67 466.5 467.97 455.04"/><polyline class="cls-1" points="512.73 365.78 499.14 461.85 439.45 450.4"/><polyline class="cls-1" points="640.09 370.75 626.5 466.82 566.81 455.36"/><polyline class="cls-1" points="216.31 365.3 202.72 461.37 143.02 449.92"/><polyline class="cls-1" points="195.03 367.31 181.44 463.38 121.74 451.92"/><polyline class="cls-1" points="172.73 369.85 159.14 465.92 99.45 454.46"/><polyline class="cls-1" points="152.28 381.19 138.69 477.26 78.99 465.8"/><polyline class="cls-1" points="131.84 374.49 118.25 470.56 58.55 459.1"/><polyline class="cls-1" points="103.32 369.85 89.73 465.92 30.03 454.46"/><polyline class="cls-1" points="230.68 374.81 217.09 470.88 157.39 459.42"/><polyline class="cls-1" points="793.08 355.31 779.49 451.38 719.79 439.92"/><polyline class="cls-1" points="771.8 357.31 758.21 453.38 698.51 441.93"/><polyline class="cls-1" points="749.5 359.85 735.92 455.92 676.22 444.46"/><polyline class="cls-1" points="729.05 371.19 715.46 467.26 655.76 455.81"/><polyline class="cls-1" points="708.61 364.49 695.02 460.56 635.33 449.1"/><polyline class="cls-1" points="680.09 359.85 666.5 455.92 606.8 444.46"/><polyline class="cls-1" points="807.45 364.81 793.86 460.88 734.16 449.42"/><polyline class="cls-1" points="945.27 359.65 931.68 455.72 871.98 444.26"/><polyline class="cls-1" points="923.99 361.66 910.4 457.73 850.7 446.27"/><polyline class="cls-1" points="901.7 364.19 888.11 460.26 828.41 448.81"/><polyline class="cls-1" points="881.24 375.54 867.65 471.61 807.96 460.15"/><polyline class="cls-1" points="860.8 368.84 847.22 464.91 787.52 453.45"/><polyline class="cls-1" points="832.28 364.19 818.69 460.26 758.99 448.81"/><polyline class="cls-1" points="959.64 369.16 946.05 465.23 886.35 453.77"/><polyline class="cls-1" points="1122.6 364.86 1109.01 460.93 1049.31 449.47"/><polyline class="cls-1" points="1101.32 366.86 1087.73 462.93 1028.03 451.48"/><polyline class="cls-1" points="1079.03 369.4 1065.44 465.47 1005.74 454.01"/><polyline class="cls-1" points="1058.57 380.74 1044.98 476.81 985.29 465.36"/><polyline class="cls-1" points="1038.13 374.04 1024.55 470.11 964.85 458.65"/><polyline class="cls-1" points="1009.61 369.4 996.02 465.47 936.32 454.01"/><polyline class="cls-1" points="1136.97 374.36 1123.38 470.43 1063.68 458.97"/><polyline class="cls-1" points="1292.05 356.25 1278.46 452.32 1218.77 440.86"/><polyline class="cls-1" points="1270.77 358.26 1257.18 454.33 1197.49 442.87"/><polyline class="cls-1" points="1248.48 360.79 1234.89 456.86 1175.19 445.4"/><polyline class="cls-1" points="1228.03 372.14 1214.44 468.21 1154.74 456.75"/><polyline class="cls-1" points="1207.59 365.43 1194 461.5 1134.3 450.05"/><polyline class="cls-1" points="1179.07 360.79 1165.48 456.86 1105.78 445.4"/><polyline class="cls-1" points="1306.43 365.76 1292.84 461.83 1233.14 450.37"/><polyline class="cls-1" points="1435.69 364.86 1422.1 460.93 1362.4 449.47"/><polyline class="cls-1" points="1414.41 366.86 1400.82 462.93 1341.12 451.48"/><polyline class="cls-1" points="1392.12 369.4 1378.53 465.47 1318.83 454.01"/><polyline class="cls-1" points="1371.66 380.74 1358.08 476.81 1298.38 465.36"/><polyline class="cls-1" points="1351.23 374.04 1337.64 470.11 1277.94 458.65"/><polyline class="cls-1" points="1322.7 369.4 1309.11 465.47 1249.42 454.01"/><polyline class="cls-1" points="1450.06 374.36 1436.47 470.43 1376.78 458.97"/><polyline class="cls-1" points="1909.87 363 1896.28 459.06 1836.58 447.61"/><polyline class="cls-1" points="1888.59 365 1875 461.07 1815.3 449.62"/><polyline class="cls-1" points="1866.3 367.54 1852.71 463.61 1793.01 452.15"/><polyline class="cls-1" points="1845.85 378.88 1832.26 474.95 1772.56 463.5"/><polyline class="cls-1" points="1825.41 372.18 1811.82 468.25 1752.12 456.79"/><polyline class="cls-1" points="1796.88 367.54 1783.29 463.61 1723.6 452.15"/><polyline class="cls-1" points="1924.24 372.5 1910.65 468.57 1850.96 457.11"/><polyline class="cls-1" points="1673.37 364.86 1663.1 418.16 1627.99 413.22"/><polyline class="cls-1" points="1660.72 366.45 1650.45 419.76 1615.34 414.82"/><polyline class="cls-1" points="1647.45 368.37 1637.18 421.68 1602.07 416.73"/><polyline class="cls-1" points="1635.07 375.1 1624.8 428.41 1589.69 423.46"/><polyline class="cls-1" points="1609.52 371.87 1599.25 425.18 1564.14 420.24"/><polyline class="cls-1" points="1609.52 368.37 1599.25 421.68 1564.14 416.73"/><polyline class="cls-1" points="1691.08 368.37 1680.81 421.68 1645.69 416.73"/><polyline class="cls-1" points="1619.85 360.71 1609.63 436.06 1563.13 426.85"/><polyline class="cls-1" points="1603.29 362.21 1593.08 437.56 1546.57 428.34"/><polyline class="cls-1" points="1585.95 364.11 1575.74 439.46 1529.23 430.25"/><polyline class="cls-1" points="1570.08 372.94 1559.86 448.29 1513.36 439.08"/><polyline class="cls-1" points="1554.15 367.6 1543.93 442.95 1497.42 433.74"/><polyline class="cls-1" points="1531.93 363.85 1521.71 439.21 1475.21 429.99"/><polyline class="cls-1" points="1631.07 368.22 1620.85 443.58 1574.35 434.36"/><path class="cls-12" d="M381.61,142.78l28.85,27.64c16.18,15.51,17.36,41.91,2.63,59l-5,5.78c-14.72,17-39.75,18.29-55.93,2.78l-28.84-27.64c-16.18-15.51-17.37-41.91-2.64-58.95l5-5.78C340.4,128.52,365.44,127.27,381.61,142.78Z"/><path class="cls-12" d="M704.54,214.79,680.59,240a38.18,38.18,0,0,1-56,0L621,236.18c-15.47-16.3-15.47-42.73,0-59l23.95-25.22a38.18,38.18,0,0,1,56,0l3.64,3.83C720,172.07,720,198.5,704.54,214.79Z"/><path class="cls-13" d="M224.22,749.73C179,633.79,156.83,533.55,174.67,525.83s69,80,114.16,195.95"/><path class="cls-12" d="M755.1,970.73l-235.41,7.09A53.07,53.07,0,0,1,502.3,980l-255-10.65a49.65,49.65,0,0,1-5.31-.49L154.5,956.32c-43.16-6.19-63.27-59.74-35.8-95.34L402.62,493c17-22.07,46.62-28.14,70.26-14.41l169.61,98.48a58.13,58.13,0,0,1,26,32.85l75.29,237.26C753.87,879,785.76,961.61,755.1,970.73Z"/><path class="cls-13" d="M309.14,422.35c0-150.62,90.76-272.72,202.72-272.72s202.73,122.1,202.73,272.72"/><path class="cls-14" d="M608.8,543.89c0,54.66-43.4,99-96.94,99s-96.93-44.31-96.93-99"/><ellipse class="cls-15" cx="669" cy="521.81" rx="116.21" ry="117.65"/><path class="cls-11" d="M532.91,415.46c0-57.91,19.73-104.86,44.07-104.86s44.07,46.95,44.07,104.86"/><path class="cls-11" d="M405.2,415.46c0-60.06,20-108.74,44.67-108.74s44.67,48.68,44.67,108.74"/><ellipse class="cls-16" cx="370.54" cy="521.81" rx="109.87" ry="115.73"/><ellipse class="cls-11" cx="437.12" cy="356.08" rx="17.42" ry="18.35"/><ellipse class="cls-12" cx="449.03" cy="369.59" rx="24.78" ry="26.1"/><ellipse class="cls-12" cx="579.17" cy="368.84" rx="24.07" ry="25.36"/><path class="cls-17" d="M459.18,556c-27.29,73.39-37.61,137.75-23.07,143.75s48.47-48.62,75.75-122"/><ellipse class="cls-12" cx="309.14" cy="235.03" rx="112.12" ry="38.94" transform="translate(-38.71 407.68) rotate(-63.64)"/><ellipse class="cls-12" cx="715.74" cy="230.55" rx="36.82" ry="102.15" transform="translate(-23.65 367.43) rotate(-28.34)"/><ellipse class="cls-17" cx="454.53" cy="709.5" ry="14.13"/><ellipse class="cls-18" cx="518.43" cy="491.87" rx="237.27" ry="85.8"/><path class="cls-19" d="M477,445c0-25,17-45.2,37.91-45.2S552.79,420,552.79,445"/><path class="cls-20" d="M669,985.42c0-56.93,27.11-103.08,60.54-103.08s60.54,46.15,60.54,103.08"/><path class="cls-20" d="M458.17,1010.48c0-58,30.16-105,67.36-105s67.36,47,67.36,105"/><path class="cls-20" d="M57.75,958c0-58.79,27-106.44,60.19-106.44S178.12,899.19,178.12,958"/><path class="cls-20" d="M260.67,978.59c0-57.11,25.82-103.4,57.68-103.4S376,921.48,376,978.59"/><ellipse class="cls-19" cx="449.87" cy="364.68" rx="16.17" ry="17.03"/><ellipse class="cls-19" cx="579.17" cy="364.68" rx="16.17" ry="17.03"/><ellipse class="cls-11" cx="442.19" cy="361.45" rx="1.69" ry="6.39" transform="translate(-87.55 148.02) rotate(-17.32)"/><ellipse class="cls-11" cx="574.32" cy="356.08" rx="2.67" ry="4.81"/><ellipse class="cls-11" cx="570.87" cy="362.91" rx="1.82" ry="6.22" transform="translate(-85.01 197.34) rotate(-18.28)"/><ellipse class="cls-11" cx="447.11" cy="356.47" rx="2.67" ry="4.81"/><ellipse class="cls-19" cx="735.26" cy="459.09" rx="2.79" ry="2.94"/><ellipse class="cls-19" cx="768.09" cy="485.99" rx="2.79" ry="2.94"/><ellipse class="cls-19" cx="735.26" cy="497.76" rx="2.79" ry="2.94"/><ellipse class="cls-19" cx="278.37" cy="503.79" rx="2.79" ry="2.94"/><ellipse class="cls-19" cx="309.14" cy="494.82" rx="2.79" ry="2.94"/><ellipse class="cls-19" cx="291.62" cy="465.64" rx="2.79" ry="2.94"/><path class="cls-21" d="M1060.7,775.35l97.1,228.48a2.59,2.59,0,0,0,.34.58c2.09,2.73,20,26.72,9.53,26.72l-717.09-5c-9.61,0-46,3-55.51-1.86-1.77-.91-.93,2,0,0l117.19-248.9"/><ellipse class="cls-22" cx="787.39" cy="785.27" rx="280.79" ry="59.61"/><ellipse class="cls-23" cx="797.74" cy="826.5" rx="280.79" ry="59.61"/><path class="cls-19" d="M488.44,260c.77,2.79-26.85-4.43-56.22,3.68s-49.39,28.46-50.16,25.67,16.11-31,45.48-39.12S487.67,257.23,488.44,260Z"/><path class="cls-19" d="M662.9,301.1c-1.19,3-18.27-20.92-46.59-32.18s-57.14-5.62-55.95-8.61,32.61-17.66,60.92-6.39S664.09,298.11,662.9,301.1Z"/><ellipse class="cls-24" cx="714.43" cy="909.57" rx="12.97" ry="15.84" transform="translate(-208.18 212.06) rotate(-14.76)"/><ellipse class="cls-24" cx="747.42" cy="883.68" rx="14.42" ry="17.69" transform="translate(-134.93 134.7) rotate(-9.45)"/><ellipse class="cls-24" cx="796.37" cy="886.04" rx="16.55" ry="14.44" transform="translate(-257.95 1440.72) rotate(-75.8)"/><ellipse class="cls-24" cx="830.41" cy="907.44" rx="18.54" ry="13.52" transform="translate(-390.59 1056.39) rotate(-54.49)"/><path class="cls-24" d="M823.36,976.15c-1.43,30-35-9.2-63.59,1.42-29.74,11-39.58,14.88-38.15-15.16s23.3-52.84,53.6-51.18S824.79,946.12,823.36,976.15Z"/><path class="cls-25" d="M95.76,498.49c0,29.28-6.27,53-7.58,53s2.6-23.73,2.6-53-3.91-53-2.6-53S95.76,469.21,95.76,498.49Z"/><ellipse class="cls-26" cx="85.02" cy="410.84" rx="5.52" ry="20.46"/><ellipse class="cls-27" cx="85.02" cy="460.88" rx="5.17" ry="20.92"/><ellipse class="cls-27" cx="111.19" cy="433.62" rx="20.17" ry="4.25"/><ellipse class="cls-27" cx="61.88" cy="439.95" rx="19.19" ry="4.21" transform="matrix(0.96, -0.29, 0.29, 0.96, -124.63, 36.71)"/><ellipse class="cls-28" cx="60.42" cy="445.48" rx="19.76" ry="3.6" transform="translate(-154 50.35) rotate(-20.76)"/><ellipse class="cls-29" cx="109.8" cy="441.99" rx="3.93" ry="20.17" transform="translate(-345.61 439.13) rotate(-75.69)"/><ellipse class="cls-27" cx="62.73" cy="450.56" rx="19.89" ry="3.58" transform="translate(-203.69 81.83) rotate(-27.92)"/><ellipse class="cls-27" cx="65.84" cy="453.92" rx="20.2" ry="3.52" transform="translate(-282.72 155.78) rotate(-41.21)"/><ellipse class="cls-27" cx="106.85" cy="447.57" rx="3.91" ry="20.28" transform="translate(-348.86 383.81) rotate(-68.61)"/><ellipse class="cls-30" cx="104.79" cy="451.33" rx="3.87" ry="20.49" transform="translate(-333.39 300.76) rotate(-57.96)"/><ellipse class="cls-27" cx="91.56" cy="412.17" rx="20.9" ry="4.35" transform="translate(-330.65 414.36) rotate(-77.77)"/><ellipse class="cls-27" cx="75.31" cy="412.86" rx="4.37" ry="20.63" transform="translate(-122.99 42.99) rotate(-17.86)"/><ellipse class="cls-27" cx="106.57" cy="416.84" rx="20.66" ry="4.15" transform="translate(-221.3 138.25) rotate(-35.3)"/><ellipse class="cls-27" cx="65.84" cy="415.26" rx="4.46" ry="17.81" transform="translate(-234.54 121.07) rotate(-36.59)"/><ellipse class="cls-31" cx="98.69" cy="415.26" rx="20.76" ry="4.44" transform="translate(-303.47 272.26) rotate(-57.06)"/><ellipse class="cls-32" cx="74.69" cy="459.33" rx="20.75" ry="5.21" transform="translate(-384.8 385.63) rotate(-71.65)"/><ellipse class="cls-33" cx="96.19" cy="459.2" rx="5.23" ry="20.68" transform="translate(-166.64 70.57) rotate(-22.24)"/><ellipse class="cls-34" cx="111.71" cy="424.56" rx="21.79" ry="4.24" transform="translate(-94.55 37.02) rotate(-13.28)"/><ellipse class="cls-26" cx="56.23" cy="432.56" rx="19.08" ry="4.23"/><ellipse class="cls-27" cx="61.88" cy="425.06" rx="4.19" ry="19.26" transform="translate(-356.42 327.41) rotate(-68.58)"/><ellipse class="cls-27" cx="104.79" cy="457.22" rx="3.98" ry="19.04" transform="translate(-229.97 128.64) rotate(-32.62)"/><ellipse class="cls-35" cx="86.65" cy="434.67" rx="17.62" ry="9.61"/><path class="cls-25" d="M1808.24,482.63c0,28.58-5.65,51.75-6.83,51.75s2.35-23.17,2.35-51.75-3.53-51.76-2.35-51.76S1808.24,454,1808.24,482.63Z"/><ellipse class="cls-26" cx="1798.56" cy="397.06" rx="4.98" ry="19.97"/><ellipse class="cls-27" cx="1798.56" cy="445.9" rx="4.66" ry="20.42"/><ellipse class="cls-27" cx="1822.17" cy="419.29" rx="18.19" ry="4.15"/><ellipse class="cls-27" cx="1777.69" cy="425.48" rx="17.44" ry="4.08" transform="translate(-43.8 578.39) rotate(-18.26)"/><ellipse class="cls-28" cx="1776.37" cy="430.87" rx="18.01" ry="3.48" transform="translate(-30.03 710.3) rotate(-22.43)"/><ellipse class="cls-29" cx="1820.91" cy="427.46" rx="3.81" ry="18.29" transform="translate(921.39 2067.37) rotate(-74.47)"/><ellipse class="cls-27" cx="1778.45" cy="435.83" rx="18.28" ry="3.43" transform="translate(20.15 946.93) rotate(-29.98)"/><ellipse class="cls-27" cx="1781.25" cy="439.11" rx="18.89" ry="3.32" transform="matrix(0.72, -0.69, 0.69, 0.72, 188.6, 1349.68)"/><ellipse class="cls-27" cx="1818.25" cy="432.92" rx="3.77" ry="18.5" transform="translate(706.37 1935.3) rotate(-66.89)"/><ellipse class="cls-30" cx="1816.39" cy="436.58" rx="3.69" ry="18.93" transform="translate(432.8 1691.8) rotate(-55.73)"/><ellipse class="cls-27" cx="1804.45" cy="398.35" rx="20.33" ry="3.94" transform="translate(1061.77 2090.44) rotate(-78.75)"/><ellipse class="cls-27" cx="1789.8" cy="399.03" rx="3.97" ry="20" transform="translate(-39.69 523.76) rotate(-16.47)"/><ellipse class="cls-27" cx="1818" cy="402.91" rx="19.16" ry="3.94" transform="translate(132.6 1194.69) rotate(-37.66)"/><ellipse class="cls-27" cx="1781.25" cy="401.37" rx="4.13" ry="16.93" transform="translate(82.02 1069.64) rotate(-34.17)"/><ellipse class="cls-31" cx="1810.89" cy="401.37" rx="19.83" ry="4.09" transform="translate(540.68 1753.03) rotate(-59.28)"/><ellipse class="cls-32" cx="1789.24" cy="444.4" rx="20.12" ry="4.73" transform="translate(844.52 2027.56) rotate(-73.12)"/><ellipse class="cls-33" cx="1808.63" cy="444.27" rx="4.76" ry="19.98" transform="translate(-41.04 661.65) rotate(-20.5)"/><ellipse class="cls-34" cx="1822.63" cy="410.45" rx="19.74" ry="4.12" transform="translate(-44.79 466.99) rotate(-14.43)"/><ellipse class="cls-26" cx="1772.59" cy="418.26" rx="17.21" ry="4.13"/><ellipse class="cls-27" cx="1777.69" cy="410.94" rx="4.05" ry="17.57" transform="translate(700.09 1883.3) rotate(-66.82)"/><ellipse class="cls-27" cx="1816.39" cy="442.34" rx="3.67" ry="18.19" transform="translate(26.13 980.76) rotate(-30.43)"/><ellipse class="cls-35" cx="1800.02" cy="420.32" rx="15.9" ry="9.38"/><path class="cls-25" d="M1335.49,902.53c0,34.5-9.74,62.47-11.77,62.47s4-28,4-62.47-6.08-62.46-4-62.46S1335.49,868,1335.49,902.53Z"/><ellipse class="cls-26" cx="1318.81" cy="799.25" rx="8.59" ry="24.11"/><ellipse class="cls-27" cx="1318.81" cy="858.21" rx="8.03" ry="24.65"/><ellipse class="cls-27" cx="1359.5" cy="826.09" rx="31.36" ry="5.01"/><ellipse class="cls-27" cx="1282.82" cy="833.56" rx="29.32" ry="5.05" transform="translate(-151.2 300.61) rotate(-12.63)"/><ellipse class="cls-28" cx="1280.55" cy="840.07" rx="29.9" ry="4.36" transform="matrix(0.96, -0.27, 0.27, 0.96, -180.34, 380.37)"/><ellipse class="cls-29" cx="1357.32" cy="835.95" rx="4.69" ry="30.96" transform="translate(282.64 2013.32) rotate(-79.24)"/><ellipse class="cls-27" cx="1284.14" cy="846.06" rx="29.47" ry="4.43" transform="translate(-221.14 531.49) rotate(-21.58)"/><ellipse class="cls-27" cx="1288.97" cy="850.01" rx="28.4" ry="4.59" transform="translate(-255.02 842.89) rotate(-33.14)"/><ellipse class="cls-27" cx="1352.74" cy="842.53" rx="4.74" ry="30.63" transform="translate(165 1905.1) rotate(-73.73)"/><ellipse class="cls-30" cx="1349.54" cy="846.96" rx="4.85" ry="29.92" transform="translate(11.9 1712.59) rotate(-65.02)"/><ellipse class="cls-27" cx="1328.96" cy="800.82" rx="25.04" ry="6.66" transform="translate(184.34 1848.33) rotate(-73.54)"/><ellipse class="cls-27" cx="1303.7" cy="801.63" rx="6.56" ry="25.16" transform="translate(-212.33 592.15) rotate(-23.72)"/><ellipse class="cls-27" cx="1352.31" cy="806.32" rx="29.78" ry="5.28" transform="translate(-219.87 721.81) rotate(-27.73)"/><ellipse class="cls-27" cx="1288.97" cy="804.46" rx="6.16" ry="23.65" transform="translate(-188.08 1160.75) rotate(-45.53)"/><ellipse class="cls-31" cx="1340.06" cy="804.46" rx="27.06" ry="6.24" transform="translate(-149.24 1278.71) rotate(-48.64)"/><ellipse class="cls-32" cx="1302.74" cy="856.39" rx="25.38" ry="7.8" transform="translate(-18.85 1683.41) rotate(-65.36)"/><ellipse class="cls-33" cx="1336.16" cy="856.23" rx="7.71" ry="25.68" transform="translate(-248.36 768.13) rotate(-29.47)"/><ellipse class="cls-34" cx="1360.3" cy="815.42" rx="33.5" ry="5.05" transform="translate(-120.69 247.98) rotate(-9.98)"/><ellipse class="cls-26" cx="1274.03" cy="824.84" rx="29.67" ry="4.99"/><ellipse class="cls-27" cx="1282.82" cy="816.01" rx="5.09" ry="29.1" transform="translate(141.05 1819.93) rotate(-73.78)"/><ellipse class="cls-27" cx="1349.54" cy="853.9" rx="5.6" ry="24.78" transform="translate(-229.28 1094.16) rotate(-40.98)"/><ellipse class="cls-35" cx="1321.32" cy="827.33" rx="27.4" ry="11.32"/><path class="cls-36" d="M764,56.82,74.74,171.15c-47.56,1.3-47.2,2.34-47.56,1.3L5.28-62.86-6.87-57.63l372.4,9.18,682.18,18.32c2.8.07,875.05,29.46,872.77,30.13L764.32,56.73A2.49,2.49,0,0,1,764,56.82Z"/><path class="cls-37" d="M1681.9,747.59c-3.65-42.15,49.86-83.2,110.37-76.55,58.88,6.46,130.41,38.34,110.38,76.55"/><path class="cls-38" d="M1835.5,747.59c-26.55,38.92-25.54,76.52-43.23,91-15.25,12.5-77.42-45.5-43.22-91"/><ellipse class="cls-39" cx="1738.93" cy="689.03" rx="13.95" ry="4.52"/><ellipse class="cls-39" cx="1750.49" cy="679.65" rx="8.86" ry="2.92"/><ellipse class="cls-39" cx="1761.35" cy="686.73" rx="5.82" ry="2.3"/><line class="cls-40" x1="1799.76" y1="747.59" x2="1793.9" y2="835.34"/><line class="cls-3" x1="1806.87" y1="760.79" x2="1802.72" y2="823.8"/><line class="cls-41" x1="1818.97" y1="747.59" x2="1815.51" y2="787.75"/><line class="cls-42" x1="1794.84" y1="747.59" x2="1787.21" y2="840.32"/><line class="cls-43" x1="1807.49" y1="747.59" x2="1803.06" y2="818.76"/><line class="cls-44" x1="1812.7" y1="747.59" x2="1810.49" y2="802.49"/><polyline class="cls-1" points="0.19 382.42 27.59 428.52 -1.38 448.84"/><path class="cls-25" d="M175.56,960.65c0,48.72-13.72,88.22-16.59,88.22s5.7-39.5,5.7-88.22-8.57-88.22-5.7-88.22S175.56,911.93,175.56,960.65Z"/><ellipse class="cls-26" cx="152.05" cy="814.79" rx="12.11" ry="34.05"/><ellipse class="cls-27" cx="152.05" cy="898.05" rx="11.32" ry="34.82"/><ellipse class="cls-27" cx="209.4" cy="852.69" rx="44.21" ry="7.08"/><ellipse class="cls-27" cx="101.33" cy="863.23" rx="41.33" ry="7.13" transform="translate(-186.63 43.16) rotate(-12.65)"/><ellipse class="cls-28" cx="98.12" cy="872.43" rx="42.15" ry="6.16" transform="translate(-234.25 59.85) rotate(-15.83)"/><ellipse class="cls-29" cx="206.34" cy="866.61" rx="6.62" ry="43.64" transform="translate(-683.58 907.18) rotate(-79.22)"/><ellipse class="cls-27" cx="103.18" cy="880.89" rx="41.54" ry="6.25" transform="translate(-317.24 99.96) rotate(-21.62)"/><ellipse class="cls-27" cx="109.99" cy="886.47" rx="40.05" ry="6.48" transform="translate(-467.36 204.86) rotate(-33.19)"/><ellipse class="cls-27" cx="199.87" cy="875.91" rx="6.69" ry="43.18" transform="translate(-696.93 821.92) rotate(-73.7)"/><ellipse class="cls-30" cx="195.37" cy="882.16" rx="6.85" ry="42.19" transform="translate(-686.62 686.02) rotate(-64.97)"/><ellipse class="cls-27" cx="166.36" cy="816.99" rx="35.36" ry="9.38" transform="translate(-664.33 745.5) rotate(-73.57)"/><ellipse class="cls-27" cx="130.75" cy="818.14" rx="9.25" ry="35.52" transform="translate(-317.49 121.34) rotate(-23.67)"/><ellipse class="cls-27" cx="199.27" cy="824.77" rx="41.99" ry="7.45" transform="translate(-361.42 187.92) rotate(-27.78)"/><ellipse class="cls-27" cx="109.99" cy="822.14" rx="8.68" ry="33.37" transform="translate(-553.2 323.96) rotate(-45.47)"/><ellipse class="cls-31" cx="182" cy="822.14" rx="38.19" ry="8.8" transform="translate(-555.78 416.29) rotate(-48.7)"/><ellipse class="cls-32" cx="129.41" cy="895.48" rx="35.82" ry="11" transform="translate(-738.71 640.5) rotate(-65.41)"/><ellipse class="cls-33" cx="176.51" cy="895.26" rx="10.87" ry="36.25" transform="translate(-416.9 202.08) rotate(-29.41)"/><ellipse class="cls-34" cx="210.53" cy="837.62" rx="47.23" ry="7.13" transform="matrix(0.98, -0.17, 0.17, 0.98, -142.2, 49.26)"/><ellipse class="cls-26" cx="88.93" cy="850.92" rx="41.82" ry="7.05"/><ellipse class="cls-27" cx="101.33" cy="838.45" rx="7.18" ry="41.03" transform="translate(-731.99 701.15) rotate(-73.75)"/><ellipse class="cls-27" cx="195.37" cy="891.97" rx="7.9" ry="34.97" transform="translate(-536.44 345.87) rotate(-40.91)"/><ellipse class="cls-35" cx="155.6" cy="854.44" rx="38.62" ry="15.99"/><g class="cls-45"><rect class="cls-46" x="402.62" y="154.25" width="1192.28" height="663.85" rx="260.58"/><path class="cls-11" d="M801.57,266.19a4.78,4.78,0,0,1-1.74,3.16,38.21,38.21,0,0,1-8.11,9.89q-5.93,5.31-9.57,5.3a5.13,5.13,0,0,1-1-.08c-2.68-.73-5.69-1.66-9-2.77a24.31,24.31,0,0,1-13.68-12.1,40.19,40.19,0,0,1-4.19-18.76,45.26,45.26,0,0,1,5.74-23q6.12-10.6,15.32-11,3.56-.17,10.44,3.16t9.07,6.61q2.19,3.28,3,14.36a11.24,11.24,0,0,1-.73,4.83q-1.1,2.92-2.83,2.69a56.61,56.61,0,0,1-8-1.74q-5.84-1.66-6.29-2.77a1.73,1.73,0,0,1-.18-.71,3.32,3.32,0,0,1,.77-1.78,3.3,3.3,0,0,0,.78-1.78,44.53,44.53,0,0,0,.45-6.1q0-4.11-1.09-5.69-5.48,3.48-8.3,11.63a52.76,52.76,0,0,0-1,27.58c.91,3.5,2,5.63,3.28,6.37q.92.46,5.06-3.21a25.47,25.47,0,0,0,5.34-5.89c0-.06.33-.9.82-2.54a2.68,2.68,0,0,1,1.45-1.74q1.56-.46,8,2.26T801.57,266.19Z"/><path class="cls-11" d="M836.39,284.07a13.29,13.29,0,0,1-4.28-.44c-1.58-.39-3.13-.8-4.65-1.22-1.83-.43-4.68-1.19-8.57-2.3q-7.29-2.76-11-10.92-3.29-7.2-3.28-17.41a69.4,69.4,0,0,1,3.28-19.38q4.46-14.88,11.58-14.88a7.8,7.8,0,0,1,1.77.28,17.33,17.33,0,0,0,1.78.35,50.45,50.45,0,0,1,8.66-1.66c.61,0,1.22,0,1.83.08q10.93,1.19,17.23,11.87,5.64,9.66,5.65,23,0,12.66-5.11,21.76Q845.79,283.12,836.39,284.07Zm-1.64-58q-2-.48-4,4.67t-4,5.14a3.21,3.21,0,0,1-1.32-.44,4.84,4.84,0,0,0-1.42-.51Q821,240.87,821,251.86a46.16,46.16,0,0,0,2.09,14.8q2.37,6.88,6.57,7.6,4.92.78,7.93-8.79a66.72,66.72,0,0,0,2.64-19.94,53,53,0,0,0-1.37-13.13Q837.4,226.7,834.75,226.07Z"/><path class="cls-11" d="M943.42,280.75c-.42,2.26-1.15,3.5-2.19,3.71-1.45.32-4.25,0-8.38-1-4.38-1.06-6.87-2.11-7.48-3.17a2.66,2.66,0,0,1-.27-1.19,7.84,7.84,0,0,1,.23-1.54,8.82,8.82,0,0,0,.22-1.78V239.84q-4.27,7.28-11.21,32.76a2.55,2.55,0,0,0-.09.71,15,15,0,0,0,.32,2.53,17.49,17.49,0,0,1,.32,2.22,19.19,19.19,0,0,1-.28,3.16,2.45,2.45,0,0,1-1.91,1.9,14.36,14.36,0,0,1-3.19.24q-11.85,0-16.32-3.56a2,2,0,0,1-.55-2,6.91,6.91,0,0,0,0-2.3q-3.37-9-6-15.82-6.37-16.45-8.29-19.39V271.8a8.2,8.2,0,0,0,.73,2.85,19.94,19.94,0,0,1,1,2.77,12.7,12.7,0,0,1,.18,3.8c-.12,1.79-.54,2.9-1.27,3.32a4.73,4.73,0,0,1-2.1.32,37.66,37.66,0,0,1-8-1c-3.35-.68-5.32-1.4-5.93-2.14a2,2,0,0,1-.45-1.34,6.62,6.62,0,0,1,.31-1.58,6.47,6.47,0,0,0,.32-1.74V220.92a3.83,3.83,0,0,1,.92-2.17,4.26,4.26,0,0,1,2.09-1.62q1.54-.56,11.95,1.9,10.85,2.44,11.48,4.27a3.84,3.84,0,0,1,.09,1.9,19.87,19.87,0,0,0-.27,2,2.84,2.84,0,0,0,.27,1.26l12.31,28.72q2.55-7,9.3-28.56,3.38-11,5.47-11.47a5.82,5.82,0,0,1,1.46-.16,30.88,30.88,0,0,1,5.2.71,40.66,40.66,0,0,0,5.56.95q7.2.56,8.29.71,4.29.72,4.84,2.61a3.85,3.85,0,0,1,.18,1.19,8.49,8.49,0,0,1-.46,2.26,8.26,8.26,0,0,0-.45,2.17V276a4.76,4.76,0,0,0,1.14,2.37C943.22,279.43,943.54,280.22,943.42,280.75Z"/><path class="cls-11" d="M987.18,221.79q8.76,4.05,8.75,13.85,0,7.13-6.47,18-7.2,12.19-14.68,12.19a5.83,5.83,0,0,1-3.23-1.23L968,262.23v13.45a7.64,7.64,0,0,0,.45,2.38c.43,1.26.7,2.13.82,2.61a4.68,4.68,0,0,1-.68,2.57,3.08,3.08,0,0,1-2.51,2q-1.64.15-7.11-2-5.75-2.22-7.11-4c-.55-.74-.55-1.84,0-3.32a7.8,7.8,0,0,0,.64-2.61v-48.9a4.91,4.91,0,0,0-.64-1.75,3.49,3.49,0,0,1-.55-1.82c.37-2.53,1.46-3.79,3.29-3.79a28,28,0,0,1,3.69.91,24.65,24.65,0,0,0,5.15,1,22,22,0,0,0,7-1.27,23.33,23.33,0,0,1,6.16-1.35,10,10,0,0,1,2.18.24,10.73,10.73,0,0,1,4.38,2.38A20.7,20.7,0,0,0,987.18,221.79Zm-7.56,6.1q-2.1,0-5.84,2a19.1,19.1,0,0,0-5.74,4.35v19.07q4.92-1.35,9.3-9.73,4-7.6,4-12.9C981.35,228.81,980.77,227.89,979.62,227.89Z"/><path class="cls-11" d="M1042.79,272.44q-1.1,3.72-3.46,4.51a4.68,4.68,0,0,1-2,.08,3.58,3.58,0,0,0-1.78.08L1022.1,282a3,3,0,0,0-1.32,1.35c-.46.73-.9,1.16-1.33,1.26-1.33.42-4.16,0-8.47-1.18s-6.93-2.35-7.84-3.41a5.13,5.13,0,0,1-.64-3.95,15.17,15.17,0,0,0,.18-2V220.92a2.8,2.8,0,0,0-.73-1.34,1.51,1.51,0,0,1-.55-1c.12-1,1.19-1.74,3.19-2.22q1.92-.39,8.3,1.19,7.2,1.83,7.29,4.27a3.69,3.69,0,0,1-1,1.9,3.77,3.77,0,0,0-1,1.9v43.76l9.48-3.56a12.22,12.22,0,0,1,3.1-1.43q1.27-.15,6.84,3.37C1041.3,270.16,1043,271.7,1042.79,272.44Z"/><path class="cls-11" d="M1086.55,272.91a6.62,6.62,0,0,1-1.59,2.89,5.74,5.74,0,0,1-2.33,1.86,1.74,1.74,0,0,1-1-.28,3,3,0,0,0-1.18-.35.8.8,0,0,0-.37.08,39,39,0,0,0-5.65,1.89,54.82,54.82,0,0,0-12.4,6.89q-9.12-3.24-9.94-3.56c-3.77-1.43-5.65-2.48-5.65-3.17v-59.5c0-.37.71-.9,2.14-1.58a7,7,0,0,1,3.15-1,21.8,21.8,0,0,1,4.37,1.22,17,17,0,0,0,5.38,1.15,17.21,17.21,0,0,0,7.11-2.14q4-2.06,5-1.74c1.46.43,3.63,1.81,6.52,4.16s4.45,4,4.69,5c.12.48-.44,1.29-1.68,2.45s-2.27,1.74-3.06,1.74a3.35,3.35,0,0,1-1.46-.23c-.3-.16-.51-.21-.64-.16a57.93,57.93,0,0,0-6.1,1.5q-6.75,2-9.94,4.59v12.9a69.2,69.2,0,0,1,8.3-2.93q1.46-.15,6.15,3.52t4.69,5.11a3.21,3.21,0,0,1-1.27,2.06,6,6,0,0,1-2.46,1.5c-.61,0-1.68,0-3.19.16q-3.48.56-12.22,5.06v8.31q2.73-1.42,7.43-3.36c3.13-1.3,5.06-1.94,5.79-1.94s3,1.15,6.43,3.44S1086.67,272.28,1086.55,272.91Z"/><path class="cls-11" d="M1135.15,230.18a5.85,5.85,0,0,1-2-.51,3.86,3.86,0,0,0-2.1-.36l-9.39,2.22v41.62a11.71,11.71,0,0,0,1.28,5,5.37,5.37,0,0,1-.18,3c-.37,1.64-1,2.66-1.73,3.09a3.24,3.24,0,0,1-.92.08,48.31,48.31,0,0,1-8.38-1q-6-1.18-7.11-2.3c-.86-1-.82-2.21.09-3.8a7.17,7.17,0,0,0,1.18-3V235l-6.47,1.42a5.82,5.82,0,0,0-1.51.68,2.59,2.59,0,0,1-1.77.43c-1.4-.32-3.32-1.88-5.75-4.71s-3.49-4.73-3.19-5.73q.74-1.83,4.29-2.77a6.59,6.59,0,0,1,2.37-.08,8.54,8.54,0,0,0,2.28,0l31.72-7.05a20.34,20.34,0,0,0,2.65-.94,5.37,5.37,0,0,1,2.64-.4,4.52,4.52,0,0,1,3.47,1.74,13.69,13.69,0,0,1,1.36,3.56,19.3,19.3,0,0,1,.91,5.38,5.52,5.52,0,0,1-.5,2.65C1138.05,229.8,1137,230.13,1135.15,230.18Z"/><path class="cls-11" d="M1185.29,272.91a6.66,6.66,0,0,1-1.6,2.89,5.73,5.73,0,0,1-2.32,1.86,1.75,1.75,0,0,1-1-.28,3,3,0,0,0-1.18-.35.85.85,0,0,0-.37.08,39,39,0,0,0-5.65,1.89,54.82,54.82,0,0,0-12.4,6.89q-9.12-3.24-9.93-3.56c-3.77-1.43-5.66-2.48-5.66-3.17v-59.5c0-.37.72-.9,2.15-1.58a6.94,6.94,0,0,1,3.14-1,22,22,0,0,1,4.38,1.22,17,17,0,0,0,5.38,1.15,17.29,17.29,0,0,0,7.11-2.14q4-2.06,5-1.74c1.46.43,3.63,1.81,6.52,4.16s4.45,4,4.7,5c.12.48-.45,1.29-1.69,2.45s-2.27,1.74-3.06,1.74a3.3,3.3,0,0,1-1.45-.23c-.31-.16-.52-.21-.64-.16a57.53,57.53,0,0,0-6.11,1.5q-6.75,2-9.94,4.59v12.9a69.2,69.2,0,0,1,8.3-2.93q1.46-.15,6.15,3.52t4.7,5.11a3.23,3.23,0,0,1-1.28,2.06,6,6,0,0,1-2.46,1.5c-.61,0-1.67,0-3.19.16q-3.47.56-12.22,5.06v8.31q2.73-1.42,7.43-3.36c3.13-1.3,5.06-1.94,5.79-1.94s3,1.15,6.43,3.44S1185.41,272.28,1185.29,272.91Z"/><path class="cls-11" d="M1235.52,243.24q0,8.63-5.38,18.75a75.23,75.23,0,0,1-10.76,15.35q-5.75,6.18-8.47,7.2a9.38,9.38,0,0,1-3.1.48,23.24,23.24,0,0,1-9.12-2.22,22,22,0,0,1-6.84-3.95v-57c.18-1.37,1.1-2.18,2.74-2.45a38.54,38.54,0,0,1,4.55.55c.55.06,2.36-.5,5.43-1.66a23,23,0,0,1,7.88-1.74,17,17,0,0,1,7.66,1.82,54,54,0,0,1,6.29,4.27c4.07,3.07,6.72,6.28,7.93,9.66Q1235.51,235.73,1235.52,243.24ZM1220.39,228a3.32,3.32,0,0,0-1.46-.24q-4.83,0-11.58,3.64V267q6.2-3.09,10.57-15.12a55.84,55.84,0,0,0,3.74-18.83Q1221.66,228.61,1220.39,228Z"/><path class="cls-11" d="M701.07,339c.17,1.32-.17,2.15-1.05,2.51a5.35,5.35,0,0,0-.7.3,82.67,82.67,0,0,0-6.7,11.89q-3.89,8.06-4.07,9.69a3.17,3.17,0,0,0,.18,1.06,4,4,0,0,1,.18,1.25c-.18,1.73-.68,2.65-1.49,2.78a11.58,11.58,0,0,1-3-.57,17.12,17.12,0,0,1-3.26-1.1c-1-.61-1.49-1.22-1.49-1.83a2.24,2.24,0,0,1,.3-1q.62-1.48,2.59-6.08-3.64-6.5-4.91-9a61.24,61.24,0,0,1-3.58-8.09,2.22,2.22,0,0,0-.51-.57,1,1,0,0,1-.41-.69c0-.38.57-.95,1.7-1.71q3.65-2.43,5-2.28a1.93,1.93,0,0,1,1.27.8,2.39,2.39,0,0,1,.57,1,16.69,16.69,0,0,0,.26,2.31,35.46,35.46,0,0,0,4.2,10.22q2.46-5.2,2.76-5.73a42.31,42.31,0,0,1,3.76-6,12.08,12.08,0,0,1,.62-1.56,2.77,2.77,0,0,1,2.36-.72,9.81,9.81,0,0,1,3.22,1.33C700.26,338,701,338.62,701.07,339Z"/><path class="cls-11" d="M725.23,338.89c0-.28,0,2.14,0,7.25q0,21.66-7,22.34a8.31,8.31,0,0,1-2.95-.38l-3.39-1c-1-.2-1.94-.42-2.91-.67a4.94,4.94,0,0,1-2.3-1.15c-1.2-1.14-2.16-3.63-2.89-7.45a65.62,65.62,0,0,1-1-11.7,54.56,54.56,0,0,1,.61-8.7,1.72,1.72,0,0,1,1.27-1.51,10.63,10.63,0,0,1,3.35.53,9.52,9.52,0,0,1,3.35,1.17.89.89,0,0,1,.21.61,3.24,3.24,0,0,1-.43,1.35,2.63,2.63,0,0,0-.4,1.35,22.17,22.17,0,0,0-.22,4.18,96.57,96.57,0,0,0,.7,12.11c.59,4.66,1.43,6.94,2.54,6.84,1.4-.13,2.45-2.34,3.15-6.65a71.47,71.47,0,0,0,.83-11.73,30.06,30.06,0,0,0-.3-5.59,2.26,2.26,0,0,0-.18-1.25,7,7,0,0,1-.39-.91,1.64,1.64,0,0,1,1-1.94,1.9,1.9,0,0,1,.75-.11,16.81,16.81,0,0,1,3.67.57,8.07,8.07,0,0,1,2.76,1C725.31,337.58,725.34,338.08,725.23,338.89Z"/><path class="cls-11" d="M768.07,366.58c-.21,1.09-.56,1.68-1.05,1.78a11,11,0,0,1-4-.49c-2.1-.51-3.3-1-3.59-1.52a1.25,1.25,0,0,1-.13-.57,4.35,4.35,0,0,1,.11-.74,4.48,4.48,0,0,0,.11-.86V346.94q-2.06,3.49-5.38,15.72a1.29,1.29,0,0,0-.05.35,6.87,6.87,0,0,0,.16,1.21,8.23,8.23,0,0,1,.15,1.07,9.4,9.4,0,0,1-.13,1.52,1.2,1.2,0,0,1-.92.91,7.41,7.41,0,0,1-1.53.11q-5.7,0-7.84-1.71a1,1,0,0,1-.26-.95,3.16,3.16,0,0,0,0-1.1q-1.62-4.33-2.89-7.6a78.68,78.68,0,0,0-4-9.3v15.11a4.07,4.07,0,0,0,.35,1.37,9.81,9.81,0,0,1,.48,1.33,5.9,5.9,0,0,1,.09,1.83c-.06.86-.26,1.39-.61,1.59a2.29,2.29,0,0,1-1,.15,18.13,18.13,0,0,1-3.85-.49c-1.6-.33-2.55-.67-2.84-1a.94.94,0,0,1-.22-.64,3.23,3.23,0,0,1,.15-.76,3.38,3.38,0,0,0,.15-.84V337.86a1.85,1.85,0,0,1,.44-1,2.13,2.13,0,0,1,1-.78c.49-.18,2.4.13,5.73.91s5.31,1.47,5.51,2.05a1.76,1.76,0,0,1,0,.91,9.11,9.11,0,0,0-.13.95,1.33,1.33,0,0,0,.13.61l5.91,13.79q1.22-3.37,4.46-13.71,1.62-5.28,2.62-5.51A3,3,0,0,1,756,336a15.16,15.16,0,0,1,2.49.35,19.88,19.88,0,0,0,2.67.45c2.3.18,3.63.29,4,.34,1.37.23,2.15.65,2.32,1.26a1.7,1.7,0,0,1,.09.57,4.24,4.24,0,0,1-.22,1.08,3.83,3.83,0,0,0-.22,1V364.3a2.34,2.34,0,0,0,.55,1.14A1.7,1.7,0,0,1,768.07,366.58Z"/><path class="cls-11" d="M811,366.58c-.2,1.09-.55,1.68-1,1.78a11,11,0,0,1-4-.49c-2.1-.51-3.3-1-3.59-1.52a1.25,1.25,0,0,1-.13-.57,4.35,4.35,0,0,1,.11-.74,4.48,4.48,0,0,0,.11-.86V346.94q-2.05,3.49-5.38,15.72a1.29,1.29,0,0,0,0,.35,6.87,6.87,0,0,0,.16,1.21,8.23,8.23,0,0,1,.15,1.07,9.4,9.4,0,0,1-.13,1.52,1.22,1.22,0,0,1-.92.91,7.41,7.41,0,0,1-1.53.11q-5.7,0-7.84-1.71a1,1,0,0,1-.26-.95,3.16,3.16,0,0,0,0-1.1q-1.62-4.33-2.89-7.6a78.68,78.68,0,0,0-4-9.3v15.11a4.07,4.07,0,0,0,.35,1.37,9.81,9.81,0,0,1,.48,1.33,5.9,5.9,0,0,1,.09,1.83c-.06.86-.26,1.39-.61,1.59a2.29,2.29,0,0,1-1,.15,18.13,18.13,0,0,1-3.85-.49,6,6,0,0,1-2.85-1,1,1,0,0,1-.21-.64,3.23,3.23,0,0,1,.15-.76,3.38,3.38,0,0,0,.15-.84V337.86a1.85,1.85,0,0,1,.44-1,2.13,2.13,0,0,1,1-.78c.49-.18,2.4.13,5.73.91s5.31,1.47,5.51,2.05a1.76,1.76,0,0,1,0,.91,9.11,9.11,0,0,0-.13.95,1.33,1.33,0,0,0,.13.61l5.9,13.79q1.23-3.37,4.47-13.71,1.62-5.28,2.62-5.51a3,3,0,0,1,.7-.08,15.1,15.1,0,0,1,2.5.35,19.88,19.88,0,0,0,2.67.45c2.3.18,3.63.29,4,.34,1.37.23,2.14.65,2.32,1.26a1.7,1.7,0,0,1,.09.57,4.24,4.24,0,0,1-.22,1.08,3.83,3.83,0,0,0-.22,1V364.3a2.34,2.34,0,0,0,.55,1.14Q811.08,366.19,811,366.58Z"/><path class="cls-11" d="M823.82,337.75a2,2,0,0,1-.2.72l-.24.57a15.46,15.46,0,0,0-.53,2.36v23.32a1.32,1.32,0,0,0,.27.81,1.15,1.15,0,0,1,.26.59c0,1.62-.35,2.49-1,2.62a14.82,14.82,0,0,1-3.06-.49,12.35,12.35,0,0,1-3.24-.95c-.64-.48-1-.93-1-1.33a.52.52,0,0,1,.18-.34.94.94,0,0,0,.17-.65V338.2a.92.92,0,0,0-.15-.47.89.89,0,0,1-.15-.47c.06-.61.6-1,1.62-1.22a12.57,12.57,0,0,1,2,0,19.47,19.47,0,0,1,3.15.42C823.17,336.76,823.82,337.19,823.82,337.75Z"/><path class="cls-11" d="M835.19,356.09c-.06.94-.33,1.46-.83,1.56a2.12,2.12,0,0,1-.44,0,8.16,8.16,0,0,1-3.19-.87,10.94,10.94,0,0,1-3.15-2.09q-.52-.5,0-1.83c.35-.88.52-1.34.52-1.36V337.18c0-.66.44-1.11,1.32-1.37a2.83,2.83,0,0,1,.74-.07,10.32,10.32,0,0,1,2.8.45,3.92,3.92,0,0,1,2,1,10,10,0,0,1,.09,2.05v15.5a3.56,3.56,0,0,0,.09.66A4.52,4.52,0,0,1,835.19,356.09Zm0,5.51a5.81,5.81,0,0,1,0,1.86c-.11,1.32-.17,2.13-.17,2.43a11.86,11.86,0,0,1-.18,2.36,1.2,1.2,0,0,1-1.09,1,9.25,9.25,0,0,1-3-.76,8.07,8.07,0,0,1-3.15-1.64c-.21-.27-.13-.73.22-1.36a3,3,0,0,0,.3-1.41c-.05-.56-.05-1.62,0-3.19.12-.91.56-1.35,1.32-1.33a13.94,13.94,0,0,1,3.41.85C834.29,360.92,835.08,361.32,835.19,361.6Z"/><path class="cls-11" d="M875.1,339c.18,1.32-.17,2.15-1.05,2.51a6.44,6.44,0,0,0-.7.3,81.89,81.89,0,0,0-6.69,11.89q-3.9,8.06-4.07,9.69a3.08,3.08,0,0,0,.17,1.06,3.46,3.46,0,0,1,.18,1.25c-.18,1.73-.67,2.65-1.49,2.78a11.64,11.64,0,0,1-3-.57,17.12,17.12,0,0,1-3.26-1.1c-1-.61-1.49-1.22-1.49-1.83a2.15,2.15,0,0,1,.31-1c.4-1,1.27-3,2.58-6.08q-3.63-6.5-4.9-9a60.2,60.2,0,0,1-3.59-8.09,2.33,2.33,0,0,0-.5-.57,1,1,0,0,1-.42-.69q0-.57,1.71-1.71,3.63-2.43,5-2.28a1.91,1.91,0,0,1,1.26.8,2.19,2.19,0,0,1,.57,1,15.6,15.6,0,0,0,.27,2.31,35.46,35.46,0,0,0,4.2,10.22q2.45-5.2,2.75-5.73a42.36,42.36,0,0,1,3.77-6,10.55,10.55,0,0,1,.61-1.56,2.77,2.77,0,0,1,2.36-.72,9.72,9.72,0,0,1,3.22,1.33C874.29,338,875,338.62,875.1,339Z"/><path class="cls-11" d="M890.81,368.17a6.35,6.35,0,0,1-2-.21c-.76-.19-1.51-.38-2.23-.59-.88-.2-2.25-.56-4.12-1.1a9.46,9.46,0,0,1-5.29-5.24,20,20,0,0,1-1.58-8.35,33.47,33.47,0,0,1,1.58-9.31q2.14-7.14,5.55-7.14a3.8,3.8,0,0,1,.86.13,6.58,6.58,0,0,0,.85.17,23.74,23.74,0,0,1,4.16-.79l.87,0q5.25.57,8.27,5.7a21.48,21.48,0,0,1,2.72,11A21.06,21.06,0,0,1,898,363Q895.33,367.71,890.81,368.17ZM890,340.33c-.65-.15-1.28.6-1.91,2.24s-1.26,2.47-1.9,2.47a1.6,1.6,0,0,1-.64-.21,2.1,2.1,0,0,0-.67-.24c-1,1.9-1.49,4.6-1.49,8.12a22.29,22.29,0,0,0,1,7.11c.76,2.2,1.81,3.42,3.16,3.64,1.57.26,2.84-1.15,3.8-4.21a31.93,31.93,0,0,0,1.27-9.57,25.6,25.6,0,0,0-.66-6.31C891.53,341.55,890.87,340.53,890,340.33Z"/><path class="cls-11" d="M925.73,338.89q0-.42,0,7.25,0,21.66-7,22.34a8.31,8.31,0,0,1-3-.38l-3.4-1c-1-.2-1.93-.42-2.91-.67a5,5,0,0,1-2.29-1.15c-1.2-1.14-2.16-3.63-2.89-7.45a65.62,65.62,0,0,1-1-11.7,54.56,54.56,0,0,1,.61-8.7,1.71,1.71,0,0,1,1.27-1.51,10.66,10.66,0,0,1,3.35.53,9.35,9.35,0,0,1,3.34,1.17.85.85,0,0,1,.22.61,3.14,3.14,0,0,1-.44,1.35,2.7,2.7,0,0,0-.39,1.35,21.28,21.28,0,0,0-.22,4.18,94.71,94.71,0,0,0,.7,12.11c.59,4.66,1.43,6.94,2.54,6.84,1.4-.13,2.45-2.34,3.15-6.65a72.59,72.59,0,0,0,.83-11.73,30.06,30.06,0,0,0-.3-5.59,2.35,2.35,0,0,0-.18-1.25,7,7,0,0,1-.39-.91,1.64,1.64,0,0,1,1-1.94,1.84,1.84,0,0,1,.74-.11,16.88,16.88,0,0,1,3.68.57,8.27,8.27,0,0,1,2.76,1C925.82,337.58,925.85,338.08,925.73,338.89Z"/><path class="cls-11" d="M935.93,336.57c.12.23,0,.51-.37.86s-.55.53-.55.58-.12.65-.61,1.49-.83,1.41-.83,1.44c-.09.84-.33,1.33-.7,1.48a1.36,1.36,0,0,1-.44.08,3,3,0,0,1-1-.23l-1.1-.34-1.7-.38a2,2,0,0,1-1.19-.65c-.05-.12.32-.7,1.14-1.71,1-1.24,1.59-1.95,1.71-2.12a6.61,6.61,0,0,0,.35-1.14c.17-.54.35-.81.52-.84a6.62,6.62,0,0,1,2.65.34C935,335.76,935.73,336.14,935.93,336.57Z"/><path class="cls-11" d="M962.4,362.51c.27.43-.25,1.49-1.55,3.17s-2.38,2.52-3.26,2.49a2.63,2.63,0,0,1-2.23-1.29,5.07,5.07,0,0,0-.66-1.1l-9.23-7.48v7a2.27,2.27,0,0,0,.37,1.07,2.19,2.19,0,0,1,.37.95c0,.76-.57,1.17-1.7,1.25a14.41,14.41,0,0,1-3.9-.42c-1.87-.35-2.8-.73-2.8-1.14a1.88,1.88,0,0,1,.11-.51,2.66,2.66,0,0,0,.11-.82V339.19a.85.85,0,0,0-.13-.47.67.67,0,0,1-.13-.33c0-.68.61-1.08,1.75-1.21a8.76,8.76,0,0,1,2.38.36,6.17,6.17,0,0,0,5.69-.65,10.25,10.25,0,0,1,4-1A9.09,9.09,0,0,1,953,336a5.16,5.16,0,0,1,2.23,1c.68.51,1.32,1,1.93,1.52,1.6,1.32,2.43,2,2.49,2.09a3.9,3.9,0,0,1,1.23,2.54q.25,4.41-8.67,11.32,1.85,1.44,8.1,7a9.47,9.47,0,0,1,1.14.45A6.8,6.8,0,0,1,962.4,362.51Zm-9.67-21.23q-2.06,0-7.26,3.72v5.82c1.25-.44,2.9-1.74,4.94-3.92s3.07-3.8,3.07-4.86A.67.67,0,0,0,952.73,341.28Z"/><path class="cls-11" d="M985.12,362.82a3.23,3.23,0,0,1-.77,1.38,2.82,2.82,0,0,1-1.12.9.87.87,0,0,1-.48-.14,1.42,1.42,0,0,0-.57-.17.53.53,0,0,0-.17,0,18.76,18.76,0,0,0-2.71.91,26,26,0,0,0-6,3.31l-4.77-1.71c-1.81-.69-2.71-1.19-2.71-1.52V337.26c0-.18.34-.44,1-.76a3.36,3.36,0,0,1,1.51-.46,10.73,10.73,0,0,1,2.1.59,8.13,8.13,0,0,0,2.58.55,8.21,8.21,0,0,0,3.41-1c1.29-.65,2.09-.93,2.41-.83a10.84,10.84,0,0,1,3.13,2c1.39,1.13,2.14,1.93,2.25,2.41.06.23-.21.62-.81,1.18a2.46,2.46,0,0,1-1.46.84,1.51,1.51,0,0,1-.7-.12c-.15-.07-.25-.1-.31-.07a26.73,26.73,0,0,0-2.93.72,13.83,13.83,0,0,0-4.77,2.2v6.19a33.74,33.74,0,0,1,4-1.4c.47-.05,1.45.51,3,1.69s2.25,2,2.25,2.45a1.48,1.48,0,0,1-.61,1,2.9,2.9,0,0,1-1.18.73c-.3,0-.81,0-1.54.07a24.73,24.73,0,0,0-5.86,2.43v4c.88-.45,2.06-1,3.57-1.61a11.5,11.5,0,0,1,2.78-.93,9.52,9.52,0,0,1,3.08,1.65C984.38,361.81,985.17,362.51,985.12,362.82Z"/><path class="cls-11" d="M1017.32,339.5a2.89,2.89,0,0,1-.61,1.29,2.17,2.17,0,0,1-1.49.87,1.75,1.75,0,0,1-.78-.13,2.3,2.3,0,0,0-.75-.17,15.49,15.49,0,0,0-3.76,1.1,22.45,22.45,0,0,0-4.68,2.16v6.95c.14-.05.83-.4,2-1.06a5.09,5.09,0,0,1,2-.68c.53,0,1.5.68,2.93,2.12s2.12,2.41,2.06,2.89a2.28,2.28,0,0,1-.88,1.37,2.94,2.94,0,0,1-1.22.68,1.16,1.16,0,0,1-.7-.09,1.88,1.88,0,0,0-.61-.17.54.54,0,0,0-.27.07c-.84.31-1.59.58-2.23.84a12.45,12.45,0,0,0-3.1,1.55v5.55a1.33,1.33,0,0,0,.45.82,1.4,1.4,0,0,1,.46,1,2.5,2.5,0,0,1-2.31,2.55,21.16,21.16,0,0,1-4.16-2.17c-1.26-.88-1.88-1.65-1.88-2.31V339.42a2,2,0,0,0-.51-1.23c-.33-.42-.47-.73-.41-.93a2,2,0,0,1,.83-1.16,2.89,2.89,0,0,1,1.57-.63,7.66,7.66,0,0,1,2.41,1.08,11.7,11.7,0,0,0,2.67,1.24l4.81-1.71a9.38,9.38,0,0,1,2-.88c.73-.07,2,.49,3.68,1.69S1017.38,339,1017.32,339.5Z"/><path class="cls-11" d="M1042.09,365.48c0,.22-.09.77-.17,1.63a1.65,1.65,0,0,1-.35,1,1.7,1.7,0,0,1-.75.12,12.86,12.86,0,0,1-3.58-.65,7.1,7.1,0,0,1-3.16-1.44,5.72,5.72,0,0,1-.7-2.28,27.08,27.08,0,0,0-1.09-4.22,37.39,37.39,0,0,0-4.86,1,19.92,19.92,0,0,0-4.15,1.42c-.44,1.09-1,2.43-1.75,4-.09.35-.19.69-.29,1a1.38,1.38,0,0,1-.77.77.76.76,0,0,1-.39.08,11.75,11.75,0,0,1-3.52-.95c-1.65-.63-2.5-1.05-2.56-1.25-.12-.36.16-1.23.83-2.62.93-2,1.47-3.27,1.62-3.73a2.2,2.2,0,0,1-.92-1.59,2.12,2.12,0,0,1,0-.42c.06-.3.95-.85,2.67-1.63l5.65-16.75a5.49,5.49,0,0,0,0-1.67c-.06-.69,0-1.12.26-1.29a1.82,1.82,0,0,1,1-.19,27.07,27.07,0,0,1,5.87.91c2.54.6,4.05,1.15,4.55,1.63a100.91,100.91,0,0,0,2,12.65Q1039.82,361.53,1042.09,365.48Zm-11.42-11.55c-.38-1.6-.61-2.65-.7-3.15a44.27,44.27,0,0,1-.66-5.28c-.58,1.24-1.27,3-2,5.16a26.4,26.4,0,0,0-1.36,4.33A48,48,0,0,1,1030.67,353.93Z"/><path class="cls-11" d="M1063.88,361.87a5.75,5.75,0,0,1-2.14,4.61,9.28,9.28,0,0,1-6,1.88,9.15,9.15,0,0,1-2.06-.26c-1.34-.33-2-.5-2.1-.5-.7-.12-1.41-.26-2.12-.4a4.08,4.08,0,0,1-1.86-.85,6.44,6.44,0,0,1-1.93-3,13.86,13.86,0,0,0-1.4-3,5.3,5.3,0,0,1-.83-1.07,1.45,1.45,0,0,1,.24-1.12,1.67,1.67,0,0,1,.9-.7,4.05,4.05,0,0,1,1-.08,26,26,0,0,1,3.74.33,7.29,7.29,0,0,1,2.48.58,9.59,9.59,0,0,1,.7,2.74c.26,1.52.65,2.37,1.18,2.54a.83.83,0,0,0,.39.08c.56,0,1-.4,1.42-1.2a5.94,5.94,0,0,0,.6-2.71q0-3.3-2.37-4.41a28.2,28.2,0,0,1-7.61-4.71,7.23,7.23,0,0,1-2.28-5.92,11.11,11.11,0,0,1,2.39-5.76,8,8,0,0,1,4.57-3.4c.67-.12,2.71.43,6.13,1.68.84.27,1.7.56,2.56.87a5,5,0,0,1,2.08,1.33c.81.88,1.22,2.42,1.22,4.59,0,.41,0,1,0,1.79s0,1.16,0,1.44a4.27,4.27,0,0,0,.31.88,1.39,1.39,0,0,1,.17.83,1.71,1.71,0,0,1-1.61,1.86,9.46,9.46,0,0,1-3.24-.57,7.18,7.18,0,0,1-3.33-1.55,1.75,1.75,0,0,1-.09-.76c0-.38,0-1.24.16-2.59s.15-2.31.15-2.92c0-1.09-.15-1.62-.44-1.6a2.81,2.81,0,0,0-2.25,1.69,7.42,7.42,0,0,0-.9,3.67q0,3.42,2.32,4.86l5.25,2.89a10,10,0,0,1,3.46,2.81A9,9,0,0,1,1063.88,361.87Z"/><path class="cls-11" d="M1088,342.31a2.7,2.7,0,0,1-1-.25,1.89,1.89,0,0,0-1-.17l-4.51,1.06v20a5.56,5.56,0,0,0,.61,2.39,2.5,2.5,0,0,1-.09,1.45,2.08,2.08,0,0,1-.83,1.48,1.55,1.55,0,0,1-.43,0,22.93,22.93,0,0,1-4-.5c-1.93-.38-3.06-.74-3.41-1.1s-.4-1.06,0-1.82a3.45,3.45,0,0,0,.57-1.45v-18.8l-3.11.69a2.52,2.52,0,0,0-.72.32,1.24,1.24,0,0,1-.85.21,6.66,6.66,0,0,1-2.76-2.26c-1.17-1.35-1.68-2.27-1.53-2.75s.92-1,2.06-1.33a3.12,3.12,0,0,1,1.13,0,4,4,0,0,0,1.1,0l15.23-3.38a12.39,12.39,0,0,0,1.26-.46,2.59,2.59,0,0,1,1.27-.19,2.16,2.16,0,0,1,1.67.84,6.54,6.54,0,0,1,.65,1.71,9.34,9.34,0,0,1,.44,2.58,2.68,2.68,0,0,1-.24,1.27C1089.39,342.12,1088.87,342.28,1088,342.31Z"/><path class="cls-11" d="M1099.9,356.09c-.06.94-.34,1.46-.83,1.56a2.18,2.18,0,0,1-.44,0,8.11,8.11,0,0,1-3.19-.87,10.86,10.86,0,0,1-3.16-2.09q-.52-.5,0-1.83c.35-.88.53-1.34.53-1.36V337.18c0-.66.44-1.11,1.31-1.37a2.92,2.92,0,0,1,.75-.07,10.38,10.38,0,0,1,2.8.45,4,4,0,0,1,2,1,11.66,11.66,0,0,1,.08,2.05v15.5a3.56,3.56,0,0,0,.09.66A3.7,3.7,0,0,1,1099.9,356.09Zm0,5.51a5.81,5.81,0,0,1,0,1.86q-.18,2-.18,2.43a12.83,12.83,0,0,1-.17,2.36,1.22,1.22,0,0,1-1.1,1,9.22,9.22,0,0,1-3-.76,8.05,8.05,0,0,1-3.16-1.64c-.2-.27-.13-.73.22-1.36a3,3,0,0,0,.31-1.41,26.7,26.7,0,0,1,0-3.19c.12-.91.55-1.35,1.31-1.33a13.89,13.89,0,0,1,3.42.85C1099,360.92,1099.78,361.32,1099.9,361.6Z"/><path class="cls-11" d="M1132.5,362.59a2.88,2.88,0,0,1-1.66,2.16,2.16,2.16,0,0,1-.94,0,1.73,1.73,0,0,0-.86,0l-6.47,2.36a1.43,1.43,0,0,0-.64.64c-.22.36-.43.56-.63.61-.64.2-2,0-4.07-.57s-3.33-1.13-3.77-1.63a2.49,2.49,0,0,1-.3-1.9,7.1,7.1,0,0,0,.09-.95V337.86a1.34,1.34,0,0,0-.35-.64.73.73,0,0,1-.27-.46c.06-.48.57-.83,1.53-1.06a11.66,11.66,0,0,1,4,.57c2.3.58,3.47,1.26,3.5,2.05a1.79,1.79,0,0,1-.48.91,1.75,1.75,0,0,0-.48.91v21l4.55-1.71a5.59,5.59,0,0,1,1.48-.69c.41-.05,1.51.49,3.29,1.62S1132.62,362.24,1132.5,362.59Z"/><path class="cls-11" d="M1153.51,362.82a3.23,3.23,0,0,1-.77,1.38,2.82,2.82,0,0,1-1.12.9.87.87,0,0,1-.48-.14,1.42,1.42,0,0,0-.57-.17.53.53,0,0,0-.17,0,18.76,18.76,0,0,0-2.71.91,26,26,0,0,0-6,3.31l-4.77-1.71c-1.81-.69-2.71-1.19-2.71-1.52V337.26c0-.18.34-.44,1-.76a3.36,3.36,0,0,1,1.51-.46,10.73,10.73,0,0,1,2.1.59,8.13,8.13,0,0,0,2.58.55,8.21,8.21,0,0,0,3.41-1c1.29-.65,2.09-.93,2.41-.83a10.84,10.84,0,0,1,3.13,2c1.39,1.13,2.14,1.93,2.25,2.41.06.23-.21.62-.81,1.18a2.46,2.46,0,0,1-1.46.84,1.51,1.51,0,0,1-.7-.12c-.15-.07-.25-.1-.31-.07a26.73,26.73,0,0,0-2.93.72,13.83,13.83,0,0,0-4.77,2.2v6.19a33.74,33.74,0,0,1,4-1.4c.47-.05,1.45.51,3,1.69s2.25,2,2.25,2.45a1.48,1.48,0,0,1-.61,1,3,3,0,0,1-1.18.73c-.3,0-.81,0-1.54.07a24.73,24.73,0,0,0-5.86,2.43v4c.88-.45,2.06-1,3.57-1.61a11.5,11.5,0,0,1,2.78-.93,9.52,9.52,0,0,1,3.08,1.65C1152.77,361.81,1153.56,362.51,1153.51,362.82Z"/><path class="cls-11" d="M1176.83,342.31a2.7,2.7,0,0,1-1-.25,1.92,1.92,0,0,0-1-.17l-4.51,1.06v20a5.59,5.59,0,0,0,.62,2.39,2.69,2.69,0,0,1-.09,1.45,2.12,2.12,0,0,1-.83,1.48,1.7,1.7,0,0,1-.44,0,23,23,0,0,1-4-.5c-1.92-.38-3.06-.74-3.41-1.1s-.39-1.06,0-1.82a3.45,3.45,0,0,0,.57-1.45v-18.8l-3.1.69a2.54,2.54,0,0,0-.73.32,1.24,1.24,0,0,1-.85.21,6.66,6.66,0,0,1-2.76-2.26c-1.16-1.35-1.67-2.27-1.53-2.75s.92-1,2.06-1.33a3.17,3.17,0,0,1,1.14,0,3.9,3.9,0,0,0,1.09,0l15.23-3.38a12.14,12.14,0,0,0,1.27-.46,2.58,2.58,0,0,1,1.27-.19,2.15,2.15,0,0,1,1.66.84,6.84,6.84,0,0,1,.66,1.71,9.29,9.29,0,0,1,.43,2.58,2.68,2.68,0,0,1-.24,1.27C1178.22,342.12,1177.7,342.28,1176.83,342.31Z"/><path class="cls-11" d="M1200,361.87a5.76,5.76,0,0,1-2.15,4.61,9.26,9.26,0,0,1-5.95,1.88,9.06,9.06,0,0,1-2.05-.26c-1.35-.33-2-.5-2.1-.5-.7-.12-1.41-.26-2.13-.4a4.18,4.18,0,0,1-1.86-.85,6.43,6.43,0,0,1-1.92-3,14.38,14.38,0,0,0-1.4-3,5,5,0,0,1-.83-1.07,1.37,1.37,0,0,1,.24-1.12,1.62,1.62,0,0,1,.89-.7,4.09,4.09,0,0,1,1-.08,26.09,26.09,0,0,1,3.74.33,7.19,7.19,0,0,1,2.47.58,8.89,8.89,0,0,1,.7,2.74c.26,1.52.66,2.37,1.18,2.54a.87.87,0,0,0,.4.08c.55,0,1-.4,1.42-1.2a6.07,6.07,0,0,0,.59-2.71q0-3.3-2.36-4.41a28.12,28.12,0,0,1-7.62-4.71,7.19,7.19,0,0,1-2.27-5.92,11.09,11.09,0,0,1,2.38-5.76,8,8,0,0,1,4.57-3.4c.68-.12,2.72.43,6.13,1.68.85.27,1.7.56,2.56.87a5,5,0,0,1,2.08,1.33c.82.88,1.22,2.42,1.22,4.59,0,.41,0,1,0,1.79s0,1.16,0,1.44a4.73,4.73,0,0,0,.3.88,1.4,1.4,0,0,1,.18.83,1.73,1.73,0,0,1-1.62,1.86,9.53,9.53,0,0,1-3.24-.57,7.07,7.07,0,0,1-3.32-1.55,1.75,1.75,0,0,1-.09-.76c0-.38,0-1.24.15-2.59s.15-2.31.15-2.92c0-1.09-.14-1.62-.43-1.6a2.81,2.81,0,0,0-2.26,1.69,7.41,7.41,0,0,0-.89,3.67q0,3.42,2.31,4.86l5.26,2.89a10.07,10.07,0,0,1,3.45,2.81A9,9,0,0,1,1200,361.87Z"/><path class="cls-11" d="M1230.09,338.28a6.77,6.77,0,0,1,4.2,6.65c0,2.28-1,5.16-3.11,8.66-2.31,3.9-4.65,5.85-7,5.85a2.85,2.85,0,0,1-1.55-.59l-1.68-1.16v6.46a3.5,3.5,0,0,0,.22,1.14c.2.6.33,1,.39,1.25a2.2,2.2,0,0,1-.33,1.23,1.47,1.47,0,0,1-1.2,1,10,10,0,0,1-3.42-.95,8.86,8.86,0,0,1-3.41-1.9,1.68,1.68,0,0,1,0-1.59,3.9,3.9,0,0,0,.31-1.26V339.57a2.47,2.47,0,0,0-.31-.83,1.74,1.74,0,0,1-.26-.88c.17-1.21.7-1.82,1.57-1.82a14.1,14.1,0,0,1,1.78.44,11.11,11.11,0,0,0,2.47.47,10.5,10.5,0,0,0,3.35-.61,11.12,11.12,0,0,1,3-.64,5.35,5.35,0,0,1,1,.11,5.1,5.1,0,0,1,2.1,1.14A10.3,10.3,0,0,0,1230.09,338.28Zm-3.64,2.92a6.7,6.7,0,0,0-2.8.95,9.31,9.31,0,0,0-2.75,2.09v9.16q2.36-.64,4.46-4.67a14,14,0,0,0,1.93-6.2C1227.29,341.65,1227,341.2,1226.45,341.2Z"/><path class="cls-11" d="M1256.78,362.59a2.9,2.9,0,0,1-1.66,2.16,2.2,2.2,0,0,1-.95,0,1.7,1.7,0,0,0-.85,0l-6.47,2.36a1.43,1.43,0,0,0-.64.64c-.22.36-.43.56-.63.61-.65.2-2,0-4.07-.57s-3.33-1.13-3.77-1.63a2.49,2.49,0,0,1-.3-1.9,8.74,8.74,0,0,0,.08-.95V337.86a1.19,1.19,0,0,0-.35-.64.75.75,0,0,1-.26-.46c.06-.48.57-.83,1.53-1.06a11.66,11.66,0,0,1,4,.57c2.3.58,3.47,1.26,3.5,2.05a1.79,1.79,0,0,1-.48.91,1.79,1.79,0,0,0-.49.91v21l4.55-1.71a5.86,5.86,0,0,1,1.49-.69c.41-.05,1.5.49,3.28,1.62S1256.9,362.24,1256.78,362.59Z"/><path class="cls-11" d="M1285.4,365.48c0,.22-.09.77-.18,1.63a1.59,1.59,0,0,1-.35,1,1.62,1.62,0,0,1-.74.12,13,13,0,0,1-3.59-.65,7,7,0,0,1-3.15-1.44,5.55,5.55,0,0,1-.7-2.28,28.25,28.25,0,0,0-1.09-4.22,37.39,37.39,0,0,0-4.86,1,20.08,20.08,0,0,0-4.16,1.42c-.44,1.09-1,2.43-1.75,4-.09.35-.18.69-.28,1a1.41,1.41,0,0,1-.77.77.81.81,0,0,1-.39.08,11.79,11.79,0,0,1-3.53-.95c-1.65-.63-2.5-1.05-2.56-1.25-.11-.36.16-1.23.83-2.62.94-2,1.48-3.27,1.62-3.73a2.2,2.2,0,0,1-.92-1.59,2.18,2.18,0,0,1,.05-.42c.06-.3.95-.85,2.67-1.63l5.64-16.75a5.4,5.4,0,0,0,0-1.67c-.06-.69,0-1.12.26-1.29a1.82,1.82,0,0,1,1-.19,27,27,0,0,1,5.86.91c2.54.6,4.06,1.15,4.55,1.63a104.85,104.85,0,0,0,2,12.65Q1283.12,361.53,1285.4,365.48ZM1274,353.93c-.38-1.6-.62-2.65-.7-3.15a42.31,42.31,0,0,1-.66-5.28q-.87,1.86-2.06,5.16a25.92,25.92,0,0,0-1.35,4.33A48,48,0,0,1,1274,353.93Z"/><path class="cls-11" d="M1310.82,339c.18,1.32-.17,2.15-1,2.51a6.44,6.44,0,0,0-.7.3,81.89,81.89,0,0,0-6.69,11.89q-3.9,8.06-4.07,9.69a3.08,3.08,0,0,0,.17,1.06,3.46,3.46,0,0,1,.18,1.25c-.18,1.73-.67,2.65-1.49,2.78a11.64,11.64,0,0,1-3-.57,17.12,17.12,0,0,1-3.26-1.1c-1-.61-1.49-1.22-1.49-1.83a2.15,2.15,0,0,1,.31-1c.4-1,1.27-3,2.58-6.08q-3.63-6.5-4.9-9a60.2,60.2,0,0,1-3.59-8.09,2.33,2.33,0,0,0-.5-.57,1,1,0,0,1-.42-.69q0-.57,1.71-1.71,3.63-2.43,5-2.28a1.91,1.91,0,0,1,1.26.8,2.29,2.29,0,0,1,.57,1,15.6,15.6,0,0,0,.27,2.31,35.46,35.46,0,0,0,4.2,10.22q2.45-5.2,2.75-5.73a42.36,42.36,0,0,1,3.77-6,10.55,10.55,0,0,1,.61-1.56,2.77,2.77,0,0,1,2.36-.72,9.81,9.81,0,0,1,3.22,1.33C1310,338,1310.76,338.62,1310.82,339Z"/><path class="cls-11" d="M701.38,411.05c0,.23-.09.78-.18,1.64a1.61,1.61,0,0,1-.35,1,1.65,1.65,0,0,1-.74.12,12.92,12.92,0,0,1-3.59-.65,7.11,7.11,0,0,1-3.15-1.44,5.39,5.39,0,0,1-.7-2.28,27,27,0,0,0-1.1-4.22,37.32,37.32,0,0,0-4.85,1.05,20.08,20.08,0,0,0-4.16,1.42c-.44,1.09-1,2.43-1.75,4-.09.35-.18.69-.29,1a1.34,1.34,0,0,1-.76.78.81.81,0,0,1-.39.08,11.72,11.72,0,0,1-3.53-1c-1.65-.63-2.5-1-2.56-1.25-.12-.36.16-1.23.83-2.62.94-2,1.48-3.27,1.62-3.73a2.2,2.2,0,0,1-.92-1.59,2.18,2.18,0,0,1,.05-.42c.06-.3.95-.85,2.67-1.63l5.64-16.75a5.74,5.74,0,0,0,.05-1.67c-.06-.69,0-1.12.26-1.3a1.86,1.86,0,0,1,1-.19,27.24,27.24,0,0,1,5.86.92c2.54.6,4.06,1.15,4.55,1.63a105.15,105.15,0,0,0,2,12.65Q699.1,407.1,701.38,411.05ZM690,399.51c-.37-1.6-.61-2.65-.7-3.15a42.25,42.25,0,0,1-.65-5.29c-.59,1.25-1.27,3-2.06,5.17a25.92,25.92,0,0,0-1.35,4.33A45.3,45.3,0,0,1,690,399.51Z"/><path class="cls-11" d="M727.46,399.66a2,2,0,0,1-1.53,1.94,1.1,1.1,0,0,1-.62-.14,1.42,1.42,0,0,0-.57-.17,1.53,1.53,0,0,0-.56.12,58.15,58.15,0,0,1-2.67,7.59,8.83,8.83,0,0,1-4.56,4.71,4,4,0,0,1-1.53.31,18.91,18.91,0,0,1-3.89-1c-.79-.18-2-.54-3.72-1.1s-3-2.34-3.94-4.9a24.3,24.3,0,0,1-1.27-8.32,29.24,29.24,0,0,1,2-11.17q2.19-5.35,5.78-6a7,7,0,0,1,.7,0,15.39,15.39,0,0,1,5.34,1.22,10.28,10.28,0,0,1,4.55,2.85,6.87,6.87,0,0,1,1.27,3.19,23.43,23.43,0,0,0,.48,2.39c.09.43.21,1,.35,1.56a1.82,1.82,0,0,1-.44,1.16,2.11,2.11,0,0,1-.91.81,9.34,9.34,0,0,1-3.42-.55A13.48,13.48,0,0,1,714.9,393a1.65,1.65,0,0,1-.66-1.78.83.83,0,0,1,.22-.48.85.85,0,0,0,.22-.51c0-1.8-.23-2.7-.7-2.7q-1.49,0-2.63,4.33a36.19,36.19,0,0,0-1.05,9c0,4.81.78,7.57,2.32,8.28.47.2,1.1-.5,1.91-2.09a13.29,13.29,0,0,0,1.42-4.48,14.76,14.76,0,0,0-2.67-1.18q-1.57-.57-1.71-1a2.22,2.22,0,0,1,.44-1.61,3.12,3.12,0,0,1,1.29-1.35,5.13,5.13,0,0,1,1.9-.34,14.49,14.49,0,0,0,2-.08,17.44,17.44,0,0,0,2.4-.64,7,7,0,0,1,2.06-.46,2.33,2.33,0,0,1,.48,0,9.43,9.43,0,0,1,3.22,1.71C726.79,398.62,727.49,399.31,727.46,399.66Z"/><path class="cls-11" d="M754.37,411.05c0,.23-.09.78-.17,1.64a1.67,1.67,0,0,1-.35,1,1.7,1.7,0,0,1-.75.12,13,13,0,0,1-3.59-.65,7.22,7.22,0,0,1-3.15-1.44,5.72,5.72,0,0,1-.7-2.28,27.08,27.08,0,0,0-1.09-4.22,37.39,37.39,0,0,0-4.86,1.05,20.31,20.31,0,0,0-4.16,1.42c-.43,1.09-1,2.43-1.75,4-.08.35-.18.69-.28,1a1.36,1.36,0,0,1-.77.78.81.81,0,0,1-.39.08,11.68,11.68,0,0,1-3.52-1c-1.65-.63-2.51-1-2.56-1.25-.12-.36.16-1.23.83-2.62.93-2,1.47-3.27,1.62-3.73a2.17,2.17,0,0,1-.92-1.59,2.12,2.12,0,0,1,0-.42c.06-.3.95-.85,2.67-1.63l5.65-16.75a5.85,5.85,0,0,0,0-1.67c-.06-.69,0-1.12.26-1.3a1.91,1.91,0,0,1,1-.19,27.31,27.31,0,0,1,5.87.92c2.53.6,4.05,1.15,4.55,1.63a101.19,101.19,0,0,0,2,12.65Q752.1,407.1,754.37,411.05ZM743,399.51c-.38-1.6-.61-2.65-.7-3.15a44.18,44.18,0,0,1-.66-5.29c-.58,1.25-1.27,3-2.05,5.17a26.4,26.4,0,0,0-1.36,4.33A45.1,45.1,0,0,1,743,399.51Z"/><path class="cls-11" d="M766.58,383.33a2.08,2.08,0,0,1-.2.72l-.24.57a15.82,15.82,0,0,0-.52,2.35v23.32a1.32,1.32,0,0,0,.26.82,1.15,1.15,0,0,1,.26.59c0,1.62-.35,2.49-1,2.62a14.92,14.92,0,0,1-3.06-.49,12.35,12.35,0,0,1-3.24-.95c-.64-.48-1-.93-1-1.33a.5.5,0,0,1,.17-.34,1,1,0,0,0,.18-.65V383.78a.91.91,0,0,0-.16-.47.93.93,0,0,1-.15-.48c.06-.6.6-1,1.62-1.21a12.57,12.57,0,0,1,2,0,17.21,17.21,0,0,1,3.15.42C765.94,382.34,766.58,382.77,766.58,383.33Z"/><path class="cls-11" d="M795.11,383.33a1.79,1.79,0,0,1-.18.79,6.21,6.21,0,0,0-.39,1v25.07c0-.08.07.39.22,1.4.17,1.17,0,1.93-.53,2.28s-1.7.46-3.54.31a18.08,18.08,0,0,1-3.63-.72c-1.78-.49-2.76-1-2.94-1.52a7.33,7.33,0,0,0-.13-1.64q-2.44-5.62-5.68-12.34v11.24a1.7,1.7,0,0,0,.3.8c.26.43.4.66.4.68a3.28,3.28,0,0,1,.21,1.14,1.37,1.37,0,0,1-1.57,1.52,17.67,17.67,0,0,1-4.33-.76,8.55,8.55,0,0,1-3-1.18,1.26,1.26,0,0,1,0-1.55,4.18,4.18,0,0,0,.53-1.18V384.88a2.7,2.7,0,0,0-.14-.68,1.3,1.3,0,0,1,0-.72,2.69,2.69,0,0,1,1.71-1.75,3.77,3.77,0,0,1,1-.07,16.44,16.44,0,0,1,3.5.38,6.8,6.8,0,0,1,3.24,1.29c.82.76,1.88,3.07,3.19,6.95a72.52,72.52,0,0,0,3.77,9.65V385a3,3,0,0,0-.18-.86,3.21,3.21,0,0,1-.17-.85,1.16,1.16,0,0,1,.08-.42c.15-.43.7-.75,1.67-.95a7.23,7.23,0,0,1,2.19-.19,14.84,14.84,0,0,1,2.4.42C794.39,382.5,795.08,382.9,795.11,383.33Z"/><path class="cls-11" d="M821.43,687.55a4,4,0,0,1-.36,1.66,10.93,10.93,0,0,0-.82,2.14v52.22c0-.16.15.82.45,2.93.37,2.43,0,4-1.09,4.75s-3.56,1-7.38.63a36.74,36.74,0,0,1-7.57-1.5c-3.71-1-5.75-2.06-6.11-3.17a15.92,15.92,0,0,0-.27-3.4q-5.12-11.71-11.86-25.72v23.43a3.53,3.53,0,0,0,.64,1.66,12.6,12.6,0,0,1,.82,1.42,6.44,6.44,0,0,1,.46,2.37q0,3.16-3.28,3.17a37.53,37.53,0,0,1-9-1.58c-3.65-1.06-5.71-1.87-6.2-2.46q-1.1-1.26,0-3.24a8.48,8.48,0,0,0,1.1-2.45V690.79a5.91,5.91,0,0,0-.28-1.42,2.66,2.66,0,0,1-.09-1.5,5.55,5.55,0,0,1,3.56-3.64,7.45,7.45,0,0,1,2-.16,35.12,35.12,0,0,1,7.3.79q4.83.95,6.74,2.69,2.55,2.37,6.66,14.48,5,14.88,7.84,20.1V691a6.22,6.22,0,0,0-.37-1.78,6.42,6.42,0,0,1-.36-1.78,2.05,2.05,0,0,1,.18-.87c.3-.9,1.46-1.56,3.47-2a15,15,0,0,1,4.55-.39,30.65,30.65,0,0,1,5,.87C819.94,685.84,821.37,686.65,821.43,687.55Z"/><path class="cls-11" d="M870.3,739.77a6.66,6.66,0,0,1-1.6,2.89,5.73,5.73,0,0,1-2.32,1.86,1.73,1.73,0,0,1-1-.28,3,3,0,0,0-1.19-.35.94.94,0,0,0-.36.08,39.22,39.22,0,0,0-5.66,1.9,54.33,54.33,0,0,0-12.39,6.88q-9.12-3.24-9.94-3.56c-3.77-1.42-5.65-2.48-5.65-3.16V686.52c0-.37.71-.9,2.14-1.58a7.07,7.07,0,0,1,3.14-1,22,22,0,0,1,4.38,1.22,17,17,0,0,0,5.38,1.15,17.4,17.4,0,0,0,7.11-2.13q4-2.07,5-1.74,2.19.63,6.52,4.15c2.89,2.35,4.45,4,4.7,5,.12.48-.44,1.3-1.69,2.46s-2.26,1.74-3,1.74a3.29,3.29,0,0,1-1.46-.24c-.31-.16-.52-.21-.64-.16a57.47,57.47,0,0,0-6.11,1.51q-6.75,2-9.94,4.58v12.9a68.27,68.27,0,0,1,8.3-2.92q1.46-.16,6.15,3.52t4.7,5.1a3.21,3.21,0,0,1-1.28,2.06,6,6,0,0,1-2.46,1.5c-.61,0-1.67,0-3.19.16q-3.46.55-12.22,5.06v8.31c1.83-1,4.3-2.07,7.43-3.36s5.06-1.94,5.79-1.94,3,1.15,6.43,3.44S870.42,739.14,870.3,739.77Z"/><path class="cls-11" d="M933.75,689.21c.24,1.11-.64,2.74-2.64,4.91a6.24,6.24,0,0,1-2,1.3,5.26,5.26,0,0,0-2,1.39l-14.68,18.51,14.77,22.32a5.33,5.33,0,0,0,1.68,1.34,4,4,0,0,1,1.6,1.43,6.92,6.92,0,0,1,1,2.85,2.19,2.19,0,0,1-.55,1.5c-.67.84-2.47,2.11-5.42,3.8s-4.91,2.58-5.88,2.69a4.94,4.94,0,0,1-2.19-.56,3.82,3.82,0,0,1-2.28-1.74,18.36,18.36,0,0,0-1.36-5l-10.13-14.88-10.39,15.43a3.77,3.77,0,0,0-.54,1.9,6.45,6.45,0,0,1-.37,1.9,12.9,12.9,0,0,1-1.28,2.22,3.44,3.44,0,0,1-2.18,1.26c-1.46.27-4.06-.33-7.8-1.78s-6.06-2.78-7-4a2.16,2.16,0,0,1-.46-1.27q0-1.26,2.46-3.56a19.52,19.52,0,0,0,2.92-2.61l15.77-23.19-14.13-20.49a8.14,8.14,0,0,0-2-1.66c-1-.69-1.55-1.27-1.55-1.74q-.1-1.28,4.65-4.71T888.9,683a3.33,3.33,0,0,1,3.28,1,19.72,19.72,0,0,0,1.18,2.69l10.3,15.82,12-15.19a8.1,8.1,0,0,1,1-2.69q1-1.18,4.47-1.5,1.64-.17,6.93,2.25C931.62,687,933.51,688.26,933.75,689.21Z"/><path class="cls-11" d="M984.44,697a5.85,5.85,0,0,1-2-.51,3.94,3.94,0,0,0-2.09-.36L971,698.39V740a11.76,11.76,0,0,0,1.27,5,5.33,5.33,0,0,1-.18,3c-.37,1.64-.94,2.67-1.73,3.09a3.15,3.15,0,0,1-.91.08,48.3,48.3,0,0,1-8.39-1c-4-.79-6.38-1.56-7.11-2.29q-1.27-1.43.09-3.8a7.2,7.2,0,0,0,1.18-3V701.87l-6.47,1.43a5.35,5.35,0,0,0-1.5.67,2.61,2.61,0,0,1-1.78.43c-1.4-.31-3.31-1.88-5.75-4.71s-3.49-4.73-3.19-5.73c.49-1.21,1.92-2.14,4.29-2.77a6.62,6.62,0,0,1,2.37-.08,7.77,7.77,0,0,0,2.28,0l31.73-7a21.94,21.94,0,0,0,2.64-1,5.49,5.49,0,0,1,2.64-.4,4.52,4.52,0,0,1,3.47,1.74,13.84,13.84,0,0,1,1.36,3.56,19.35,19.35,0,0,1,.92,5.38,5.69,5.69,0,0,1-.5,2.66C987.34,696.66,986.26,697,984.44,697Z"/><path class="cls-11" d="M1054.36,739.3q-1.09,3.72-3.46,4.51a4.68,4.68,0,0,1-2,.08,3.58,3.58,0,0,0-1.78.08l-13.49,4.9a3,3,0,0,0-1.32,1.35,2.59,2.59,0,0,1-1.33,1.27c-1.33.42-4.16,0-8.47-1.19s-6.93-2.35-7.84-3.4a5.17,5.17,0,0,1-.64-4,14.88,14.88,0,0,0,.18-2V687.79a2.79,2.79,0,0,0-.73-1.35,1.54,1.54,0,0,1-.55-1c.12-1,1.19-1.74,3.19-2.21,1.28-.27,4.05.13,8.3,1.18,4.8,1.22,7.23,2.64,7.29,4.28a3.77,3.77,0,0,1-1,1.9,3.71,3.71,0,0,0-1,1.89v43.76l9.48-3.56a12.28,12.28,0,0,1,3.1-1.42q1.28-.16,6.84,3.36C1052.87,737,1054.61,738.56,1054.36,739.3Z"/><path class="cls-11" d="M1098.12,739.77a6.62,6.62,0,0,1-1.59,2.89,5.74,5.74,0,0,1-2.33,1.86,1.74,1.74,0,0,1-1-.28,3,3,0,0,0-1.18-.35,1,1,0,0,0-.37.08,39.1,39.1,0,0,0-5.65,1.9,54.4,54.4,0,0,0-12.4,6.88q-9.12-3.24-9.94-3.56c-3.77-1.42-5.65-2.48-5.65-3.16V686.52c0-.37.71-.9,2.14-1.58a7.14,7.14,0,0,1,3.15-1,21.8,21.8,0,0,1,4.37,1.22,17,17,0,0,0,5.38,1.15,17.32,17.32,0,0,0,7.11-2.13q4-2.07,5-1.74,2.19.63,6.52,4.15c2.88,2.35,4.45,4,4.69,5q.18.72-1.68,2.46t-3.06,1.74a3.32,3.32,0,0,1-1.46-.24c-.3-.16-.51-.21-.64-.16a57.88,57.88,0,0,0-6.1,1.51q-6.75,2-9.94,4.58v12.9a67.66,67.66,0,0,1,8.3-2.92q1.45-.16,6.15,3.52t4.69,5.1a3.19,3.19,0,0,1-1.27,2.06,6,6,0,0,1-2.46,1.5c-.61,0-1.68,0-3.19.16q-3.48.55-12.22,5.06v8.31q2.73-1.43,7.43-3.36t5.79-1.94q1.27,0,6.43,3.44T1098.12,739.77Z"/><path class="cls-11" d="M1154.47,689.13q-4.76,10.53-10.76,32-5.48,19.39-5.38,22a26.5,26.5,0,0,0,.18,3.64,5.59,5.59,0,0,1-.64,3.32,3.37,3.37,0,0,1-2.46,2.14q-2.64.46-10.62-1.74t-9.16-3.88a4,4,0,0,1-.64-2.06,10,10,0,0,0-.27-2.13q-10.4-28.57-12.49-51.2a6.83,6.83,0,0,0-.46-1.66,4.23,4.23,0,0,1-.18-1.66,3.79,3.79,0,0,1,2.64-3.41q1.1-.32,7.66,1.51,6.93,1.89,7.66,3.24a7.24,7.24,0,0,1,0,3.32,4.72,4.72,0,0,1-.64,1.39,2.49,2.49,0,0,0-.46,1.54q1.38,8.31,2.56,14.64,2.91,15.2,4.56,18a166.49,166.49,0,0,1,5.47-18.83,160.55,160.55,0,0,0,5.47-19.15,19.61,19.61,0,0,1,.82-4,4.7,4.7,0,0,1,3-2.45q1.47-.39,6.84,1.35Q1153,687,1154.47,689.13Z"/><path class="cls-11" d="M1201.69,739.77a6.66,6.66,0,0,1-1.6,2.89,5.73,5.73,0,0,1-2.32,1.86,1.73,1.73,0,0,1-1-.28,3,3,0,0,0-1.19-.35.94.94,0,0,0-.36.08,39.22,39.22,0,0,0-5.66,1.9,54.33,54.33,0,0,0-12.39,6.88q-9.12-3.24-9.94-3.56c-3.77-1.42-5.65-2.48-5.65-3.16V686.52c0-.37.71-.9,2.14-1.58a7.11,7.11,0,0,1,3.14-1,22,22,0,0,1,4.38,1.22,17,17,0,0,0,5.38,1.15,17.4,17.4,0,0,0,7.11-2.13q4-2.07,5-1.74,2.19.63,6.52,4.15c2.89,2.35,4.45,4,4.7,5,.12.48-.44,1.3-1.69,2.46s-2.26,1.74-3,1.74a3.29,3.29,0,0,1-1.46-.24c-.31-.16-.52-.21-.64-.16A58.08,58.08,0,0,0,1187,697q-6.75,2-9.94,4.58v12.9a68.27,68.27,0,0,1,8.3-2.92q1.45-.16,6.15,3.52t4.7,5.1a3.21,3.21,0,0,1-1.28,2.06,6,6,0,0,1-2.46,1.5c-.61,0-1.67,0-3.19.16q-3.46.55-12.22,5.06v8.31c1.83-1,4.3-2.07,7.43-3.36s5.06-1.94,5.79-1.94,3,1.15,6.43,3.44S1201.81,739.14,1201.69,739.77Z"/><path class="cls-11" d="M1248.55,739.3q-1.1,3.72-3.46,4.51a4.68,4.68,0,0,1-2,.08,3.57,3.57,0,0,0-1.78.08l-13.49,4.9a3.09,3.09,0,0,0-1.33,1.35,2.54,2.54,0,0,1-1.32,1.27c-1.34.42-4.16,0-8.48-1.19s-6.93-2.35-7.84-3.4a5.21,5.21,0,0,1-.64-4,15.22,15.22,0,0,0,.19-2V687.79a2.87,2.87,0,0,0-.73-1.35,1.49,1.49,0,0,1-.55-1c.12-1,1.18-1.74,3.19-2.21,1.28-.27,4,.13,8.3,1.18,4.8,1.22,7.23,2.64,7.29,4.28a3.77,3.77,0,0,1-1,1.9,3.75,3.75,0,0,0-1,1.89v43.76l9.49-3.56a12.11,12.11,0,0,1,3.1-1.42q1.27-.16,6.83,3.36T1248.55,739.3Z"/></g><ellipse class="cls-47" cx="1850.21" cy="91.41" rx="29.62" ry="30.67"/><ellipse class="cls-47" cx="1847" cy="54.97" rx="29.62" ry="30.67"/><rect class="cls-47" x="1499.62" y="57.81" width="359.95" height="31.14" rx="15.57"/><rect class="cls-48" x="1498.18" y="58.76" width="320.61" height="30.43" rx="15.21"/><ellipse class="cls-47" cx="1494.72" cy="93.05" rx="28.94" ry="29.97"/><ellipse class="cls-47" cx="1496.66" cy="52.33" rx="28.94" ry="29.97"/><ellipse class="cls-24" cx="880.22" cy="477.21" rx="26.53" ry="31.31" transform="translate(-105.18 299.72) rotate(-18.25)"/><ellipse class="cls-24" cx="947.92" cy="426.2" rx="29.55" ry="34.91" transform="translate(-66.86 201.67) rotate(-11.73)"/><ellipse class="cls-24" cx="1048.35" cy="430.84" rx="32.72" ry="29.52" transform="translate(290.47 1273.62) rotate(-70.38)"/><ellipse class="cls-24" cx="1118.2" cy="473.01" rx="37.08" ry="27.33" transform="translate(44.67 1040.14) rotate(-50.78)"/><path class="cls-24" d="M1103.74,608.41c-2.94,59.18-71.71-18.12-130.49,2.8-61,21.72-81.2,29.31-78.26-29.88s47.8-104.12,110-100.86S1106.67,549.22,1103.74,608.41Z"/></svg>
