<svg id="Layer_1" data-name="Layer 1" xmlns="http://www.w3.org/2000/svg" xmlns:xlink="http://www.w3.org/1999/xlink" width="1929.18" height="438.68" viewBox="0 0 1929.18 438.68"><defs><style>.cls-1{fill:#00a24e;}.cls-2,.cls-6,.cls-7{stroke-miterlimit:10;}.cls-2{stroke-width:6px;fill:url(#linear-gradient);stroke:url(#linear-gradient-2);}.cls-3{fill:#fff;}.cls-4{fill:#723c29;}.cls-5{fill:#935934;}.cls-6,.cls-8{fill:#c96;}.cls-6,.cls-7{stroke:#c96;}.cls-7{fill:#d5975d;}.cls-9{fill:#010101;}.cls-10,.cls-11,.cls-12,.cls-13,.cls-16,.cls-17,.cls-18,.cls-19,.cls-20{fill:#a84571;}.cls-10{opacity:0.65;}.cls-12,.cls-23{opacity:0.67;}.cls-13{opacity:0.75;}.cls-14{fill:#fdd676;}.cls-15{fill:#00813a;opacity:0.9;}.cls-16{opacity:0.79;}.cls-17{opacity:0.61;}.cls-18,.cls-22{opacity:0.72;}.cls-19{opacity:0.84;}.cls-20{opacity:0.56;}.cls-21{opacity:0.11;fill:url(#radial-gradient);}.cls-23{fill:#0c0c15;}.cls-24{fill:#edebd5;opacity:0.91;}.cls-25{fill:#982d3d;opacity:0.74;}.cls-26{fill:#7d645e;}</style><linearGradient id="linear-gradient" x1="-10099.12" y1="-2040.04" x2="-8482.51" y2="-2040.04" gradientTransform="translate(3451.27 10036.9) scale(0.27 4.81)" gradientUnits="userSpaceOnUse"><stop offset="0" stop-color="#6aacde"/><stop offset="0" stop-color="#f6fafd"/><stop offset="0" stop-color="#f2f9fe"/><stop offset="0" stop-color="#626161"/><stop offset="0" stop-color="#9dd8f7"/><stop offset="0.04" stop-color="#94d5f7"/><stop offset="0.1" stop-color="#a7dcf8"/><stop offset="0.12" stop-color="#8dd3f6"/><stop offset="0.14" stop-color="#abddf9"/><stop offset="0.2" stop-color="#80cff5"/><stop offset="0.51" stop-color="#5ea5db"/><stop offset="0.77" stop-color="#9dd8f7"/><stop offset="0.93" stop-color="#a4dbf8"/><stop offset="1" stop-color="#d2ecfc"/><stop offset="1" stop-color="#8ccbf1"/><stop offset="1" stop-color="#e8f5fc" stop-opacity="0.7"/></linearGradient><linearGradient id="linear-gradient-2" x1="-10102.12" y1="-2040.04" x2="-8479.51" y2="-2040.04" gradientTransform="translate(3451.27 10036.9) scale(0.27 4.81)" gradientUnits="userSpaceOnUse"><stop offset="0" stop-color="#fff"/><stop offset="1"/></linearGradient><radialGradient id="radial-gradient" cx="-71.21" cy="575.89" r="357.71" gradientTransform="matrix(2.27, 0.21, 0.47, 0.87, 872.01, -393.99)" gradientUnits="userSpaceOnUse"><stop offset="0" stop-color="#6aacde"/><stop offset="0" stop-color="#f6fafd"/><stop offset="0" stop-color="#f2f9fe"/><stop offset="0" stop-color="#626161"/><stop offset="0" stop-color="#fded4c"/><stop offset="0" stop-color="#ffe68b"/><stop offset="0.1" stop-color="#fbc78b"/><stop offset="0.16" stop-color="#fdf3a4"/><stop offset="0.2" stop-color="#f9ea3c"/><stop offset="0.49" stop-color="#ffdb5b"/><stop offset="0.57" stop-color="#f6e826"/><stop offset="0.77" stop-color="#f6a033"/><stop offset="0.93" stop-color="#e7a800"/><stop offset="1" stop-color="#d2ecfc"/><stop offset="1" stop-color="#8ccbf1"/><stop offset="1" stop-color="#e8f5fc" stop-opacity="0.7"/></radialGradient></defs><title>completedbagrund</title><rect class="cls-1" x="3" y="432.7" width="1926.94" height="650.3"/><rect class="cls-2" x="748.25" y="-742.25" width="432.68" height="1923.18" transform="translate(745.25 1183.93) rotate(-90)"/><polyline class="cls-1" points="456.48 364.9 442.89 460.97 383.19 449.51"/><polyline class="cls-1" points="1427.41 363.17 1417.82 427.46 1379.81 420.42"/><polyline class="cls-1" points="1300.97 350.04 1291.37 414.33 1253.36 407.29"/><polyline class="cls-1" points="552 350.04 542.41 414.33 504.4 407.29"/><polyline class="cls-1" points="639.92 348.17 629.95 427.44 584.43 417.73"/><polyline class="cls-1" points="469.6 364.65 459.62 443.93 414.1 434.22"/><polyline class="cls-1" points="1364.19 355.66 1354.6 419.95 1316.59 412.91"/><polyline class="cls-1" points="1269.67 355.24 1260.07 419.53 1222.06 412.49"/><polyline class="cls-1" points="608.23 363.17 598.63 427.46 560.62 420.42"/><polyline class="cls-1" points="517.2 350.04 507.61 414.33 469.6 407.29"/><polyline class="cls-1" points="1396.02 372.14 1386.43 436.44 1348.42 429.4"/><polyline class="cls-1" points="1198.95 363.17 1189.35 427.46 1151.34 420.42"/><polyline class="cls-1" points="664.51 363.17 654.91 427.46 616.9 420.42"/><polyline class="cls-1" points="456.41 354.7 448.41 418.87 411.62 410.97"/><polyline class="cls-1" points="1450.74 356.5 1443.14 412.31 1407.56 412.09"/><ellipse class="cls-3" cx="75.5" cy="72.69" rx="31.7" ry="28.25"/><ellipse class="cls-3" cx="163.82" cy="78.69" rx="32.2" ry="28.69"/><ellipse class="cls-3" cx="140.16" cy="103.78" rx="33.34" ry="33.06"/><ellipse class="cls-3" cx="120.33" cy="70.72" rx="31.14" ry="27.75"/><ellipse class="cls-3" cx="91.33" cy="118.36" rx="29" ry="30.32"/><ellipse class="cls-3" cx="54.62" cy="106" rx="23.61" ry="17.02"/><ellipse class="cls-3" cx="49.24" cy="78.69" rx="23.61" ry="17.02"/><ellipse class="cls-3" cx="1803.15" cy="212.13" rx="24.22" ry="19.26"/><ellipse class="cls-3" cx="1870.61" cy="216.21" rx="24.6" ry="19.56"/><ellipse class="cls-3" cx="1852.54" cy="233.32" rx="25.46" ry="22.54"/><ellipse class="cls-3" cx="1837.39" cy="210.78" rx="23.79" ry="18.92"/><ellipse class="cls-3" cx="1815.24" cy="243.26" rx="22.15" ry="20.67"/><ellipse class="cls-3" cx="1787.2" cy="234.83" rx="18.04" ry="11.6"/><ellipse class="cls-3" cx="1783.09" cy="216.21" rx="18.04" ry="11.6"/><ellipse class="cls-3" cx="555.57" cy="71.76" rx="25.74" ry="18.54"/><ellipse class="cls-3" cx="627.29" cy="75.69" rx="26.15" ry="18.83"/><ellipse class="cls-3" cx="608.08" cy="92.16" rx="27.07" ry="21.69"/><ellipse class="cls-3" cx="591.98" cy="70.46" rx="25.29" ry="18.21"/><ellipse class="cls-3" cx="568.43" cy="101.73" rx="23.54" ry="19.89"/><ellipse class="cls-3" cx="538.63" cy="93.62" rx="19.17" ry="11.17"/><ellipse class="cls-3" cx="534.26" cy="75.69" rx="19.17" ry="11.17"/><polyline class="cls-1" points="349.34 366.29 335.75 462.36 276.05 450.91"/><polyline class="cls-1" points="713.42 364.27 699.84 460.34 640.14 448.88"/><polyline class="cls-1" points="888.8 371.92 875.21 467.99 815.51 456.53"/><polyline class="cls-1" points="845.68 366.29 832.09 462.36 772.39 450.91"/><polyline class="cls-1" points="737.13 423.51 723.54 519.58 663.85 508.13"/><polyline class="cls-1" points="660.95 358.94 647.36 455.01 587.66 443.55"/><polyline class="cls-1" points="1117.77 370.84 1104.18 466.91 1044.49 455.45"/><polyline class="cls-1" points="1209.26 370.84 1195.67 466.91 1135.97 455.45"/><polyline class="cls-1" points="1161.21 375.48 1147.62 471.55 1087.92 460.09"/><polyline class="cls-1" points="1377.03 366.29 1363.44 462.36 1303.74 450.91"/><polyline class="cls-1" points="1311.42 375.48 1297.83 471.55 1238.13 460.09"/><polyline class="cls-1" points="963.84 375.48 950.25 471.55 890.56 460.09"/><polyline class="cls-1" points="626.95 370.47 613.37 466.54 553.67 455.08"/><polyline class="cls-1" points="776.65 379.41 763.06 475.48 703.37 464.02"/><polyline class="cls-1" points="1858.72 358.94 1845.14 455.01 1785.44 443.55"/><ellipse class="cls-3" cx="320.96" cy="115.4" rx="43.35" ry="34.08"/><ellipse class="cls-3" cx="441.72" cy="122.63" rx="44.03" ry="34.61"/><ellipse class="cls-3" cx="409.37" cy="152.91" rx="45.58" ry="39.88"/><ellipse class="cls-3" cx="382.26" cy="113.02" rx="42.58" ry="33.48"/><ellipse class="cls-3" cx="342.61" cy="170.5" rx="39.65" ry="36.57"/><ellipse class="cls-3" cx="292.42" cy="155.58" rx="32.29" ry="20.54"/><ellipse class="cls-3" cx="285.06" cy="122.63" rx="32.29" ry="20.54"/><ellipse class="cls-3" cx="1081.11" cy="57.76" rx="25.99" ry="23.05"/><ellipse class="cls-3" cx="1153.53" cy="62.65" rx="26.4" ry="23.42"/><ellipse class="cls-3" cx="1134.13" cy="83.13" rx="27.33" ry="26.98"/><ellipse class="cls-3" cx="1117.87" cy="56.15" rx="25.53" ry="22.65"/><ellipse class="cls-3" cx="1094.1" cy="95.04" rx="23.77" ry="24.74"/><ellipse class="cls-3" cx="1064" cy="84.95" rx="19.36" ry="13.89"/><ellipse class="cls-3" cx="1059.59" cy="62.65" rx="19.36" ry="13.89"/><polyline class="cls-1" points="328.06 368.3 314.47 464.37 254.77 452.92"/><polyline class="cls-1" points="305.77 370.84 292.18 466.91 232.48 455.45"/><polyline class="cls-1" points="285.32 382.18 271.73 478.25 212.03 466.79"/><polyline class="cls-1" points="264.88 375.48 251.29 471.55 191.59 460.09"/><polyline class="cls-1" points="75.25 372.85 61.66 468.92 1.96 457.46"/><polyline class="cls-1" points="118.48 364.27 104.89 460.34 45.2 448.88"/><polyline class="cls-1" points="236.35 370.84 222.76 466.91 163.07 455.45"/><polyline class="cls-1" points="200.71 370.6 187.13 466.67 127.43 455.21"/><polyline class="cls-1" points="170.06 375.8 156.47 471.87 96.77 460.41"/><polyline class="cls-1" points="623.06 368.3 609.47 464.37 549.78 452.92"/><polyline class="cls-1" points="594.16 370.33 580.57 466.4 520.88 454.94"/><polyline class="cls-1" points="363.71 375.8 350.13 471.87 290.43 460.41"/><polyline class="cls-1" points="1095.76 368.57 1082.17 464.64 1022.47 453.19"/><polyline class="cls-1" points="1066.86 370.6 1053.27 466.67 993.57 455.21"/><polyline class="cls-1" points="993.57 375.8 979.98 471.87 920.28 460.41"/><polyline class="cls-1" points="1907.58 360.66 1893.99 456.73 1834.29 445.27"/><polyline class="cls-1" points="1878.68 362.68 1865.09 458.75 1805.39 447.29"/><polyline class="cls-1" points="1805.39 367.88 1791.8 463.95 1732.1 452.5"/><polyline class="cls-1" points="1780.69 371.92 1767.1 467.99 1707.4 456.53"/><polyline class="cls-1" points="1751.79 373.94 1738.2 470.01 1678.5 458.55"/><polyline class="cls-1" points="1678.5 379.14 1664.91 475.21 1605.22 463.75"/><polyline class="cls-1" points="1755.25 359.07 1741.66 455.14 1681.96 443.68"/><polyline class="cls-1" points="1726.35 361.09 1712.76 457.16 1653.07 445.7"/><polyline class="cls-1" points="1653.07 366.29 1639.48 462.36 1579.78 450.91"/><polyline class="cls-1" points="1525.18 366.48 1511.59 462.55 1451.89 451.09"/><polyline class="cls-1" points="1496.28 368.5 1482.69 464.57 1422.99 453.12"/><polyline class="cls-1" points="1422.99 373.71 1409.4 469.78 1349.7 458.32"/><polyline class="cls-1" points="149.74 355.33 136.15 451.4 76.45 439.94"/><polyline class="cls-1" points="104.52 366.29 90.93 462.36 31.23 450.91"/><polyline class="cls-1" points="26.5 370.46 66.84 458.7 10.38 481.23"/><polyline class="cls-1" points="500.05 360.36 486.46 456.43 426.77 444.97"/><polyline class="cls-1" points="478.77 362.37 465.19 458.44 405.49 446.98"/><polyline class="cls-1" points="436.03 376.25 422.44 472.32 362.74 460.86"/><polyline class="cls-1" points="415.59 369.54 402 465.61 342.3 454.15"/><polyline class="cls-1" points="387.07 364.9 373.48 460.97 313.78 449.51"/><polyline class="cls-1" points="514.43 369.86 500.84 465.93 441.14 454.48"/><polyline class="cls-1" points="631.42 364.24 617.83 460.31 558.13 448.85"/><polyline class="cls-1" points="610.14 366.25 596.55 462.32 536.85 450.86"/><polyline class="cls-1" points="587.85 368.78 574.26 464.85 514.56 453.4"/><polyline class="cls-1" points="567.4 380.13 553.81 476.2 494.11 464.74"/><polyline class="cls-1" points="546.96 373.43 533.37 469.5 473.67 458.04"/><polyline class="cls-1" points="518.43 368.78 504.84 464.85 445.15 453.4"/><polyline class="cls-1" points="645.79 373.75 632.21 469.82 572.51 458.36"/><polyline class="cls-1" points="222 368.3 208.42 464.37 148.72 452.92"/><polyline class="cls-1" points="200.72 370.31 187.14 466.38 127.44 454.92"/><polyline class="cls-1" points="178.43 372.85 164.84 468.92 105.15 457.46"/><polyline class="cls-1" points="157.98 384.19 144.39 480.26 84.69 468.8"/><polyline class="cls-1" points="137.54 377.49 123.95 473.56 64.25 462.1"/><polyline class="cls-1" points="109.02 372.85 95.43 468.92 35.73 457.46"/><polyline class="cls-1" points="236.38 377.81 222.79 473.88 163.09 462.42"/><polyline class="cls-1" points="798.78 358.31 785.19 454.38 725.49 442.92"/><polyline class="cls-1" points="777.5 360.31 763.91 456.38 704.21 444.93"/><polyline class="cls-1" points="755.21 362.85 741.62 458.92 681.92 447.46"/><polyline class="cls-1" points="734.75 374.19 721.16 470.26 661.47 458.81"/><polyline class="cls-1" points="714.31 367.49 700.72 463.56 641.03 452.1"/><polyline class="cls-1" points="685.79 362.85 672.2 458.92 612.5 447.46"/><polyline class="cls-1" points="813.15 367.81 799.56 463.88 739.86 452.42"/><polyline class="cls-1" points="950.97 362.65 937.38 458.72 877.68 447.26"/><polyline class="cls-1" points="929.69 364.66 916.1 460.73 856.4 449.27"/><polyline class="cls-1" points="907.4 367.19 893.81 463.26 834.11 451.81"/><polyline class="cls-1" points="886.94 378.54 873.35 474.61 813.66 463.15"/><polyline class="cls-1" points="866.5 371.84 852.91 467.91 793.22 456.45"/><polyline class="cls-1" points="837.98 367.19 824.39 463.26 764.69 451.81"/><polyline class="cls-1" points="965.34 372.16 951.75 468.23 892.05 456.77"/><polyline class="cls-1" points="1128.3 367.86 1114.71 463.93 1055.01 452.47"/><polyline class="cls-1" points="1107.02 369.86 1093.43 465.93 1033.73 454.48"/><polyline class="cls-1" points="1084.73 372.4 1071.14 468.47 1011.44 457.01"/><polyline class="cls-1" points="1064.27 383.74 1050.68 479.81 990.99 468.36"/><polyline class="cls-1" points="1043.83 377.04 1030.24 473.11 970.55 461.65"/><polyline class="cls-1" points="1015.31 372.4 1001.72 468.47 942.02 457.01"/><polyline class="cls-1" points="1142.67 377.36 1129.08 473.43 1069.38 461.97"/><polyline class="cls-1" points="1297.75 359.25 1284.16 455.32 1224.46 443.86"/><polyline class="cls-1" points="1276.47 361.26 1262.88 457.33 1203.18 445.87"/><polyline class="cls-1" points="1254.18 363.79 1240.59 459.86 1180.89 448.4"/><polyline class="cls-1" points="1233.73 375.14 1220.14 471.21 1160.44 459.75"/><polyline class="cls-1" points="1213.29 368.43 1199.7 464.5 1140 453.05"/><polyline class="cls-1" points="1184.77 363.79 1171.18 459.86 1111.48 448.4"/><polyline class="cls-1" points="1312.13 368.76 1298.54 464.83 1238.84 453.37"/><polyline class="cls-1" points="1441.39 367.86 1427.8 463.93 1368.1 452.47"/><polyline class="cls-1" points="1420.11 369.86 1406.52 465.93 1346.82 454.48"/><polyline class="cls-1" points="1397.82 372.4 1384.23 468.47 1324.53 457.01"/><polyline class="cls-1" points="1377.37 383.74 1363.78 479.81 1304.08 468.36"/><polyline class="cls-1" points="1356.93 377.04 1343.34 473.11 1283.64 461.65"/><polyline class="cls-1" points="1328.4 372.4 1314.81 468.47 1255.12 457.01"/><polyline class="cls-1" points="1455.76 377.36 1442.17 473.43 1382.48 461.97"/><polyline class="cls-1" points="1915.57 366 1901.98 462.06 1842.28 450.61"/><polyline class="cls-1" points="1894.29 368 1880.7 464.07 1821 452.62"/><polyline class="cls-1" points="1872 370.54 1858.41 466.61 1798.71 455.15"/><polyline class="cls-1" points="1851.55 381.88 1837.96 477.95 1778.26 466.5"/><polyline class="cls-1" points="1831.11 375.18 1817.52 471.25 1757.82 459.79"/><polyline class="cls-1" points="1802.58 370.54 1788.99 466.61 1729.3 455.15"/><polyline class="cls-1" points="1929.94 375.5 1916.36 471.57 1856.66 460.11"/><polyline class="cls-1" points="1679.07 367.86 1668.8 421.16 1633.69 416.22"/><polyline class="cls-1" points="1666.42 369.45 1656.14 422.76 1621.04 417.82"/><polyline class="cls-1" points="1653.15 371.37 1642.88 424.68 1607.77 419.73"/><polyline class="cls-1" points="1640.77 378.1 1630.5 431.41 1595.39 426.46"/><polyline class="cls-1" points="1615.22 374.87 1604.95 428.18 1569.84 423.24"/><polyline class="cls-1" points="1615.22 371.37 1604.95 424.68 1569.84 419.73"/><polyline class="cls-1" points="1696.78 371.37 1686.5 424.68 1651.39 419.73"/><polyline class="cls-1" points="1625.55 363.71 1615.33 439.06 1568.83 429.85"/><polyline class="cls-1" points="1608.99 365.21 1598.78 440.56 1552.27 431.34"/><polyline class="cls-1" points="1591.65 367.11 1581.44 442.46 1534.93 433.25"/><polyline class="cls-1" points="1575.78 375.94 1565.56 451.29 1519.06 442.08"/><polyline class="cls-1" points="1559.85 370.6 1549.63 445.95 1503.13 436.74"/><polyline class="cls-1" points="1537.63 366.85 1527.41 442.21 1480.91 432.99"/><polyline class="cls-1" points="1636.77 371.22 1626.55 446.58 1580.05 437.36"/><path class="cls-4" d="M387.31,145.78l28.85,27.64c16.18,15.51,17.36,41.91,2.63,59l-5,5.78c-14.72,17-39.75,18.29-55.93,2.78L329,213.29c-16.18-15.51-17.37-41.91-2.64-58.95l5-5.78C346.1,131.52,371.14,130.27,387.31,145.78Z"/><path class="cls-4" d="M710.24,217.79l-24,25.22a38.18,38.18,0,0,1-56,0l-3.64-3.83c-15.47-16.3-15.47-42.73,0-59l24-25.22a38.18,38.18,0,0,1,56,0l3.64,3.83C725.71,175.07,725.71,201.5,710.24,217.79Z"/><path class="cls-5" d="M314.84,425.35c0-150.62,90.76-272.72,202.72-272.72s202.73,122.1,202.73,272.72"/><ellipse class="cls-6" cx="674.7" cy="524.81" rx="116.21" ry="117.65"/><path class="cls-3" d="M538.61,418.46c0-57.91,19.73-104.86,44.07-104.86s44.07,46.95,44.07,104.86"/><path class="cls-3" d="M410.9,418.46c0-60.06,20-108.74,44.67-108.74s44.67,48.68,44.67,108.74"/><ellipse class="cls-7" cx="376.24" cy="524.81" rx="109.87" ry="115.73"/><ellipse class="cls-3" cx="442.82" cy="359.08" rx="17.42" ry="18.35"/><ellipse class="cls-4" cx="454.73" cy="372.59" rx="24.78" ry="26.1"/><ellipse class="cls-4" cx="584.87" cy="371.84" rx="24.07" ry="25.36"/><ellipse class="cls-4" cx="314.84" cy="238.03" rx="112.12" ry="38.94" transform="translate(-38.23 414.45) rotate(-63.64)"/><ellipse class="cls-4" cx="721.44" cy="233.55" rx="36.82" ry="102.15" transform="translate(-24.39 370.5) rotate(-28.34)"/><ellipse class="cls-8" cx="524.13" cy="494.87" rx="237.27" ry="85.8"/><path class="cls-9" d="M482.67,448c0-25,17-45.2,37.91-45.2S558.49,423,558.49,448"/><ellipse class="cls-9" cx="455.57" cy="367.68" rx="16.17" ry="17.03"/><ellipse class="cls-9" cx="584.87" cy="367.68" rx="16.17" ry="17.03"/><ellipse class="cls-3" cx="447.89" cy="364.45" rx="1.69" ry="6.39" transform="translate(-88.18 149.85) rotate(-17.32)"/><ellipse class="cls-3" cx="580.02" cy="359.08" rx="2.67" ry="4.81"/><ellipse class="cls-3" cx="576.57" cy="365.91" rx="1.82" ry="6.22" transform="translate(-85.67 199.28) rotate(-18.28)"/><ellipse class="cls-3" cx="452.81" cy="359.47" rx="2.67" ry="4.81"/><path class="cls-9" d="M494.14,263c.77,2.79-26.85-4.43-56.22,3.68s-49.39,28.46-50.16,25.67,16.11-31,45.48-39.12S493.37,260.23,494.14,263Z"/><path class="cls-9" d="M668.6,304.1c-1.19,3-18.27-20.92-46.59-32.18s-57.14-5.62-56-8.61,32.61-17.66,60.92-6.39S669.79,301.11,668.6,304.1Z"/><ellipse class="cls-10" cx="90.72" cy="413.84" rx="5.52" ry="20.46"/><ellipse class="cls-11" cx="116.89" cy="436.62" rx="20.17" ry="4.25"/><ellipse class="cls-11" cx="67.58" cy="442.95" rx="19.19" ry="4.21" transform="matrix(0.96, -0.29, 0.29, 0.96, -125.25, 38.49)"/><ellipse class="cls-11" cx="97.26" cy="415.17" rx="20.9" ry="4.35" transform="translate(-329.09 422.29) rotate(-77.77)"/><ellipse class="cls-11" cx="81.01" cy="415.86" rx="4.37" ry="20.63" transform="translate(-123.63 44.88) rotate(-17.86)"/><ellipse class="cls-11" cx="112.27" cy="419.84" rx="20.66" ry="4.15" transform="translate(-221.99 142.1) rotate(-35.3)"/><ellipse class="cls-11" cx="71.54" cy="418.26" rx="4.46" ry="17.81" transform="translate(-235.21 125.05) rotate(-36.59)"/><ellipse class="cls-12" cx="104.39" cy="418.26" rx="20.76" ry="4.44" transform="translate(-303.39 278.41) rotate(-57.06)"/><ellipse class="cls-13" cx="117.41" cy="427.56" rx="21.79" ry="4.24" transform="translate(-95.09 38.41) rotate(-13.28)"/><ellipse class="cls-10" cx="61.92" cy="435.56" rx="19.08" ry="4.23"/><ellipse class="cls-11" cx="67.58" cy="428.06" rx="4.19" ry="19.26" transform="translate(-355.59 334.62) rotate(-68.58)"/><ellipse class="cls-14" cx="92.35" cy="437.67" rx="17.62" ry="9.61"/><path class="cls-15" d="M1813.94,485.63c0,28.58-5.65,51.75-6.83,51.75s2.35-23.17,2.35-51.75-3.53-51.76-2.35-51.76S1813.94,457,1813.94,485.63Z"/><ellipse class="cls-10" cx="1804.26" cy="400.06" rx="4.98" ry="19.97"/><ellipse class="cls-11" cx="1804.26" cy="448.9" rx="4.66" ry="20.42"/><ellipse class="cls-11" cx="1827.87" cy="422.29" rx="18.19" ry="4.15"/><ellipse class="cls-11" cx="1783.39" cy="428.48" rx="17.44" ry="4.08" transform="translate(-44.45 580.32) rotate(-18.26)"/><ellipse class="cls-16" cx="1782.07" cy="433.87" rx="18.01" ry="3.48" transform="translate(-30.74 712.7) rotate(-22.43)"/><ellipse class="cls-17" cx="1826.61" cy="430.46" rx="3.81" ry="18.29" transform="translate(922.68 2075.06) rotate(-74.47)"/><ellipse class="cls-11" cx="1784.15" cy="438.83" rx="18.28" ry="3.43" transform="translate(19.41 950.18) rotate(-29.98)"/><ellipse class="cls-11" cx="1786.95" cy="442.11" rx="18.89" ry="3.32" transform="matrix(0.72, -0.69, 0.69, 0.72, 188.1, 1354.44)"/><ellipse class="cls-11" cx="1823.95" cy="435.92" rx="3.77" ry="18.5" transform="translate(707.07 1942.37) rotate(-66.89)"/><ellipse class="cls-18" cx="1822.09" cy="439.58" rx="3.69" ry="18.93" transform="translate(432.81 1697.82) rotate(-55.73)"/><ellipse class="cls-11" cx="1810.15" cy="401.35" rx="20.33" ry="3.94" transform="translate(1063.42 2098.45) rotate(-78.75)"/><ellipse class="cls-11" cx="1795.5" cy="402.03" rx="3.97" ry="20" transform="translate(-40.31 525.5) rotate(-16.47)"/><ellipse class="cls-11" cx="1823.7" cy="405.91" rx="19.16" ry="3.94" transform="translate(131.96 1198.79) rotate(-37.66)"/><ellipse class="cls-11" cx="1786.95" cy="404.37" rx="4.13" ry="16.93" transform="translate(81.32 1073.36) rotate(-34.17)"/><ellipse class="cls-12" cx="1816.59" cy="404.37" rx="19.83" ry="4.09" transform="translate(540.88 1759.4) rotate(-59.28)"/><ellipse class="cls-19" cx="1794.94" cy="447.4" rx="20.12" ry="4.73" transform="translate(845.7 2035.14) rotate(-73.12)"/><ellipse class="cls-20" cx="1814.33" cy="447.27" rx="4.76" ry="19.98" transform="translate(-41.73 663.83) rotate(-20.5)"/><ellipse class="cls-13" cx="1828.33" cy="413.45" rx="19.74" ry="4.12" transform="translate(-45.36 468.51) rotate(-14.43)"/><ellipse class="cls-10" cx="1778.29" cy="421.26" rx="17.21" ry="4.13"/><ellipse class="cls-11" cx="1783.39" cy="413.94" rx="4.05" ry="17.57" transform="translate(700.79 1890.36) rotate(-66.82)"/><ellipse class="cls-11" cx="1822.09" cy="445.34" rx="3.67" ry="18.19" transform="translate(25.4 984.06) rotate(-30.43)"/><ellipse class="cls-14" cx="1805.72" cy="423.32" rx="15.9" ry="9.38"/><path class="cls-21" d="M769.65,59.82,80.44,174.15c-47.56,1.3-47.2,2.34-47.56,1.3L11-59.86-1.17-54.63l372.4,9.18,682.18,18.32c2.8.07,875.05,29.46,872.77,30.13L770,59.73A2.11,2.11,0,0,1,769.65,59.82Z"/><polyline class="cls-1" points="5.89 385.42 33.29 431.52 4.32 451.84"/><g class="cls-22"><rect class="cls-23" x="408.32" y="157.25" width="1192.28" height="663.85" rx="260.58"/><path class="cls-3" d="M807.27,269.19a4.78,4.78,0,0,1-1.74,3.16,38.21,38.21,0,0,1-8.11,9.89q-5.92,5.31-9.57,5.3a5.13,5.13,0,0,1-1-.08c-2.68-.73-5.69-1.66-9-2.77a24.31,24.31,0,0,1-13.68-12.1A40.19,40.19,0,0,1,760,253.83a45.26,45.26,0,0,1,5.74-23q6.12-10.6,15.32-11,3.56-.17,10.44,3.16t9.07,6.61q2.19,3.28,3,14.36a11.24,11.24,0,0,1-.73,4.83q-1.09,2.92-2.83,2.69a56.61,56.61,0,0,1-8-1.74q-5.84-1.66-6.29-2.77a1.73,1.73,0,0,1-.18-.71,3.24,3.24,0,0,1,.77-1.78,3.3,3.3,0,0,0,.78-1.78,44.53,44.53,0,0,0,.45-6.1q0-4.11-1.09-5.69-5.48,3.48-8.3,11.63a52.76,52.76,0,0,0-1,27.58c.91,3.5,2,5.63,3.28,6.37q.92.46,5.06-3.21a25.47,25.47,0,0,0,5.34-5.89c.05-.06.33-.9.82-2.54a2.68,2.68,0,0,1,1.45-1.74q1.56-.46,8,2.26T807.27,269.19Z"/><path class="cls-3" d="M842.09,287.07a13.29,13.29,0,0,1-4.28-.44c-1.58-.39-3.13-.8-4.65-1.22-1.83-.43-4.68-1.19-8.57-2.3q-7.29-2.76-11-10.92-3.28-7.2-3.29-17.41a69.45,69.45,0,0,1,3.29-19.38q4.46-14.88,11.58-14.88a7.8,7.8,0,0,1,1.77.28,17.33,17.33,0,0,0,1.78.35,50.45,50.45,0,0,1,8.66-1.66c.61,0,1.22,0,1.83.08q10.94,1.19,17.23,11.87,5.64,9.66,5.65,23,0,12.66-5.11,21.76Q851.49,286.12,842.09,287.07Zm-1.64-58q-2-.48-4,4.67t-4,5.14a3.16,3.16,0,0,1-1.32-.44,4.84,4.84,0,0,0-1.42-.51q-3.09,5.94-3.09,16.93a46.16,46.16,0,0,0,2.09,14.8q2.37,6.88,6.57,7.6,4.92.78,7.93-8.79a66.72,66.72,0,0,0,2.64-19.94,53,53,0,0,0-1.37-13.13Q843.1,229.7,840.45,229.07Z"/><path class="cls-3" d="M949.12,283.75c-.42,2.26-1.15,3.5-2.19,3.71-1.45.32-4.25,0-8.38-1-4.38-1.06-6.87-2.11-7.48-3.17a2.66,2.66,0,0,1-.27-1.19,7.84,7.84,0,0,1,.23-1.54,8.82,8.82,0,0,0,.22-1.78V242.84Q927,250.12,920,275.6a2.55,2.55,0,0,0-.09.71,15,15,0,0,0,.32,2.53,17.49,17.49,0,0,1,.32,2.22,19.19,19.19,0,0,1-.28,3.16,2.45,2.45,0,0,1-1.91,1.9,14.36,14.36,0,0,1-3.19.24q-11.85,0-16.32-3.56a2,2,0,0,1-.55-2,6.91,6.91,0,0,0,0-2.3q-3.37-9-6-15.82-6.37-16.45-8.29-19.39V274.8a8.2,8.2,0,0,0,.73,2.85,19.94,19.94,0,0,1,1,2.77,12.7,12.7,0,0,1,.18,3.8c-.12,1.79-.54,2.9-1.27,3.32a4.73,4.73,0,0,1-2.1.32,37.66,37.66,0,0,1-8-1c-3.35-.68-5.32-1.4-5.93-2.14a2,2,0,0,1-.45-1.34,6.62,6.62,0,0,1,.31-1.58,6.47,6.47,0,0,0,.32-1.74V223.92a3.83,3.83,0,0,1,.92-2.17,4.26,4.26,0,0,1,2.09-1.62q1.55-.56,12,1.9,10.85,2.44,11.48,4.27a3.84,3.84,0,0,1,.09,1.9,19.87,19.87,0,0,0-.27,2,2.84,2.84,0,0,0,.27,1.26l12.31,28.72q2.55-7,9.3-28.56,3.38-11,5.47-11.47a5.82,5.82,0,0,1,1.46-.16,30.88,30.88,0,0,1,5.2.71,40.66,40.66,0,0,0,5.56.95q7.2.56,8.29.71,4.29.72,4.84,2.61a3.85,3.85,0,0,1,.18,1.19,8.49,8.49,0,0,1-.46,2.26,8.26,8.26,0,0,0-.45,2.17V279a4.76,4.76,0,0,0,1.14,2.37C948.92,282.43,949.24,283.22,949.12,283.75Z"/><path class="cls-3" d="M992.88,224.79q8.76,4.05,8.75,13.85,0,7.13-6.47,18-7.2,12.19-14.68,12.19a5.83,5.83,0,0,1-3.23-1.23l-3.51-2.41v13.45a7.64,7.64,0,0,0,.45,2.38c.43,1.26.7,2.13.82,2.61a4.68,4.68,0,0,1-.68,2.57,3.08,3.08,0,0,1-2.51,2q-1.64.15-7.11-2-5.75-2.22-7.11-4c-.55-.74-.55-1.84,0-3.32a8.05,8.05,0,0,0,.64-2.61v-48.9a5.13,5.13,0,0,0-.64-1.75,3.49,3.49,0,0,1-.55-1.82c.37-2.53,1.46-3.79,3.29-3.79A28,28,0,0,1,964,221a24.65,24.65,0,0,0,5.15,1,22,22,0,0,0,7-1.27,23.33,23.33,0,0,1,6.16-1.35,10,10,0,0,1,2.18.24,10.73,10.73,0,0,1,4.38,2.38A20.7,20.7,0,0,0,992.88,224.79Zm-7.56,6.1q-2.1,0-5.84,2a19.1,19.1,0,0,0-5.74,4.35v19.07q4.92-1.35,9.3-9.73,4-7.6,4-12.9C987.05,231.81,986.47,230.89,985.32,230.89Z"/><path class="cls-3" d="M1048.49,275.44q-1.1,3.72-3.46,4.51a4.68,4.68,0,0,1-2,.08,3.58,3.58,0,0,0-1.78.08L1027.8,285a3,3,0,0,0-1.32,1.35c-.46.73-.9,1.16-1.33,1.26-1.33.42-4.16,0-8.47-1.18s-6.93-2.35-7.84-3.41a5.13,5.13,0,0,1-.64-3.95,15.17,15.17,0,0,0,.18-2V223.92a2.8,2.8,0,0,0-.73-1.34,1.51,1.51,0,0,1-.55-1c.12-1,1.19-1.74,3.19-2.22q1.92-.39,8.3,1.19,7.2,1.83,7.29,4.27a3.69,3.69,0,0,1-1,1.9,3.77,3.77,0,0,0-1,1.9v43.76l9.48-3.56a12.22,12.22,0,0,1,3.1-1.43q1.27-.15,6.84,3.37T1048.49,275.44Z"/><path class="cls-3" d="M1092.25,275.91a6.62,6.62,0,0,1-1.59,2.89,5.74,5.74,0,0,1-2.33,1.86,1.74,1.74,0,0,1-1-.28,3,3,0,0,0-1.18-.35.8.8,0,0,0-.37.08,39,39,0,0,0-5.65,1.89,54.82,54.82,0,0,0-12.4,6.89q-9.12-3.24-9.94-3.56c-3.77-1.43-5.65-2.48-5.65-3.17v-59.5c0-.37.71-.9,2.14-1.58a7,7,0,0,1,3.15-1,21.8,21.8,0,0,1,4.37,1.22,17,17,0,0,0,5.38,1.15,17.21,17.21,0,0,0,7.11-2.14q4-2.06,5-1.74c1.46.43,3.63,1.81,6.52,4.16s4.45,4,4.69,5c.12.48-.44,1.29-1.68,2.45s-2.27,1.74-3.06,1.74a3.35,3.35,0,0,1-1.46-.23c-.3-.16-.51-.21-.64-.16a57.93,57.93,0,0,0-6.1,1.5q-6.75,2-9.94,4.59v12.9a69.2,69.2,0,0,1,8.3-2.93q1.45-.15,6.15,3.52t4.69,5.11a3.21,3.21,0,0,1-1.27,2.06,6,6,0,0,1-2.46,1.5c-.61,0-1.68,0-3.2.16q-3.46.56-12.21,5.06v8.31q2.73-1.42,7.43-3.36c3.13-1.3,5.06-1.94,5.79-1.94s3,1.15,6.43,3.44S1092.37,275.28,1092.25,275.91Z"/><path class="cls-3" d="M1140.85,233.18a5.85,5.85,0,0,1-2-.51,3.86,3.86,0,0,0-2.1-.36l-9.39,2.22v41.62a11.71,11.71,0,0,0,1.28,5,5.37,5.37,0,0,1-.18,3c-.37,1.64-1,2.66-1.73,3.09a3.24,3.24,0,0,1-.92.08,48.31,48.31,0,0,1-8.38-1q-6-1.18-7.11-2.3c-.86-1-.83-2.21.09-3.8a7.17,7.17,0,0,0,1.18-3V238l-6.47,1.42a5.82,5.82,0,0,0-1.51.68,2.59,2.59,0,0,1-1.77.43c-1.4-.32-3.32-1.88-5.75-4.71s-3.49-4.73-3.19-5.73q.73-1.83,4.29-2.77a6.59,6.59,0,0,1,2.37-.08,8.54,8.54,0,0,0,2.28,0l31.72-7.05a20.34,20.34,0,0,0,2.65-.94,5.37,5.37,0,0,1,2.64-.4,4.52,4.52,0,0,1,3.47,1.74,13.69,13.69,0,0,1,1.36,3.56,19.3,19.3,0,0,1,.91,5.38,5.52,5.52,0,0,1-.5,2.65C1143.75,232.8,1142.67,233.13,1140.85,233.18Z"/><path class="cls-3" d="M1191,275.91a6.66,6.66,0,0,1-1.6,2.89,5.79,5.79,0,0,1-2.32,1.86,1.75,1.75,0,0,1-1-.28,3,3,0,0,0-1.18-.35.85.85,0,0,0-.37.08,39,39,0,0,0-5.65,1.89,54.82,54.82,0,0,0-12.4,6.89q-9.12-3.24-9.93-3.56c-3.77-1.43-5.66-2.48-5.66-3.17v-59.5c0-.37.72-.9,2.15-1.58a6.94,6.94,0,0,1,3.14-1,22,22,0,0,1,4.38,1.22,17,17,0,0,0,5.38,1.15,17.29,17.29,0,0,0,7.11-2.14q4-2.06,5-1.74c1.46.43,3.63,1.81,6.52,4.16s4.45,4,4.7,5c.12.48-.45,1.29-1.69,2.45s-2.27,1.74-3.06,1.74a3.3,3.3,0,0,1-1.45-.23c-.31-.16-.52-.21-.64-.16a57.53,57.53,0,0,0-6.11,1.5q-6.75,2-9.94,4.59v12.9a69.2,69.2,0,0,1,8.3-2.93q1.45-.15,6.15,3.52t4.7,5.11a3.23,3.23,0,0,1-1.28,2.06,6,6,0,0,1-2.46,1.5c-.61,0-1.67,0-3.19.16q-3.46.56-12.22,5.06v8.31q2.73-1.42,7.43-3.36c3.13-1.3,5.06-1.94,5.79-1.94s3,1.15,6.43,3.44S1191.11,275.28,1191,275.91Z"/><path class="cls-3" d="M1241.22,246.24q0,8.63-5.38,18.75a75.23,75.23,0,0,1-10.76,15.35q-5.74,6.18-8.48,7.2a9.28,9.28,0,0,1-3.09.48,23.24,23.24,0,0,1-9.12-2.22,22,22,0,0,1-6.84-3.95v-57c.18-1.37,1.1-2.18,2.74-2.45a38.54,38.54,0,0,1,4.55.55c.55.06,2.36-.5,5.43-1.66a23,23,0,0,1,7.88-1.74,17,17,0,0,1,7.66,1.82,54,54,0,0,1,6.29,4.27c4.07,3.07,6.72,6.28,7.93,9.66Q1241.21,238.73,1241.22,246.24ZM1226.09,231a3.32,3.32,0,0,0-1.46-.24q-4.83,0-11.58,3.64V270q6.2-3.09,10.57-15.12a55.84,55.84,0,0,0,3.74-18.83Q1227.36,231.61,1226.09,231Z"/><path class="cls-3" d="M706.77,342c.17,1.32-.17,2.15-1,2.51a5.35,5.35,0,0,0-.7.3,82.67,82.67,0,0,0-6.7,11.89q-3.89,8.06-4.07,9.69a3.17,3.17,0,0,0,.18,1.06,3.65,3.65,0,0,1,.17,1.25c-.17,1.73-.67,2.65-1.48,2.78a11.58,11.58,0,0,1-3-.57,17.56,17.56,0,0,1-3.27-1.1c-1-.61-1.48-1.22-1.48-1.83a2.24,2.24,0,0,1,.3-1q.61-1.48,2.59-6.08-3.65-6.5-4.91-9a61.24,61.24,0,0,1-3.58-8.09,2.22,2.22,0,0,0-.51-.57,1,1,0,0,1-.41-.69c0-.38.57-.95,1.7-1.71q3.65-2.43,5-2.28a1.93,1.93,0,0,1,1.27.8,2.39,2.39,0,0,1,.57,1,16.69,16.69,0,0,0,.26,2.31,35.46,35.46,0,0,0,4.2,10.22q2.46-5.2,2.76-5.73a42.31,42.31,0,0,1,3.76-6,12.08,12.08,0,0,1,.62-1.56,2.77,2.77,0,0,1,2.36-.72,9.81,9.81,0,0,1,3.22,1.33C706,341,706.71,341.62,706.77,342Z"/><path class="cls-3" d="M730.93,341.89c0-.28,0,2.14,0,7.25q0,21.66-7,22.34a8.31,8.31,0,0,1-3-.38l-3.39-1c-1-.2-1.94-.42-2.91-.67a4.94,4.94,0,0,1-2.3-1.15c-1.2-1.14-2.16-3.63-2.89-7.45a65.62,65.62,0,0,1-1-11.7,54.56,54.56,0,0,1,.61-8.7,1.72,1.72,0,0,1,1.27-1.51,10.63,10.63,0,0,1,3.35.53,9.52,9.52,0,0,1,3.35,1.17.89.89,0,0,1,.21.61,3.24,3.24,0,0,1-.43,1.35,2.63,2.63,0,0,0-.4,1.35,22.17,22.17,0,0,0-.22,4.18,96.57,96.57,0,0,0,.7,12.11c.59,4.66,1.43,6.94,2.54,6.84,1.4-.13,2.45-2.34,3.15-6.65a71.47,71.47,0,0,0,.83-11.73,30.06,30.06,0,0,0-.3-5.59,2.26,2.26,0,0,0-.18-1.25,7,7,0,0,1-.39-.91,1.64,1.64,0,0,1,1-1.94,1.9,1.9,0,0,1,.75-.11,16.81,16.81,0,0,1,3.67.57,8.07,8.07,0,0,1,2.76,1C731,340.58,731,341.08,730.93,341.89Z"/><path class="cls-3" d="M773.77,369.58c-.21,1.09-.56,1.68-1,1.78a11,11,0,0,1-4-.49c-2.1-.51-3.3-1-3.59-1.52a1.25,1.25,0,0,1-.13-.57,4.35,4.35,0,0,1,.11-.74,4.48,4.48,0,0,0,.11-.86V349.94q-2.06,3.49-5.38,15.72a1.29,1.29,0,0,0,0,.35,6.87,6.87,0,0,0,.16,1.21,8.23,8.23,0,0,1,.15,1.07,9.4,9.4,0,0,1-.13,1.52,1.2,1.2,0,0,1-.92.91,7.41,7.41,0,0,1-1.53.11q-5.7,0-7.84-1.71a1,1,0,0,1-.26-.95,3.16,3.16,0,0,0,0-1.1q-1.62-4.33-2.89-7.6a78.68,78.68,0,0,0-4-9.3v15.11a4.07,4.07,0,0,0,.35,1.37,9.81,9.81,0,0,1,.48,1.33,5.9,5.9,0,0,1,.09,1.83c-.06.86-.26,1.39-.61,1.59a2.29,2.29,0,0,1-1,.15,18.13,18.13,0,0,1-3.85-.49c-1.6-.33-2.55-.67-2.84-1a.94.94,0,0,1-.22-.64,3.23,3.23,0,0,1,.15-.76,3.38,3.38,0,0,0,.15-.84V340.86a1.85,1.85,0,0,1,.44-1,2.13,2.13,0,0,1,1-.78c.49-.18,2.4.13,5.73.91s5.31,1.47,5.51,2.05a1.76,1.76,0,0,1,.05.91,9.11,9.11,0,0,0-.13.95,1.33,1.33,0,0,0,.13.61l5.9,13.79q1.23-3.37,4.47-13.71,1.62-5.28,2.62-5.51a3,3,0,0,1,.71-.08,15.16,15.16,0,0,1,2.49.35,19.88,19.88,0,0,0,2.67.45c2.3.18,3.63.29,4,.34,1.37.23,2.15.65,2.32,1.26a1.7,1.7,0,0,1,.09.57A4.24,4.24,0,0,1,773,343a3.83,3.83,0,0,0-.22,1V367.3a2.34,2.34,0,0,0,.55,1.14A1.7,1.7,0,0,1,773.77,369.58Z"/><path class="cls-3" d="M816.69,369.58c-.2,1.09-.55,1.68-1,1.78a11,11,0,0,1-4-.49c-2.1-.51-3.3-1-3.59-1.52a1.25,1.25,0,0,1-.13-.57A4.35,4.35,0,0,1,808,368a4.48,4.48,0,0,0,.11-.86V349.94q-2.05,3.49-5.38,15.72a1.29,1.29,0,0,0,0,.35,6.87,6.87,0,0,0,.16,1.21,8.23,8.23,0,0,1,.15,1.07,9.4,9.4,0,0,1-.13,1.52,1.22,1.22,0,0,1-.92.91,7.41,7.41,0,0,1-1.53.11q-5.7,0-7.84-1.71a1,1,0,0,1-.26-.95,3.16,3.16,0,0,0,0-1.1q-1.62-4.33-2.89-7.6a78.68,78.68,0,0,0-4-9.3v15.11a4.07,4.07,0,0,0,.35,1.37,9.81,9.81,0,0,1,.48,1.33,5.9,5.9,0,0,1,.09,1.83c-.06.86-.26,1.39-.61,1.59a2.29,2.29,0,0,1-1,.15,18.13,18.13,0,0,1-3.85-.49,6,6,0,0,1-2.85-1,1,1,0,0,1-.21-.64,3.23,3.23,0,0,1,.15-.76,3.38,3.38,0,0,0,.15-.84V340.86a1.85,1.85,0,0,1,.44-1,2.13,2.13,0,0,1,1-.78c.49-.18,2.4.13,5.73.91s5.31,1.47,5.51,2.05a1.76,1.76,0,0,1,0,.91,9.11,9.11,0,0,0-.13.95,1.33,1.33,0,0,0,.13.61l5.9,13.79q1.23-3.37,4.47-13.71,1.62-5.28,2.62-5.51a3,3,0,0,1,.7-.08,15.1,15.1,0,0,1,2.5.35,19.88,19.88,0,0,0,2.67.45c2.3.18,3.63.29,4,.34,1.37.23,2.14.65,2.32,1.26a1.7,1.7,0,0,1,.09.57,4.24,4.24,0,0,1-.22,1.08,3.83,3.83,0,0,0-.22,1V367.3a2.34,2.34,0,0,0,.55,1.14Q816.78,369.19,816.69,369.58Z"/><path class="cls-3" d="M829.52,340.75a2,2,0,0,1-.2.72l-.24.57a15.46,15.46,0,0,0-.53,2.36v23.32a1.32,1.32,0,0,0,.27.81,1.15,1.15,0,0,1,.26.59c0,1.62-.35,2.49-1.05,2.62a14.82,14.82,0,0,1-3.06-.49,12.35,12.35,0,0,1-3.24-.95c-.64-.48-1-.93-1-1.33a.52.52,0,0,1,.18-.34.94.94,0,0,0,.17-.65V341.2a.92.92,0,0,0-.15-.47.89.89,0,0,1-.15-.47c.06-.61.6-1,1.62-1.22a12.57,12.57,0,0,1,2,0,19.47,19.47,0,0,1,3.15.42C828.87,339.76,829.52,340.19,829.52,340.75Z"/><path class="cls-3" d="M840.89,359.09c-.06.94-.33,1.46-.83,1.56a2.12,2.12,0,0,1-.44,0,8.16,8.16,0,0,1-3.19-.87,10.94,10.94,0,0,1-3.15-2.09q-.53-.5,0-1.83c.35-.88.52-1.34.52-1.36V340.18c0-.66.44-1.11,1.32-1.37a2.83,2.83,0,0,1,.74-.07,10.32,10.32,0,0,1,2.8.45,3.92,3.92,0,0,1,2,1,10,10,0,0,1,.09,2.05v15.5a3.56,3.56,0,0,0,.09.66A4.52,4.52,0,0,1,840.89,359.09Zm0,5.51a5.81,5.81,0,0,1,0,1.86c-.11,1.32-.17,2.13-.17,2.43a11.86,11.86,0,0,1-.18,2.36,1.2,1.2,0,0,1-1.09,1,9.25,9.25,0,0,1-3-.76,8.07,8.07,0,0,1-3.15-1.64c-.21-.27-.13-.73.22-1.36a3.15,3.15,0,0,0,.3-1.41c0-.56,0-1.62,0-3.19.12-.91.56-1.35,1.32-1.33a13.94,13.94,0,0,1,3.41.85C840,363.92,840.78,364.32,840.89,364.6Z"/><path class="cls-3" d="M880.8,342c.18,1.32-.17,2.15-1,2.51a6.44,6.44,0,0,0-.7.3,81.89,81.89,0,0,0-6.69,11.89q-3.9,8.06-4.07,9.69a3.08,3.08,0,0,0,.17,1.06,3.46,3.46,0,0,1,.18,1.25c-.18,1.73-.67,2.65-1.49,2.78a11.64,11.64,0,0,1-3-.57,17.12,17.12,0,0,1-3.26-1.1c-1-.61-1.49-1.22-1.49-1.83a2.15,2.15,0,0,1,.31-1c.4-1,1.27-3,2.58-6.08q-3.63-6.5-4.9-9a60.2,60.2,0,0,1-3.59-8.09,2.33,2.33,0,0,0-.5-.57,1,1,0,0,1-.42-.69q0-.57,1.71-1.71,3.63-2.43,5-2.28a1.91,1.91,0,0,1,1.26.8,2.29,2.29,0,0,1,.57,1,15.6,15.6,0,0,0,.27,2.31,35.46,35.46,0,0,0,4.2,10.22q2.45-5.2,2.75-5.73a42.36,42.36,0,0,1,3.77-6,10.55,10.55,0,0,1,.61-1.56,2.77,2.77,0,0,1,2.36-.72,9.81,9.81,0,0,1,3.22,1.33C880,341,880.74,341.62,880.8,342Z"/><path class="cls-3" d="M896.51,371.17a6.35,6.35,0,0,1-2-.21c-.76-.19-1.51-.38-2.23-.59-.88-.2-2.25-.56-4.12-1.1a9.46,9.46,0,0,1-5.29-5.24,20,20,0,0,1-1.58-8.35,33.47,33.47,0,0,1,1.58-9.31q2.14-7.14,5.55-7.14a3.8,3.8,0,0,1,.86.13,6.58,6.58,0,0,0,.85.17,23.74,23.74,0,0,1,4.16-.79l.87,0q5.25.57,8.27,5.7a21.48,21.48,0,0,1,2.72,11A21.06,21.06,0,0,1,903.65,366Q901,370.71,896.51,371.17Zm-.78-27.84c-.65-.15-1.28.6-1.91,2.24s-1.26,2.47-1.9,2.47a1.6,1.6,0,0,1-.64-.21,2.1,2.1,0,0,0-.67-.24c-1,1.9-1.49,4.6-1.49,8.12a22.29,22.29,0,0,0,1,7.11c.76,2.2,1.81,3.42,3.15,3.64,1.58.26,2.85-1.15,3.81-4.21a31.93,31.93,0,0,0,1.27-9.57,25.6,25.6,0,0,0-.66-6.31C897.23,344.55,896.57,343.53,895.73,343.33Z"/><path class="cls-3" d="M931.43,341.89q0-.42.05,7.25,0,21.66-7,22.34a8.31,8.31,0,0,1-2.95-.38l-3.4-1c-1-.2-1.93-.42-2.91-.67a5,5,0,0,1-2.29-1.15c-1.2-1.14-2.16-3.63-2.89-7.45a65.62,65.62,0,0,1-1-11.7,54.56,54.56,0,0,1,.61-8.7,1.71,1.71,0,0,1,1.27-1.51,10.66,10.66,0,0,1,3.35.53,9.35,9.35,0,0,1,3.34,1.17.85.85,0,0,1,.22.61,3.14,3.14,0,0,1-.44,1.35,2.7,2.7,0,0,0-.39,1.35,21.28,21.28,0,0,0-.22,4.18,94.71,94.71,0,0,0,.7,12.11c.59,4.66,1.43,6.94,2.54,6.84,1.4-.13,2.45-2.34,3.15-6.65a72.59,72.59,0,0,0,.83-11.73,30.06,30.06,0,0,0-.3-5.59,2.35,2.35,0,0,0-.18-1.25,7,7,0,0,1-.39-.91,1.64,1.64,0,0,1,1-1.94,1.81,1.81,0,0,1,.74-.11,16.88,16.88,0,0,1,3.68.57,8.27,8.27,0,0,1,2.76,1C931.52,340.58,931.55,341.08,931.43,341.89Z"/><path class="cls-3" d="M941.63,339.57c.12.23,0,.51-.37.86s-.55.53-.55.58-.12.65-.61,1.49-.83,1.41-.83,1.44c-.09.84-.33,1.33-.7,1.48a1.41,1.41,0,0,1-.44.08,3,3,0,0,1-1-.23l-1.1-.34-1.7-.38a2,2,0,0,1-1.19-.65c0-.12.32-.7,1.14-1.71,1-1.24,1.59-1.95,1.71-2.12a6.61,6.61,0,0,0,.35-1.14c.17-.54.35-.81.52-.84a6.62,6.62,0,0,1,2.65.34C940.73,338.76,941.43,339.14,941.63,339.57Z"/><path class="cls-3" d="M968.1,365.51c.27.43-.25,1.49-1.55,3.17s-2.38,2.52-3.26,2.49a2.63,2.63,0,0,1-2.23-1.29,5.07,5.07,0,0,0-.66-1.1l-9.23-7.48v7a2.27,2.27,0,0,0,.37,1.07,2.19,2.19,0,0,1,.37.95c0,.76-.57,1.17-1.7,1.25a14.41,14.41,0,0,1-3.9-.42c-1.87-.35-2.8-.73-2.8-1.14a1.88,1.88,0,0,1,.11-.51,2.66,2.66,0,0,0,.11-.82V342.19a.85.85,0,0,0-.13-.47.67.67,0,0,1-.13-.33c0-.68.61-1.08,1.75-1.21a8.76,8.76,0,0,1,2.38.36,6.17,6.17,0,0,0,5.69-.65,10.25,10.25,0,0,1,4-1,9.09,9.09,0,0,1,1.35.11,5.16,5.16,0,0,1,2.23,1c.68.51,1.32,1,1.93,1.52,1.6,1.32,2.43,2,2.49,2.09a3.9,3.9,0,0,1,1.23,2.54q.26,4.41-8.67,11.32,1.85,1.44,8.1,7a9.47,9.47,0,0,1,1.14.45A6.8,6.8,0,0,1,968.1,365.51Zm-9.67-21.23q-2.05,0-7.26,3.72v5.82c1.25-.44,2.9-1.74,4.94-3.92s3.07-3.8,3.07-4.86A.67.67,0,0,0,958.43,344.28Z"/><path class="cls-3" d="M990.82,365.82a3.23,3.23,0,0,1-.77,1.38,2.82,2.82,0,0,1-1.12.9.87.87,0,0,1-.48-.14,1.42,1.42,0,0,0-.57-.17.53.53,0,0,0-.17,0,18.76,18.76,0,0,0-2.71.91,26,26,0,0,0-6,3.31l-4.77-1.71c-1.81-.69-2.71-1.19-2.71-1.52V340.26c0-.18.34-.44,1-.76a3.36,3.36,0,0,1,1.51-.46,10.73,10.73,0,0,1,2.1.59,8.13,8.13,0,0,0,2.58.55,8.21,8.21,0,0,0,3.41-1c1.29-.65,2.09-.93,2.41-.83a10.84,10.84,0,0,1,3.13,2c1.39,1.13,2.14,1.93,2.25,2.41.06.23-.21.62-.81,1.18a2.46,2.46,0,0,1-1.46.84,1.51,1.51,0,0,1-.7-.12c-.15-.07-.25-.1-.31-.07a26.73,26.73,0,0,0-2.93.72,13.83,13.83,0,0,0-4.77,2.2v6.19a33.74,33.74,0,0,1,4-1.4c.47-.05,1.45.51,3,1.69s2.25,2,2.25,2.45a1.48,1.48,0,0,1-.61,1,3,3,0,0,1-1.18.73c-.3,0-.81,0-1.54.07a24.73,24.73,0,0,0-5.86,2.43v4c.88-.45,2.06-1,3.57-1.61a11.5,11.5,0,0,1,2.78-.93,9.52,9.52,0,0,1,3.08,1.65C990.08,364.81,990.87,365.51,990.82,365.82Z"/><path class="cls-3" d="M1023,342.5a2.89,2.89,0,0,1-.61,1.29,2.17,2.17,0,0,1-1.49.87,1.75,1.75,0,0,1-.78-.13,2.3,2.3,0,0,0-.75-.17,15.49,15.49,0,0,0-3.76,1.1,22.45,22.45,0,0,0-4.68,2.16v6.95c.14-.05.83-.4,2-1.06a5.09,5.09,0,0,1,2-.68c.53,0,1.5.68,2.93,2.12s2.12,2.41,2.06,2.89a2.28,2.28,0,0,1-.88,1.37,2.94,2.94,0,0,1-1.22.68,1.16,1.16,0,0,1-.7-.09,1.88,1.88,0,0,0-.61-.17.54.54,0,0,0-.27.07c-.84.31-1.59.58-2.23.84a12.45,12.45,0,0,0-3.1,1.55v5.55a1.33,1.33,0,0,0,.45.82,1.4,1.4,0,0,1,.46,1,2.5,2.5,0,0,1-2.31,2.55,21.16,21.16,0,0,1-4.16-2.17c-1.26-.88-1.88-1.65-1.88-2.31V342.42a2,2,0,0,0-.51-1.23c-.33-.42-.47-.73-.41-.93a2,2,0,0,1,.83-1.16,2.89,2.89,0,0,1,1.57-.63,7.66,7.66,0,0,1,2.41,1.08,11.7,11.7,0,0,0,2.67,1.24l4.81-1.71a9.38,9.38,0,0,1,2-.88c.73-.07,2,.49,3.68,1.69S1023.08,342,1023,342.5Z"/><path class="cls-3" d="M1047.79,368.48c0,.22-.09.77-.17,1.63a1.65,1.65,0,0,1-.35,1,1.7,1.7,0,0,1-.75.12,12.86,12.86,0,0,1-3.58-.65,7.1,7.1,0,0,1-3.16-1.44,5.72,5.72,0,0,1-.7-2.28,27.08,27.08,0,0,0-1.09-4.22,37.39,37.39,0,0,0-4.86,1,19.92,19.92,0,0,0-4.15,1.42c-.44,1.09-1,2.43-1.75,4-.09.35-.19.69-.29,1a1.38,1.38,0,0,1-.77.77.76.76,0,0,1-.39.08,11.75,11.75,0,0,1-3.52-.95c-1.65-.63-2.5-1.05-2.56-1.25-.12-.36.16-1.23.83-2.62.93-2,1.47-3.27,1.62-3.73a2.2,2.2,0,0,1-.92-1.59,2.12,2.12,0,0,1,0-.42c.06-.3,1-.85,2.67-1.63l5.65-16.75a5.49,5.49,0,0,0,0-1.67c-.06-.69,0-1.12.26-1.29a1.82,1.82,0,0,1,1-.19,27.16,27.16,0,0,1,5.87.91c2.54.6,4,1.15,4.55,1.63a100.91,100.91,0,0,0,2,12.65Q1045.52,364.53,1047.79,368.48Zm-11.42-11.55c-.38-1.6-.61-2.65-.7-3.15a44.27,44.27,0,0,1-.66-5.28c-.58,1.24-1.27,3-2,5.16a26.4,26.4,0,0,0-1.36,4.33A48,48,0,0,1,1036.37,356.93Z"/><path class="cls-3" d="M1069.58,364.87a5.75,5.75,0,0,1-2.14,4.61,9.28,9.28,0,0,1-6,1.88,9.15,9.15,0,0,1-2.06-.26c-1.34-.33-2-.5-2.1-.5-.7-.12-1.41-.26-2.12-.4a4.08,4.08,0,0,1-1.86-.85,6.44,6.44,0,0,1-1.93-3,13.86,13.86,0,0,0-1.4-3,5.3,5.3,0,0,1-.83-1.07,1.41,1.41,0,0,1,.24-1.12,1.67,1.67,0,0,1,.9-.7,4.05,4.05,0,0,1,1-.08,26,26,0,0,1,3.74.33,7.29,7.29,0,0,1,2.48.58,9.59,9.59,0,0,1,.7,2.74c.26,1.52.65,2.37,1.18,2.54a.83.83,0,0,0,.39.08c.56,0,1-.4,1.42-1.2a5.94,5.94,0,0,0,.6-2.71q0-3.3-2.37-4.41a28,28,0,0,1-7.61-4.71,7.23,7.23,0,0,1-2.28-5.92,11.11,11.11,0,0,1,2.39-5.76,8,8,0,0,1,4.57-3.4c.67-.12,2.71.43,6.13,1.68.84.27,1.7.56,2.56.87a5,5,0,0,1,2.08,1.33c.81.88,1.22,2.42,1.22,4.59,0,.41,0,1,0,1.79s0,1.16,0,1.44a4.27,4.27,0,0,0,.31.88,1.47,1.47,0,0,1,.17.83,1.71,1.71,0,0,1-1.61,1.86,9.46,9.46,0,0,1-3.24-.57,7.18,7.18,0,0,1-3.33-1.55,1.75,1.75,0,0,1-.09-.76c0-.38.05-1.24.16-2.59s.15-2.31.15-2.92c0-1.09-.15-1.62-.44-1.6a2.81,2.81,0,0,0-2.25,1.69,7.42,7.42,0,0,0-.9,3.67q0,3.42,2.32,4.86l5.25,2.89a10.12,10.12,0,0,1,3.46,2.81A9,9,0,0,1,1069.58,364.87Z"/><path class="cls-3" d="M1093.7,345.31a2.7,2.7,0,0,1-1-.25,1.89,1.89,0,0,0-1-.17l-4.51,1.06v20a5.56,5.56,0,0,0,.61,2.39,2.5,2.5,0,0,1-.09,1.45,2.08,2.08,0,0,1-.83,1.48,1.6,1.6,0,0,1-.43,0,22.93,22.93,0,0,1-4-.5c-1.93-.38-3.06-.74-3.41-1.1s-.4-1.06,0-1.82a3.45,3.45,0,0,0,.57-1.45v-18.8l-3.11.69a2.52,2.52,0,0,0-.72.32,1.25,1.25,0,0,1-.85.21,6.66,6.66,0,0,1-2.76-2.26c-1.17-1.35-1.68-2.27-1.53-2.75s.92-1,2-1.33a3.19,3.19,0,0,1,1.14,0,4,4,0,0,0,1.1,0l15.23-3.38a12.39,12.39,0,0,0,1.26-.46,2.59,2.59,0,0,1,1.27-.19,2.17,2.17,0,0,1,1.67.84,6.54,6.54,0,0,1,.65,1.71,9.34,9.34,0,0,1,.44,2.58,2.68,2.68,0,0,1-.24,1.27C1095.09,345.12,1094.57,345.28,1093.7,345.31Z"/><path class="cls-3" d="M1105.6,359.09c-.06.94-.34,1.46-.83,1.56a2.18,2.18,0,0,1-.44,0,8.11,8.11,0,0,1-3.19-.87,10.86,10.86,0,0,1-3.16-2.09q-.52-.5,0-1.83c.35-.88.53-1.34.53-1.36V340.18c0-.66.44-1.11,1.31-1.37a2.92,2.92,0,0,1,.75-.07,10.38,10.38,0,0,1,2.8.45,4,4,0,0,1,2,1,11.66,11.66,0,0,1,.08,2.05v15.5a3.56,3.56,0,0,0,.09.66A3.7,3.7,0,0,1,1105.6,359.09Zm0,5.51a5.81,5.81,0,0,1,0,1.86q-.18,2-.18,2.43a12.83,12.83,0,0,1-.17,2.36,1.22,1.22,0,0,1-1.1,1,9.22,9.22,0,0,1-3-.76,8.05,8.05,0,0,1-3.16-1.64c-.2-.27-.13-.73.22-1.36a3,3,0,0,0,.31-1.41,26.7,26.7,0,0,1,0-3.19c.12-.91.55-1.35,1.31-1.33a13.89,13.89,0,0,1,3.42.85C1104.69,363.92,1105.48,364.32,1105.6,364.6Z"/><path class="cls-3" d="M1138.2,365.59a2.88,2.88,0,0,1-1.66,2.16,2.16,2.16,0,0,1-.94,0,1.73,1.73,0,0,0-.86,0l-6.47,2.36a1.43,1.43,0,0,0-.64.64c-.22.36-.43.56-.63.61-.64.2-2,0-4.07-.57s-3.33-1.13-3.77-1.63a2.49,2.49,0,0,1-.3-1.9,7.1,7.1,0,0,0,.09-.95V340.86a1.34,1.34,0,0,0-.35-.64.73.73,0,0,1-.27-.46c.06-.48.57-.83,1.53-1.06a11.66,11.66,0,0,1,4,.57c2.3.58,3.47,1.26,3.5,2.05a1.79,1.79,0,0,1-.48.91,1.75,1.75,0,0,0-.48.91v21l4.55-1.71a5.59,5.59,0,0,1,1.48-.69c.41-.05,1.51.49,3.29,1.62S1138.32,365.24,1138.2,365.59Z"/><path class="cls-3" d="M1159.21,365.82a3.23,3.23,0,0,1-.77,1.38,2.82,2.82,0,0,1-1.12.9.87.87,0,0,1-.48-.14,1.42,1.42,0,0,0-.57-.17.53.53,0,0,0-.17,0,18.76,18.76,0,0,0-2.71.91,26,26,0,0,0-6,3.31l-4.77-1.71c-1.81-.69-2.71-1.19-2.71-1.52V340.26c0-.18.34-.44,1-.76a3.36,3.36,0,0,1,1.51-.46,10.73,10.73,0,0,1,2.1.59,8.13,8.13,0,0,0,2.58.55,8.21,8.21,0,0,0,3.41-1c1.29-.65,2.09-.93,2.41-.83a10.84,10.84,0,0,1,3.13,2c1.39,1.13,2.14,1.93,2.25,2.41.06.23-.21.62-.81,1.18a2.46,2.46,0,0,1-1.46.84,1.51,1.51,0,0,1-.7-.12c-.15-.07-.25-.1-.31-.07a26.73,26.73,0,0,0-2.93.72,13.83,13.83,0,0,0-4.77,2.2v6.19a33.74,33.74,0,0,1,4-1.4c.47-.05,1.45.51,3,1.69s2.25,2,2.25,2.45a1.48,1.48,0,0,1-.61,1,3,3,0,0,1-1.18.73c-.3,0-.81,0-1.54.07a24.73,24.73,0,0,0-5.86,2.43v4c.88-.45,2.06-1,3.57-1.61a11.63,11.63,0,0,1,2.77-.93,9.42,9.42,0,0,1,3.09,1.65C1158.47,364.81,1159.26,365.51,1159.21,365.82Z"/><path class="cls-3" d="M1182.53,345.31a2.7,2.7,0,0,1-1-.25,1.92,1.92,0,0,0-1-.17l-4.51,1.06v20a5.59,5.59,0,0,0,.62,2.39,2.69,2.69,0,0,1-.09,1.45,2.12,2.12,0,0,1-.83,1.48,1.7,1.7,0,0,1-.44,0,23,23,0,0,1-4-.5c-1.92-.38-3.06-.74-3.41-1.1s-.39-1.06,0-1.82a3.45,3.45,0,0,0,.57-1.45v-18.8l-3.1.69a2.54,2.54,0,0,0-.73.32,1.24,1.24,0,0,1-.85.21,6.66,6.66,0,0,1-2.76-2.26c-1.16-1.35-1.67-2.27-1.53-2.75s.92-1,2.06-1.33a3.17,3.17,0,0,1,1.14,0,3.9,3.9,0,0,0,1.09,0l15.23-3.38a12.14,12.14,0,0,0,1.27-.46,2.58,2.58,0,0,1,1.27-.19,2.15,2.15,0,0,1,1.66.84,6.84,6.84,0,0,1,.66,1.71,9.29,9.29,0,0,1,.43,2.58,2.68,2.68,0,0,1-.24,1.27C1183.92,345.12,1183.4,345.28,1182.53,345.31Z"/><path class="cls-3" d="M1205.68,364.87a5.76,5.76,0,0,1-2.15,4.61,9.28,9.28,0,0,1-6,1.88,9.06,9.06,0,0,1-2-.26c-1.35-.33-2-.5-2.1-.5-.7-.12-1.41-.26-2.13-.4a4.18,4.18,0,0,1-1.86-.85,6.43,6.43,0,0,1-1.92-3,14.38,14.38,0,0,0-1.4-3,5,5,0,0,1-.83-1.07,1.37,1.37,0,0,1,.24-1.12,1.62,1.62,0,0,1,.89-.7,4.09,4.09,0,0,1,1-.08,26.09,26.09,0,0,1,3.74.33,7.19,7.19,0,0,1,2.47.58,8.89,8.89,0,0,1,.7,2.74c.26,1.52.66,2.37,1.18,2.54a.87.87,0,0,0,.4.08c.55,0,1-.4,1.42-1.2a6.07,6.07,0,0,0,.59-2.71q0-3.3-2.36-4.41a28.12,28.12,0,0,1-7.62-4.71,7.19,7.19,0,0,1-2.27-5.92A11.09,11.09,0,0,1,1188,342a8,8,0,0,1,4.57-3.4c.68-.12,2.72.43,6.13,1.68.85.27,1.7.56,2.56.87a5,5,0,0,1,2.08,1.33c.82.88,1.22,2.42,1.22,4.59,0,.41,0,1,0,1.79s0,1.16,0,1.44a4.73,4.73,0,0,0,.3.88,1.4,1.4,0,0,1,.18.83,1.73,1.73,0,0,1-1.62,1.86,9.49,9.49,0,0,1-3.24-.57,7.07,7.07,0,0,1-3.32-1.55,1.75,1.75,0,0,1-.09-.76c0-.38,0-1.24.15-2.59s.15-2.31.15-2.92c0-1.09-.14-1.62-.43-1.6a2.81,2.81,0,0,0-2.26,1.69,7.41,7.41,0,0,0-.89,3.67q0,3.42,2.31,4.86L1201,357a10.07,10.07,0,0,1,3.45,2.81A9,9,0,0,1,1205.68,364.87Z"/><path class="cls-3" d="M1235.79,341.28a6.77,6.77,0,0,1,4.2,6.65c0,2.28-1,5.16-3.11,8.66-2.31,3.9-4.65,5.85-7.05,5.85a2.85,2.85,0,0,1-1.55-.59l-1.68-1.16v6.46a3.74,3.74,0,0,0,.21,1.14c.21.6.34,1,.4,1.25a2.2,2.2,0,0,1-.33,1.23,1.47,1.47,0,0,1-1.2,1,10,10,0,0,1-3.42-.95,8.86,8.86,0,0,1-3.41-1.9,1.68,1.68,0,0,1,0-1.59,3.9,3.9,0,0,0,.31-1.26V342.57a2.47,2.47,0,0,0-.31-.83,1.74,1.74,0,0,1-.26-.88c.17-1.21.7-1.82,1.57-1.82a14.1,14.1,0,0,1,1.78.44,11.11,11.11,0,0,0,2.47.47,10.5,10.5,0,0,0,3.35-.61,11.12,11.12,0,0,1,3-.64,5.35,5.35,0,0,1,1,.11,5.1,5.1,0,0,1,2.1,1.14A10,10,0,0,0,1235.79,341.28Zm-3.64,2.92a6.7,6.7,0,0,0-2.8.95,9.31,9.31,0,0,0-2.75,2.09v9.16q2.36-.64,4.46-4.67a14,14,0,0,0,1.92-6.2C1233,344.65,1232.71,344.2,1232.15,344.2Z"/><path class="cls-3" d="M1262.48,365.59a2.9,2.9,0,0,1-1.66,2.16,2.2,2.2,0,0,1-1,0,1.7,1.7,0,0,0-.85,0l-6.47,2.36a1.43,1.43,0,0,0-.64.64c-.22.36-.43.56-.63.61-.65.2-2,0-4.07-.57s-3.33-1.13-3.77-1.63a2.49,2.49,0,0,1-.3-1.9,8.74,8.74,0,0,0,.08-.95V340.86a1.19,1.19,0,0,0-.35-.64.75.75,0,0,1-.26-.46c.06-.48.57-.83,1.53-1.06a11.66,11.66,0,0,1,4,.57c2.3.58,3.47,1.26,3.5,2.05a1.79,1.79,0,0,1-.48.91,1.79,1.79,0,0,0-.49.91v21l4.55-1.71a5.86,5.86,0,0,1,1.49-.69c.41-.05,1.5.49,3.28,1.62S1262.6,365.24,1262.48,365.59Z"/><path class="cls-3" d="M1291.1,368.48c0,.22-.09.77-.18,1.63a1.59,1.59,0,0,1-.35,1,1.62,1.62,0,0,1-.74.12,13,13,0,0,1-3.59-.65,7,7,0,0,1-3.15-1.44,5.55,5.55,0,0,1-.7-2.28,28.25,28.25,0,0,0-1.09-4.22,37.39,37.39,0,0,0-4.86,1,20.08,20.08,0,0,0-4.16,1.42c-.44,1.09-1,2.43-1.75,4-.09.35-.18.69-.28,1a1.41,1.41,0,0,1-.77.77.81.81,0,0,1-.39.08,11.79,11.79,0,0,1-3.53-.95c-1.65-.63-2.5-1.05-2.56-1.25-.11-.36.16-1.23.83-2.62.94-2,1.48-3.27,1.62-3.73a2.2,2.2,0,0,1-.92-1.59,2.18,2.18,0,0,1,0-.42c.06-.3,1-.85,2.67-1.63l5.64-16.75a5.4,5.4,0,0,0,0-1.67c-.06-.69,0-1.12.26-1.29a1.82,1.82,0,0,1,1-.19,27,27,0,0,1,5.86.91c2.54.6,4.06,1.15,4.55,1.63a104.85,104.85,0,0,0,2,12.65Q1288.82,364.53,1291.1,368.48Zm-11.42-11.55c-.38-1.6-.62-2.65-.7-3.15a42.31,42.31,0,0,1-.66-5.28q-.87,1.86-2.06,5.16a25.92,25.92,0,0,0-1.35,4.33A48,48,0,0,1,1279.68,356.93Z"/><path class="cls-3" d="M1316.52,342c.18,1.32-.17,2.15-1,2.51a6.44,6.44,0,0,0-.7.3,81.89,81.89,0,0,0-6.69,11.89q-3.9,8.06-4.07,9.69a3.08,3.08,0,0,0,.17,1.06,3.46,3.46,0,0,1,.18,1.25c-.18,1.73-.67,2.65-1.49,2.78a11.64,11.64,0,0,1-3-.57,17.12,17.12,0,0,1-3.26-1.1c-1-.61-1.49-1.22-1.49-1.83a2.15,2.15,0,0,1,.31-1c.4-1,1.27-3,2.58-6.08q-3.63-6.5-4.9-9a60.2,60.2,0,0,1-3.59-8.09,2.33,2.33,0,0,0-.5-.57,1,1,0,0,1-.42-.69q0-.57,1.71-1.71,3.63-2.43,5-2.28a1.91,1.91,0,0,1,1.26.8,2.29,2.29,0,0,1,.57,1,15.6,15.6,0,0,0,.27,2.31,35.46,35.46,0,0,0,4.2,10.22q2.45-5.2,2.75-5.73a42.36,42.36,0,0,1,3.77-6,10.55,10.55,0,0,1,.61-1.56,2.77,2.77,0,0,1,2.36-.72,9.81,9.81,0,0,1,3.22,1.33C1315.71,341,1316.46,341.62,1316.52,342Z"/><path class="cls-3" d="M707.08,414.05c0,.23-.09.78-.18,1.64a1.61,1.61,0,0,1-.35,1,1.65,1.65,0,0,1-.74.12,12.92,12.92,0,0,1-3.59-.65,7.11,7.11,0,0,1-3.15-1.44,5.39,5.39,0,0,1-.7-2.28,27,27,0,0,0-1.1-4.22,37.32,37.32,0,0,0-4.85,1.05,20.08,20.08,0,0,0-4.16,1.42c-.44,1.09-1,2.43-1.75,4-.09.35-.18.69-.29,1a1.34,1.34,0,0,1-.76.78.83.83,0,0,1-.4.08,11.75,11.75,0,0,1-3.52-1c-1.65-.63-2.5-1-2.56-1.25-.12-.36.16-1.23.83-2.62.94-2,1.48-3.27,1.62-3.73a2.2,2.2,0,0,1-.92-1.59,2.18,2.18,0,0,1,0-.42c.06-.3,1-.85,2.67-1.63l5.64-16.75a5.74,5.74,0,0,0,0-1.67c-.06-.69,0-1.12.26-1.3a1.86,1.86,0,0,1,1.05-.19,27.24,27.24,0,0,1,5.86.92c2.54.6,4.06,1.15,4.55,1.63a105.15,105.15,0,0,0,2,12.65Q704.8,410.1,707.08,414.05Zm-11.43-11.54c-.38-1.6-.61-2.65-.7-3.15a42.25,42.25,0,0,1-.65-5.29c-.59,1.25-1.27,3-2.06,5.17a25.92,25.92,0,0,0-1.35,4.33A45.3,45.3,0,0,1,695.65,402.51Z"/><path class="cls-3" d="M733.16,402.66a2,2,0,0,1-1.53,1.94,1.1,1.1,0,0,1-.62-.14,1.42,1.42,0,0,0-.57-.17,1.53,1.53,0,0,0-.56.12,58.15,58.15,0,0,1-2.67,7.59,8.83,8.83,0,0,1-4.56,4.71,4,4,0,0,1-1.53.31,18.91,18.91,0,0,1-3.89-1c-.79-.18-2-.54-3.72-1.1s-3-2.34-3.94-4.9a24.3,24.3,0,0,1-1.27-8.32,29.24,29.24,0,0,1,2-11.17q2.19-5.35,5.78-6a7,7,0,0,1,.7,0,15.39,15.39,0,0,1,5.34,1.22,10.28,10.28,0,0,1,4.55,2.85,6.87,6.87,0,0,1,1.27,3.19,23.43,23.43,0,0,0,.48,2.39c.09.43.21,1,.35,1.56a1.82,1.82,0,0,1-.44,1.16,2.11,2.11,0,0,1-.91.81,9.34,9.34,0,0,1-3.42-.55A13.48,13.48,0,0,1,720.6,396a1.65,1.65,0,0,1-.66-1.78.83.83,0,0,1,.22-.48.85.85,0,0,0,.22-.51c0-1.8-.23-2.7-.7-2.7q-1.48,0-2.63,4.33a36.19,36.19,0,0,0-1,9c0,4.81.78,7.57,2.32,8.28.47.2,1.1-.5,1.91-2.09a13.29,13.29,0,0,0,1.42-4.48,14.76,14.76,0,0,0-2.67-1.18q-1.58-.57-1.71-1a2.22,2.22,0,0,1,.44-1.61,3.12,3.12,0,0,1,1.29-1.35,5.13,5.13,0,0,1,1.9-.34,14.49,14.49,0,0,0,2-.08,17.44,17.44,0,0,0,2.4-.64,7,7,0,0,1,2.06-.46,2.33,2.33,0,0,1,.48,0,9.43,9.43,0,0,1,3.22,1.71C732.49,401.62,733.19,402.31,733.16,402.66Z"/><path class="cls-3" d="M760.07,414.05c0,.23-.09.78-.17,1.64a1.67,1.67,0,0,1-.35,1,1.7,1.7,0,0,1-.75.12,13,13,0,0,1-3.59-.65,7.22,7.22,0,0,1-3.15-1.44,5.72,5.72,0,0,1-.7-2.28,27.08,27.08,0,0,0-1.09-4.22,37.39,37.39,0,0,0-4.86,1.05,20.31,20.31,0,0,0-4.16,1.42c-.43,1.09-1,2.43-1.75,4-.08.35-.18.69-.28,1a1.36,1.36,0,0,1-.77.78.81.81,0,0,1-.39.08,11.68,11.68,0,0,1-3.52-1c-1.65-.63-2.51-1-2.56-1.25-.12-.36.16-1.23.83-2.62.93-2,1.47-3.27,1.62-3.73a2.17,2.17,0,0,1-.92-1.59,2.12,2.12,0,0,1,0-.42c.06-.3,1-.85,2.67-1.63l5.65-16.75a5.85,5.85,0,0,0,0-1.67c-.06-.69,0-1.12.26-1.3a1.91,1.91,0,0,1,1.05-.19,27.31,27.31,0,0,1,5.87.92c2.53.6,4,1.15,4.55,1.63a101.19,101.19,0,0,0,2,12.65Q757.78,410.1,760.07,414.05Zm-11.42-11.54c-.38-1.6-.61-2.65-.7-3.15a44.18,44.18,0,0,1-.66-5.29c-.58,1.25-1.27,3-2,5.17a26.4,26.4,0,0,0-1.36,4.33A45.1,45.1,0,0,1,748.65,402.51Z"/><path class="cls-3" d="M772.28,386.33a2.08,2.08,0,0,1-.2.72l-.24.57a15.82,15.82,0,0,0-.52,2.35v23.32a1.32,1.32,0,0,0,.26.82,1.15,1.15,0,0,1,.26.59c0,1.62-.35,2.49-1.05,2.62a14.92,14.92,0,0,1-3.06-.49,12.35,12.35,0,0,1-3.24-.95c-.64-.48-1-.93-1-1.33a.5.5,0,0,1,.17-.34,1,1,0,0,0,.18-.65V386.78a.91.91,0,0,0-.16-.47.93.93,0,0,1-.15-.48c.06-.6.6-1,1.62-1.21a12.57,12.57,0,0,1,2,0,17.21,17.21,0,0,1,3.15.42C771.64,385.34,772.28,385.77,772.28,386.33Z"/><path class="cls-3" d="M800.81,386.33a1.79,1.79,0,0,1-.18.79,6.21,6.21,0,0,0-.39,1v25.07c0-.08.07.39.22,1.4.17,1.17,0,1.93-.53,2.28s-1.7.46-3.54.31a18.08,18.08,0,0,1-3.63-.72c-1.78-.49-2.76-1-2.94-1.52a7.33,7.33,0,0,0-.13-1.64Q787.24,407.71,784,401v11.24a1.7,1.7,0,0,0,.3.8c.26.43.4.66.4.68a3.28,3.28,0,0,1,.21,1.14,1.37,1.37,0,0,1-1.57,1.52,17.67,17.67,0,0,1-4.33-.76,8.55,8.55,0,0,1-3-1.18,1.26,1.26,0,0,1,0-1.55,4.18,4.18,0,0,0,.53-1.18V387.88a2.7,2.7,0,0,0-.14-.68,1.3,1.3,0,0,1,0-.72,2.69,2.69,0,0,1,1.71-1.75,3.77,3.77,0,0,1,1-.07,16.44,16.44,0,0,1,3.5.38,6.8,6.8,0,0,1,3.24,1.29c.82.76,1.88,3.07,3.19,6.95a72.52,72.52,0,0,0,3.77,9.65V388a3,3,0,0,0-.18-.86,3.21,3.21,0,0,1-.17-.85,1.16,1.16,0,0,1,.08-.42c.15-.43.7-.75,1.67-.95a7.23,7.23,0,0,1,2.19-.19,14.84,14.84,0,0,1,2.4.42C800.09,385.5,800.78,385.9,800.81,386.33Z"/></g><ellipse class="cls-24" cx="1855.91" cy="94.41" rx="29.62" ry="30.67"/><ellipse class="cls-24" cx="1852.7" cy="57.97" rx="29.62" ry="30.67"/><rect class="cls-24" x="1505.32" y="60.81" width="359.95" height="31.14" rx="15.57"/><rect class="cls-25" x="1503.88" y="61.76" width="320.61" height="30.43" rx="15.21"/><ellipse class="cls-24" cx="1500.42" cy="96.05" rx="28.94" ry="29.97"/><ellipse class="cls-24" cx="1502.36" cy="55.33" rx="28.94" ry="29.97"/><ellipse class="cls-26" cx="953.62" cy="429.2" rx="29.55" ry="34.91" transform="translate(-67.35 202.89) rotate(-11.73)"/><ellipse class="cls-26" cx="1054.05" cy="433.84" rx="32.72" ry="29.52" transform="translate(291.43 1280.98) rotate(-70.38)"/></svg>
