<svg id="Layer_1" data-name="Layer 1" xmlns="http://www.w3.org/2000/svg" width="1920" height="1080" viewBox="0 0 1920 1080"><defs><style>.cls-1{opacity:0.69;}.cls-2{fill:#0c0c15;opacity:0.77;}.cls-3{fill:#fff;}.cls-4{fill:#edebd5;}</style></defs><title>gameover</title><g class="cls-1"><rect class="cls-2" x="390.18" y="216.54" width="1140.34" height="648.08" rx="260.58"/><path class="cls-3" d="M756.78,292.33a4.16,4.16,0,0,1-3.11,4,2.17,2.17,0,0,1-1.24-.27,2.73,2.73,0,0,0-1.16-.35,3.4,3.4,0,0,0-1.15.23q-3.47,11.64-5.42,15.61-3.56,7.43-9.24,9.68a8,8,0,0,1-3.11.62c-1.06,0-3.7-.67-7.9-2q-2.4-.54-7.55-2.26-5.16-2.19-8-10.07a50.85,50.85,0,0,1-2.57-17.09,60.71,60.71,0,0,1,4.08-22.95q4.44-11,11.73-12.33a11.86,11.86,0,0,1,1.42-.08,31,31,0,0,1,10.84,2.5q6.83,2.66,9.23,5.85a14.46,14.46,0,0,1,2.58,6.56c.53,3,.86,4.66,1,4.92.17.88.41,1.95.71,3.2a3.78,3.78,0,0,1-.89,2.38,4.37,4.37,0,0,1-1.87,1.68q-1.15.39-6.93-1.13c-3.85-1-6.15-1.81-6.92-2.39-1.07-.62-1.51-1.84-1.34-3.66a1.77,1.77,0,0,1,.45-1,1.84,1.84,0,0,0,.44-1.05c0-3.7-.47-5.54-1.42-5.54q-3-.09-5.33,8.89A75.1,75.1,0,0,0,722,294.67q0,14.83,4.71,17,1.41.62,3.86-4.3a27.16,27.16,0,0,0,2.89-9.2,29.74,29.74,0,0,0-5.42-2.42c-2.13-.78-3.29-1.46-3.46-2-.24-.78.05-1.89.88-3.32a6.47,6.47,0,0,1,2.62-2.77,10.33,10.33,0,0,1,3.87-.7,29.31,29.31,0,0,0,4.08-.16,36.65,36.65,0,0,0,4.89-1.33,14.41,14.41,0,0,1,4.17-.93,5.94,5.94,0,0,1,1,.07c1.48.26,3.66,1.44,6.53,3.52S756.84,291.6,756.78,292.33Z"/><path class="cls-3" d="M811.4,315.75c-.06.46-.18,1.58-.35,3.35a1.81,1.81,0,0,1-2.22,2.34,26,26,0,0,1-7.29-1.32c-3.14-.84-5.27-1.82-6.39-3q-.72-.7-1.42-4.68a58.55,58.55,0,0,0-2.22-8.67,75.09,75.09,0,0,0-9.86,2.15q-6.49,1.76-8.44,2.93-1.34,3.35-3.55,8.27c-.18.73-.37,1.42-.58,2.07a2.85,2.85,0,0,1-1.56,1.6,1.61,1.61,0,0,1-.79.16c-1.43,0-3.81-.66-7.15-2s-5.08-2.15-5.2-2.57c-.24-.73.32-2.52,1.69-5.39,1.89-4.16,3-6.71,3.28-7.65a4.52,4.52,0,0,1-1.86-3.27,4.58,4.58,0,0,1,.09-.86c.11-.63,1.92-1.75,5.41-3.36l11.46-34.42a11.45,11.45,0,0,0,.09-3.43c-.12-1.41.06-2.29.53-2.66a3.71,3.71,0,0,1,2.14-.39,54.72,54.72,0,0,1,11.9,1.88q7.73,1.88,9.23,3.35.54,8.67,4,26Q806.78,307.63,811.4,315.75ZM788.22,292q-1.15-4.92-1.42-6.48a88.63,88.63,0,0,1-1.33-10.85q-1.79,3.82-4.18,10.62c-1.72,4.73-2.63,7.7-2.75,8.89A94.93,94.93,0,0,1,788.22,292Z"/><path class="cls-3" d="M897.29,318c-.42,2.24-1.13,3.46-2.13,3.67-1.42.31-4.15,0-8.17-1q-6.4-1.56-7.29-3.12a2.71,2.71,0,0,1-.26-1.17,8.17,8.17,0,0,1,.22-1.52,8.64,8.64,0,0,0,.22-1.76V277.66Q875.71,284.84,869,310a2.53,2.53,0,0,0-.09.7,15.46,15.46,0,0,0,.31,2.5,16.34,16.34,0,0,1,.31,2.19,19.2,19.2,0,0,1-.27,3.12,2.41,2.41,0,0,1-1.86,1.87,13.86,13.86,0,0,1-3.11.23q-11.55,0-15.9-3.51a2,2,0,0,1-.53-1.95,7.27,7.27,0,0,0,0-2.26Q844.54,304,842,297.25q-6.21-16.23-8.08-19.12v31.06a8.37,8.37,0,0,0,.71,2.81,19.91,19.91,0,0,1,1,2.73,12.37,12.37,0,0,1,.18,3.75c-.12,1.77-.54,2.86-1.25,3.28a4.6,4.6,0,0,1-2,.31,36.48,36.48,0,0,1-7.82-1c-3.25-.67-5.18-1.38-5.77-2.1a2,2,0,0,1-.44-1.33,6.51,6.51,0,0,1,.31-1.56,7.05,7.05,0,0,0,.31-1.72V259a3.73,3.73,0,0,1,.89-2.14,4.21,4.21,0,0,1,2-1.6q1.51-.56,11.64,1.87,10.56,2.42,11.19,4.22a3.83,3.83,0,0,1,.09,1.87q-.27,1.63-.27,1.95a2.77,2.77,0,0,0,.27,1.25l12,28.33q2.48-6.94,9.06-28.18,3.28-10.85,5.33-11.31a5.5,5.5,0,0,1,1.42-.16,31.11,31.11,0,0,1,5.06.7,38.26,38.26,0,0,0,5.42.94c4.67.37,7.37.6,8.08.7q4.17.71,4.71,2.58a3.68,3.68,0,0,1,.18,1.17,8.1,8.1,0,0,1-.45,2.22,8,8,0,0,0-.44,2.15v47.77a4.85,4.85,0,0,0,1.11,2.34Q897.47,317.23,897.29,318Z"/><path class="cls-3" d="M944.63,310.28a6.64,6.64,0,0,1-1.55,2.85,5.65,5.65,0,0,1-2.27,1.84,1.68,1.68,0,0,1-1-.28,2.84,2.84,0,0,0-1.15-.35.94.94,0,0,0-.36.08,38.38,38.38,0,0,0-5.5,1.87,52.87,52.87,0,0,0-12.08,6.79q-8.88-3.19-9.68-3.51c-3.68-1.4-5.51-2.44-5.51-3.12V257.76c0-.37.69-.89,2.09-1.57a7,7,0,0,1,3.06-.93,20.68,20.68,0,0,1,4.26,1.21,12.55,12.55,0,0,0,12.17-1q3.92-2,4.89-1.72,2.13.63,6.35,4.1t4.57,5c.12.47-.43,1.27-1.64,2.42s-2.21,1.71-3,1.71a3.18,3.18,0,0,1-1.42-.23c-.29-.16-.5-.21-.62-.16a57.41,57.41,0,0,0-5.95,1.49q-6.57,1.95-9.68,4.52v12.73a65,65,0,0,1,8.08-2.89c.95-.1,2.95,1.05,6,3.47s4.57,4.1,4.57,5a3.18,3.18,0,0,1-1.24,2,5.88,5.88,0,0,1-2.4,1.48c-.59,0-1.63.05-3.11.15q-3.37.56-11.9,5v8.19c1.77-.93,4.19-2,7.24-3.31s4.93-1.91,5.64-1.91,2.91,1.13,6.26,3.39S944.75,309.66,944.63,310.28Z"/><path class="cls-3" d="M1000.68,321.29a12.9,12.9,0,0,1-4.18-.43c-1.54-.39-3-.8-4.53-1.21-1.77-.42-4.56-1.17-8.35-2.26q-7.11-2.75-10.75-10.78-3.2-7.1-3.19-17.17a69.45,69.45,0,0,1,3.19-19.12q4.36-14.67,11.29-14.67a7.89,7.89,0,0,1,1.73.27,15.91,15.91,0,0,0,1.73.35,47.94,47.94,0,0,1,8.44-1.64c.59,0,1.18,0,1.77.08q10.67,1.17,16.79,11.71,5.5,9.52,5.51,22.71,0,12.5-5,21.46Q1009.83,320.36,1000.68,321.29Zm-1.6-57.21c-1.31-.31-2.59,1.22-3.87,4.6s-2.56,5.08-3.86,5.08a3.28,3.28,0,0,1-1.29-.43,4.63,4.63,0,0,0-1.37-.51q-3,5.85-3,16.7a46.19,46.19,0,0,0,2.05,14.6q2.31,6.78,6.39,7.49,4.8.78,7.73-8.66a66.49,66.49,0,0,0,2.58-19.67,53.35,53.35,0,0,0-1.34-13C1002.13,266.57,1000.79,264.49,999.08,264.08Z"/><path class="cls-3" d="M1075.55,260.33q-4.62,10.38-10.48,31.53-5.33,19.13-5.24,21.7a25.77,25.77,0,0,0,.18,3.59,5.68,5.68,0,0,1-.62,3.28,3.32,3.32,0,0,1-2.4,2.11q-2.58.46-10.35-1.72t-8.93-3.83a4.06,4.06,0,0,1-.62-2,10.74,10.74,0,0,0-.26-2.11q-10.14-28.19-12.17-50.5a6.46,6.46,0,0,0-.45-1.64,4.26,4.26,0,0,1-.17-1.64,3.7,3.7,0,0,1,2.57-3.35q1.07-.31,7.46,1.48,6.75,1.88,7.46,3.2a7.06,7.06,0,0,1,0,3.28,4.72,4.72,0,0,1-.62,1.36,2.47,2.47,0,0,0-.44,1.52q1.32,8.21,2.48,14.44,2.85,15,4.44,17.8a169.92,169.92,0,0,1,5.33-18.58,156.21,156.21,0,0,0,5.33-18.88,20.23,20.23,0,0,1,.8-4,4.64,4.64,0,0,1,2.93-2.42q1.42-.37,6.67,1.33C1072.23,257.57,1074.6,258.93,1075.55,260.33Z"/><path class="cls-3" d="M1121.56,310.28a6.57,6.57,0,0,1-1.56,2.85,5.64,5.64,0,0,1-2.26,1.84,1.68,1.68,0,0,1-1-.28,2.84,2.84,0,0,0-1.15-.35.94.94,0,0,0-.36.08,38.92,38.92,0,0,0-5.51,1.87,53.3,53.3,0,0,0-12.08,6.79q-8.88-3.19-9.68-3.51-5.51-2.1-5.5-3.12V257.76c0-.37.69-.89,2.08-1.57a7,7,0,0,1,3.07-.93,20.68,20.68,0,0,1,4.26,1.21,12.55,12.55,0,0,0,12.17-1q3.9-2,4.89-1.72c1.42.42,3.53,1.79,6.35,4.1s4.33,4,4.57,5c.12.47-.43,1.27-1.64,2.42s-2.21,1.71-3,1.71a3.18,3.18,0,0,1-1.42-.23c-.3-.16-.5-.21-.62-.16a57.41,57.41,0,0,0-6,1.49q-6.59,1.95-9.68,4.52v12.73a65,65,0,0,1,8.08-2.89c.95-.1,2.94,1.05,6,3.47s4.58,4.1,4.58,5a3.22,3.22,0,0,1-1.24,2,5.88,5.88,0,0,1-2.4,1.48c-.6,0-1.63.05-3.11.15q-3.37.56-11.9,5v8.19c1.77-.93,4.18-2,7.24-3.31s4.92-1.91,5.63-1.91,2.92,1.13,6.27,3.39S1121.68,309.66,1121.56,310.28Z"/><path class="cls-3" d="M1177.43,309.66c.53.88-.52,3.06-3.16,6.52s-4.84,5.16-6.61,5.11a5.38,5.38,0,0,1-4.54-2.66,9.76,9.76,0,0,0-1.33-2.26L1143.05,301v14.44a4.65,4.65,0,0,0,.76,2.19,4.66,4.66,0,0,1,.75,1.95q0,2.34-3.46,2.58a29.88,29.88,0,0,1-7.91-.86q-5.68-1.1-5.68-2.34a3.49,3.49,0,0,1,.22-1.06,5.3,5.3,0,0,0,.22-1.68V261.74a1.89,1.89,0,0,0-.26-1,1.45,1.45,0,0,1-.27-.66q.09-2.12,3.55-2.5a17.54,17.54,0,0,1,4.84.74,22.33,22.33,0,0,0,5.38.82q1.5-.07,6.17-2.15a20.77,20.77,0,0,1,8.13-2.07,16.59,16.59,0,0,1,2.75.24,10.56,10.56,0,0,1,4.53,2q2,1.56,3.91,3.12,4.88,4.07,5.06,4.29a8,8,0,0,1,2.49,5.23q.52,9.06-17.59,23.26,3.73,3,16.43,14.44a18.35,18.35,0,0,1,2.31.94A13.51,13.51,0,0,1,1177.43,309.66ZM1157.8,266q-4.18,0-14.75,7.65v11.94q3.83-1.32,10-8t6.22-10A1.36,1.36,0,0,0,1157.8,266Z"/><path class="cls-3" d="M686.16,358.89q-3.28,5.28-6,16.07-2.22,8.85-2,10.72a1.31,1.31,0,0,0,0,.75,1.62,1.62,0,0,1,.08.67c-.19,1.17-.58,1.8-1.15,1.87s-1.87-.36-4.26-1.31-3.79-1.61-4-2.06c0-.05-.07-.82-.12-2.32a42.5,42.5,0,0,1-2.43-10c-.8,1.8-1.58,3.59-2.35,5.39a15,15,0,0,0-1,5.81,2.23,2.23,0,0,0,0,.9,2.21,2.21,0,0,1,0,.94c-.26,1.07-.65,1.68-1.19,1.83a2.48,2.48,0,0,1-.68.08,15,15,0,0,1-4.44-.79q-3-.93-3.45-2.25a14.27,14.27,0,0,0-.09-1.95,69.71,69.71,0,0,1-2.68-11.61,80.27,80.27,0,0,1-.56-12.1,5.28,5.28,0,0,1-.21-2.21c.37-1.08.88-1.6,1.53-1.58a10.94,10.94,0,0,1,3.54,1.17c1.62.75,2.49,1.35,2.6,1.79a15.77,15.77,0,0,1-.13,2.14c-.11,1.15-.17,2.21-.17,3.19a71.2,71.2,0,0,0,1.24,10.41l6-16.45a6,6,0,0,1,.51-1.35,2.08,2.08,0,0,1,1.28-.67,12.34,12.34,0,0,1,3.41,1.18c2,.84,3,1.42,3,1.74s0,1-.09,2.51c-.08,1.78-.13,3.32-.13,4.65a44.54,44.54,0,0,0,.68,8.35,110.26,110.26,0,0,1,3-10.67,53.26,53.26,0,0,1,2.17-6,1.89,1.89,0,0,1,2.26-1.65,13.07,13.07,0,0,1,3.16.86C685,357.54,685.91,358.19,686.16,358.89Z"/><path class="cls-3" d="M701.38,387.85a6,6,0,0,1-2-.21c-.74-.18-1.47-.38-2.18-.58s-2.19-.56-4-1.08a9.31,9.31,0,0,1-5.16-5.17,19.92,19.92,0,0,1-1.54-8.25,33,33,0,0,1,1.54-9.17q2.09-7,5.41-7.05a4.14,4.14,0,0,1,.83.13,6.42,6.42,0,0,0,.83.17,23.33,23.33,0,0,1,4-.78c.29,0,.57,0,.86,0q5.12.57,8.06,5.62a21.44,21.44,0,0,1,2.64,10.9,21,21,0,0,1-2.39,10.31Q705.78,387.4,701.38,387.85Zm-.77-27.46c-.62-.15-1.24.59-1.85,2.21s-1.23,2.43-1.85,2.43a1.44,1.44,0,0,1-.62-.2,2.43,2.43,0,0,0-.66-.25,17.84,17.84,0,0,0-1.45,8,22,22,0,0,0,1,7q1.11,3.25,3.07,3.59,2.29.38,3.71-4.15a32.15,32.15,0,0,0,1.23-9.45,25.37,25.37,0,0,0-.64-6.21Q701.86,360.69,700.61,360.39Z"/><path class="cls-3" d="M728.24,387.85a6,6,0,0,1-2-.21c-.74-.18-1.47-.38-2.18-.58s-2.19-.56-4-1.08a9.33,9.33,0,0,1-5.15-5.17,19.92,19.92,0,0,1-1.54-8.25,33,33,0,0,1,1.54-9.17q2.08-7,5.41-7.05a4.14,4.14,0,0,1,.83.13,6.42,6.42,0,0,0,.83.17,23.33,23.33,0,0,1,4-.78c.29,0,.57,0,.86,0q5.11.57,8,5.62a21.34,21.34,0,0,1,2.65,10.9,21,21,0,0,1-2.39,10.31Q732.63,387.4,728.24,387.85Zm-.77-27.46c-.62-.15-1.24.59-1.85,2.21s-1.23,2.43-1.86,2.43a1.41,1.41,0,0,1-.61-.2,2.43,2.43,0,0,0-.66-.25,17.84,17.84,0,0,0-1.45,8,22,22,0,0,0,1,7c.73,2.17,1.76,3.37,3.06,3.59q2.31.38,3.71-4.15A31.8,31.8,0,0,0,730,369.6a25.37,25.37,0,0,0-.64-6.21Q728.72,360.69,727.47,360.39Z"/><path class="cls-3" d="M756.76,358.36a6.69,6.69,0,0,1,4.09,6.56c0,2.25-1,5.1-3,8.54q-3.37,5.78-6.87,5.77a2.69,2.69,0,0,1-1.51-.58l-1.64-1.14v6.37A3.63,3.63,0,0,0,748,385c.2.6.33,1,.39,1.24a2.34,2.34,0,0,1-.32,1.22,1.46,1.46,0,0,1-1.18,1,9.68,9.68,0,0,1-3.32-.94,8.51,8.51,0,0,1-3.33-1.87,1.7,1.7,0,0,1,0-1.57,3.8,3.8,0,0,0,.3-1.24V359.64a2.28,2.28,0,0,0-.3-.82A1.65,1.65,0,0,1,740,358q.25-1.8,1.53-1.8a13.61,13.61,0,0,1,1.73.44,11.06,11.06,0,0,0,2.41.46,9.89,9.89,0,0,0,3.26-.6,10.89,10.89,0,0,1,2.88-.63,4.32,4.32,0,0,1,3.07,1.23A9.43,9.43,0,0,0,756.76,358.36Zm-3.54,2.89a6.39,6.39,0,0,0-2.73.94,8.84,8.84,0,0,0-2.68,2.06v9c1.53-.43,3-2,4.35-4.61a13.8,13.8,0,0,0,1.87-6.11C754,361.69,753.76,361.25,753.22,361.25Z"/><path class="cls-3" d="M783.07,381.63a5.71,5.71,0,0,1-2.09,4.55,9,9,0,0,1-5.8,1.86,8.26,8.26,0,0,1-2-.27c-1.3-.32-2-.48-2-.48l-2.07-.4a3.83,3.83,0,0,1-1.81-.84,6.32,6.32,0,0,1-1.88-2.92,14,14,0,0,0-1.36-3,4.78,4.78,0,0,1-.81-1.05,1.35,1.35,0,0,1,.23-1.1,1.59,1.59,0,0,1,.88-.7,3.9,3.9,0,0,1,.93-.07,24.58,24.58,0,0,1,3.65.32,6.63,6.63,0,0,1,2.41.58,8.83,8.83,0,0,1,.68,2.69c.26,1.5.64,2.34,1.15,2.51a.93.93,0,0,0,.39.08c.54,0,1-.4,1.38-1.18a6,6,0,0,0,.58-2.68q0-3.26-2.31-4.35a27.65,27.65,0,0,1-7.41-4.64,7.17,7.17,0,0,1-2.22-5.85,11,11,0,0,1,2.32-5.67,7.82,7.82,0,0,1,4.46-3.36q1-.18,6,1.65l2.49.87a4.83,4.83,0,0,1,2,1.31c.79.87,1.19,2.38,1.19,4.53,0,.4,0,1,0,1.76s-.05,1.15-.05,1.42a4.47,4.47,0,0,0,.3.87,1.34,1.34,0,0,1,.17.82,1.7,1.7,0,0,1-1.57,1.84,9.59,9.59,0,0,1-3.16-.57,6.87,6.87,0,0,1-3.24-1.53,1.79,1.79,0,0,1-.08-.75q0-.57.15-2.55c.1-1.32.14-2.28.14-2.88,0-1.08-.14-1.6-.42-1.58a2.74,2.74,0,0,0-2.2,1.67,7.41,7.41,0,0,0-.87,3.61q0,3.38,2.26,4.8l5.11,2.85a9.94,9.94,0,0,1,3.37,2.77A9,9,0,0,1,783.07,381.63Z"/><path class="cls-3" d="M793.77,375.94q-.09,1.38-.81,1.53a2.15,2.15,0,0,1-.43,0,7.93,7.93,0,0,1-3.11-.86,10.43,10.43,0,0,1-3.07-2.06q-.51-.49,0-1.8c.34-.88.51-1.32.51-1.35V357.28c0-.65.43-1.1,1.28-1.35a2.71,2.71,0,0,1,.72-.07,9.76,9.76,0,0,1,2.73.44,3.8,3.8,0,0,1,1.92,1,9.69,9.69,0,0,1,.09,2v15.29a3.2,3.2,0,0,0,.08.65A3.6,3.6,0,0,1,793.77,375.94Zm0,5.43a6.3,6.3,0,0,1,0,1.83c-.12,1.3-.17,2.1-.17,2.4a12.42,12.42,0,0,1-.17,2.32,1.19,1.19,0,0,1-1.07,1,9,9,0,0,1-2.94-.75,7.84,7.84,0,0,1-3.07-1.61q-.3-.42.21-1.35a3.08,3.08,0,0,0,.3-1.39,25.88,25.88,0,0,1,0-3.14c.11-.9.54-1.34,1.28-1.32a13.7,13.7,0,0,1,3.32.85C792.89,380.7,793.65,381.09,793.77,381.37Z"/><path class="cls-3" d="M832.65,359.08c.17,1.3-.17,2.12-1,2.47a5.6,5.6,0,0,0-.68.3,79.92,79.92,0,0,0-6.52,11.73q-3.79,7.94-4,9.55a3.09,3.09,0,0,0,.18,1.05,3.81,3.81,0,0,1,.17,1.23c-.17,1.7-.66,2.61-1.45,2.74a11.38,11.38,0,0,1-3-.56,16.8,16.8,0,0,1-3.17-1.09c-1-.6-1.45-1.2-1.45-1.8a2.2,2.2,0,0,1,.3-1q.59-1.45,2.51-6-3.54-6.4-4.77-8.84a60.19,60.19,0,0,1-3.5-8,2.22,2.22,0,0,0-.49-.57,1,1,0,0,1-.4-.67c0-.38.55-.94,1.66-1.69q3.54-2.38,4.86-2.25a1.9,1.9,0,0,1,1.23.79,2.36,2.36,0,0,1,.56,1,15.93,15.93,0,0,0,.25,2.29,35.3,35.3,0,0,0,4.1,10.08c1.59-3.43,2.48-5.31,2.68-5.66a43,43,0,0,1,3.67-6,10.18,10.18,0,0,1,.6-1.53,2.65,2.65,0,0,1,2.3-.72,9.67,9.67,0,0,1,3.13,1.32C831.86,358.12,832.59,358.7,832.65,359.08Z"/><path class="cls-3" d="M848,387.85a6.06,6.06,0,0,1-2-.21c-.74-.18-1.46-.38-2.17-.58s-2.19-.56-4-1.08a9.31,9.31,0,0,1-5.16-5.17,20.09,20.09,0,0,1-1.53-8.25,33.32,33.32,0,0,1,1.53-9.17q2.08-7,5.41-7.05a4.32,4.32,0,0,1,.84.13,6.1,6.1,0,0,0,.83.17,23,23,0,0,1,4-.78c.28,0,.57,0,.85,0q5.11.57,8.06,5.62a21.44,21.44,0,0,1,2.64,10.9,21,21,0,0,1-2.39,10.31Q852.35,387.4,848,387.85Zm-.76-27.46c-.63-.15-1.25.59-1.86,2.21S844.1,365,843.48,365a1.44,1.44,0,0,1-.62-.2,2.43,2.43,0,0,0-.66-.25,17.84,17.84,0,0,0-1.45,8,22.29,22.29,0,0,0,1,7q1.11,3.25,3.07,3.59,2.3.38,3.71-4.15a32.15,32.15,0,0,0,1.23-9.45,25.37,25.37,0,0,0-.64-6.21C848.65,361.59,848,360.59,847.19,360.39Z"/><path class="cls-3" d="M882,359c0-.27,0,2.12,0,7.16q0,21.36-6.78,22a7.93,7.93,0,0,1-2.88-.38l-3.3-1c-.94-.2-1.89-.42-2.84-.66A4.71,4.71,0,0,1,864,385q-1.74-1.68-2.81-7.34a64.87,64.87,0,0,1-.94-11.54,54.23,54.23,0,0,1,.6-8.58,1.7,1.7,0,0,1,1.24-1.5,10.8,10.8,0,0,1,3.26.53,9,9,0,0,1,3.26,1.16.84.84,0,0,1,.21.6,3.17,3.17,0,0,1-.43,1.33A2.69,2.69,0,0,0,868,361a22,22,0,0,0-.21,4.12,94.27,94.27,0,0,0,.68,11.95q.85,6.88,2.47,6.74c1.37-.12,2.39-2.31,3.07-6.55a72.05,72.05,0,0,0,.81-11.58,29.28,29.28,0,0,0-.3-5.51,2.27,2.27,0,0,0-.17-1.23,7.26,7.26,0,0,1-.38-.9,1.62,1.62,0,0,1,.94-1.91,1.55,1.55,0,0,1,.72-.12,15.92,15.92,0,0,1,3.58.57,8,8,0,0,1,2.69.93C882.06,357.68,882.09,358.17,882,359Z"/><path class="cls-3" d="M911.43,358.36a6.7,6.7,0,0,1,4.1,6.56q0,3.38-3,8.54-3.37,5.78-6.86,5.77a2.72,2.72,0,0,1-1.52-.58l-1.64-1.14v6.37a3.4,3.4,0,0,0,.22,1.12c.19.6.32,1,.38,1.24a2.24,2.24,0,0,1-.32,1.22,1.44,1.44,0,0,1-1.17,1,9.77,9.77,0,0,1-3.33-.94,8.37,8.37,0,0,1-3.32-1.87,1.64,1.64,0,0,1,0-1.57,4,4,0,0,0,.29-1.24V359.64a2.41,2.41,0,0,0-.29-.82,1.69,1.69,0,0,1-.26-.87q.26-1.8,1.53-1.8a13.17,13.17,0,0,1,1.73.44,11.06,11.06,0,0,0,2.41.46,9.89,9.89,0,0,0,3.26-.6,10.89,10.89,0,0,1,2.88-.63,5.05,5.05,0,0,1,1,.11,4.94,4.94,0,0,1,2,1.12A9.74,9.74,0,0,0,911.43,358.36Zm-3.53,2.89a6.31,6.31,0,0,0-2.73.94,8.9,8.9,0,0,0-2.69,2.06v9c1.54-.43,3-2,4.35-4.61a13.84,13.84,0,0,0,1.88-6.11C908.71,361.69,908.44,361.25,907.9,361.25Z"/><path class="cls-3" d="M931.94,387.85a6,6,0,0,1-2-.21c-.74-.18-1.47-.38-2.18-.58s-2.19-.56-4-1.08a9.31,9.31,0,0,1-5.16-5.17,19.92,19.92,0,0,1-1.54-8.25,33,33,0,0,1,1.54-9.17q2.08-7,5.41-7.05a4.14,4.14,0,0,1,.83.13,6.42,6.42,0,0,0,.83.17,23.33,23.33,0,0,1,4.05-.78c.29,0,.57,0,.86,0q5.11.57,8,5.62a21.34,21.34,0,0,1,2.65,10.9,21,21,0,0,1-2.39,10.31Q936.34,387.4,931.94,387.85Zm-.77-27.46c-.62-.15-1.24.59-1.85,2.21s-1.23,2.43-1.86,2.43a1.45,1.45,0,0,1-.61-.2,2.43,2.43,0,0,0-.66-.25,17.84,17.84,0,0,0-1.45,8,22,22,0,0,0,1,7c.73,2.17,1.76,3.37,3.07,3.59,1.53.25,2.77-1.13,3.7-4.15a31.8,31.8,0,0,0,1.24-9.45,25.37,25.37,0,0,0-.64-6.21Q932.42,360.69,931.17,360.39Z"/><path class="cls-3" d="M952.45,357.84a1.93,1.93,0,0,1-.2.71l-.23.56a15.69,15.69,0,0,0-.51,2.33v23a1.36,1.36,0,0,0,.25.81,1,1,0,0,1,.26.58c0,1.59-.34,2.46-1,2.58a14.22,14.22,0,0,1-3-.49,12.05,12.05,0,0,1-3.15-.93c-.63-.48-.94-.91-.94-1.31a.55.55,0,0,1,.17-.34,1,1,0,0,0,.17-.64V358.29a.92.92,0,0,0-.15-.47.89.89,0,0,1-.15-.47c.06-.6.58-1,1.58-1.2a14.94,14.94,0,0,1,2,0,18.36,18.36,0,0,1,3.07.42C951.82,356.87,952.45,357.29,952.45,357.84Z"/><path class="cls-3" d="M975.08,381.63a5.68,5.68,0,0,1-2.09,4.55A8.92,8.92,0,0,1,967.2,388a8.19,8.19,0,0,1-2-.27c-1.3-.32-2-.48-2-.48l-2.07-.4a3.83,3.83,0,0,1-1.81-.84,6.25,6.25,0,0,1-1.88-2.92,14.6,14.6,0,0,0-1.36-3,4.78,4.78,0,0,1-.81-1.05,1.35,1.35,0,0,1,.23-1.1,1.55,1.55,0,0,1,.88-.7,3.9,3.9,0,0,1,.93-.07,24.58,24.58,0,0,1,3.65.32,6.7,6.7,0,0,1,2.41.58,8.83,8.83,0,0,1,.68,2.69c.26,1.5.64,2.34,1.15,2.51a.92.92,0,0,0,.38.08c.54,0,1-.4,1.39-1.18a6.1,6.1,0,0,0,.58-2.68q0-3.26-2.31-4.35a27.65,27.65,0,0,1-7.41-4.64,7.17,7.17,0,0,1-2.22-5.85,11,11,0,0,1,2.32-5.67,7.82,7.82,0,0,1,4.46-3.36q1-.18,6,1.65l2.49.87a4.83,4.83,0,0,1,2,1.31c.79.87,1.19,2.38,1.19,4.53,0,.4,0,1,0,1.76s-.05,1.15-.05,1.42a4.47,4.47,0,0,0,.3.87,1.42,1.42,0,0,1,.17.82,1.71,1.71,0,0,1-1.57,1.84,9.55,9.55,0,0,1-3.16-.57,6.76,6.76,0,0,1-3.24-1.53,1.72,1.72,0,0,1-.09-.75q0-.57.15-2.55t.15-2.88c0-1.08-.14-1.6-.42-1.58a2.74,2.74,0,0,0-2.2,1.67,7.41,7.41,0,0,0-.87,3.61q0,3.38,2.26,4.8l5.11,2.85a9.94,9.94,0,0,1,3.37,2.77A9,9,0,0,1,975.08,381.63Z"/><path class="cls-3" d="M992.1,387.85a6.09,6.09,0,0,1-2-.21c-.74-.18-1.46-.38-2.17-.58s-2.19-.56-4-1.08a9.37,9.37,0,0,1-5.16-5.17,20.09,20.09,0,0,1-1.53-8.25,33.32,33.32,0,0,1,1.53-9.17q2.09-7,5.42-7.05a4.36,4.36,0,0,1,.83.13,6.1,6.1,0,0,0,.83.17,23,23,0,0,1,4-.78c.28,0,.57,0,.85,0q5.12.57,8.06,5.62a21.44,21.44,0,0,1,2.64,10.9A20.9,20.9,0,0,1,999,382.72Q996.49,387.4,992.1,387.85Zm-.77-27.46c-.63-.15-1.25.59-1.86,2.21s-1.23,2.43-1.85,2.43a1.48,1.48,0,0,1-.62-.2,2.43,2.43,0,0,0-.66-.25,17.84,17.84,0,0,0-1.45,8,22.29,22.29,0,0,0,1,7q1.11,3.25,3.07,3.59c1.54.25,2.77-1.13,3.71-4.15a32.13,32.13,0,0,0,1.24-9.45,25.88,25.88,0,0,0-.64-6.21Q992.56,360.69,991.33,360.39Z"/><path class="cls-3" d="M1028,357.84a1.79,1.79,0,0,1-.18.79,5.35,5.35,0,0,0-.38,1v24.72c0-.07.07.39.21,1.39s0,1.9-.51,2.25-1.66.45-3.45.3a17.27,17.27,0,0,1-3.54-.71c-1.73-.48-2.69-1-2.86-1.5a7.53,7.53,0,0,0-.12-1.61c-1.6-3.7-3.44-7.76-5.55-12.18v11.09a1.67,1.67,0,0,0,.3.79,6.73,6.73,0,0,1,.39.67,3.22,3.22,0,0,1,.21,1.13,1.34,1.34,0,0,1-1.54,1.49,17.65,17.65,0,0,1-4.22-.74,8.37,8.37,0,0,1-2.9-1.17,1.26,1.26,0,0,1,0-1.53,4.21,4.21,0,0,0,.52-1.16V359.38a3.08,3.08,0,0,0-.13-.68,1.29,1.29,0,0,1,0-.71,2.63,2.63,0,0,1,1.67-1.72,3.47,3.47,0,0,1,.94-.08,16.34,16.34,0,0,1,3.41.38,6.7,6.7,0,0,1,3.15,1.27c.8.75,1.83,3,3.11,6.86a73,73,0,0,0,3.67,9.51V359.49a3.15,3.15,0,0,0-.17-.84,3.29,3.29,0,0,1-.17-.85,1.11,1.11,0,0,1,.08-.41c.15-.42.69-.74,1.62-.94a7.19,7.19,0,0,1,2.14-.18,14.11,14.11,0,0,1,2.34.41C1027.34,357,1028,357.42,1028,357.84Z"/><path class="cls-3" d="M1050.89,382.57a3.22,3.22,0,0,1-.75,1.36,2.54,2.54,0,0,1-1.09.88c-.08,0-.24,0-.47-.13a1.3,1.3,0,0,0-.55-.16.51.51,0,0,0-.17,0,19.59,19.59,0,0,0-2.64.9,25.5,25.5,0,0,0-5.8,3.26l-4.65-1.68q-2.64-1-2.64-1.5V357.35c0-.17.33-.42,1-.75a3.46,3.46,0,0,1,1.47-.45,10.4,10.4,0,0,1,2.05.59,7.94,7.94,0,0,0,2.51.54,8.15,8.15,0,0,0,3.33-1c1.25-.65,2-.93,2.34-.83a10.52,10.52,0,0,1,3.05,2c1.35,1.11,2.08,1.91,2.2,2.38.05.22-.21.61-.79,1.16a2.43,2.43,0,0,1-1.43.82,1.47,1.47,0,0,1-.68-.11c-.14-.07-.24-.1-.3-.07a26,26,0,0,0-2.86.71,13.46,13.46,0,0,0-4.65,2.17v6.11a32.84,32.84,0,0,1,3.88-1.39c.46-.05,1.42.51,2.88,1.67s2.2,2,2.2,2.42a1.51,1.51,0,0,1-.6,1,2.86,2.86,0,0,1-1.15.71c-.28,0-.78,0-1.49.08a23.42,23.42,0,0,0-5.72,2.39v3.94q1.29-.67,3.48-1.59a10.77,10.77,0,0,1,2.71-.92,9.08,9.08,0,0,1,3,1.63C1050.17,381.57,1050.94,382.27,1050.89,382.57Z"/><path class="cls-3" d="M1074.38,368.52a19.3,19.3,0,0,1-2.52,8.88,35.37,35.37,0,0,1-5,7.26q-2.68,2.93-4,3.41a4.37,4.37,0,0,1-1.45.23,10.76,10.76,0,0,1-4.27-1.05,10.25,10.25,0,0,1-3.2-1.87v-27a1.34,1.34,0,0,1,1.28-1.16,18.47,18.47,0,0,1,2.14.26,9.83,9.83,0,0,0,2.53-.78,10.7,10.7,0,0,1,3.69-.83,7.87,7.87,0,0,1,3.58.86,24,24,0,0,1,2.94,2,10.31,10.31,0,0,1,3.71,4.57A17.27,17.27,0,0,1,1074.38,368.52Zm-7.08-7.23a1.45,1.45,0,0,0-.68-.12,11.82,11.82,0,0,0-5.42,1.73v16.86c1.94-1,3.58-3.36,5-7.16a27,27,0,0,0,1.75-8.91Q1067.9,361.59,1067.3,361.29Z"/><path class="cls-3" d="M1108.23,362.34a2.57,2.57,0,0,1-.94-.25,1.81,1.81,0,0,0-1-.17l-4.39,1.05v19.71a5.6,5.6,0,0,0,.6,2.36,2.58,2.58,0,0,1-.09,1.42,2.06,2.06,0,0,1-.81,1.46,1.26,1.26,0,0,1-.43,0,21.74,21.74,0,0,1-3.92-.49,8.17,8.17,0,0,1-3.32-1.08c-.4-.45-.39-1.05,0-1.8a3.4,3.4,0,0,0,.55-1.42V364.62l-3,.68a2.57,2.57,0,0,0-.71.31,1.18,1.18,0,0,1-.83.21,6.47,6.47,0,0,1-2.69-2.23c-1.13-1.33-1.63-2.24-1.49-2.71s.9-1,2-1.32a3.22,3.22,0,0,1,1.1,0,3.76,3.76,0,0,0,1.07,0l14.84-3.34a8.63,8.63,0,0,0,1.23-.45,2.58,2.58,0,0,1,1.24-.18,2.08,2.08,0,0,1,1.62.82,6.55,6.55,0,0,1,.64,1.69,9.42,9.42,0,0,1,.43,2.54,2.66,2.66,0,0,1-.24,1.26C1109.58,362.15,1109.08,362.31,1108.23,362.34Z"/><path class="cls-3" d="M1136.75,372.56c0,.35-.36.78-1,1.3a2.85,2.85,0,0,1-1.39.76,4.1,4.1,0,0,0-.72,0v9.44a11.44,11.44,0,0,1,.42,1.39c.26,1.6,0,2.53-.64,2.81a2,2,0,0,1-.64.07,11,11,0,0,1-3.83-.93c-1.68-.65-2.7-1.3-3.07-1.95,0-.23-.07-.56-.13-1-.06-.18,0-.41.3-.71a1.61,1.61,0,0,0,.38-.57v-7.56c-.54.05-1.6.23-3.2.56a28.76,28.76,0,0,0-3.15.75v7.6a1,1,0,0,0,.28.62,1.86,1.86,0,0,1,.32.54c-.12.4-.22.79-.3,1.16a.75.75,0,0,1-.47.53c-.46.15-1.73-.08-3.82-.69s-3.19-1.11-3.3-1.48a2.23,2.23,0,0,1-.09-.9,6.78,6.78,0,0,0,.13-1.05v-24a9.47,9.47,0,0,1,.39-2.06q.08-.37,1.44-1.05a1.88,1.88,0,0,1,.47,0,13.36,13.36,0,0,1,3.33.45c1.51.4,2.3.93,2.39,1.58a3.29,3.29,0,0,1-.37,1.27,4.07,4.07,0,0,0-.4,1.28v9.14q2.89-.64,6.35-1.31V358.1a3,3,0,0,0-.19-.56,1.32,1.32,0,0,1-.11-.79c.15-.45.61-.73,1.41-.86l1.79-.19a7.06,7.06,0,0,1,2.75.49c1.21.4,1.88.83,2,1.28a1.13,1.13,0,0,1-.17.78,2.65,2.65,0,0,0-.3,1.05v10.34c.14.15.81.69,2,1.61C1136.41,371.85,1136.78,372.29,1136.75,372.56Z"/><path class="cls-3" d="M1159.13,382.57a3.11,3.11,0,0,1-.75,1.36,2.59,2.59,0,0,1-1.08.88c-.09,0-.24,0-.47-.13a1.34,1.34,0,0,0-.56-.16l-.17,0a19.59,19.59,0,0,0-2.64.9,25.71,25.71,0,0,0-5.8,3.26L1143,387q-2.64-1-2.64-1.5V357.35c0-.17.33-.42,1-.75a3.46,3.46,0,0,1,1.47-.45,10,10,0,0,1,2.05.59,7.93,7.93,0,0,0,2.52.54,8.07,8.07,0,0,0,3.32-1c1.25-.65,2-.93,2.35-.83a10.51,10.51,0,0,1,3,2c1.35,1.11,2.09,1.91,2.2,2.38.06.22-.21.61-.79,1.16a2.4,2.4,0,0,1-1.43.82,1.47,1.47,0,0,1-.68-.11c-.14-.07-.24-.1-.3-.07a25.79,25.79,0,0,0-2.85.71,13.28,13.28,0,0,0-4.65,2.17v6.11a32.2,32.2,0,0,1,3.88-1.39c.45-.05,1.41.51,2.88,1.67s2.19,2,2.19,2.42a1.53,1.53,0,0,1-.59,1,2.89,2.89,0,0,1-1.16.71c-.28,0-.78,0-1.49.08a23.4,23.4,0,0,0-5.71,2.39v3.94c.85-.45,2-1,3.47-1.59a10.9,10.9,0,0,1,2.71-.92,9.08,9.08,0,0,1,3,1.63C1158.41,381.57,1159.19,382.27,1159.13,382.57Z"/><path class="cls-3" d="M1192.34,368.52a19.4,19.4,0,0,1-2.51,8.88,36.17,36.17,0,0,1-5,7.26q-2.7,2.93-4,3.41a4.37,4.37,0,0,1-1.45.23,10.76,10.76,0,0,1-4.26-1.05,10.25,10.25,0,0,1-3.2-1.87v-27a1.34,1.34,0,0,1,1.28-1.16,18.72,18.72,0,0,1,2.13.26,9.84,9.84,0,0,0,2.54-.78,10.6,10.6,0,0,1,3.69-.83,7.9,7.9,0,0,1,3.58.86,25.67,25.67,0,0,1,2.94,2,10.38,10.38,0,0,1,3.71,4.57A17.34,17.34,0,0,1,1192.34,368.52Zm-7.08-7.23a1.45,1.45,0,0,0-.68-.12,11.79,11.79,0,0,0-5.41,1.73v16.86q2.89-1.47,4.94-7.16a26.7,26.7,0,0,0,1.75-8.91Q1185.86,361.59,1185.26,361.29Z"/><path class="cls-3" d="M1210.33,387.85a6.06,6.06,0,0,1-2-.21c-.74-.18-1.46-.38-2.17-.58-.86-.2-2.19-.56-4-1.08a9.31,9.31,0,0,1-5.16-5.17,20.08,20.08,0,0,1-1.54-8.25,33.38,33.38,0,0,1,1.54-9.17q2.09-7,5.41-7.05a4.32,4.32,0,0,1,.84.13,6.1,6.1,0,0,0,.83.17,23,23,0,0,1,4-.78l.85,0q5.12.57,8.06,5.62a21.44,21.44,0,0,1,2.64,10.9,21,21,0,0,1-2.39,10.31Q1214.73,387.4,1210.33,387.85Zm-.76-27.46c-.63-.15-1.25.59-1.86,2.21s-1.23,2.43-1.85,2.43a1.44,1.44,0,0,1-.62-.2,2.43,2.43,0,0,0-.66-.25,17.84,17.84,0,0,0-1.45,8,22,22,0,0,0,1,7q1.11,3.25,3.07,3.59,2.29.38,3.71-4.15a32.15,32.15,0,0,0,1.23-9.45,25.37,25.37,0,0,0-.64-6.21C1211,361.59,1210.39,360.59,1209.57,360.39Z"/><path class="cls-3" d="M1247.38,374a2,2,0,0,1-1.49,1.91,1,1,0,0,1-.6-.13,1.34,1.34,0,0,0-.55-.17,1.73,1.73,0,0,0-.56.11,55.49,55.49,0,0,1-2.6,7.5,8.63,8.63,0,0,1-4.43,4.64,3.85,3.85,0,0,1-1.49.3,18.13,18.13,0,0,1-3.8-1c-.76-.18-2-.54-3.62-1.09s-2.93-2.31-3.84-4.83a24.47,24.47,0,0,1-1.23-8.21,29,29,0,0,1,2-11c1.42-3.52,3.29-5.5,5.62-5.92a6.77,6.77,0,0,1,.69,0,14.82,14.82,0,0,1,5.2,1.2,10.07,10.07,0,0,1,4.43,2.81,6.85,6.85,0,0,1,1.24,3.15,22.37,22.37,0,0,0,.47,2.36c.08.42.2.93.34,1.53a1.82,1.82,0,0,1-.43,1.15,2.11,2.11,0,0,1-.89.8,9,9,0,0,1-3.33-.54,13.46,13.46,0,0,1-3.32-1.14,1.64,1.64,0,0,1-.64-1.76.85.85,0,0,1,.21-.47.9.9,0,0,0,.21-.51c0-1.77-.23-2.66-.68-2.66q-1.45,0-2.56,4.27a36.17,36.17,0,0,0-1,8.84q0,7.13,2.26,8.17c.45.2,1.07-.49,1.85-2.06a12.83,12.83,0,0,0,1.39-4.42,14.44,14.44,0,0,0-2.6-1.16c-1-.38-1.58-.7-1.66-1a2.14,2.14,0,0,1,.42-1.59,3.13,3.13,0,0,1,1.26-1.33,5.08,5.08,0,0,1,1.85-.34,14.5,14.5,0,0,0,2-.07,16.86,16.86,0,0,0,2.34-.64,6.88,6.88,0,0,1,2-.45,3.3,3.3,0,0,1,.47,0,9.12,9.12,0,0,1,3.14,1.69C1246.74,372.93,1247.41,373.6,1247.38,374Z"/><path class="cls-3" d="M1252,382.83a2.55,2.55,0,0,1-.52,1.42,3.87,3.87,0,0,0-.68,1.8,4,4,0,0,1,0,.86c-.11.73-.34,1.15-.68,1.28s-1.34-.08-2.81-.68a6.15,6.15,0,0,1-2.48-1.38q-.21-.35.6-2.1a15.51,15.51,0,0,1,1.19-2.25,1.07,1.07,0,0,1,.94-.38,21.59,21.59,0,0,0,2.56.46C1251.25,382,1251.87,382.36,1252,382.83Z"/><path class="cls-3" d="M1262.43,382.83a2.43,2.43,0,0,1-.51,1.42,3.76,3.76,0,0,0-.68,1.8,6,6,0,0,1,0,.86c-.12.73-.35,1.15-.69,1.28s-1.33-.08-2.81-.68a6.08,6.08,0,0,1-2.47-1.38c-.15-.23,0-.93.59-2.1a16.42,16.42,0,0,1,1.2-2.25,1,1,0,0,1,.93-.38,23,23,0,0,0,2.56.46C1261.69,382,1262.32,382.36,1262.43,382.83Z"/><path class="cls-4" d="M1037.18,646.12c9.77,2.46,19.56.28,26.06-6.86,10.8-11.86,8.4-32.9-5.35-47-13.25-13.57-32.2-15.74-43.23-5.28-22.85-16.77-48.28-33.68-50.58-36l-38.2-51.42.49-.5c10.34-11.36,8-31.49-5.12-45S889,438.85,878.7,450.21c-6.23,6.84-7.86,16.88-5.3,26.72-10.74-5.07-22.53-3.88-29.81,4.12-9.87,10.84-7.68,30.08,4.89,43,9.06,9.28,21,12.73,30.7,9.89l62.42,40.88c2.44,2.49,21.87,31.82,39.95,56.21-6,11.56-2.74,28.09,8.57,39.68,13.09,13.41,32,15.13,42.31,3.85C1039,667.29,1040.44,656.48,1037.18,646.12Z"/><path class="cls-4" d="M1041,499.44a43.52,43.52,0,0,0,.93-37.08c-9-20.55-31.74-29.6-50.72-20.22-18.29,9-26.44,31.89-18.94,51.93-24.62,19.4-50.16,42-53.33,43.6l-65.54,19-.38-.92c-8.64-19.67-30.38-28.33-48.55-19.35s-25.89,32.21-17.25,51.88c5.21,11.86,15.18,19.71,26.26,22.12a39.39,39.39,0,0,0-5,40.26c8.26,18.8,29,27.07,46.38,18.49,12.5-6.18,19.82-19.41,19.86-33.35l62.07-55.86c3.36-1.67,40-9.5,71.1-18.47,10.22,14.24,28.48,19.65,44.1,11.92,18.07-8.93,25.75-32,17.15-51.58C1063.68,509.28,1052.84,501.26,1041,499.44Z"/><path class="cls-3" d="M818.53,741.53a4.09,4.09,0,0,1-1.4-.37,2.67,2.67,0,0,0-1.47-.25l-6.59,1.57V772a8.47,8.47,0,0,0,.89,3.54,3.82,3.82,0,0,1-.12,2.13,3.15,3.15,0,0,1-1.22,2.2,2.5,2.5,0,0,1-.64.05,32.83,32.83,0,0,1-5.88-.73q-4.23-.84-5-1.63c-.6-.67-.57-1.57.06-2.7a5.09,5.09,0,0,0,.84-2.13V745l-4.54,1a4,4,0,0,0-1.06.48,1.79,1.79,0,0,1-1.25.31c-1-.22-2.32-1.34-4-3.34s-2.45-3.36-2.23-4.08,1.34-1.51,3-2a4.61,4.61,0,0,1,1.66-.06,5.25,5.25,0,0,0,1.6,0l22.26-5a14.86,14.86,0,0,0,1.85-.68,3.86,3.86,0,0,1,1.86-.28,3.15,3.15,0,0,1,2.43,1.24,10.45,10.45,0,0,1,1,2.53,14.13,14.13,0,0,1,.64,3.82,3.94,3.94,0,0,1-.36,1.88C820.57,741.25,819.81,741.49,818.53,741.53Z"/><path class="cls-3" d="M861.25,771.42q.59,1-2.27,4.69c-1.9,2.49-3.48,3.72-4.76,3.68a3.83,3.83,0,0,1-3.26-1.91,7.69,7.69,0,0,0-1-1.63l-13.5-11.07v10.4a3.32,3.32,0,0,0,.55,1.57,3.41,3.41,0,0,1,.54,1.41c0,1.12-.83,1.74-2.49,1.85a21.19,21.19,0,0,1-5.69-.62c-2.73-.52-4.1-1.08-4.1-1.68a2.79,2.79,0,0,1,.16-.76,3.77,3.77,0,0,0,.16-1.21V736.92a1.3,1.3,0,0,0-.19-.71,1,1,0,0,1-.19-.47c0-1,.89-1.61,2.56-1.8a12.33,12.33,0,0,1,3.48.53,15.92,15.92,0,0,0,3.87.59,16.57,16.57,0,0,0,4.44-1.54,14.72,14.72,0,0,1,5.86-1.49,11.35,11.35,0,0,1,2,.17,7.57,7.57,0,0,1,3.26,1.46c1,.75,1.92,1.5,2.81,2.24,2.35,2,3.56,3,3.65,3.1a5.78,5.78,0,0,1,1.79,3.76q.39,6.53-12.66,16.75,2.69,2.13,11.83,10.39a14,14,0,0,1,1.66.68A9.82,9.82,0,0,1,861.25,771.42ZM847.12,740c-2,0-5.54,1.83-10.62,5.5v8.6c1.84-.63,4.24-2.56,7.23-5.79s4.48-5.62,4.48-7.19A1,1,0,0,0,847.12,740Z"/><path class="cls-3" d="M902.82,736.64c.26,1.94-.26,3.18-1.53,3.7-.73.31-1.07.45-1,.45q-3.71,5-9.78,17.59-5.7,11.93-6,14.33a4.45,4.45,0,0,0,.26,1.58,5.42,5.42,0,0,1,.25,1.85c-.25,2.55-1,3.92-2.17,4.1a16.38,16.38,0,0,1-4.45-.84,24.88,24.88,0,0,1-4.76-1.63c-1.45-.9-2.18-1.8-2.18-2.7a3.25,3.25,0,0,1,.45-1.51q.9-2.19,3.77-9-5.31-9.62-7.16-13.27a90.1,90.1,0,0,1-5.24-12,3.47,3.47,0,0,0-.74-.84,1.53,1.53,0,0,1-.61-1c0-.56.84-1.41,2.5-2.53q5.31-3.6,7.29-3.37a2.73,2.73,0,0,1,1.85,1.18,3.46,3.46,0,0,1,.83,1.52,23.67,23.67,0,0,0,.39,3.42A52.9,52.9,0,0,0,881,752.82q3.57-7.7,4-8.49a63.2,63.2,0,0,1,5.5-8.93,17.54,17.54,0,0,1,.89-2.3,4,4,0,0,1,3.46-1.07,14.52,14.52,0,0,1,4.7,2C901.64,735.19,902.73,736.07,902.82,736.64Z"/><path class="cls-3" d="M960.82,775.8c0,.34-.13,1.15-.25,2.42a1.32,1.32,0,0,1-1.6,1.69,18.59,18.59,0,0,1-5.25-1,10.4,10.4,0,0,1-4.6-2.13c-.34-.34-.68-1.47-1-3.38a41.47,41.47,0,0,0-1.6-6.23,52.06,52.06,0,0,0-7.1,1.54,29.06,29.06,0,0,0-6.08,2.11q-1,2.42-2.56,6c-.12.52-.26,1-.41,1.48a2,2,0,0,1-1.12,1.16,1.24,1.24,0,0,1-.58.11,16.74,16.74,0,0,1-5.14-1.41c-2.41-.93-3.66-1.55-3.75-1.85-.17-.52.24-1.82,1.22-3.88,1.36-3,2.15-4.83,2.37-5.5a3.27,3.27,0,0,1-1.35-2.36,2.81,2.81,0,0,1,.07-.62q.12-.68,3.9-2.42l8.25-24.78a8.16,8.16,0,0,0,.06-2.47c-.08-1,0-1.65.39-1.92a2.69,2.69,0,0,1,1.53-.28,39.39,39.39,0,0,1,8.57,1.35q5.57,1.35,6.65,2.42a154.58,154.58,0,0,0,2.88,18.71Q957.49,770,960.82,775.8Zm-16.69-17.08c-.55-2.36-.89-3.91-1-4.66a64.52,64.52,0,0,1-1-7.82q-1.29,2.76-3,7.65a39.26,39.26,0,0,0-2,6.4A67.35,67.35,0,0,1,944.13,758.72Z"/><path class="cls-3" d="M998.94,758.94a3,3,0,0,1-2.24,2.87,1.53,1.53,0,0,1-.9-.2,2.14,2.14,0,0,0-.83-.25,2.41,2.41,0,0,0-.83.17,85.44,85.44,0,0,1-3.9,11.24q-2.57,5.34-6.65,7a5.82,5.82,0,0,1-2.24.45,27.44,27.44,0,0,1-5.69-1.46c-1.15-.27-3-.81-5.44-1.63q-3.71-1.58-5.75-7.25a36.44,36.44,0,0,1-1.86-12.31A43.65,43.65,0,0,1,965.55,741q3.19-7.92,8.44-8.88a7.83,7.83,0,0,1,1-.06,22.21,22.21,0,0,1,7.8,1.8c3.28,1.28,5.5,2.68,6.65,4.22a10.28,10.28,0,0,1,1.86,4.72c.38,2.17.61,3.35.7,3.54.13.63.3,1.4.51,2.3a2.71,2.71,0,0,1-.64,1.72,3.17,3.17,0,0,1-1.34,1.2q-.84.28-5-.81a20.33,20.33,0,0,1-5-1.71c-.77-.45-1.09-1.33-1-2.65a1.31,1.31,0,0,1,.32-.7,1.25,1.25,0,0,0,.32-.76q0-4-1-4c-1.45,0-2.73,2.1-3.84,6.41a54.17,54.17,0,0,0-1.53,13.26q0,10.68,3.39,12.25,1,.45,2.78-3.09a19.79,19.79,0,0,0,2.08-6.63,22.39,22.39,0,0,0-3.9-1.74c-1.54-.56-2.37-1-2.5-1.46a3.28,3.28,0,0,1,.64-2.39,4.65,4.65,0,0,1,1.89-2,7.51,7.51,0,0,1,2.78-.5A21.92,21.92,0,0,0,984,755a26.44,26.44,0,0,0,3.52-1,10.24,10.24,0,0,1,3-.67,5.16,5.16,0,0,1,.71,0,13.58,13.58,0,0,1,4.7,2.53Q999,758.16,998.94,758.94Z"/><path class="cls-3" d="M1038.27,775.8c0,.34-.13,1.15-.26,2.42a2.45,2.45,0,0,1-.51,1.52,2.59,2.59,0,0,1-1.09.17,18.53,18.53,0,0,1-5.24-1,10.45,10.45,0,0,1-4.61-2.13c-.34-.34-.68-1.47-1-3.38a40.29,40.29,0,0,0-1.6-6.23,52.06,52.06,0,0,0-7.1,1.54,28.68,28.68,0,0,0-6.07,2.11c-.64,1.61-1.5,3.6-2.56,6-.13.52-.27,1-.42,1.48a2,2,0,0,1-1.12,1.16,1.2,1.2,0,0,1-.57.11,16.85,16.85,0,0,1-5.15-1.41c-2.41-.93-3.66-1.55-3.74-1.85-.17-.52.23-1.82,1.21-3.88,1.37-3,2.16-4.83,2.37-5.5a3.29,3.29,0,0,1-1.34-2.36,3.5,3.5,0,0,1,.06-.62q.13-.68,3.9-2.42l8.25-24.78a8.4,8.4,0,0,0,.07-2.47c-.09-1,0-1.65.38-1.92a2.69,2.69,0,0,1,1.53-.28,39.3,39.3,0,0,1,8.57,1.35q5.57,1.35,6.66,2.42a152.09,152.09,0,0,0,2.87,18.71Q1034.94,770,1038.27,775.8Zm-16.7-17.08c-.55-2.36-.89-3.91-1-4.66a64.52,64.52,0,0,1-1-7.82q-1.27,2.76-3,7.65a39.75,39.75,0,0,0-2,6.4A68.06,68.06,0,0,1,1021.57,758.72Z"/><path class="cls-3" d="M1056.11,734.78a3,3,0,0,1-.29,1.07c-.19.45-.31.73-.35.84a23.16,23.16,0,0,0-.77,3.49v34.5a2.07,2.07,0,0,0,.38,1.21,1.6,1.6,0,0,1,.39.87c0,2.4-.51,3.69-1.54,3.88a22.24,22.24,0,0,1-4.47-.73q-4.1-.9-4.74-1.41c-.93-.71-1.4-1.37-1.4-2a.81.81,0,0,1,.25-.5,1.43,1.43,0,0,0,.26-1V735.46a1.38,1.38,0,0,0-.23-.71,1.3,1.3,0,0,1-.22-.7c.09-.9.87-1.5,2.37-1.8a19.19,19.19,0,0,1,2.94,0,26.58,26.58,0,0,1,4.6.62C1055.17,733.32,1056.11,734,1056.11,734.78Z"/><path class="cls-3" d="M1097.8,734.78a2.82,2.82,0,0,1-.26,1.18,8.18,8.18,0,0,0-.57,1.52v37.09c0-.11.11.58.32,2.08.25,1.72,0,2.84-.77,3.37s-2.49.67-5.18.45a25.29,25.29,0,0,1-5.31-1.07q-3.9-1.06-4.28-2.25a11.44,11.44,0,0,0-.19-2.41q-3.58-8.32-8.32-18.27v16.64a2.47,2.47,0,0,0,.45,1.18,8.09,8.09,0,0,1,.58,1,4.76,4.76,0,0,1,.32,1.68,2,2,0,0,1-2.31,2.25,25.81,25.81,0,0,1-6.33-1.12q-3.83-1.12-4.35-1.74a1.92,1.92,0,0,1,0-2.31,5.72,5.72,0,0,0,.77-1.74V737.09a4,4,0,0,0-.19-1,1.8,1.8,0,0,1-.06-1.06,3.91,3.91,0,0,1,2.49-2.59,5.62,5.62,0,0,1,1.41-.11,24.66,24.66,0,0,1,5.11.56,10.11,10.11,0,0,1,4.74,1.91q1.79,1.68,4.66,10.29,3.53,10.56,5.5,14.27V737.25a4.49,4.49,0,0,0-.25-1.26,4.58,4.58,0,0,1-.26-1.26,1.38,1.38,0,0,1,.13-.62q.31-1,2.43-1.41a10.74,10.74,0,0,1,3.2-.28,22.16,22.16,0,0,1,3.51.62C1096.76,733.56,1097.76,734.14,1097.8,734.78Z"/></g></svg>
