<svg id="Layer_1" data-name="Layer 1" xmlns="http://www.w3.org/2000/svg" xmlns:xlink="http://www.w3.org/1999/xlink" width="1926.94" height="650.3" viewBox="0 0 1926.94 650.3"><defs><style>.cls-1{fill:#00a24e;}.cls-2,.cls-33,.cls-34{stroke-miterlimit:10;}.cls-2{stroke-width:6px;fill:url(#linear-gradient);stroke:url(#linear-gradient-2);}.cls-3{fill:none;}.cls-4{fill:#913a34;}.cls-17,.cls-4{opacity:0.67;}.cls-5,.cls-7{fill:#e7dbd2;}.cls-5{opacity:0.83;}.cls-6{fill:#bf5a4d;}.cls-8{fill:#edebd5;}.cls-9{fill:#c32b33;}.cls-10{fill:#78341f;}.cls-11{fill:#00813a;opacity:0.9;}.cls-12,.cls-13,.cls-14,.cls-15,.cls-16,.cls-17,.cls-18,.cls-19,.cls-20{fill:#a84571;}.cls-12{opacity:0.65;}.cls-14{opacity:0.79;}.cls-15{opacity:0.61;}.cls-16{opacity:0.72;}.cls-18{opacity:0.84;}.cls-19{opacity:0.56;}.cls-20{opacity:0.75;}.cls-21{fill:#fdd676;}.cls-22{fill:#ffcd18;}.cls-23{fill:#acbe36;}.cls-24{fill:#ac8e13;}.cls-25{fill:#faed63;}.cls-26{fill:#cad000;}.cls-27{fill:#c3d219;}.cls-28{fill:#cdd500;}.cls-29{fill:#7e8c26;}.cls-30{fill:#935934;}.cls-31{fill:#723c29;}.cls-32{fill:#ce825d;}.cls-33,.cls-37{fill:#c96;}.cls-33,.cls-34{stroke:#c96;}.cls-34{fill:#d5965d;}.cls-35{fill:#e20d18;opacity:0.85;}.cls-36{fill:#e64065;}.cls-38{fill:#230d0f;}.cls-39{fill:#010101;}.cls-40{fill:#84bc26;opacity:0.45;}.cls-41,.cls-43{fill:#143d6c;}.cls-42{fill:#132237;}.cls-43{opacity:0.7;}.cls-44{fill:#7d645e;}.cls-45{opacity:0.69;}.cls-46{fill:#0c0c15;opacity:0.77;}.cls-47{fill:#fff;}</style><linearGradient id="linear-gradient" x1="-8037.04" y1="-2901.85" x2="-6420.43" y2="-2901.85" gradientTransform="translate(2896.36 13751.62) scale(0.27 4.81)" gradientUnits="userSpaceOnUse"><stop offset="0" stop-color="#6aacde"/><stop offset="0" stop-color="#f6fafd"/><stop offset="0" stop-color="#f2f9fe"/><stop offset="0" stop-color="#626161"/><stop offset="0" stop-color="#9dd8f7"/><stop offset="0.04" stop-color="#94d5f7"/><stop offset="0.1" stop-color="#a7dcf8"/><stop offset="0.12" stop-color="#8dd3f6"/><stop offset="0.14" stop-color="#abddf9"/><stop offset="0.2" stop-color="#80cff5"/><stop offset="0.51" stop-color="#5ea5db"/><stop offset="0.77" stop-color="#9dd8f7"/><stop offset="0.93" stop-color="#a4dbf8"/><stop offset="1" stop-color="#d2ecfc"/><stop offset="1" stop-color="#8ccbf1"/><stop offset="1" stop-color="#e8f5fc" stop-opacity="0.7"/></linearGradient><linearGradient id="linear-gradient-2" x1="-8040.04" y1="-2901.85" x2="-6417.43" y2="-2901.85" gradientTransform="translate(2896.36 13751.62) scale(0.27 4.81)" gradientUnits="userSpaceOnUse"><stop offset="0" stop-color="#fff"/><stop offset="1"/></linearGradient></defs><title>gameoverbaggrund_1</title><rect class="cls-1" width="1926.94" height="650.3"/><rect class="cls-2" x="745.25" y="-1174.95" width="432.68" height="1923.18" transform="translate(1174.95 748.23) rotate(-90)"/><polyline class="cls-1" points="453.48 -67.8 439.89 28.27 380.19 16.81"/><rect class="cls-3" x="1111.31" y="527.69" width="540.92" height="62.39"/><rect class="cls-3" x="394.01" y="33.91" width="1055.68" height="652.45"/><rect class="cls-3" x="1265.62" y="95.26" width="17.1"/><rect class="cls-3" x="1029.1" y="229.98" width="17.1"/><line class="cls-3" x1="565.41" y1="556.97" x2="659.99" y2="420.1"/><polyline class="cls-1" points="466.6 -68.05 456.62 11.23 411.1 1.51"/><polyline class="cls-1" points="1393.02 -60.56 1383.43 3.74 1345.42 -3.3"/><polyline class="cls-1" points="1066.02 28.96 1056.04 108.23 1010.52 98.52"/><path class="cls-4" d="M1522.43,181c0-38.33,47-69.41,105-69.41s105,31.08,105,69.41-63.15,77.87-101.47,49.09C1581.92,193.25,1522.43,219.35,1522.43,181Z"/><path class="cls-5" d="M1527.52,165.56c0-28.21,44.74-51.09,99.94-51.09s99.94,22.88,99.94,51.09-60.1,57.32-96.57,36.14C1584.13,174.57,1527.52,193.78,1527.52,165.56Z"/><path class="cls-6" d="M1544.13,156c0-24.51,38.52-44.38,86-44.38s86,19.87,86,44.38-51.74,49.79-83.13,31.39C1592.86,163.81,1544.13,180.5,1544.13,156Z"/><ellipse class="cls-7" cx="1639.5" cy="152.65" rx="5.54" ry="35.5" transform="translate(1043.36 1687.54) rotate(-74.09)"/><ellipse class="cls-7" cx="1672.47" cy="159.98" rx="21.69" ry="4.35" transform="translate(228.45 1018.79) rotate(-36.21)"/><path class="cls-8" d="M1450,82.56a24.24,24.24,0,0,0-2.09-17.42c-6.71-12.45-23.2-16.59-36.81-9.24s-19.22,23.39-12.5,35.84a23.59,23.59,0,0,0,4.07,5.43c-18.75,12.42-38.74,26.44-41,27.68l-40,18a22.37,22.37,0,0,0-2.41-7c-6.42-11.91-22.2-15.87-35.23-8.84s-18.39,22.38-12,34.3A23.56,23.56,0,0,0,1288.06,173a22.57,22.57,0,0,0,.72,19.48c6.14,11.38,21.21,15.16,33.66,8.45s17.57-21.39,11.43-32.77a21.42,21.42,0,0,0-3.24-4.46l37.15-26.25c2.52-1.36,29.57-12.52,51.57-22.48a22.8,22.8,0,0,0,1.94,5c6.39,11.85,22.08,15.78,35,8.79s18.28-22.26,11.89-34.1A23.62,23.62,0,0,0,1450,82.56Z"/><rect class="cls-9" x="1472.91" y="305.99" width="151.03" height="197.46" transform="translate(-21.86 713.96) rotate(-25.79)"/><path class="cls-10" d="M1532.67,218.36a11.34,11.34,0,0,1-6.06,1.72,11.16,11.16,0,0,1-7-2.43,9.87,9.87,0,0,1-17.24,3,8.89,8.89,0,0,1-16.37,2l-79.41,38.38,40.26,83.33,119-57.49Z"/><polyline class="cls-1" points="346.34 -66.41 332.75 29.66 273.05 18.2"/><polyline class="cls-1" points="710.42 -68.43 696.84 27.64 637.14 16.18"/><polyline class="cls-1" points="885.8 -60.79 872.21 35.28 812.51 23.83"/><polyline class="cls-1" points="842.68 -66.41 829.09 29.66 769.39 18.2"/><polyline class="cls-1" points="734.13 -9.19 720.54 86.88 660.85 75.42"/><polyline class="cls-1" points="657.95 -73.76 644.36 22.31 584.66 10.85"/><polyline class="cls-1" points="1114.77 -61.87 1101.18 34.2 1041.49 22.75"/><polyline class="cls-1" points="1206.26 -61.87 1192.67 34.2 1132.97 22.75"/><polyline class="cls-1" points="1158.21 -57.22 1144.62 38.85 1084.92 27.39"/><polyline class="cls-1" points="1374.03 -66.41 1360.44 29.66 1300.74 18.2"/><polyline class="cls-1" points="1308.42 -57.22 1294.83 38.85 1235.13 27.39"/><polyline class="cls-1" points="960.84 -57.22 947.25 38.85 887.56 27.39"/><polyline class="cls-1" points="623.95 -62.23 610.37 33.84 550.67 22.38"/><polyline class="cls-1" points="773.65 -53.29 760.06 42.78 700.37 31.32"/><polyline class="cls-1" points="1855.72 -73.76 1842.14 22.31 1782.44 10.85"/><polyline class="cls-1" points="325.06 -64.4 311.47 31.67 251.77 20.21"/><polyline class="cls-1" points="302.77 -61.87 289.18 34.2 229.48 22.75"/><polyline class="cls-1" points="282.32 -50.52 268.73 45.55 209.03 34.09"/><polyline class="cls-1" points="261.88 -57.22 248.29 38.85 188.59 27.39"/><polyline class="cls-1" points="72.25 -59.86 58.66 36.21 -1.04 24.76"/><polyline class="cls-1" points="115.48 -68.43 101.89 27.64 42.2 16.18"/><polyline class="cls-1" points="233.35 -61.87 219.76 34.2 160.07 22.75"/><polyline class="cls-1" points="197.71 -62.11 184.13 33.96 124.43 22.51"/><polyline class="cls-1" points="167.06 -56.9 153.47 39.17 93.77 27.71"/><polyline class="cls-1" points="620.06 -64.4 606.47 31.67 546.78 20.21"/><polyline class="cls-1" points="591.16 -62.38 577.57 33.69 517.88 22.24"/><polyline class="cls-1" points="360.71 -56.9 347.13 39.17 287.43 27.71"/><polyline class="cls-1" points="1092.76 -64.13 1079.17 31.94 1019.47 20.48"/><polyline class="cls-1" points="1063.86 -62.11 1050.27 33.96 990.57 22.51"/><polyline class="cls-1" points="990.57 -56.9 976.98 39.17 917.28 27.71"/><polyline class="cls-1" points="1904.58 -72.04 1890.99 24.03 1831.29 12.57"/><polyline class="cls-1" points="1875.68 -70.02 1862.09 26.05 1802.39 14.59"/><polyline class="cls-1" points="1802.39 -64.82 1788.8 31.25 1729.1 19.8"/><polyline class="cls-1" points="1777.69 -60.79 1764.1 35.28 1704.4 23.83"/><polyline class="cls-1" points="1748.79 -58.76 1735.2 37.31 1675.5 25.85"/><polyline class="cls-1" points="1675.5 -53.56 1661.91 42.51 1602.22 31.05"/><polyline class="cls-1" points="1752.25 -73.64 1738.66 22.43 1678.96 10.98"/><polyline class="cls-1" points="1723.35 -71.61 1709.76 24.46 1650.07 13"/><polyline class="cls-1" points="1650.07 -66.41 1636.48 29.66 1576.78 18.2"/><polyline class="cls-1" points="1522.18 -66.22 1508.59 29.85 1448.89 18.39"/><polyline class="cls-1" points="1493.28 -64.2 1479.69 31.87 1419.99 20.41"/><polyline class="cls-1" points="1419.99 -58.99 1406.4 37.08 1346.7 25.62"/><polyline class="cls-1" points="146.74 -77.38 133.15 18.7 73.45 7.24"/><polyline class="cls-1" points="101.52 -66.41 87.93 29.66 28.23 18.2"/><polyline class="cls-1" points="23.5 -62.24 63.84 26 7.38 48.53"/><polyline class="cls-1" points="497.05 -72.34 483.46 23.73 423.77 12.27"/><polyline class="cls-1" points="475.77 -70.33 462.19 25.74 402.49 14.28"/><polyline class="cls-1" points="433.03 -56.45 419.44 39.62 359.74 28.16"/><polyline class="cls-1" points="412.59 -63.16 399 32.91 339.3 21.45"/><polyline class="cls-1" points="384.07 -67.8 370.48 28.27 310.78 16.81"/><polyline class="cls-1" points="511.43 -62.84 497.84 33.23 438.14 21.77"/><polyline class="cls-1" points="628.42 -68.46 614.83 27.61 555.13 16.15"/><polyline class="cls-1" points="607.14 -66.45 593.55 29.62 533.85 18.16"/><polyline class="cls-1" points="584.85 -63.92 571.26 32.15 511.56 20.7"/><polyline class="cls-1" points="564.4 -52.57 550.81 43.5 491.11 32.04"/><polyline class="cls-1" points="543.96 -59.27 530.37 36.8 470.67 25.34"/><polyline class="cls-1" points="515.43 -63.92 501.84 32.15 442.15 20.7"/><polyline class="cls-1" points="642.79 -58.95 629.21 37.12 569.51 25.66"/><polyline class="cls-1" points="219 -64.4 205.42 31.67 145.72 20.21"/><polyline class="cls-1" points="197.72 -62.39 184.14 33.68 124.44 22.22"/><polyline class="cls-1" points="175.43 -59.86 161.84 36.21 102.15 24.76"/><polyline class="cls-1" points="154.98 -48.51 141.39 47.56 81.69 36.1"/><polyline class="cls-1" points="134.54 -55.22 120.95 40.85 61.25 29.4"/><polyline class="cls-1" points="106.02 -59.86 92.43 36.21 32.73 24.76"/><polyline class="cls-1" points="233.38 -54.89 219.79 41.18 160.09 29.72"/><polyline class="cls-1" points="795.78 -74.39 782.19 21.68 722.49 10.22"/><polyline class="cls-1" points="774.5 -72.39 760.91 23.68 701.21 12.23"/><polyline class="cls-1" points="752.21 -69.85 738.62 26.22 678.92 14.76"/><polyline class="cls-1" points="731.75 -58.51 718.16 37.56 658.47 26.11"/><polyline class="cls-1" points="711.31 -65.21 697.72 30.86 638.03 19.4"/><polyline class="cls-1" points="682.79 -69.85 669.2 26.22 609.5 14.76"/><polyline class="cls-1" points="810.15 -64.89 796.56 31.18 736.86 19.72"/><polyline class="cls-1" points="947.97 -70.05 934.38 26.02 874.68 14.56"/><polyline class="cls-1" points="926.69 -68.04 913.1 28.03 853.4 16.57"/><polyline class="cls-1" points="904.4 -65.51 890.81 30.56 831.11 19.11"/><polyline class="cls-1" points="883.94 -54.16 870.35 41.91 810.66 30.45"/><polyline class="cls-1" points="863.5 -60.87 849.91 35.2 790.22 23.75"/><polyline class="cls-1" points="834.98 -65.51 821.39 30.56 761.69 19.11"/><polyline class="cls-1" points="962.34 -60.55 948.75 35.52 889.05 24.07"/><polyline class="cls-1" points="1125.3 -64.85 1111.71 31.22 1052.01 19.77"/><polyline class="cls-1" points="1104.02 -62.84 1090.43 33.23 1030.73 21.77"/><polyline class="cls-1" points="1081.73 -60.3 1068.14 35.77 1008.44 24.31"/><polyline class="cls-1" points="1061.27 -48.96 1047.68 47.11 987.99 35.65"/><polyline class="cls-1" points="1040.83 -55.66 1027.24 40.41 967.55 28.95"/><polyline class="cls-1" points="1012.31 -60.3 998.72 35.77 939.02 24.31"/><polyline class="cls-1" points="1139.67 -55.34 1126.08 40.73 1066.38 29.27"/><polyline class="cls-1" points="1294.75 -73.45 1281.16 22.62 1221.46 11.16"/><polyline class="cls-1" points="1273.47 -71.44 1259.88 24.63 1200.18 13.17"/><polyline class="cls-1" points="1251.18 -68.91 1237.59 27.16 1177.89 15.7"/><polyline class="cls-1" points="1230.73 -57.56 1217.14 38.51 1157.44 27.05"/><polyline class="cls-1" points="1210.29 -64.27 1196.7 31.8 1137 20.34"/><polyline class="cls-1" points="1181.77 -68.91 1168.18 27.16 1108.48 15.7"/><polyline class="cls-1" points="1309.13 -63.95 1295.54 32.12 1235.84 20.67"/><polyline class="cls-1" points="1438.39 -64.85 1424.8 31.22 1365.1 19.77"/><polyline class="cls-1" points="1417.11 -62.84 1403.52 33.23 1343.82 21.77"/><polyline class="cls-1" points="1394.82 -60.3 1381.23 35.77 1321.53 24.31"/><polyline class="cls-1" points="1374.37 -48.96 1360.78 47.11 1301.08 35.65"/><polyline class="cls-1" points="1353.93 -55.66 1340.34 40.41 1280.64 28.95"/><polyline class="cls-1" points="1325.4 -60.3 1311.81 35.77 1252.12 24.31"/><polyline class="cls-1" points="1452.76 -55.34 1439.17 40.73 1379.48 29.27"/><polyline class="cls-1" points="1912.57 -66.71 1898.98 29.36 1839.28 17.91"/><polyline class="cls-1" points="1891.29 -64.7 1877.7 31.37 1818 19.91"/><polyline class="cls-1" points="1869 -62.16 1855.41 33.91 1795.71 22.45"/><polyline class="cls-1" points="1848.55 -50.82 1834.96 45.25 1775.26 33.79"/><polyline class="cls-1" points="1828.11 -57.52 1814.52 38.55 1754.82 27.09"/><polyline class="cls-1" points="1799.58 -62.16 1785.99 33.91 1726.3 22.45"/><polyline class="cls-1" points="1926.94 -57.2 1913.36 38.87 1853.66 27.41"/><polyline class="cls-1" points="1622.55 -68.99 1612.33 6.36 1565.83 -2.85"/><polyline class="cls-1" points="1605.99 -67.49 1595.78 7.86 1549.27 -1.36"/><polyline class="cls-1" points="1588.65 -65.59 1578.44 9.76 1531.93 0.55"/><polyline class="cls-1" points="1572.78 -56.76 1562.56 18.59 1516.06 9.38"/><polyline class="cls-1" points="1556.85 -62.1 1546.63 13.25 1500.13 4.04"/><polyline class="cls-1" points="1534.63 -65.85 1524.41 9.5 1477.91 0.29"/><polyline class="cls-1" points="1633.77 -61.48 1623.55 13.88 1577.05 4.66"/><path class="cls-11" d="M98.46,68.79c0,29.28-6.27,53-7.58,53s2.6-23.73,2.6-53-3.91-53-2.6-53S98.46,39.51,98.46,68.79Z"/><ellipse class="cls-12" cx="87.72" cy="-18.86" rx="5.52" ry="20.46"/><ellipse class="cls-13" cx="87.72" cy="31.17" rx="5.17" ry="20.92"/><ellipse class="cls-13" cx="113.89" cy="3.92" rx="20.17" ry="4.25"/><ellipse class="cls-13" cx="64.58" cy="10.25" rx="19.19" ry="4.21" transform="matrix(0.96, -0.29, 0.29, 0.96, -0.2, 19.12)"/><ellipse class="cls-14" cx="63.12" cy="15.78" rx="19.76" ry="3.6" transform="translate(-1.49 23.4) rotate(-20.76)"/><ellipse class="cls-15" cx="112.5" cy="12.28" rx="3.93" ry="20.17" transform="translate(72.79 118.25) rotate(-75.69)"/><ellipse class="cls-13" cx="65.43" cy="20.86" rx="19.89" ry="3.58" transform="translate(-2.15 33.07) rotate(-27.92)"/><ellipse class="cls-13" cx="68.54" cy="24.22" rx="20.2" ry="3.52" transform="translate(1.02 51.15) rotate(-41.21)"/><ellipse class="cls-13" cx="109.55" cy="17.87" rx="3.91" ry="20.28" transform="translate(52.95 113.35) rotate(-68.61)"/><ellipse class="cls-16" cx="107.49" cy="21.63" rx="3.87" ry="20.49" transform="translate(32.14 101.28) rotate(-57.96)"/><ellipse class="cls-13" cx="94.26" cy="-17.53" rx="20.9" ry="4.35" transform="translate(91.43 78.3) rotate(-77.77)"/><ellipse class="cls-13" cx="78.01" cy="-16.84" rx="4.37" ry="20.63" transform="translate(8.92 23.11) rotate(-17.86)"/><ellipse class="cls-13" cx="68.54" cy="-14.44" rx="4.46" ry="17.81" transform="translate(22.11 38) rotate(-36.59)"/><ellipse class="cls-17" cx="101.39" cy="-14.44" rx="20.76" ry="4.44" transform="translate(58.37 78.5) rotate(-57.06)"/><ellipse class="cls-18" cx="77.39" cy="29.63" rx="20.75" ry="5.21" transform="translate(24.9 93.76) rotate(-71.65)"/><ellipse class="cls-19" cx="98.89" cy="29.5" rx="5.23" ry="20.68" transform="translate(-3.81 39.62) rotate(-22.24)"/><ellipse class="cls-20" cx="114.41" cy="-5.14" rx="21.79" ry="4.24" transform="matrix(0.97, -0.23, 0.23, 0.97, 4.24, 26.15)"/><ellipse class="cls-12" cx="58.92" cy="2.86" rx="19.08" ry="4.23"/><ellipse class="cls-13" cx="64.58" cy="-4.64" rx="4.19" ry="19.26" transform="translate(45.31 57.18) rotate(-68.58)"/><ellipse class="cls-13" cx="107.49" cy="27.52" rx="3.98" ry="19.04" transform="translate(2.12 62.3) rotate(-32.62)"/><ellipse class="cls-21" cx="89.35" cy="4.97" rx="17.62" ry="9.61"/><path class="cls-11" d="M1810.94,52.92c0,28.59-5.65,51.76-6.83,51.76s2.35-23.17,2.35-51.76-3.53-51.75-2.35-51.75S1810.94,24.34,1810.94,52.92Z"/><ellipse class="cls-13" cx="1801.26" cy="16.2" rx="4.66" ry="20.42"/><ellipse class="cls-13" cx="1780.39" cy="-4.22" rx="17.44" ry="4.08" transform="matrix(0.95, -0.31, 0.31, 0.95, 90.96, 557.6)"/><ellipse class="cls-14" cx="1779.07" cy="1.17" rx="18.01" ry="3.48" transform="translate(134.12 678.83) rotate(-22.43)"/><ellipse class="cls-15" cx="1823.61" cy="-2.24" rx="3.81" ry="18.29" transform="translate(1337.37 1755.35) rotate(-74.47)"/><ellipse class="cls-13" cx="1781.15" cy="6.13" rx="18.28" ry="3.43" transform="translate(235.22 890.79) rotate(-29.98)"/><ellipse class="cls-13" cx="1783.95" cy="9.41" rx="18.89" ry="3.32" transform="translate(485.71 1232.99) rotate(-43.61)"/><ellipse class="cls-13" cx="1820.95" cy="3.21" rx="3.77" ry="18.5" transform="translate(1103.23 1676.75) rotate(-66.89)"/><ellipse class="cls-16" cx="1819.09" cy="6.88" rx="3.69" ry="18.93" transform="translate(789.09 1506.29) rotate(-55.73)"/><ellipse class="cls-18" cx="1791.94" cy="14.7" rx="20.12" ry="4.73" transform="translate(1257.63 1725.19) rotate(-73.12)"/><ellipse class="cls-19" cx="1811.33" cy="14.57" rx="4.76" ry="19.98" transform="translate(109.65 635.37) rotate(-20.5)"/><ellipse class="cls-13" cx="1819.09" cy="12.64" rx="3.67" ry="18.19" transform="matrix(0.86, -0.51, 0.51, 0.86, 244.11, 922.96)"/><path class="cls-11" d="M1338.19,472.83c0,34.5-9.74,62.47-11.77,62.47s4-28,4-62.47-6.08-62.46-4-62.46S1338.19,438.33,1338.19,472.83Z"/><ellipse class="cls-12" cx="1321.51" cy="369.55" rx="8.59" ry="24.11"/><ellipse class="cls-13" cx="1321.51" cy="428.51" rx="8.03" ry="24.65"/><ellipse class="cls-13" cx="1362.19" cy="396.39" rx="31.36" ry="5.01"/><ellipse class="cls-13" cx="1285.52" cy="403.85" rx="29.32" ry="5.05" transform="translate(-57.19 290.8) rotate(-12.63)"/><ellipse class="cls-14" cx="1283.25" cy="410.37" rx="29.9" ry="4.36" transform="translate(-63.25 364.87) rotate(-15.8)"/><ellipse class="cls-15" cx="1360.02" cy="406.25" rx="4.69" ry="30.96" transform="translate(706.98 1666.5) rotate(-79.24)"/><ellipse class="cls-13" cx="1286.84" cy="416.35" rx="29.47" ry="4.43" transform="translate(-62.94 502.38) rotate(-21.58)"/><ellipse class="cls-13" cx="1291.67" cy="420.31" rx="28.4" ry="4.59" transform="translate(-19.68 774.48) rotate(-33.14)"/><ellipse class="cls-13" cx="1355.44" cy="412.83" rx="4.74" ry="30.63" transform="translate(579.44 1598.36) rotate(-73.73)"/><ellipse class="cls-16" cx="1352.24" cy="417.26" rx="4.85" ry="29.92" transform="translate(402.96 1466.8) rotate(-65.02)"/><ellipse class="cls-13" cx="1331.66" cy="371.11" rx="25.04" ry="6.66" transform="translate(598.35 1543) rotate(-73.54)"/><ellipse class="cls-13" cx="1306.4" cy="371.93" rx="6.56" ry="25.16" transform="translate(-39.25 556.94) rotate(-23.72)"/><ellipse class="cls-13" cx="1355.01" cy="376.62" rx="29.78" ry="5.28" transform="translate(-19.63 673.72) rotate(-27.73)"/><ellipse class="cls-13" cx="1291.67" cy="374.76" rx="6.16" ry="23.65" transform="translate(119.38 1033.99) rotate(-45.53)"/><ellipse class="cls-17" cx="1342.76" cy="374.76" rx="27.06" ry="6.24" transform="translate(174.2 1134.97) rotate(-48.64)"/><ellipse class="cls-18" cx="1305.44" cy="426.69" rx="25.38" ry="7.8" transform="translate(373.29 1435.33) rotate(-65.36)"/><ellipse class="cls-19" cx="1338.86" cy="426.53" rx="7.71" ry="25.68" transform="translate(-36.61 713.86) rotate(-29.47)"/><ellipse class="cls-20" cx="1363" cy="385.72" rx="33.5" ry="5.05" transform="translate(-46.21 241.95) rotate(-9.98)"/><ellipse class="cls-12" cx="1276.73" cy="395.14" rx="29.67" ry="4.99"/><ellipse class="cls-13" cx="1285.52" cy="386.31" rx="5.09" ry="29.1" transform="translate(555.6 1512.82) rotate(-73.78)"/><ellipse class="cls-13" cx="1352.24" cy="424.2" rx="5.6" ry="24.78" transform="translate(53.15 990.65) rotate(-40.98)"/><ellipse class="cls-21" cx="1324.02" cy="397.63" rx="27.4" ry="11.32"/><path class="cls-22" d="M1684.6,317.89c-3.65-42.15,49.86-83.2,110.37-76.56,58.88,6.47,130.41,38.35,110.38,76.56"/><path class="cls-23" d="M1838.2,317.89c-26.55,38.92-25.54,76.52-43.23,91-15.25,12.49-77.42-45.5-43.22-91"/><ellipse class="cls-24" cx="1741.63" cy="259.33" rx="13.95" ry="4.52"/><ellipse class="cls-24" cx="1753.19" cy="249.95" rx="8.86" ry="2.92"/><ellipse class="cls-24" cx="1764.05" cy="257.03" rx="5.82" ry="2.3"/><line class="cls-25" x1="1802.46" y1="317.89" x2="1796.6" y2="405.64"/><line class="cls-3" x1="1809.57" y1="331.09" x2="1805.42" y2="394.1"/><line class="cls-26" x1="1821.67" y1="317.89" x2="1818.21" y2="358.05"/><line class="cls-27" x1="1797.54" y1="317.89" x2="1789.91" y2="410.61"/><line class="cls-28" x1="1810.19" y1="317.89" x2="1805.76" y2="389.06"/><line class="cls-29" x1="1815.4" y1="317.89" x2="1813.19" y2="372.79"/><polyline class="cls-1" points="2.89 -47.28 30.29 -1.18 1.32 19.14"/><path class="cls-30" d="M197.05,326.07C145.86,197.52,120.75,86.37,141,77.81S219,166.53,270.2,295.08"/><path class="cls-31" d="M798.11,571.11,531.57,579a61.46,61.46,0,0,1-19.68,2.4l-288.67-11.8c-2-.09-4-.27-6-.55l-99.11-13.9c-48.86-6.86-71.63-66.23-40.52-105.71L399,41.41c19.28-24.47,52.77-31.2,79.55-16l192,109.18A64.78,64.78,0,0,1,700,171.05l85.24,263.08C796.72,469.42,832.83,561,798.11,571.11Z"/><path class="cls-32" d="M632.48,97.83a109.76,109.76,0,0,1-219.52,0"/><ellipse class="cls-33" cx="700.64" cy="73.35" rx="131.58" ry="130.45"/><ellipse class="cls-34" cx="362.72" cy="73.35" rx="124.4" ry="128.32"/><path class="cls-35" d="M463.07,111.21C432.17,192.58,420.48,264,437,270.6s54.87-53.92,85.77-135.29"/><ellipse class="cls-36" cx="457.81" cy="281.46" ry="15.67"/><ellipse class="cls-37" cx="530.15" cy="40.16" rx="268.64" ry="95.13"/><path class="cls-38" d="M700.64,587.4c0-63.12,30.68-114.29,68.54-114.29s68.54,51.17,68.54,114.29"/><path class="cls-38" d="M461.93,615.19c0-64.31,34.15-116.44,76.27-116.44s76.26,52.13,76.26,116.44"/><path class="cls-38" d="M8.57,557c0-65.18,30.51-118,68.14-118s68.14,52.84,68.14,118"/><path class="cls-38" d="M238.31,579.83c0-63.32,29.24-114.65,65.31-114.65s65.3,51.33,65.3,114.65"/><ellipse class="cls-39" cx="775.65" cy="3.81" rx="3.16" ry="3.26"/><ellipse class="cls-39" cx="812.82" cy="33.64" rx="3.16" ry="3.26"/><ellipse class="cls-39" cx="775.65" cy="46.69" rx="3.16" ry="3.26"/><ellipse class="cls-39" cx="258.35" cy="53.37" rx="3.16" ry="3.26"/><ellipse class="cls-39" cx="293.19" cy="43.42" rx="3.16" ry="3.26"/><ellipse class="cls-39" cx="273.36" cy="11.07" rx="3.16" ry="3.26"/><ellipse class="cls-34" cx="358.29" cy="71.18" rx="54.67" ry="64.11"/><ellipse class="cls-40" cx="329.32" cy="56.63" rx="83.65" ry="87.31"/><ellipse class="cls-40" cx="744.36" cy="65.39" rx="83.72" ry="83.13" transform="translate(422.33 739.66) rotate(-69.49)"/><path class="cls-11" d="M178.26,531c0,48.72-13.72,88.22-16.59,88.22s5.7-39.5,5.7-88.22-8.57-88.22-5.7-88.22S178.26,482.22,178.26,531Z"/><ellipse class="cls-12" cx="154.75" cy="385.08" rx="12.11" ry="34.05"/><ellipse class="cls-13" cx="154.75" cy="468.35" rx="11.32" ry="34.82"/><ellipse class="cls-13" cx="212.1" cy="422.99" rx="44.21" ry="7.08"/><ellipse class="cls-13" cx="104.03" cy="433.53" rx="41.33" ry="7.13" transform="translate(-92.44 33.32) rotate(-12.65)"/><ellipse class="cls-14" cx="100.82" cy="442.73" rx="42.15" ry="6.16" transform="translate(-116.94 44.29) rotate(-15.83)"/><ellipse class="cls-15" cx="209.04" cy="436.91" rx="6.62" ry="43.64" transform="translate(-259.27 560.52) rotate(-79.22)"/><ellipse class="cls-13" cx="105.88" cy="451.18" rx="41.54" ry="6.25" transform="translate(-158.76 70.73) rotate(-21.62)"/><ellipse class="cls-13" cx="112.69" cy="456.77" rx="40.05" ry="6.48" transform="translate(-231.68 136.22) rotate(-33.19)"/><ellipse class="cls-13" cx="202.57" cy="446.21" rx="6.69" ry="43.18" transform="translate(-282.55 515.41) rotate(-73.7)"/><ellipse class="cls-16" cx="198.07" cy="452.46" rx="6.85" ry="42.19" transform="translate(-295.7 440.54) rotate(-64.97)"/><ellipse class="cls-13" cx="169.06" cy="387.29" rx="35.36" ry="9.38" transform="translate(-250.23 439.92) rotate(-73.57)"/><ellipse class="cls-13" cx="133.45" cy="388.44" rx="9.25" ry="35.52" transform="translate(-144.73 86.27) rotate(-23.67)"/><ellipse class="cls-13" cx="201.97" cy="395.07" rx="41.99" ry="7.45" transform="translate(-160.84 139.66) rotate(-27.78)"/><ellipse class="cls-13" cx="112.69" cy="392.44" rx="8.68" ry="33.37" transform="translate(-246.09 197.54) rotate(-45.47)"/><ellipse class="cls-17" cx="184.7" cy="392.44" rx="38.19" ry="8.8" transform="translate(-232.03 272.21) rotate(-48.7)"/><ellipse class="cls-18" cx="132.11" cy="465.78" rx="35.82" ry="11" transform="translate(-346.41 392.07) rotate(-65.41)"/><ellipse class="cls-19" cx="179.21" cy="465.56" rx="10.87" ry="36.25" transform="translate(-205.53 148.02) rotate(-29.41)"/><ellipse class="cls-20" cx="213.23" cy="407.92" rx="47.23" ry="7.13" transform="matrix(0.98, -0.17, 0.17, 0.98, -67.57, 43.2)"/><ellipse class="cls-12" cx="91.63" cy="421.22" rx="41.82" ry="7.05"/><ellipse class="cls-13" cx="104.03" cy="408.75" rx="7.18" ry="41.03" transform="translate(-317.5 394.26) rotate(-73.75)"/><ellipse class="cls-13" cx="198.07" cy="462.27" rx="7.9" ry="34.97" transform="matrix(0.76, -0.65, 0.65, 0.76, -254.36, 242.66)"/><ellipse class="cls-21" cx="158.3" cy="424.74" rx="38.62" ry="15.99"/><path class="cls-41" d="M906.63,365.3l97.1,228.48a2.59,2.59,0,0,0,.34.58c2.09,2.73,20,26.72,9.53,26.72l-717.09-5c-9.61,0-46,3-55.51-1.86-1.77-.91-.93,1.95,0,0L358.19,365.3"/><ellipse class="cls-42" cx="633.32" cy="375.22" rx="280.79" ry="59.61"/><ellipse class="cls-43" cx="643.67" cy="416.45" rx="280.79" ry="59.61"/><ellipse class="cls-44" cx="573.38" cy="517.98" rx="12.97" ry="15.84" transform="translate(-113.06 163.2) rotate(-14.76)"/><ellipse class="cls-44" cx="606.37" cy="492.09" rx="14.42" ry="17.69" transform="translate(-72.56 106.23) rotate(-9.45)"/><ellipse class="cls-44" cx="655.31" cy="494.45" rx="16.55" ry="14.44" transform="translate(15.22 1008.45) rotate(-75.8)"/><ellipse class="cls-44" cx="689.36" cy="515.85" rx="18.54" ry="13.52" transform="matrix(0.58, -0.81, 0.81, 0.58, -130.95, 777.41)"/><path class="cls-44" d="M682.31,584.56c-1.44,30-34.95-9.2-63.6,1.42-29.73,11-39.57,14.88-38.14-15.16s23.3-52.84,53.59-51.18S683.74,554.53,682.31,584.56Z"/><g class="cls-45"><rect class="cls-46" x="486.88" y="-244.16" width="1140.34" height="648.08" rx="260.58"/><path class="cls-8" d="M1133.88,185.42c9.77,2.46,19.56.28,26.06-6.86,10.8-11.86,8.4-32.9-5.35-47-13.25-13.57-32.2-15.74-43.23-5.28-22.85-16.77-48.28-33.68-50.58-36l-38.2-51.42.49-.5c10.34-11.36,8-31.49-5.12-45s-32.21-15.22-42.55-3.86c-6.23,6.84-7.86,16.87-5.3,26.72-10.74-5.07-22.53-3.88-29.81,4.11-9.87,10.85-7.68,30.08,4.89,43,9.05,9.27,21,12.73,30.7,9.89l62.42,40.87c2.44,2.5,21.87,31.83,40,56.22-6,11.56-2.74,28.09,8.57,39.68,13.09,13.41,32,15.13,42.31,3.84C1135.71,206.59,1137.14,195.78,1133.88,185.42Z"/><path class="cls-8" d="M1137.71,38.74a43.52,43.52,0,0,0,.93-37.08c-9-20.55-31.74-29.6-50.72-20.22-18.29,9-26.44,31.89-18.94,51.92-24.62,19.41-50.16,42-53.33,43.61L950.1,96c-.12-.31-.24-.62-.37-.92-8.64-19.67-30.38-28.34-48.55-19.35s-25.89,32.21-17.25,51.88c5.21,11.86,15.18,19.71,26.26,22.11a39.4,39.4,0,0,0-5,40.27c8.26,18.79,29,27.07,46.38,18.49,12.5-6.18,19.82-19.41,19.86-33.35l62.07-55.86c3.36-1.67,40-9.51,71.1-18.47,10.22,14.24,28.48,19.64,44.1,11.92,18.07-8.93,25.75-32,17.15-51.59C1160.38,48.58,1149.54,40.55,1137.71,38.74Z"/><path class="cls-47" d="M915.23,280.82a4,4,0,0,1-1.4-.36,2.58,2.58,0,0,0-1.47-.25l-6.59,1.57v29.56a8.54,8.54,0,0,0,.89,3.54,3.82,3.82,0,0,1-.12,2.13,3.15,3.15,0,0,1-1.22,2.19,2,2,0,0,1-.64.06,32.72,32.72,0,0,1-5.88-.73c-2.82-.56-4.48-1.11-5-1.63s-.58-1.57.06-2.7a5.09,5.09,0,0,0,.84-2.13V284.25l-4.54,1a4,4,0,0,0-1.06.48,1.79,1.79,0,0,1-1.25.31q-1.47-.35-4-3.34c-1.7-2-2.45-3.37-2.23-4.08.34-.86,1.34-1.52,3-2a4.64,4.64,0,0,1,1.66-.05,6,6,0,0,0,1.6,0l22.26-5a16.93,16.93,0,0,0,1.85-.68,3.86,3.86,0,0,1,1.86-.28,3.15,3.15,0,0,1,2.43,1.24,10.45,10.45,0,0,1,1,2.53,14.13,14.13,0,0,1,.64,3.82,3.94,3.94,0,0,1-.36,1.88C917.27,280.55,916.51,280.79,915.23,280.82Z"/><path class="cls-47" d="M958,310.72q.59,1-2.27,4.69c-1.9,2.49-3.48,3.72-4.76,3.68a3.85,3.85,0,0,1-3.26-1.91,7.45,7.45,0,0,0-1-1.63l-13.5-11.07v10.4a3.35,3.35,0,0,0,.55,1.57,3.41,3.41,0,0,1,.54,1.41c0,1.12-.83,1.74-2.49,1.85a21.29,21.29,0,0,1-5.7-.62c-2.72-.52-4.09-1.08-4.09-1.68a2.45,2.45,0,0,1,.16-.76,3.77,3.77,0,0,0,.16-1.21V276.22a1.3,1.3,0,0,0-.19-.71A1,1,0,0,1,922,275c0-1,.89-1.62,2.56-1.8a12.33,12.33,0,0,1,3.48.53,15.92,15.92,0,0,0,3.87.59,17,17,0,0,0,4.44-1.54,14.72,14.72,0,0,1,5.86-1.49,12.38,12.38,0,0,1,2,.16A7.71,7.71,0,0,1,947.4,273c1,.75,1.92,1.49,2.81,2.24,2.35,1.95,3.56,3,3.65,3.09a5.81,5.81,0,0,1,1.79,3.77q.39,6.53-12.66,16.75,2.68,2.13,11.83,10.39a12.43,12.43,0,0,1,1.66.68A8.33,8.33,0,0,1,958,310.72Zm-14.13-31.41c-2,0-5.54,1.83-10.62,5.5v8.6c1.84-.64,4.24-2.57,7.23-5.79s4.48-5.62,4.48-7.19A1,1,0,0,0,943.82,279.31Z"/><path class="cls-47" d="M999.52,275.93c.26,1.95-.26,3.19-1.54,3.71a9,9,0,0,0-1,.45q-3.71,5-9.78,17.59-5.7,11.91-5.95,14.33a4.45,4.45,0,0,0,.26,1.58,5.42,5.42,0,0,1,.25,1.85c-.25,2.55-1,3.91-2.17,4.1a16.38,16.38,0,0,1-4.45-.84,24.88,24.88,0,0,1-4.76-1.63c-1.45-.9-2.18-1.8-2.18-2.7a3.32,3.32,0,0,1,.45-1.52q.9-2.19,3.77-9-5.31-9.6-7.16-13.26a90.1,90.1,0,0,1-5.24-12,3.29,3.29,0,0,0-.74-.84,1.55,1.55,0,0,1-.61-1c0-.56.84-1.41,2.5-2.53q5.31-3.6,7.29-3.37a2.7,2.7,0,0,1,1.85,1.18,3.43,3.43,0,0,1,.83,1.51,23.62,23.62,0,0,0,.39,3.43,52.9,52.9,0,0,0,6.14,15.12q3.58-7.69,4-8.49a63.2,63.2,0,0,1,5.5-8.93,18.14,18.14,0,0,1,.89-2.31,4,4,0,0,1,3.46-1.06,14.21,14.21,0,0,1,4.7,2C998.34,274.49,999.43,275.37,999.52,275.93Z"/><path class="cls-47" d="M1057.52,315.1c0,.34-.13,1.15-.26,2.42a2.48,2.48,0,0,1-.51,1.52,2.53,2.53,0,0,1-1.08.16,18.52,18.52,0,0,1-5.25-.95,10.29,10.29,0,0,1-4.6-2.14c-.34-.33-.69-1.46-1-3.37a40.56,40.56,0,0,0-1.59-6.24,54.05,54.05,0,0,0-7.1,1.55,28.25,28.25,0,0,0-6.08,2.11q-1,2.41-2.56,5.95c-.12.53-.26,1-.41,1.49a2,2,0,0,1-1.12,1.16,1.24,1.24,0,0,1-.58.11,16.74,16.74,0,0,1-5.14-1.41c-2.41-.93-3.66-1.55-3.75-1.85-.17-.53.24-1.82,1.22-3.88,1.36-3,2.15-4.83,2.37-5.51a3.24,3.24,0,0,1-1.35-2.36,2.79,2.79,0,0,1,.07-.61q.12-.67,3.9-2.42l8.25-24.78a8.59,8.59,0,0,0,.06-2.48c-.08-1,0-1.64.39-1.91a2.69,2.69,0,0,1,1.53-.28,39.39,39.39,0,0,1,8.57,1.35c3.71.9,5.92,1.71,6.65,2.42a152.57,152.57,0,0,0,2.88,18.71Q1054.2,309.27,1057.52,315.1ZM1040.83,298c-.55-2.36-.9-3.92-1-4.67a64.36,64.36,0,0,1-1-7.81q-1.29,2.76-3,7.65a38.2,38.2,0,0,0-2,6.4A67.35,67.35,0,0,1,1040.83,298Z"/><path class="cls-47" d="M1095.63,298.24a3,3,0,0,1-2.23,2.87,1.53,1.53,0,0,1-.9-.2,2,2,0,0,0-.83-.25,2.41,2.41,0,0,0-.83.17,87,87,0,0,1-3.9,11.24q-2.57,5.34-6.65,7a5.82,5.82,0,0,1-2.24.45,27.06,27.06,0,0,1-5.69-1.47c-1.15-.26-3-.8-5.44-1.63q-3.7-1.56-5.75-7.24a36.44,36.44,0,0,1-1.86-12.31,43.65,43.65,0,0,1,2.94-16.52q3.2-7.92,8.44-8.88a7.83,7.83,0,0,1,1-.06,22.21,22.21,0,0,1,7.8,1.8c3.28,1.27,5.5,2.68,6.65,4.21a10.25,10.25,0,0,1,1.85,4.73c.39,2.17.62,3.35.71,3.54.13.63.3,1.4.51,2.3a2.67,2.67,0,0,1-.64,1.71,3.14,3.14,0,0,1-1.34,1.21q-.84.28-5-.81a19.57,19.57,0,0,1-5-1.72q-1.15-.68-1-2.64a1.28,1.28,0,0,1,.32-.7,1.32,1.32,0,0,0,.32-.76q0-4-1-4-2.18-.06-3.84,6.41a54.11,54.11,0,0,0-1.53,13.26q0,10.68,3.39,12.25c.68.3,1.6-.73,2.78-3.09a19.79,19.79,0,0,0,2.08-6.63,22.39,22.39,0,0,0-3.9-1.74c-1.54-.57-2.37-1.05-2.5-1.46a3.27,3.27,0,0,1,.64-2.39,4.65,4.65,0,0,1,1.89-2,7.31,7.31,0,0,1,2.78-.5,19.56,19.56,0,0,0,2.94-.12,26.39,26.39,0,0,0,3.52-.95,10.34,10.34,0,0,1,3-.68,3.92,3.92,0,0,1,.71.06,13.58,13.58,0,0,1,4.7,2.53Q1095.71,297.46,1095.63,298.24Z"/><path class="cls-47" d="M1135,315.1c0,.34-.12,1.15-.25,2.42a2.48,2.48,0,0,1-.51,1.52,2.62,2.62,0,0,1-1.09.16,18.46,18.46,0,0,1-5.24-.95,10.34,10.34,0,0,1-4.61-2.14c-.34-.33-.68-1.46-1-3.37a40.45,40.45,0,0,0-1.6-6.24,54.05,54.05,0,0,0-7.1,1.55,28.1,28.1,0,0,0-6.07,2.11c-.64,1.61-1.5,3.59-2.56,5.95-.13.53-.27,1-.42,1.49a2,2,0,0,1-1.12,1.16,1.2,1.2,0,0,1-.57.11,16.78,16.78,0,0,1-5.15-1.41c-2.41-.93-3.66-1.55-3.74-1.85-.17-.53.23-1.82,1.21-3.88,1.37-3,2.16-4.83,2.37-5.51a3.22,3.22,0,0,1-1.34-2.36,3.49,3.49,0,0,1,.06-.61q.13-.67,3.9-2.42l8.25-24.78a8.48,8.48,0,0,0,.07-2.48c-.09-1,0-1.64.38-1.91a2.69,2.69,0,0,1,1.53-.28,39.3,39.3,0,0,1,8.57,1.35q5.56,1.35,6.65,2.42a154.58,154.58,0,0,0,2.88,18.71Q1131.63,309.27,1135,315.1ZM1118.27,298c-.55-2.36-.89-3.92-1-4.67a64.36,64.36,0,0,1-1-7.81q-1.27,2.76-3,7.65a39.75,39.75,0,0,0-2,6.4A68.06,68.06,0,0,1,1118.27,298Z"/><path class="cls-47" d="M1152.81,274.08a3,3,0,0,1-.29,1.07c-.19.45-.31.73-.35.84a23.26,23.26,0,0,0-.77,3.48V314a2.07,2.07,0,0,0,.38,1.21,1.6,1.6,0,0,1,.39.87c0,2.4-.51,3.69-1.54,3.87a20.6,20.6,0,0,1-4.47-.73c-2.73-.6-4.31-1.06-4.74-1.4-.94-.71-1.4-1.37-1.4-2a.76.76,0,0,1,.25-.5,1.43,1.43,0,0,0,.26-1V274.75a1.38,1.38,0,0,0-.23-.7,1.33,1.33,0,0,1-.22-.7c.09-.9.87-1.5,2.37-1.8a19.16,19.16,0,0,1,2.94,0,26.72,26.72,0,0,1,4.6.62C1151.87,272.62,1152.81,273.26,1152.81,274.08Z"/><path class="cls-47" d="M1194.5,274.08a2.82,2.82,0,0,1-.26,1.18,8.18,8.18,0,0,0-.57,1.52v37.09c0-.12.1.58.32,2.08.25,1.72,0,2.84-.77,3.37s-2.49.67-5.18.45a25.94,25.94,0,0,1-5.31-1.07q-3.9-1.06-4.28-2.25a11.57,11.57,0,0,0-.19-2.42q-3.59-8.31-8.32-18.26v16.64a2.47,2.47,0,0,0,.45,1.18,10.09,10.09,0,0,1,.58,1,4.76,4.76,0,0,1,.32,1.68,2,2,0,0,1-2.31,2.25,25.81,25.81,0,0,1-6.33-1.12q-3.84-1.12-4.35-1.75a1.9,1.9,0,0,1,0-2.3,5.83,5.83,0,0,0,.77-1.74V276.38a4,4,0,0,0-.19-1,1.83,1.83,0,0,1-.06-1.07,3.91,3.91,0,0,1,2.49-2.58,5.16,5.16,0,0,1,1.41-.11,24.66,24.66,0,0,1,5.11.56,10,10,0,0,1,4.73,1.91q1.8,1.68,4.67,10.28,3.52,10.58,5.5,14.28V276.55a4.49,4.49,0,0,0-.25-1.26,4.64,4.64,0,0,1-.26-1.27,1.36,1.36,0,0,1,.13-.61q.32-1,2.43-1.41a10.42,10.42,0,0,1,3.2-.28,22.16,22.16,0,0,1,3.51.62C1193.46,272.86,1194.46,273.44,1194.5,274.08Z"/></g></svg>
