<svg id="Layer_1" data-name="Layer 1" xmlns="http://www.w3.org/2000/svg" xmlns:xlink="http://www.w3.org/1999/xlink" width="1920" height="1080" viewBox="0 0 1920 1080"><defs><style>.cls-1{fill:#00a24e;}.cls-2,.cls-37,.cls-38{stroke-miterlimit:10;}.cls-2{stroke-width:6px;fill:url(#linear-gradient);stroke:url(#linear-gradient-2);}.cls-3{fill:none;}.cls-4{fill:#913a34;}.cls-18,.cls-4{opacity:0.67;}.cls-5,.cls-7{fill:#e7dbd2;}.cls-5{opacity:0.83;}.cls-6{fill:#bf5a4d;}.cls-51,.cls-8{fill:#edebd5;}.cls-9{fill:#c32b33;}.cls-10{fill:#78341f;}.cls-11{fill:#fff;}.cls-12{fill:#00813a;opacity:0.9;}.cls-13,.cls-14,.cls-15,.cls-16,.cls-17,.cls-18,.cls-19,.cls-20,.cls-21{fill:#a84571;}.cls-13{opacity:0.65;}.cls-15{opacity:0.79;}.cls-16{opacity:0.61;}.cls-17{opacity:0.72;}.cls-19{opacity:0.84;}.cls-20{opacity:0.56;}.cls-21{opacity:0.75;}.cls-22{fill:#fdd676;}.cls-23{opacity:0.11;fill:url(#radial-gradient);}.cls-24{fill:#ffcd18;}.cls-25{fill:#acbe36;}.cls-26{fill:#ac8e13;}.cls-27{fill:#faed63;}.cls-28{fill:#cad000;}.cls-29{fill:#c3d219;}.cls-30{fill:#cdd500;}.cls-31{fill:#7e8c26;}.cls-32{fill:#1d1d1b;}.cls-33{fill:#723c29;}.cls-34{fill:#935934;}.cls-35{fill:#84bc26;opacity:0.45;}.cls-36{fill:#ce825d;}.cls-37,.cls-42{fill:#c96;}.cls-37,.cls-38{stroke:#c96;}.cls-38{fill:#d5965d;}.cls-39,.cls-40{fill:#e20d18;}.cls-40{opacity:0.85;}.cls-41{fill:#e64065;}.cls-43{fill:#010101;}.cls-44{fill:#230d0f;}.cls-45,.cls-47{fill:#143d6c;}.cls-46{fill:#132237;}.cls-47{opacity:0.7;}.cls-48{fill:#7d645e;}.cls-49{opacity:0.69;}.cls-50{fill:#0c0c15;opacity:0.77;}.cls-51{opacity:0.91;}.cls-52{fill:#982d3d;opacity:0.74;}</style><linearGradient id="linear-gradient" x1="-8039.74" y1="-2472.15" x2="-6423.13" y2="-2472.15" gradientTransform="translate(2894.38 12113.41) scale(0.27 4.81)" gradientUnits="userSpaceOnUse"><stop offset="0" stop-color="#6aacde"/><stop offset="0" stop-color="#f6fafd"/><stop offset="0" stop-color="#f2f9fe"/><stop offset="0" stop-color="#626161"/><stop offset="0" stop-color="#9dd8f7"/><stop offset="0.04" stop-color="#94d5f7"/><stop offset="0.1" stop-color="#a7dcf8"/><stop offset="0.12" stop-color="#8dd3f6"/><stop offset="0.14" stop-color="#abddf9"/><stop offset="0.2" stop-color="#80cff5"/><stop offset="0.51" stop-color="#5ea5db"/><stop offset="0.77" stop-color="#9dd8f7"/><stop offset="0.93" stop-color="#a4dbf8"/><stop offset="1" stop-color="#d2ecfc"/><stop offset="1" stop-color="#8ccbf1"/><stop offset="1" stop-color="#e8f5fc" stop-opacity="0.7"/></linearGradient><linearGradient id="linear-gradient-2" x1="-8042.74" y1="-2472.15" x2="-6420.13" y2="-2472.15" gradientTransform="translate(2894.38 12113.41) scale(0.27 4.81)" gradientUnits="userSpaceOnUse"><stop offset="0" stop-color="#fff"/><stop offset="1"/></linearGradient><radialGradient id="radial-gradient" cx="1031.5" cy="802.21" r="357.71" gradientTransform="matrix(2.27, 0.21, 0.47, 0.87, -1743.44, -821.4)" gradientUnits="userSpaceOnUse"><stop offset="0" stop-color="#6aacde"/><stop offset="0" stop-color="#f6fafd"/><stop offset="0" stop-color="#f2f9fe"/><stop offset="0" stop-color="#626161"/><stop offset="0" stop-color="#fded4c"/><stop offset="0" stop-color="#ffe68b"/><stop offset="0.1" stop-color="#fbc78b"/><stop offset="0.16" stop-color="#fdf3a4"/><stop offset="0.2" stop-color="#f9ea3c"/><stop offset="0.49" stop-color="#ffdb5b"/><stop offset="0.57" stop-color="#f6e826"/><stop offset="0.77" stop-color="#f6a033"/><stop offset="0.93" stop-color="#e7a800"/><stop offset="1" stop-color="#d2ecfc"/><stop offset="1" stop-color="#8ccbf1"/><stop offset="1" stop-color="#e8f5fc" stop-opacity="0.7"/></radialGradient></defs><title>gameoverbbagrund</title><rect class="cls-1" x="-2.7" y="429.7" width="1926.94" height="650.3"/><rect class="cls-2" x="742.55" y="-745.25" width="432.68" height="1923.18" transform="translate(742.55 1175.23) rotate(-90)"/><polyline class="cls-1" points="450.78 361.9 437.19 457.97 377.5 446.51"/><rect class="cls-3" x="1108.61" y="957.39" width="540.92" height="62.39"/><rect class="cls-3" x="391.31" y="463.62" width="1055.68" height="652.45"/><rect class="cls-3" x="1262.92" y="524.96" width="17.1"/><rect class="cls-3" x="1026.4" y="659.68" width="17.1"/><line class="cls-3" x1="562.71" y1="986.67" x2="657.29" y2="849.8"/><polyline class="cls-1" points="1421.71 360.17 1412.12 424.46 1374.11 417.42"/><polyline class="cls-1" points="1295.27 347.04 1285.67 411.33 1247.66 404.29"/><polyline class="cls-1" points="546.3 347.04 536.71 411.33 498.7 404.29"/><polyline class="cls-1" points="634.22 345.17 624.25 424.44 578.73 414.73"/><polyline class="cls-1" points="463.9 361.65 453.92 440.93 408.4 431.22"/><polyline class="cls-1" points="1358.49 352.66 1348.89 416.95 1310.89 409.91"/><polyline class="cls-1" points="1263.97 352.24 1254.37 416.53 1216.36 409.49"/><polyline class="cls-1" points="602.53 360.17 592.93 424.46 554.92 417.42"/><polyline class="cls-1" points="511.5 347.04 501.91 411.33 463.9 404.29"/><polyline class="cls-1" points="1390.32 369.14 1380.73 433.44 1342.72 426.4"/><polyline class="cls-1" points="1063.32 458.66 1053.34 537.94 1007.82 528.22"/><polyline class="cls-1" points="1193.25 360.17 1183.65 424.46 1145.64 417.42"/><polyline class="cls-1" points="658.81 360.17 649.21 424.46 611.2 417.42"/><polyline class="cls-1" points="450.71 351.7 442.71 415.87 405.92 407.97"/><polyline class="cls-1" points="1445.04 353.5 1437.44 409.31 1401.86 409.09"/><path class="cls-4" d="M1519.73,610.72c0-38.33,47-69.41,105-69.41s105,31.08,105,69.41-63.15,77.88-101.47,49.1C1579.22,623,1519.73,649.05,1519.73,610.72Z"/><path class="cls-5" d="M1524.82,595.26c0-28.21,44.74-51.08,99.94-51.08s99.94,22.87,99.94,51.08-60.1,57.32-96.57,36.14C1581.43,604.27,1524.82,623.48,1524.82,595.26Z"/><path class="cls-6" d="M1541.43,585.69c0-24.51,38.52-44.38,86-44.38s86,19.87,86,44.38-51.74,49.8-83.13,31.39C1590.16,593.51,1541.43,610.2,1541.43,585.69Z"/><ellipse class="cls-7" cx="1636.8" cy="582.36" rx="5.54" ry="35.5" transform="translate(628.15 1996.88) rotate(-74.09)"/><ellipse class="cls-7" cx="1669.77" cy="589.68" rx="21.69" ry="4.35" transform="translate(-25.89 1100.17) rotate(-36.21)"/><path class="cls-8" d="M1447.25,512.26a24.24,24.24,0,0,0-2.09-17.42c-6.71-12.45-23.19-16.58-36.81-9.24s-19.22,23.39-12.5,35.84a23.59,23.59,0,0,0,4.07,5.43c-18.75,12.42-38.74,26.44-41,27.68l-40,18a22.37,22.37,0,0,0-2.41-7c-6.42-11.91-22.2-15.87-35.23-8.84s-18.39,22.39-12,34.3a23.53,23.53,0,0,0,16.11,11.72,22.57,22.57,0,0,0,.72,19.48c6.14,11.38,21.21,15.16,33.66,8.45s17.57-21.39,11.43-32.77a21.68,21.68,0,0,0-3.24-4.46l37.15-26.24c2.52-1.37,29.57-12.53,51.57-22.49a22.61,22.61,0,0,0,1.94,5c6.39,11.85,22.08,15.79,35,8.8s18.28-22.26,11.89-34.11A23.62,23.62,0,0,0,1447.25,512.26Z"/><rect class="cls-9" x="1470.21" y="735.69" width="151.03" height="197.46" transform="translate(-209.07 755.58) rotate(-25.79)"/><path class="cls-10" d="M1530,648.06a11.34,11.34,0,0,1-6.06,1.73,11.17,11.17,0,0,1-7.05-2.44,9.87,9.87,0,0,1-17.24,3,8.9,8.9,0,0,1-16.37,2l-79.41,38.37,40.26,83.33,119-57.49Z"/><ellipse class="cls-11" cx="69.8" cy="69.69" rx="31.7" ry="28.25"/><ellipse class="cls-11" cx="158.12" cy="75.69" rx="32.2" ry="28.69"/><ellipse class="cls-11" cx="134.46" cy="100.78" rx="33.34" ry="33.06"/><ellipse class="cls-11" cx="114.63" cy="67.72" rx="31.14" ry="27.75"/><ellipse class="cls-11" cx="85.63" cy="115.36" rx="29" ry="30.32"/><ellipse class="cls-11" cx="48.92" cy="103" rx="23.61" ry="17.02"/><ellipse class="cls-11" cx="43.54" cy="75.69" rx="23.61" ry="17.02"/><ellipse class="cls-11" cx="1813.59" cy="191.58" rx="26.48" ry="15.26"/><ellipse class="cls-11" cx="1887.35" cy="194.81" rx="26.89" ry="15.5"/><ellipse class="cls-11" cx="1867.59" cy="208.37" rx="27.84" ry="17.86"/><ellipse class="cls-11" cx="1851.03" cy="190.51" rx="26.01" ry="14.99"/><ellipse class="cls-11" cx="1826.81" cy="216.25" rx="24.21" ry="16.38"/><ellipse class="cls-11" cx="1796.16" cy="209.57" rx="19.72" ry="9.2"/><ellipse class="cls-11" cx="1791.67" cy="194.81" rx="19.72" ry="9.2"/><ellipse class="cls-11" cx="549.87" cy="68.76" rx="25.74" ry="18.54"/><ellipse class="cls-11" cx="621.59" cy="72.69" rx="26.15" ry="18.83"/><ellipse class="cls-11" cx="602.38" cy="89.16" rx="27.07" ry="21.69"/><ellipse class="cls-11" cx="586.28" cy="67.46" rx="25.29" ry="18.21"/><ellipse class="cls-11" cx="562.73" cy="98.73" rx="23.54" ry="19.89"/><ellipse class="cls-11" cx="532.93" cy="90.62" rx="19.17" ry="11.17"/><ellipse class="cls-11" cx="528.56" cy="72.69" rx="19.17" ry="11.17"/><polyline class="cls-1" points="343.64 363.29 330.05 459.36 270.35 447.91"/><polyline class="cls-1" points="707.72 361.27 694.13 457.34 634.44 445.88"/><polyline class="cls-1" points="883.1 368.92 869.51 464.99 809.81 453.53"/><polyline class="cls-1" points="839.98 363.29 826.39 459.36 766.69 447.91"/><polyline class="cls-1" points="731.43 420.51 717.85 516.58 658.15 505.13"/><polyline class="cls-1" points="655.25 355.94 641.66 452.01 581.97 440.55"/><polyline class="cls-1" points="1112.07 367.84 1098.48 463.91 1038.79 452.45"/><polyline class="cls-1" points="1203.56 367.84 1189.97 463.91 1130.27 452.45"/><polyline class="cls-1" points="1155.51 372.48 1141.92 468.55 1082.22 457.09"/><polyline class="cls-1" points="1371.33 363.29 1357.74 459.36 1298.04 447.91"/><polyline class="cls-1" points="1305.72 372.48 1292.13 468.55 1232.43 457.09"/><polyline class="cls-1" points="958.14 372.48 944.56 468.55 884.86 457.09"/><polyline class="cls-1" points="621.25 367.47 607.66 463.54 547.97 452.08"/><polyline class="cls-1" points="770.95 376.41 757.36 472.48 697.67 461.02"/><polyline class="cls-1" points="1853.03 355.94 1839.44 452.01 1779.74 440.55"/><ellipse class="cls-11" cx="315.26" cy="112.4" rx="43.35" ry="34.08"/><ellipse class="cls-11" cx="436.02" cy="119.63" rx="44.03" ry="34.61"/><ellipse class="cls-11" cx="403.67" cy="149.91" rx="45.58" ry="39.88"/><ellipse class="cls-11" cx="376.56" cy="110.02" rx="42.58" ry="33.48"/><ellipse class="cls-11" cx="336.91" cy="167.5" rx="39.65" ry="36.57"/><ellipse class="cls-11" cx="286.72" cy="152.58" rx="32.29" ry="20.54"/><ellipse class="cls-11" cx="279.36" cy="119.63" rx="32.29" ry="20.54"/><ellipse class="cls-11" cx="1088.91" cy="82.36" rx="31.32" ry="30.44"/><ellipse class="cls-11" cx="1176.17" cy="88.82" rx="31.82" ry="30.92"/><ellipse class="cls-11" cx="1152.79" cy="115.86" rx="32.94" ry="35.63"/><ellipse class="cls-11" cx="1133.2" cy="80.23" rx="30.77" ry="29.91"/><ellipse class="cls-11" cx="1104.55" cy="131.58" rx="28.65" ry="32.68"/><ellipse class="cls-11" cx="1068.29" cy="118.26" rx="23.33" ry="18.35"/><ellipse class="cls-11" cx="1062.97" cy="88.82" rx="23.33" ry="18.35"/><polyline class="cls-1" points="322.36 365.3 308.77 461.37 249.07 449.92"/><polyline class="cls-1" points="300.07 367.84 286.48 463.91 226.78 452.45"/><polyline class="cls-1" points="279.62 379.18 266.03 475.25 206.33 463.79"/><polyline class="cls-1" points="259.18 372.48 245.59 468.55 185.89 457.09"/><polyline class="cls-1" points="69.55 369.85 55.96 465.92 -3.74 454.46"/><polyline class="cls-1" points="112.78 361.27 99.19 457.34 39.49 445.88"/><polyline class="cls-1" points="230.65 367.84 217.06 463.91 157.37 452.45"/><polyline class="cls-1" points="195.01 367.6 181.43 463.67 121.73 452.21"/><polyline class="cls-1" points="164.36 372.8 150.77 468.87 91.07 457.41"/><polyline class="cls-1" points="617.36 365.3 603.77 461.37 544.08 449.92"/><polyline class="cls-1" points="588.46 367.33 574.87 463.4 515.18 451.94"/><polyline class="cls-1" points="358.01 372.8 344.43 468.87 284.73 457.41"/><polyline class="cls-1" points="1090.06 365.57 1076.47 461.64 1016.77 450.19"/><polyline class="cls-1" points="1061.16 367.6 1047.57 463.67 987.87 452.21"/><polyline class="cls-1" points="987.87 372.8 974.28 468.87 914.58 457.41"/><polyline class="cls-1" points="1901.88 357.66 1888.29 453.73 1828.59 442.27"/><polyline class="cls-1" points="1872.98 359.68 1859.39 455.75 1799.69 444.29"/><polyline class="cls-1" points="1799.69 364.88 1786.1 460.95 1726.4 449.5"/><polyline class="cls-1" points="1774.99 368.92 1761.4 464.99 1701.7 453.53"/><polyline class="cls-1" points="1746.09 370.94 1732.5 467.01 1672.8 455.55"/><polyline class="cls-1" points="1672.8 376.14 1659.21 472.21 1599.52 460.75"/><polyline class="cls-1" points="1749.55 356.07 1735.96 452.14 1676.27 440.68"/><polyline class="cls-1" points="1720.65 358.09 1707.06 454.16 1647.37 442.7"/><polyline class="cls-1" points="1647.37 363.29 1633.78 459.36 1574.08 447.91"/><polyline class="cls-1" points="1519.48 363.48 1505.89 459.55 1446.19 448.09"/><polyline class="cls-1" points="1490.58 365.5 1476.99 461.57 1417.29 450.12"/><polyline class="cls-1" points="1417.29 370.71 1403.7 466.78 1344.01 455.32"/><polyline class="cls-1" points="144.04 352.33 130.45 448.4 70.75 436.94"/><polyline class="cls-1" points="98.82 363.29 85.23 459.36 25.53 447.91"/><polyline class="cls-1" points="20.8 367.46 61.14 455.7 4.68 478.23"/><polyline class="cls-1" points="494.35 357.36 480.76 453.43 421.07 441.97"/><polyline class="cls-1" points="473.07 359.37 459.49 455.44 399.79 443.98"/><polyline class="cls-1" points="430.33 373.25 416.74 469.32 357.04 457.86"/><polyline class="cls-1" points="409.89 366.54 396.3 462.61 336.6 451.15"/><polyline class="cls-1" points="381.37 361.9 367.78 457.97 308.08 446.51"/><polyline class="cls-1" points="508.73 366.86 495.14 462.93 435.44 451.48"/><polyline class="cls-1" points="625.72 361.24 612.13 457.31 552.43 445.85"/><polyline class="cls-1" points="604.44 363.25 590.85 459.32 531.15 447.86"/><polyline class="cls-1" points="582.15 365.78 568.56 461.85 508.86 450.4"/><polyline class="cls-1" points="561.7 377.13 548.11 473.2 488.41 461.74"/><polyline class="cls-1" points="541.26 370.43 527.67 466.5 467.97 455.04"/><polyline class="cls-1" points="512.73 365.78 499.14 461.85 439.45 450.4"/><polyline class="cls-1" points="640.09 370.75 626.5 466.82 566.81 455.36"/><polyline class="cls-1" points="216.31 365.3 202.72 461.37 143.02 449.92"/><polyline class="cls-1" points="195.03 367.31 181.44 463.38 121.74 451.92"/><polyline class="cls-1" points="172.73 369.85 159.14 465.92 99.45 454.46"/><polyline class="cls-1" points="152.28 381.19 138.69 477.26 78.99 465.8"/><polyline class="cls-1" points="131.84 374.49 118.25 470.56 58.55 459.1"/><polyline class="cls-1" points="103.32 369.85 89.73 465.92 30.03 454.46"/><polyline class="cls-1" points="230.68 374.81 217.09 470.88 157.39 459.42"/><polyline class="cls-1" points="793.08 355.31 779.49 451.38 719.79 439.92"/><polyline class="cls-1" points="771.8 357.31 758.21 453.38 698.51 441.93"/><polyline class="cls-1" points="749.5 359.85 735.92 455.92 676.22 444.46"/><polyline class="cls-1" points="729.05 371.19 715.46 467.26 655.76 455.81"/><polyline class="cls-1" points="708.61 364.49 695.02 460.56 635.33 449.1"/><polyline class="cls-1" points="680.09 359.85 666.5 455.92 606.8 444.46"/><polyline class="cls-1" points="807.45 364.81 793.86 460.88 734.16 449.42"/><polyline class="cls-1" points="945.27 359.65 931.68 455.72 871.98 444.26"/><polyline class="cls-1" points="923.99 361.66 910.4 457.73 850.7 446.27"/><polyline class="cls-1" points="901.7 364.19 888.11 460.26 828.41 448.81"/><polyline class="cls-1" points="881.24 375.54 867.65 471.61 807.96 460.15"/><polyline class="cls-1" points="860.8 368.84 847.22 464.91 787.52 453.45"/><polyline class="cls-1" points="832.28 364.19 818.69 460.26 758.99 448.81"/><polyline class="cls-1" points="959.64 369.16 946.05 465.23 886.35 453.77"/><polyline class="cls-1" points="1122.6 364.86 1109.01 460.93 1049.31 449.47"/><polyline class="cls-1" points="1101.32 366.86 1087.73 462.93 1028.03 451.48"/><polyline class="cls-1" points="1079.03 369.4 1065.44 465.47 1005.74 454.01"/><polyline class="cls-1" points="1058.57 380.74 1044.98 476.81 985.29 465.36"/><polyline class="cls-1" points="1038.13 374.04 1024.55 470.11 964.85 458.65"/><polyline class="cls-1" points="1009.61 369.4 996.02 465.47 936.32 454.01"/><polyline class="cls-1" points="1136.97 374.36 1123.38 470.43 1063.68 458.97"/><polyline class="cls-1" points="1292.05 356.25 1278.46 452.32 1218.77 440.86"/><polyline class="cls-1" points="1270.77 358.26 1257.18 454.33 1197.49 442.87"/><polyline class="cls-1" points="1248.48 360.79 1234.89 456.86 1175.19 445.4"/><polyline class="cls-1" points="1228.03 372.14 1214.44 468.21 1154.74 456.75"/><polyline class="cls-1" points="1207.59 365.43 1194 461.5 1134.3 450.05"/><polyline class="cls-1" points="1179.07 360.79 1165.48 456.86 1105.78 445.4"/><polyline class="cls-1" points="1306.43 365.76 1292.84 461.83 1233.14 450.37"/><polyline class="cls-1" points="1435.69 364.86 1422.1 460.93 1362.4 449.47"/><polyline class="cls-1" points="1414.41 366.86 1400.82 462.93 1341.12 451.48"/><polyline class="cls-1" points="1392.12 369.4 1378.53 465.47 1318.83 454.01"/><polyline class="cls-1" points="1371.66 380.74 1358.08 476.81 1298.38 465.36"/><polyline class="cls-1" points="1351.23 374.04 1337.64 470.11 1277.94 458.65"/><polyline class="cls-1" points="1322.7 369.4 1309.11 465.47 1249.42 454.01"/><polyline class="cls-1" points="1450.06 374.36 1436.47 470.43 1376.78 458.97"/><polyline class="cls-1" points="1909.87 363 1896.28 459.06 1836.58 447.61"/><polyline class="cls-1" points="1888.59 365 1875 461.07 1815.3 449.62"/><polyline class="cls-1" points="1866.3 367.54 1852.71 463.61 1793.01 452.15"/><polyline class="cls-1" points="1845.85 378.88 1832.26 474.95 1772.56 463.5"/><polyline class="cls-1" points="1825.41 372.18 1811.82 468.25 1752.12 456.79"/><polyline class="cls-1" points="1796.88 367.54 1783.29 463.61 1723.6 452.15"/><polyline class="cls-1" points="1924.24 372.5 1910.65 468.57 1850.96 457.11"/><polyline class="cls-1" points="1673.37 364.86 1663.1 418.16 1627.99 413.22"/><polyline class="cls-1" points="1660.72 366.45 1650.45 419.76 1615.34 414.82"/><polyline class="cls-1" points="1647.45 368.37 1637.18 421.68 1602.07 416.73"/><polyline class="cls-1" points="1635.07 375.1 1624.8 428.41 1589.69 423.46"/><polyline class="cls-1" points="1609.52 371.87 1599.25 425.18 1564.14 420.24"/><polyline class="cls-1" points="1609.52 368.37 1599.25 421.68 1564.14 416.73"/><polyline class="cls-1" points="1691.08 369.77 1680.81 423.07 1645.69 418.13"/><polyline class="cls-1" points="1619.85 360.71 1609.63 436.06 1563.13 426.85"/><polyline class="cls-1" points="1603.29 362.21 1593.08 437.56 1546.57 428.34"/><polyline class="cls-1" points="1585.95 364.11 1575.74 439.46 1529.23 430.25"/><polyline class="cls-1" points="1570.08 372.94 1559.86 448.29 1513.36 439.08"/><polyline class="cls-1" points="1554.15 367.6 1543.93 442.95 1497.42 433.74"/><polyline class="cls-1" points="1531.93 363.85 1521.71 439.21 1475.21 429.99"/><polyline class="cls-1" points="1631.07 368.22 1620.85 443.58 1574.35 434.36"/><path class="cls-12" d="M95.76,498.49c0,29.28-6.27,53-7.58,53s2.6-23.73,2.6-53-3.91-53-2.6-53S95.76,469.21,95.76,498.49Z"/><ellipse class="cls-13" cx="85.02" cy="410.84" rx="5.52" ry="20.46"/><ellipse class="cls-14" cx="85.02" cy="460.88" rx="5.17" ry="20.92"/><ellipse class="cls-14" cx="111.19" cy="433.62" rx="20.17" ry="4.25"/><ellipse class="cls-14" cx="61.88" cy="439.95" rx="19.19" ry="4.21" transform="matrix(0.96, -0.29, 0.29, 0.96, -124.63, 36.71)"/><ellipse class="cls-15" cx="60.42" cy="445.48" rx="19.76" ry="3.6" transform="translate(-154 50.35) rotate(-20.76)"/><ellipse class="cls-16" cx="109.8" cy="441.99" rx="3.93" ry="20.17" transform="translate(-345.61 439.13) rotate(-75.69)"/><ellipse class="cls-14" cx="62.73" cy="450.56" rx="19.89" ry="3.58" transform="translate(-203.69 81.83) rotate(-27.92)"/><ellipse class="cls-14" cx="65.84" cy="453.92" rx="20.2" ry="3.52" transform="translate(-282.72 155.78) rotate(-41.21)"/><ellipse class="cls-14" cx="106.85" cy="447.57" rx="3.91" ry="20.28" transform="translate(-348.86 383.81) rotate(-68.61)"/><ellipse class="cls-17" cx="104.79" cy="451.33" rx="3.87" ry="20.49" transform="translate(-333.39 300.76) rotate(-57.96)"/><ellipse class="cls-14" cx="91.56" cy="412.17" rx="20.9" ry="4.35" transform="translate(-330.65 414.36) rotate(-77.77)"/><ellipse class="cls-14" cx="75.31" cy="412.86" rx="4.37" ry="20.63" transform="translate(-122.99 42.99) rotate(-17.86)"/><ellipse class="cls-14" cx="106.57" cy="416.84" rx="20.66" ry="4.15" transform="translate(-221.3 138.25) rotate(-35.3)"/><ellipse class="cls-14" cx="65.84" cy="415.26" rx="4.46" ry="17.81" transform="translate(-234.54 121.07) rotate(-36.59)"/><ellipse class="cls-18" cx="98.69" cy="415.26" rx="20.76" ry="4.44" transform="translate(-303.47 272.26) rotate(-57.06)"/><ellipse class="cls-19" cx="74.69" cy="459.33" rx="20.75" ry="5.21" transform="translate(-384.8 385.63) rotate(-71.65)"/><ellipse class="cls-20" cx="96.19" cy="459.2" rx="5.23" ry="20.68" transform="translate(-166.64 70.57) rotate(-22.24)"/><ellipse class="cls-21" cx="111.71" cy="424.56" rx="21.79" ry="4.24" transform="matrix(0.97, -0.23, 0.23, 0.97, -94.55, 37.02)"/><ellipse class="cls-13" cx="56.23" cy="432.56" rx="19.08" ry="4.23"/><ellipse class="cls-14" cx="61.88" cy="425.06" rx="4.19" ry="19.26" transform="translate(-356.42 327.41) rotate(-68.58)"/><ellipse class="cls-14" cx="104.79" cy="457.22" rx="3.98" ry="19.04" transform="translate(-229.97 128.64) rotate(-32.62)"/><ellipse class="cls-22" cx="86.65" cy="434.67" rx="17.62" ry="9.61"/><path class="cls-12" d="M1808.24,482.63c0,28.58-5.65,51.75-6.83,51.75s2.35-23.17,2.35-51.75-3.53-51.76-2.35-51.76S1808.24,454,1808.24,482.63Z"/><ellipse class="cls-13" cx="1798.56" cy="397.06" rx="4.98" ry="19.97"/><ellipse class="cls-14" cx="1798.56" cy="445.9" rx="4.66" ry="20.42"/><ellipse class="cls-14" cx="1822.17" cy="419.29" rx="18.19" ry="4.15"/><ellipse class="cls-14" cx="1777.69" cy="425.48" rx="17.44" ry="4.08" transform="matrix(0.95, -0.31, 0.31, 0.95, -43.8, 578.39)"/><ellipse class="cls-15" cx="1776.37" cy="430.87" rx="18.01" ry="3.48" transform="translate(-30.03 710.3) rotate(-22.43)"/><ellipse class="cls-16" cx="1820.91" cy="427.46" rx="3.81" ry="18.29" transform="translate(921.39 2067.37) rotate(-74.47)"/><ellipse class="cls-14" cx="1778.45" cy="435.83" rx="18.28" ry="3.43" transform="translate(20.15 946.93) rotate(-29.98)"/><ellipse class="cls-14" cx="1781.25" cy="439.11" rx="18.89" ry="3.32" transform="translate(188.6 1349.68) rotate(-43.61)"/><ellipse class="cls-14" cx="1818.25" cy="432.92" rx="3.77" ry="18.5" transform="translate(706.37 1935.3) rotate(-66.89)"/><ellipse class="cls-17" cx="1816.39" cy="436.58" rx="3.69" ry="18.93" transform="translate(432.8 1691.8) rotate(-55.73)"/><ellipse class="cls-14" cx="1804.45" cy="398.35" rx="20.33" ry="3.94" transform="translate(1061.77 2090.44) rotate(-78.75)"/><ellipse class="cls-14" cx="1789.8" cy="399.03" rx="3.97" ry="20" transform="translate(-39.69 523.76) rotate(-16.47)"/><ellipse class="cls-14" cx="1818" cy="402.91" rx="19.16" ry="3.94" transform="translate(132.6 1194.69) rotate(-37.66)"/><ellipse class="cls-14" cx="1781.25" cy="401.37" rx="4.13" ry="16.93" transform="translate(82.02 1069.64) rotate(-34.17)"/><ellipse class="cls-18" cx="1810.89" cy="401.37" rx="19.83" ry="4.09" transform="translate(540.68 1753.03) rotate(-59.28)"/><ellipse class="cls-19" cx="1789.24" cy="444.4" rx="20.12" ry="4.73" transform="translate(844.52 2027.56) rotate(-73.12)"/><ellipse class="cls-20" cx="1808.63" cy="444.27" rx="4.76" ry="19.98" transform="translate(-41.04 661.65) rotate(-20.5)"/><ellipse class="cls-21" cx="1822.63" cy="410.45" rx="19.74" ry="4.12" transform="translate(-44.79 466.99) rotate(-14.43)"/><ellipse class="cls-13" cx="1772.59" cy="418.26" rx="17.21" ry="4.13"/><ellipse class="cls-14" cx="1777.69" cy="410.94" rx="4.05" ry="17.57" transform="translate(700.09 1883.3) rotate(-66.82)"/><ellipse class="cls-14" cx="1816.39" cy="442.34" rx="3.67" ry="18.19" transform="matrix(0.86, -0.51, 0.51, 0.86, 26.13, 980.76)"/><ellipse class="cls-22" cx="1800.02" cy="420.32" rx="15.9" ry="9.38"/><path class="cls-12" d="M1335.49,902.53c0,34.5-9.74,62.47-11.77,62.47s4-28,4-62.47-6.08-62.46-4-62.46S1335.49,868,1335.49,902.53Z"/><ellipse class="cls-13" cx="1318.81" cy="799.25" rx="8.59" ry="24.11"/><ellipse class="cls-14" cx="1318.81" cy="858.21" rx="8.03" ry="24.65"/><ellipse class="cls-14" cx="1359.5" cy="826.09" rx="31.36" ry="5.01"/><ellipse class="cls-14" cx="1282.82" cy="833.56" rx="29.32" ry="5.05" transform="translate(-151.2 300.61) rotate(-12.63)"/><ellipse class="cls-15" cx="1280.55" cy="840.07" rx="29.9" ry="4.36" transform="translate(-180.34 380.37) rotate(-15.8)"/><ellipse class="cls-16" cx="1357.32" cy="835.95" rx="4.69" ry="30.96" transform="translate(282.64 2013.32) rotate(-79.24)"/><ellipse class="cls-14" cx="1284.14" cy="846.06" rx="29.47" ry="4.43" transform="translate(-221.14 531.49) rotate(-21.58)"/><ellipse class="cls-14" cx="1288.97" cy="850.01" rx="28.4" ry="4.59" transform="translate(-255.02 842.89) rotate(-33.14)"/><ellipse class="cls-14" cx="1352.74" cy="842.53" rx="4.74" ry="30.63" transform="translate(165 1905.1) rotate(-73.73)"/><ellipse class="cls-17" cx="1349.54" cy="846.96" rx="4.85" ry="29.92" transform="translate(11.9 1712.59) rotate(-65.02)"/><ellipse class="cls-14" cx="1328.96" cy="800.82" rx="25.04" ry="6.66" transform="translate(184.34 1848.33) rotate(-73.54)"/><ellipse class="cls-14" cx="1303.7" cy="801.63" rx="6.56" ry="25.16" transform="translate(-212.33 592.15) rotate(-23.72)"/><ellipse class="cls-14" cx="1352.31" cy="806.32" rx="29.78" ry="5.28" transform="translate(-219.87 721.81) rotate(-27.73)"/><ellipse class="cls-14" cx="1288.97" cy="804.46" rx="6.16" ry="23.65" transform="translate(-188.08 1160.75) rotate(-45.53)"/><ellipse class="cls-18" cx="1340.06" cy="804.46" rx="27.06" ry="6.24" transform="translate(-149.24 1278.71) rotate(-48.64)"/><ellipse class="cls-19" cx="1302.74" cy="856.39" rx="25.38" ry="7.8" transform="translate(-18.85 1683.41) rotate(-65.36)"/><ellipse class="cls-20" cx="1336.16" cy="856.23" rx="7.71" ry="25.68" transform="translate(-248.36 768.13) rotate(-29.47)"/><ellipse class="cls-21" cx="1360.3" cy="815.42" rx="33.5" ry="5.05" transform="translate(-120.69 247.98) rotate(-9.98)"/><ellipse class="cls-13" cx="1274.03" cy="824.84" rx="29.67" ry="4.99"/><ellipse class="cls-14" cx="1282.82" cy="816.01" rx="5.09" ry="29.1" transform="translate(141.05 1819.93) rotate(-73.78)"/><ellipse class="cls-14" cx="1349.54" cy="853.9" rx="5.6" ry="24.78" transform="translate(-229.28 1094.16) rotate(-40.98)"/><ellipse class="cls-22" cx="1321.32" cy="827.33" rx="27.4" ry="11.32"/><path class="cls-23" d="M764,56.82,74.74,171.15c-47.56,1.3-47.2,2.34-47.56,1.3L5.28-62.86-6.87-57.63l372.4,9.18,682.18,18.32c2.8.07,875.05,29.46,872.77,30.13L764.32,56.73A2.49,2.49,0,0,1,764,56.82Z"/><path class="cls-24" d="M1681.9,747.59c-3.65-42.15,49.86-83.2,110.37-76.55,58.88,6.46,130.41,38.34,110.38,76.55"/><path class="cls-25" d="M1835.5,747.59c-26.55,38.92-25.54,76.52-43.23,91-15.25,12.5-77.42-45.5-43.22-91"/><ellipse class="cls-26" cx="1738.93" cy="689.03" rx="13.95" ry="4.52"/><ellipse class="cls-26" cx="1750.49" cy="679.65" rx="8.86" ry="2.92"/><ellipse class="cls-26" cx="1761.35" cy="686.73" rx="5.82" ry="2.3"/><line class="cls-27" x1="1799.76" y1="747.59" x2="1793.9" y2="835.34"/><line class="cls-3" x1="1806.87" y1="760.79" x2="1802.72" y2="823.8"/><line class="cls-28" x1="1818.97" y1="747.59" x2="1815.51" y2="787.75"/><line class="cls-29" x1="1794.84" y1="747.59" x2="1787.21" y2="840.32"/><line class="cls-30" x1="1807.49" y1="747.59" x2="1803.06" y2="818.76"/><line class="cls-31" x1="1812.7" y1="747.59" x2="1810.49" y2="802.49"/><polyline class="cls-1" points="0.19 382.42 27.59 428.52 -1.38 448.84"/><path class="cls-32" d="M985.83,368.49h1v7.21h3.46v.88h-4.5Z"/><path class="cls-32" d="M996.54,373.63a2.84,2.84,0,0,1-2.89,3.08,2.76,2.76,0,0,1-2.78-3,2.83,2.83,0,0,1,2.88-3.08A2.75,2.75,0,0,1,996.54,373.63Zm-4.61.06c0,1.27.74,2.23,1.77,2.23s1.76-.95,1.76-2.26c0-1-.49-2.23-1.74-2.23S991.93,372.58,991.93,373.69Z"/><path class="cls-32" d="M997.88,372.58c0-.68,0-1.27,0-1.81h.92l0,1.14h0a1.75,1.75,0,0,1,1.61-1.27.91.91,0,0,1,.3,0v1a1.79,1.79,0,0,0-.36,0A1.48,1.48,0,0,0,999,373a2.38,2.38,0,0,0-.05.49v3.1h-1Z"/><path class="cls-32" d="M1002.27,373.86a1.86,1.86,0,0,0,2,2,3.75,3.75,0,0,0,1.6-.3l.18.76a4.8,4.8,0,0,1-1.93.36,2.7,2.7,0,0,1-2.85-2.93c0-1.75,1-3.13,2.72-3.13a2.46,2.46,0,0,1,2.4,2.73,2.63,2.63,0,0,1,0,.49Zm3.09-.75a1.5,1.5,0,0,0-1.46-1.71,1.74,1.74,0,0,0-1.62,1.71Z"/><path class="cls-32" d="M1007.69,372.34c0-.6,0-1.09-.05-1.57h.93l0,.94h0a2,2,0,0,1,1.82-1.07,1.72,1.72,0,0,1,1.65,1.16h0a2.42,2.42,0,0,1,.65-.75,2,2,0,0,1,1.28-.41c.77,0,1.91.5,1.91,2.52v3.42h-1v-3.29c0-1.12-.41-1.79-1.26-1.79a1.38,1.38,0,0,0-1.25,1,1.74,1.74,0,0,0-.08.53v3.59h-1V373.1c0-.93-.41-1.6-1.22-1.6a1.43,1.43,0,0,0-1.3,1.06,1.4,1.4,0,0,0-.09.51v3.51h-1Z"/><path class="cls-32" d="M1021.42,369.14a.66.66,0,0,1-1.31,0,.65.65,0,0,1,.66-.66A.63.63,0,0,1,1021.42,369.14Zm-1.18,7.44v-5.81h1.06v5.81Z"/><path class="cls-32" d="M1023.05,372.67c0-.75,0-1.35,0-1.9h1l0,1h0a2.29,2.29,0,0,1,2.07-1.13c1.4,0,2.45,1.19,2.45,2.95,0,2.09-1.27,3.12-2.64,3.12a2,2,0,0,1-1.78-.91h0V379h-1Zm1,1.54a3,3,0,0,0,.05.44,1.63,1.63,0,0,0,1.58,1.23c1.12,0,1.77-.91,1.77-2.24,0-1.17-.61-2.16-1.73-2.16a1.67,1.67,0,0,0-1.59,1.31,1.49,1.49,0,0,0-.08.43Z"/><path class="cls-32" d="M1029.73,375.5a2.86,2.86,0,0,0,1.4.42c.76,0,1.12-.39,1.12-.87s-.3-.78-1.08-1.06c-1-.38-1.53-.95-1.53-1.65a1.79,1.79,0,0,1,2-1.7,2.91,2.91,0,0,1,1.43.36l-.26.77a2.22,2.22,0,0,0-1.19-.34c-.63,0-1,.36-1,.79s.34.7,1.1,1c1,.38,1.52.88,1.52,1.75,0,1-.79,1.74-2.17,1.74a3.33,3.33,0,0,1-1.63-.4Z"/><path class="cls-32" d="M1039.49,375c0,.6,0,1.13,0,1.59h-.94l-.06-.95h0a2.19,2.19,0,0,1-1.92,1.08c-.91,0-2-.51-2-2.55v-3.39h1.05V374c0,1.1.34,1.84,1.3,1.84a1.54,1.54,0,0,0,1.39-1,1.49,1.49,0,0,0,.09-.54v-3.56h1.06Z"/><path class="cls-32" d="M1041.24,372.34c0-.6,0-1.09,0-1.57h.93l.05.94h0a2,2,0,0,1,1.83-1.07,1.71,1.71,0,0,1,1.64,1.16h0a2.42,2.42,0,0,1,.65-.75,2,2,0,0,1,1.28-.41c.77,0,1.91.5,1.91,2.52v3.42h-1v-3.29c0-1.12-.41-1.79-1.26-1.79a1.38,1.38,0,0,0-1.25,1,1.74,1.74,0,0,0-.08.53v3.59h-1V373.1c0-.93-.41-1.6-1.21-1.6a1.45,1.45,0,0,0-1.31,1.06,1.4,1.4,0,0,0-.09.51v3.51h-1Z"/><path class="cls-33" d="M372.55,82.79l32.65,30.65a47.31,47.31,0,0,1,3,65.37l-5.65,6.41a43.87,43.87,0,0,1-63.33,3.08l-32.65-30.66c-18.33-17.19-19.66-46.46-3-65.36l5.65-6.41A43.87,43.87,0,0,1,372.55,82.79Z"/><path class="cls-33" d="M738.17,162.64l-27.11,28a43.86,43.86,0,0,1-63.39,0l-4.12-4.25a47.32,47.32,0,0,1,0-65.43l27.11-28a43.86,43.86,0,0,1,63.39,0l4.12,4.26A47.32,47.32,0,0,1,738.17,162.64Z"/><path class="cls-34" d="M194.35,755.77c-51.19-128.55-76.3-239.7-56.1-248.25s78.06,88.71,129.25,217.26"/><path class="cls-33" d="M795.41,1000.81l-266.54,7.87a61.46,61.46,0,0,1-19.68,2.4l-288.67-11.8c-2-.08-4-.27-6-.54L115.4,984.83C66.54,978,43.77,918.6,74.88,879.12l321.46-408c19.28-24.47,52.77-31.2,79.55-16l192,109.18a64.78,64.78,0,0,1,29.43,36.43l85.24,263.08C794,899.12,830.13,990.7,795.41,1000.81Z"/><path class="cls-34" d="M290.49,392.78c0-167,102.76-302.39,229.53-302.39S749.55,225.77,749.55,392.78"/><path class="cls-35" d="M291.89,388.56c0-164.67,102.45-298.17,228.83-298.17s228.83,133.5,228.83,298.17"/><path class="cls-36" d="M629.78,527.53a109.76,109.76,0,0,1-219.52,0"/><ellipse class="cls-37" cx="697.94" cy="503.06" rx="131.58" ry="130.45"/><path class="cls-11" d="M543.85,385.14c0-64.22,22.34-116.27,49.9-116.27s49.89,52.05,49.89,116.27"/><path class="cls-11" d="M399.25,385.14c0-66.59,22.64-120.58,50.58-120.58s50.57,54,50.57,120.58"/><ellipse class="cls-38" cx="360.02" cy="503.06" rx="124.4" ry="128.32"/><ellipse class="cls-11" cx="435.39" cy="319.3" rx="19.72" ry="20.34"/><ellipse class="cls-39" cx="448.87" cy="334.28" rx="28.06" ry="28.94"/><ellipse class="cls-39" cx="596.22" cy="333.45" rx="27.26" ry="28.12"/><path class="cls-40" d="M460.37,540.91c-30.9,81.38-42.59,152.74-26.12,159.39S489.12,646.38,520,565"/><ellipse class="cls-33" cx="268.56" cy="97.09" rx="51.86" ry="126.86" transform="translate(127.36 345.31) rotate(-80.24)"/><ellipse class="cls-33" cx="791.59" cy="150.24" rx="48.19" ry="129.3" transform="translate(306.99 793.94) rotate(-63.77)"/><ellipse class="cls-41" cx="455.11" cy="711.16" ry="15.67"/><ellipse class="cls-42" cx="527.45" cy="469.86" rx="268.64" ry="95.13"/><path class="cls-43" d="M480.52,417.84c0-27.68,19.21-50.13,42.92-50.13s42.92,22.45,42.92,50.13"/><path class="cls-44" d="M697.94,1017.1c0-63.12,30.68-114.29,68.54-114.29S835,954,835,1017.1"/><path class="cls-44" d="M459.23,1044.89c0-64.31,34.15-116.44,76.27-116.44s76.26,52.13,76.26,116.44"/><path class="cls-44" d="M5.87,986.67c0-65.18,30.51-118,68.14-118s68.15,52.83,68.15,118"/><path class="cls-44" d="M235.61,1009.53c0-63.32,29.24-114.65,65.31-114.65s65.3,51.33,65.3,114.65"/><ellipse class="cls-43" cx="449.83" cy="328.83" rx="18.31" ry="18.88"/><ellipse class="cls-43" cx="596.22" cy="328.83" rx="18.31" ry="18.88"/><ellipse class="cls-11" cx="441.14" cy="325.25" rx="1.91" ry="7.1" transform="translate(-78.05 149.65) rotate(-17.72)"/><ellipse class="cls-11" cx="590.73" cy="319.3" rx="3.02" ry="5.34"/><ellipse class="cls-11" cx="586.83" cy="326.87" rx="2.06" ry="6.91" transform="translate(-73.84 205.47) rotate(-18.71)"/><ellipse class="cls-11" cx="446.7" cy="319.73" rx="3.02" ry="5.34"/><ellipse class="cls-43" cx="772.95" cy="433.51" rx="3.16" ry="3.26"/><ellipse class="cls-43" cx="810.12" cy="463.34" rx="3.16" ry="3.26"/><ellipse class="cls-43" cx="772.95" cy="476.39" rx="3.16" ry="3.26"/><ellipse class="cls-43" cx="255.65" cy="483.07" rx="3.16" ry="3.26"/><ellipse class="cls-43" cx="290.49" cy="473.13" rx="3.16" ry="3.26"/><ellipse class="cls-43" cx="270.66" cy="440.77" rx="3.16" ry="3.26"/><path class="cls-43" d="M488.86,203.68c.59,2.53-11.62,21.82-34.34,29.19s-38.2,25.86-38.8,23.32S428.18,228,450.9,220.66,488.26,201.14,488.86,203.68Z"/><path class="cls-43" d="M631.14,259.15c-.92,2.71-17.77-15.14-39.67-25.37s-40.6-30.33-39.68-33,17.78,8.79,39.69,19S632.06,256.44,631.14,259.15Z"/><ellipse class="cls-38" cx="355.59" cy="500.88" rx="54.67" ry="64.11"/><ellipse class="cls-35" cx="326.62" cy="486.34" rx="83.65" ry="87.31"/><ellipse class="cls-35" cx="741.66" cy="495.09" rx="83.72" ry="83.13" transform="translate(18.11 1016.28) rotate(-69.49)"/><path class="cls-12" d="M175.56,960.65c0,48.72-13.72,88.22-16.59,88.22s5.7-39.5,5.7-88.22-8.57-88.22-5.7-88.22S175.56,911.93,175.56,960.65Z"/><ellipse class="cls-13" cx="152.05" cy="814.79" rx="12.11" ry="34.05"/><ellipse class="cls-14" cx="152.05" cy="898.05" rx="11.32" ry="34.82"/><ellipse class="cls-14" cx="209.4" cy="852.69" rx="44.21" ry="7.08"/><ellipse class="cls-14" cx="101.33" cy="863.23" rx="41.33" ry="7.13" transform="translate(-186.63 43.16) rotate(-12.65)"/><ellipse class="cls-15" cx="98.12" cy="872.43" rx="42.15" ry="6.16" transform="translate(-234.25 59.85) rotate(-15.83)"/><ellipse class="cls-16" cx="206.34" cy="866.61" rx="6.62" ry="43.64" transform="translate(-683.58 907.18) rotate(-79.22)"/><ellipse class="cls-14" cx="103.18" cy="880.89" rx="41.54" ry="6.25" transform="translate(-317.24 99.96) rotate(-21.62)"/><ellipse class="cls-14" cx="109.99" cy="886.47" rx="40.05" ry="6.48" transform="translate(-467.36 204.86) rotate(-33.19)"/><ellipse class="cls-14" cx="199.87" cy="875.91" rx="6.69" ry="43.18" transform="translate(-696.93 821.92) rotate(-73.7)"/><ellipse class="cls-17" cx="195.37" cy="882.16" rx="6.85" ry="42.19" transform="translate(-686.62 686.02) rotate(-64.97)"/><ellipse class="cls-14" cx="166.36" cy="816.99" rx="35.36" ry="9.38" transform="translate(-664.33 745.5) rotate(-73.57)"/><ellipse class="cls-14" cx="130.75" cy="818.14" rx="9.25" ry="35.52" transform="translate(-317.49 121.34) rotate(-23.67)"/><ellipse class="cls-14" cx="199.27" cy="824.77" rx="41.99" ry="7.45" transform="translate(-361.42 187.92) rotate(-27.78)"/><ellipse class="cls-14" cx="109.99" cy="822.14" rx="8.68" ry="33.37" transform="translate(-553.2 323.96) rotate(-45.47)"/><ellipse class="cls-18" cx="182" cy="822.14" rx="38.19" ry="8.8" transform="translate(-555.78 416.29) rotate(-48.7)"/><ellipse class="cls-19" cx="129.41" cy="895.48" rx="35.82" ry="11" transform="translate(-738.71 640.5) rotate(-65.41)"/><ellipse class="cls-20" cx="176.51" cy="895.26" rx="10.87" ry="36.25" transform="translate(-416.9 202.08) rotate(-29.41)"/><ellipse class="cls-21" cx="210.53" cy="837.62" rx="47.23" ry="7.13" transform="matrix(0.98, -0.17, 0.17, 0.98, -142.2, 49.26)"/><ellipse class="cls-13" cx="88.93" cy="850.92" rx="41.82" ry="7.05"/><ellipse class="cls-14" cx="101.33" cy="838.45" rx="7.18" ry="41.03" transform="translate(-731.99 701.15) rotate(-73.75)"/><ellipse class="cls-14" cx="195.37" cy="891.97" rx="7.9" ry="34.97" transform="matrix(0.76, -0.65, 0.65, 0.76, -536.44, 345.87)"/><ellipse class="cls-22" cx="155.6" cy="854.44" rx="38.62" ry="15.99"/><path class="cls-45" d="M903.93,795l97.1,228.48a2.59,2.59,0,0,0,.34.58c2.09,2.73,20,26.73,9.53,26.73l-717.09-5c-9.61,0-46,3-55.51-1.86-1.77-.91-.93,2,0,0L355.49,795"/><ellipse class="cls-46" cx="630.62" cy="804.92" rx="280.79" ry="59.61"/><ellipse class="cls-47" cx="640.97" cy="846.16" rx="280.79" ry="59.61"/><ellipse class="cls-48" cx="570.68" cy="947.68" rx="12.97" ry="15.84" transform="translate(-222.64 176.69) rotate(-14.76)"/><ellipse class="cls-48" cx="603.67" cy="921.79" rx="14.42" ry="17.69" transform="translate(-143.14 111.61) rotate(-9.45)"/><ellipse class="cls-48" cx="652.61" cy="924.15" rx="16.55" ry="14.44" transform="translate(-403.39 1330.12) rotate(-75.8)"/><ellipse class="cls-48" cx="686.66" cy="945.55" rx="18.54" ry="13.52" transform="matrix(0.58, -0.81, 0.81, 0.58, -481.88, 955.34)"/><path class="cls-48" d="M679.61,1014.26c-1.43,30-35-9.19-63.6,1.43-29.73,11-39.57,14.87-38.14-15.17s23.3-52.84,53.59-51.18S681,984.23,679.61,1014.26Z"/><g class="cls-49"><rect class="cls-50" x="484.18" y="185.54" width="1140.34" height="648.08" rx="260.58"/><path class="cls-11" d="M850.78,261.33a4.16,4.16,0,0,1-3.11,4,2.17,2.17,0,0,1-1.24-.27,2.73,2.73,0,0,0-1.16-.35,3.4,3.4,0,0,0-1.15.23q-3.47,11.64-5.42,15.61-3.56,7.43-9.24,9.68a8,8,0,0,1-3.11.62c-1.06,0-3.7-.67-7.9-2q-2.4-.54-7.55-2.26-5.16-2.19-8-10.07a50.85,50.85,0,0,1-2.57-17.09,60.71,60.71,0,0,1,4.08-22.95q4.44-11,11.73-12.33a11.86,11.86,0,0,1,1.42-.08,31,31,0,0,1,10.83,2.5q6.84,2.65,9.24,5.85a14.46,14.46,0,0,1,2.58,6.56c.53,3,.86,4.66,1,4.92.17.88.41,2,.71,3.2a3.78,3.78,0,0,1-.89,2.38,4.37,4.37,0,0,1-1.87,1.68q-1.15.39-6.93-1.13c-3.85-1-6.15-1.81-6.92-2.39-1.07-.62-1.51-1.84-1.34-3.66a1.77,1.77,0,0,1,.45-1,1.84,1.84,0,0,0,.44-1c0-3.7-.47-5.54-1.42-5.54q-3-.09-5.33,8.89A75.1,75.1,0,0,0,816,263.67q0,14.83,4.71,17,1.41.62,3.86-4.3a27.16,27.16,0,0,0,2.89-9.2,29.74,29.74,0,0,0-5.42-2.42c-2.13-.78-3.29-1.46-3.46-2-.24-.78.05-1.89.88-3.32a6.47,6.47,0,0,1,2.62-2.77,10.33,10.33,0,0,1,3.87-.7,29.31,29.31,0,0,0,4.08-.16,36.65,36.65,0,0,0,4.89-1.33,14.41,14.41,0,0,1,4.17-.93,5.94,5.94,0,0,1,1,.07c1.48.26,3.66,1.44,6.53,3.52S850.84,260.6,850.78,261.33Z"/><path class="cls-11" d="M905.4,284.75c-.06.46-.18,1.58-.35,3.35a1.81,1.81,0,0,1-2.22,2.34,26,26,0,0,1-7.29-1.32c-3.14-.84-5.27-1.82-6.39-3q-.72-.7-1.42-4.68a58.55,58.55,0,0,0-2.22-8.67,75.09,75.09,0,0,0-9.86,2.15q-6.49,1.76-8.44,2.93-1.34,3.35-3.55,8.27c-.18.73-.37,1.42-.58,2.07a2.85,2.85,0,0,1-1.56,1.6,1.63,1.63,0,0,1-.8.16c-1.42,0-3.8-.66-7.14-2s-5.08-2.15-5.2-2.57c-.24-.73.32-2.52,1.69-5.39,1.89-4.16,3-6.71,3.28-7.65a4.52,4.52,0,0,1-1.86-3.27,4.58,4.58,0,0,1,.09-.86c.11-.63,1.92-1.75,5.41-3.36l11.46-34.42a11.45,11.45,0,0,0,.09-3.43c-.12-1.41.06-2.29.53-2.66a3.71,3.71,0,0,1,2.14-.39,54.72,54.72,0,0,1,11.9,1.88q7.73,1.88,9.24,3.35.52,8.67,4,26Q900.78,276.63,905.4,284.75ZM882.22,261q-1.15-4.92-1.42-6.48a88.63,88.63,0,0,1-1.33-10.85q-1.79,3.83-4.18,10.62c-1.72,4.73-2.63,7.7-2.75,8.89A94.93,94.93,0,0,1,882.22,261Z"/><path class="cls-11" d="M991.29,287c-.42,2.24-1.13,3.46-2.13,3.67-1.42.31-4.15,0-8.17-1q-6.4-1.56-7.29-3.12a2.71,2.71,0,0,1-.26-1.17,8.17,8.17,0,0,1,.22-1.52,8.64,8.64,0,0,0,.22-1.76V246.66Q969.71,253.84,963,279a2.53,2.53,0,0,0-.09.7,15.46,15.46,0,0,0,.31,2.5,16.34,16.34,0,0,1,.31,2.19,19.2,19.2,0,0,1-.27,3.12,2.41,2.41,0,0,1-1.86,1.87,13.86,13.86,0,0,1-3.11.23q-11.55,0-15.9-3.51a2,2,0,0,1-.53-1.95,7.27,7.27,0,0,0,0-2.26Q938.54,273,936,266.25q-6.21-16.23-8.08-19.12v31.06a8.37,8.37,0,0,0,.71,2.81,19.91,19.91,0,0,1,1,2.73,12.37,12.37,0,0,1,.18,3.75c-.12,1.77-.54,2.86-1.25,3.28a4.6,4.6,0,0,1-2,.31,36.4,36.4,0,0,1-7.82-1c-3.25-.67-5.18-1.38-5.77-2.1a2,2,0,0,1-.44-1.33,6.51,6.51,0,0,1,.31-1.56,7.05,7.05,0,0,0,.31-1.72V228a3.73,3.73,0,0,1,.89-2.14,4.21,4.21,0,0,1,2-1.6q1.51-.56,11.64,1.87,10.56,2.42,11.19,4.22a4,4,0,0,1,.09,1.87q-.27,1.64-.27,1.95a2.77,2.77,0,0,0,.27,1.25l12,28.33q2.48-6.94,9.06-28.18,3.28-10.84,5.33-11.31a5.5,5.5,0,0,1,1.42-.16,31.11,31.11,0,0,1,5.06.7,38.26,38.26,0,0,0,5.42.94c4.67.37,7.37.6,8.08.7q4.17.7,4.71,2.58a3.68,3.68,0,0,1,.18,1.17,8.1,8.1,0,0,1-.45,2.22,8,8,0,0,0-.44,2.15v47.77a4.85,4.85,0,0,0,1.11,2.34Q991.47,286.23,991.29,287Z"/><path class="cls-11" d="M1038.63,279.28a6.64,6.64,0,0,1-1.55,2.85,5.65,5.65,0,0,1-2.27,1.84,1.68,1.68,0,0,1-1-.28,2.84,2.84,0,0,0-1.15-.35.94.94,0,0,0-.36.08,38.38,38.38,0,0,0-5.5,1.87,52.87,52.87,0,0,0-12.08,6.79q-8.88-3.19-9.68-3.51c-3.68-1.4-5.51-2.44-5.51-3.12V226.76c0-.37.69-.89,2.09-1.57a7,7,0,0,1,3.06-.93,20.68,20.68,0,0,1,4.26,1.21,12.55,12.55,0,0,0,12.17-1c2.61-1.35,4.23-1.92,4.89-1.72q2.13.63,6.35,4.1t4.57,5c.12.47-.43,1.27-1.64,2.42s-2.21,1.71-3,1.71a3.18,3.18,0,0,1-1.42-.23c-.3-.16-.5-.21-.62-.16a57.41,57.41,0,0,0-6,1.49q-6.57,2-9.68,4.52v12.73a65,65,0,0,1,8.08-2.89c.95-.1,3,1.05,6,3.47s4.57,4.1,4.57,5a3.18,3.18,0,0,1-1.24,2,5.88,5.88,0,0,1-2.4,1.48c-.59,0-1.63.05-3.11.15q-3.37.56-11.9,5v8.19c1.77-.93,4.19-2,7.24-3.31s4.93-1.91,5.64-1.91,2.91,1.13,6.26,3.39S1038.75,278.66,1038.63,279.28Z"/><path class="cls-11" d="M1094.68,290.29a12.9,12.9,0,0,1-4.18-.43c-1.54-.39-3-.8-4.53-1.21q-2.67-.63-8.35-2.26-7.11-2.75-10.75-10.78-3.19-7.1-3.19-17.17a69.45,69.45,0,0,1,3.19-19.12q4.35-14.67,11.28-14.67a7.88,7.88,0,0,1,1.74.27,15.91,15.91,0,0,0,1.73.35,47.94,47.94,0,0,1,8.44-1.64c.59,0,1.18,0,1.77.08q10.67,1.17,16.79,11.71,5.51,9.53,5.51,22.71,0,12.5-5,21.46Q1103.82,289.36,1094.68,290.29Zm-1.6-57.21c-1.31-.31-2.59,1.22-3.87,4.6s-2.56,5.08-3.86,5.08a3.28,3.28,0,0,1-1.29-.43,4.57,4.57,0,0,0-1.38-.51q-3,5.85-3,16.7a46.19,46.19,0,0,0,2,14.6q2.31,6.78,6.39,7.49,4.8.78,7.73-8.66a66.49,66.49,0,0,0,2.58-19.67,53.35,53.35,0,0,0-1.34-13C1096.13,235.57,1094.79,233.49,1093.08,233.08Z"/><path class="cls-11" d="M1169.55,229.33q-4.62,10.38-10.48,31.53-5.33,19.13-5.24,21.7a25.77,25.77,0,0,0,.18,3.59,5.68,5.68,0,0,1-.62,3.28,3.32,3.32,0,0,1-2.4,2.11q-2.58.46-10.35-1.72t-8.93-3.83a4.06,4.06,0,0,1-.62-2,9.8,9.8,0,0,0-.27-2.11q-10.12-28.19-12.16-50.5a6.46,6.46,0,0,0-.45-1.64,4.1,4.1,0,0,1-.18-1.64c.3-1.82,1.16-2.94,2.58-3.35q1.07-.31,7.46,1.48,6.75,1.88,7.46,3.2a7.06,7.06,0,0,1,0,3.28,5,5,0,0,1-.62,1.36,2.47,2.47,0,0,0-.44,1.52q1.32,8.2,2.48,14.44,2.85,15,4.44,17.8a169.92,169.92,0,0,1,5.33-18.58,156.21,156.21,0,0,0,5.33-18.88,20.23,20.23,0,0,1,.8-4,4.64,4.64,0,0,1,2.93-2.42q1.42-.37,6.66,1.33C1166.23,226.57,1168.6,227.93,1169.55,229.33Z"/><path class="cls-11" d="M1215.56,279.28a6.57,6.57,0,0,1-1.56,2.85,5.64,5.64,0,0,1-2.26,1.84,1.66,1.66,0,0,1-1-.28,2.84,2.84,0,0,0-1.15-.35.94.94,0,0,0-.36.08,38.92,38.92,0,0,0-5.51,1.87,53.3,53.3,0,0,0-12.08,6.79q-8.88-3.19-9.68-3.51-5.51-2.1-5.5-3.12V226.76c0-.37.69-.89,2.08-1.57a7,7,0,0,1,3.07-.93,20.68,20.68,0,0,1,4.26,1.21,12.55,12.55,0,0,0,12.17-1q3.9-2,4.88-1.72c1.43.42,3.54,1.79,6.36,4.1s4.33,4,4.57,5c.12.47-.43,1.27-1.64,2.42s-2.21,1.71-3,1.71a3.18,3.18,0,0,1-1.42-.23c-.3-.16-.5-.21-.62-.16a57.41,57.41,0,0,0-6,1.49q-6.59,2-9.68,4.52v12.73a65,65,0,0,1,8.08-2.89c.94-.1,2.94,1.05,6,3.47s4.58,4.1,4.58,5a3.2,3.2,0,0,1-1.25,2,5.91,5.91,0,0,1-2.39,1.48c-.6,0-1.63.05-3.11.15q-3.37.56-11.9,5v8.19c1.77-.93,4.18-2,7.23-3.31s4.93-1.91,5.64-1.91,2.92,1.13,6.27,3.39S1215.68,278.66,1215.56,279.28Z"/><path class="cls-11" d="M1271.43,278.66c.53.88-.52,3.06-3.16,6.52s-4.84,5.16-6.62,5.11a5.38,5.38,0,0,1-4.53-2.66,9.76,9.76,0,0,0-1.33-2.26L1237.05,270v14.44a4.65,4.65,0,0,0,.76,2.19,4.66,4.66,0,0,1,.75,1.95q0,2.34-3.46,2.58a29.88,29.88,0,0,1-7.91-.86q-5.68-1.1-5.68-2.34a3.49,3.49,0,0,1,.22-1.06,5.3,5.3,0,0,0,.22-1.68V230.74a1.89,1.89,0,0,0-.26-1,1.45,1.45,0,0,1-.27-.66q.09-2.11,3.55-2.5a17.54,17.54,0,0,1,4.84.74,22.33,22.33,0,0,0,5.38.82q1.5-.07,6.17-2.15a20.77,20.77,0,0,1,8.13-2.07,16.59,16.59,0,0,1,2.75.24,10.56,10.56,0,0,1,4.53,2q2,1.56,3.91,3.12,4.88,4.06,5.06,4.29a8,8,0,0,1,2.49,5.23q.52,9.06-17.59,23.26,3.73,3,16.43,14.44a18.35,18.35,0,0,1,2.31.94A14,14,0,0,1,1271.43,278.66ZM1251.8,235q-4.18,0-14.75,7.65v11.94q3.83-1.32,10-8t6.22-10A1.36,1.36,0,0,0,1251.8,235Z"/><path class="cls-11" d="M780.16,327.89q-3.28,5.28-6,16.07-2.22,8.85-2,10.72a1.31,1.31,0,0,0,0,.75,1.62,1.62,0,0,1,.08.67c-.2,1.17-.58,1.8-1.15,1.87s-1.87-.36-4.26-1.31-3.8-1.61-4-2.06c0-.05-.07-.82-.12-2.32a42.5,42.5,0,0,1-2.43-10c-.8,1.8-1.58,3.59-2.35,5.39a15,15,0,0,0-1,5.81,2.23,2.23,0,0,0,0,.9,2.21,2.21,0,0,1,0,.94c-.25,1.07-.65,1.68-1.19,1.83a2.48,2.48,0,0,1-.68.08,15,15,0,0,1-4.44-.79q-3-.93-3.45-2.25a14.27,14.27,0,0,0-.09-1.95,69.71,69.71,0,0,1-2.68-11.61,80.27,80.27,0,0,1-.56-12.1,5.46,5.46,0,0,1-.21-2.21c.37-1.08.88-1.6,1.53-1.58a10.94,10.94,0,0,1,3.54,1.17c1.62.75,2.49,1.35,2.6,1.79a16.74,16.74,0,0,1-.12,2.14,30.84,30.84,0,0,0-.18,3.19,71.2,71.2,0,0,0,1.24,10.41l6-16.45a6,6,0,0,1,.51-1.35,2.08,2.08,0,0,1,1.28-.67,12.34,12.34,0,0,1,3.41,1.18c2,.84,3,1.42,3,1.74s0,1-.09,2.51c-.08,1.78-.13,3.32-.13,4.65a44.54,44.54,0,0,0,.68,8.35,110.26,110.26,0,0,1,3-10.67,53.26,53.26,0,0,1,2.17-6,1.89,1.89,0,0,1,2.26-1.65,13.07,13.07,0,0,1,3.16.86C779,326.54,779.91,327.19,780.16,327.89Z"/><path class="cls-11" d="M795.38,356.85a6,6,0,0,1-2-.21c-.74-.18-1.47-.38-2.18-.58s-2.19-.56-4-1.08a9.31,9.31,0,0,1-5.16-5.17,19.92,19.92,0,0,1-1.54-8.25,33,33,0,0,1,1.54-9.17q2.09-7,5.41-7.05a4.14,4.14,0,0,1,.83.13,6.42,6.42,0,0,0,.83.17,23.33,23.33,0,0,1,4-.78c.29,0,.57,0,.86,0q5.12.57,8.06,5.62a21.44,21.44,0,0,1,2.64,10.9,21,21,0,0,1-2.39,10.31Q799.78,356.4,795.38,356.85Zm-.77-27.46c-.62-.15-1.24.59-1.85,2.21S791.53,334,790.9,334a1.45,1.45,0,0,1-.61-.2,2.43,2.43,0,0,0-.66-.25,17.84,17.84,0,0,0-1.45,8,22,22,0,0,0,1,7q1.11,3.25,3.07,3.59,2.29.38,3.71-4.15a32.15,32.15,0,0,0,1.23-9.45,25.37,25.37,0,0,0-.64-6.21Q795.86,329.69,794.61,329.39Z"/><path class="cls-11" d="M822.24,356.85a6,6,0,0,1-2-.21c-.74-.18-1.47-.38-2.18-.58s-2.19-.56-4-1.08a9.33,9.33,0,0,1-5.15-5.17,19.92,19.92,0,0,1-1.54-8.25,33,33,0,0,1,1.54-9.17q2.08-7,5.41-7.05a4.14,4.14,0,0,1,.83.13,6.42,6.42,0,0,0,.83.17,23.33,23.33,0,0,1,4-.78c.29,0,.57,0,.86,0q5.11.57,8,5.62a21.34,21.34,0,0,1,2.65,10.9,21,21,0,0,1-2.39,10.31Q826.63,356.4,822.24,356.85Zm-.77-27.46c-.62-.15-1.24.59-1.85,2.21s-1.23,2.43-1.86,2.43a1.45,1.45,0,0,1-.61-.2,2.36,2.36,0,0,0-.67-.25,18,18,0,0,0-1.44,8,22,22,0,0,0,1,7c.73,2.17,1.76,3.37,3.07,3.59,1.53.25,2.77-1.13,3.7-4.15A31.8,31.8,0,0,0,824,338.6a25.37,25.37,0,0,0-.64-6.21Q822.72,329.69,821.47,329.39Z"/><path class="cls-11" d="M850.76,327.36a6.69,6.69,0,0,1,4.09,6.56c0,2.25-1,5.1-3,8.54q-3.37,5.78-6.87,5.77a2.69,2.69,0,0,1-1.51-.58l-1.64-1.14v6.37A3.63,3.63,0,0,0,842,354c.2.6.33,1,.39,1.24a2.34,2.34,0,0,1-.32,1.22,1.44,1.44,0,0,1-1.18,1,9.68,9.68,0,0,1-3.32-.94,8.51,8.51,0,0,1-3.33-1.87,1.7,1.7,0,0,1,0-1.57,3.8,3.8,0,0,0,.3-1.24V328.64a2.28,2.28,0,0,0-.3-.82A1.65,1.65,0,0,1,834,327q.25-1.8,1.53-1.8a13.61,13.61,0,0,1,1.73.44,11.06,11.06,0,0,0,2.41.46,9.89,9.89,0,0,0,3.26-.6,10.89,10.89,0,0,1,2.88-.63,5.05,5.05,0,0,1,1,.11,5,5,0,0,1,2,1.12A9.43,9.43,0,0,0,850.76,327.36Zm-3.54,2.89a6.39,6.39,0,0,0-2.73.94,8.84,8.84,0,0,0-2.68,2.06v9c1.53-.43,3-2,4.35-4.61a13.8,13.8,0,0,0,1.87-6.11C848,330.69,847.76,330.25,847.22,330.25Z"/><path class="cls-11" d="M877.07,350.63a5.71,5.71,0,0,1-2.09,4.55,9,9,0,0,1-5.8,1.86,8.26,8.26,0,0,1-2-.27c-1.3-.32-2-.48-2-.48l-2.07-.4a3.83,3.83,0,0,1-1.81-.84,6.32,6.32,0,0,1-1.88-2.92,14,14,0,0,0-1.36-3,4.78,4.78,0,0,1-.81-1.05,1.35,1.35,0,0,1,.23-1.1,1.59,1.59,0,0,1,.88-.7,3.9,3.9,0,0,1,.93-.07,24.58,24.58,0,0,1,3.65.32,6.63,6.63,0,0,1,2.41.58,8.83,8.83,0,0,1,.68,2.69c.26,1.5.64,2.34,1.15,2.51a1,1,0,0,0,.39.08c.54,0,1-.4,1.38-1.18a6,6,0,0,0,.58-2.68q0-3.26-2.31-4.35a27.65,27.65,0,0,1-7.41-4.64,7.17,7.17,0,0,1-2.22-5.85,11,11,0,0,1,2.32-5.67,7.82,7.82,0,0,1,4.46-3.36q1-.18,6,1.65l2.49.87a4.83,4.83,0,0,1,2,1.31c.79.87,1.19,2.38,1.19,4.53,0,.4,0,1,0,1.76s-.05,1.15-.05,1.42a4.47,4.47,0,0,0,.3.87,1.34,1.34,0,0,1,.17.82,1.7,1.7,0,0,1-1.57,1.84,9.59,9.59,0,0,1-3.16-.57,6.87,6.87,0,0,1-3.24-1.53,1.79,1.79,0,0,1-.08-.75q0-.57.15-2.55c.09-1.32.14-2.28.14-2.88,0-1.08-.14-1.6-.42-1.58a2.74,2.74,0,0,0-2.2,1.67,7.41,7.41,0,0,0-.87,3.61q0,3.38,2.26,4.8l5.11,2.85a9.94,9.94,0,0,1,3.37,2.77A9,9,0,0,1,877.07,350.63Z"/><path class="cls-11" d="M887.77,344.94q-.09,1.38-.81,1.53a2.15,2.15,0,0,1-.43,0,7.93,7.93,0,0,1-3.11-.86,10.43,10.43,0,0,1-3.07-2.06q-.51-.49,0-1.8c.34-.88.51-1.32.51-1.35V326.28c0-.65.43-1.1,1.28-1.35a2.71,2.71,0,0,1,.72-.07,9.76,9.76,0,0,1,2.73.44,3.75,3.75,0,0,1,1.92,1,9.69,9.69,0,0,1,.09,2v15.29a3.2,3.2,0,0,0,.08.65A3.6,3.6,0,0,1,887.77,344.94Zm0,5.43a6.3,6.3,0,0,1,0,1.83c-.12,1.3-.17,2.1-.17,2.4a12.42,12.42,0,0,1-.17,2.32,1.19,1.19,0,0,1-1.07,1,9,9,0,0,1-2.94-.75,7.84,7.84,0,0,1-3.07-1.61q-.3-.42.21-1.35a3.08,3.08,0,0,0,.3-1.39,25.88,25.88,0,0,1,0-3.14c.11-.9.54-1.34,1.28-1.32a13.7,13.7,0,0,1,3.32.85C886.89,349.7,887.65,350.09,887.77,350.37Z"/><path class="cls-11" d="M926.65,328.08c.17,1.3-.17,2.12-1,2.47a5.6,5.6,0,0,0-.68.3,79.92,79.92,0,0,0-6.52,11.73q-3.79,7.94-4,9.55a3.09,3.09,0,0,0,.18,1.05,3.81,3.81,0,0,1,.17,1.23c-.17,1.7-.66,2.61-1.45,2.74a11.38,11.38,0,0,1-3-.56,16.8,16.8,0,0,1-3.17-1.09c-1-.6-1.45-1.2-1.45-1.8a2.2,2.2,0,0,1,.3-1q.59-1.45,2.51-6-3.54-6.4-4.77-8.84a60.19,60.19,0,0,1-3.5-8,2.22,2.22,0,0,0-.49-.57,1,1,0,0,1-.4-.67c0-.38.55-.94,1.66-1.69q3.54-2.38,4.86-2.25a1.9,1.9,0,0,1,1.23.79,2.36,2.36,0,0,1,.56,1,15.93,15.93,0,0,0,.25,2.29,35.3,35.3,0,0,0,4.1,10.08c1.59-3.43,2.48-5.31,2.68-5.66a43,43,0,0,1,3.67-6,10.18,10.18,0,0,1,.6-1.53,2.66,2.66,0,0,1,2.3-.72,9.67,9.67,0,0,1,3.13,1.32C925.86,327.12,926.59,327.7,926.65,328.08Z"/><path class="cls-11" d="M942,356.85a6.06,6.06,0,0,1-2-.21c-.74-.18-1.46-.38-2.17-.58s-2.19-.56-4-1.08a9.31,9.31,0,0,1-5.16-5.17,20.08,20.08,0,0,1-1.54-8.25,33.38,33.38,0,0,1,1.54-9.17q2.08-7,5.41-7.05a4.32,4.32,0,0,1,.84.13,6.1,6.1,0,0,0,.83.17,23,23,0,0,1,4-.78c.28,0,.57,0,.85,0q5.11.57,8.06,5.62a21.44,21.44,0,0,1,2.64,10.9,21,21,0,0,1-2.39,10.31Q946.35,356.4,942,356.85Zm-.76-27.46c-.63-.15-1.25.59-1.86,2.21S938.1,334,937.48,334a1.44,1.44,0,0,1-.62-.2,2.43,2.43,0,0,0-.66-.25,17.84,17.84,0,0,0-1.45,8,22.29,22.29,0,0,0,1,7q1.11,3.25,3.07,3.59,2.3.38,3.71-4.15a32.15,32.15,0,0,0,1.23-9.45,25.37,25.37,0,0,0-.64-6.21C942.65,330.59,942,329.59,941.19,329.39Z"/><path class="cls-11" d="M976,328q0-.4,0,7.16,0,21.36-6.78,22a7.93,7.93,0,0,1-2.88-.38l-3.3-1c-.94-.2-1.89-.42-2.84-.66A4.71,4.71,0,0,1,958,354q-1.74-1.68-2.81-7.34a64.87,64.87,0,0,1-.94-11.54,54.23,54.23,0,0,1,.6-8.58,1.7,1.7,0,0,1,1.24-1.5,10.8,10.8,0,0,1,3.26.53,9,9,0,0,1,3.26,1.16.84.84,0,0,1,.21.6,3.17,3.17,0,0,1-.43,1.33A2.69,2.69,0,0,0,962,330a22,22,0,0,0-.21,4.12,96.16,96.16,0,0,0,.68,11.95q.85,6.88,2.47,6.74c1.37-.12,2.39-2.31,3.07-6.55a72.05,72.05,0,0,0,.81-11.58,29.28,29.28,0,0,0-.3-5.51,2.27,2.27,0,0,0-.17-1.23,7.26,7.26,0,0,1-.38-.9,1.62,1.62,0,0,1,.94-1.91,1.55,1.55,0,0,1,.72-.12,15.92,15.92,0,0,1,3.58.57,8,8,0,0,1,2.69.93C976.06,326.68,976.09,327.17,976,328Z"/><path class="cls-11" d="M1005.43,327.36a6.7,6.7,0,0,1,4.1,6.56q0,3.38-3,8.54-3.37,5.78-6.86,5.77a2.72,2.72,0,0,1-1.52-.58l-1.64-1.14v6.37a3.4,3.4,0,0,0,.22,1.12c.19.6.32,1,.38,1.24a2.24,2.24,0,0,1-.32,1.22,1.44,1.44,0,0,1-1.17,1,9.77,9.77,0,0,1-3.33-.94,8.37,8.37,0,0,1-3.32-1.87,1.64,1.64,0,0,1,0-1.57,4,4,0,0,0,.29-1.24V328.64a2.41,2.41,0,0,0-.29-.82,1.69,1.69,0,0,1-.26-.87q.26-1.8,1.53-1.8a13.17,13.17,0,0,1,1.73.44,11.06,11.06,0,0,0,2.41.46,9.89,9.89,0,0,0,3.26-.6,10.89,10.89,0,0,1,2.88-.63,5.05,5.05,0,0,1,1,.11,4.94,4.94,0,0,1,2,1.12A9.74,9.74,0,0,0,1005.43,327.36Zm-3.53,2.89a6.31,6.31,0,0,0-2.73.94,8.9,8.9,0,0,0-2.69,2.06v9c1.54-.43,3-2,4.35-4.61a13.84,13.84,0,0,0,1.88-6.11C1002.71,330.69,1002.44,330.25,1001.9,330.25Z"/><path class="cls-11" d="M1025.94,356.85a6,6,0,0,1-2-.21c-.74-.18-1.47-.38-2.18-.58s-2.19-.56-4-1.08a9.31,9.31,0,0,1-5.16-5.17,19.92,19.92,0,0,1-1.54-8.25,33,33,0,0,1,1.54-9.17q2.08-7,5.41-7.05a4.14,4.14,0,0,1,.83.13,6.42,6.42,0,0,0,.83.17,23.33,23.33,0,0,1,4.05-.78c.29,0,.57,0,.86,0q5.12.57,8.05,5.62a21.34,21.34,0,0,1,2.65,10.9,21,21,0,0,1-2.39,10.31Q1030.33,356.4,1025.94,356.85Zm-.77-27.46c-.62-.15-1.24.59-1.85,2.21s-1.23,2.43-1.86,2.43a1.45,1.45,0,0,1-.61-.2,2.43,2.43,0,0,0-.66-.25,17.84,17.84,0,0,0-1.45,8,22,22,0,0,0,1,7c.73,2.17,1.76,3.37,3.07,3.59,1.53.25,2.77-1.13,3.7-4.15a31.8,31.8,0,0,0,1.24-9.45,25.37,25.37,0,0,0-.64-6.21Q1026.42,329.69,1025.17,329.39Z"/><path class="cls-11" d="M1046.45,326.84a1.93,1.93,0,0,1-.2.71l-.23.56a15.69,15.69,0,0,0-.51,2.33v23a1.36,1.36,0,0,0,.25.81,1.09,1.09,0,0,1,.26.58c0,1.59-.34,2.46-1,2.58a14.22,14.22,0,0,1-3-.49,12.05,12.05,0,0,1-3.15-.93c-.63-.48-.94-.91-.94-1.31a.55.55,0,0,1,.17-.34,1,1,0,0,0,.17-.64V327.29a.92.92,0,0,0-.15-.47.89.89,0,0,1-.15-.47c.06-.6.58-1,1.58-1.2a14.94,14.94,0,0,1,2,0,18.36,18.36,0,0,1,3.07.42C1045.82,325.87,1046.45,326.29,1046.45,326.84Z"/><path class="cls-11" d="M1069.08,350.63a5.68,5.68,0,0,1-2.09,4.55,8.92,8.92,0,0,1-5.79,1.86,8.19,8.19,0,0,1-2-.27c-1.3-.32-2-.48-2-.48l-2.07-.4a3.83,3.83,0,0,1-1.81-.84,6.25,6.25,0,0,1-1.88-2.92,14.6,14.6,0,0,0-1.36-3,4.78,4.78,0,0,1-.81-1.05,1.35,1.35,0,0,1,.23-1.1,1.55,1.55,0,0,1,.88-.7,3.9,3.9,0,0,1,.93-.07,24.58,24.58,0,0,1,3.65.32,6.7,6.7,0,0,1,2.41.58,8.83,8.83,0,0,1,.68,2.69c.26,1.5.64,2.34,1.15,2.51a.92.92,0,0,0,.38.08c.54,0,1-.4,1.39-1.18a6.1,6.1,0,0,0,.58-2.68q0-3.26-2.31-4.35a27.9,27.9,0,0,1-7.42-4.64,7.2,7.2,0,0,1-2.21-5.85,11,11,0,0,1,2.32-5.67,7.82,7.82,0,0,1,4.46-3.36q1-.18,6,1.65l2.49.87a4.73,4.73,0,0,1,2,1.31q1.2,1.31,1.2,4.53c0,.4,0,1,0,1.76s0,1.15,0,1.42a4.47,4.47,0,0,0,.3.87,1.42,1.42,0,0,1,.17.82,1.71,1.71,0,0,1-1.58,1.84,9.54,9.54,0,0,1-3.15-.57,6.76,6.76,0,0,1-3.24-1.53,1.72,1.72,0,0,1-.09-.75q0-.57.15-2.55t.15-2.88c0-1.08-.14-1.6-.42-1.58a2.74,2.74,0,0,0-2.2,1.67,7.41,7.41,0,0,0-.87,3.61q0,3.38,2.26,4.8l5.11,2.85a10,10,0,0,1,3.37,2.77A9,9,0,0,1,1069.08,350.63Z"/><path class="cls-11" d="M1086.1,356.85a6.09,6.09,0,0,1-2-.21c-.74-.18-1.46-.38-2.17-.58-.86-.2-2.19-.56-4-1.08a9.37,9.37,0,0,1-5.16-5.17,20.09,20.09,0,0,1-1.53-8.25,33.32,33.32,0,0,1,1.53-9.17q2.09-7,5.42-7.05a4.36,4.36,0,0,1,.83.13,6.1,6.1,0,0,0,.83.17,23,23,0,0,1,4.05-.78c.28,0,.57,0,.85,0q5.12.57,8.06,5.62a21.44,21.44,0,0,1,2.64,10.9,20.9,20.9,0,0,1-2.39,10.31Q1090.49,356.4,1086.1,356.85Zm-.77-27.46c-.63-.15-1.25.59-1.86,2.21s-1.23,2.43-1.85,2.43a1.48,1.48,0,0,1-.62-.2,2.43,2.43,0,0,0-.66-.25,17.84,17.84,0,0,0-1.45,8,22.29,22.29,0,0,0,1,7q1.11,3.25,3.07,3.59,2.3.38,3.71-4.15a32.13,32.13,0,0,0,1.24-9.45,25.88,25.88,0,0,0-.64-6.21Q1086.56,329.69,1085.33,329.39Z"/><path class="cls-11" d="M1122,326.84a1.78,1.78,0,0,1-.17.79,5.35,5.35,0,0,0-.38,1v24.72c0-.07.07.39.21,1.39s0,1.9-.51,2.25-1.66.45-3.45.3a17.14,17.14,0,0,1-3.54-.71c-1.73-.48-2.69-1-2.86-1.5a7.53,7.53,0,0,0-.12-1.61c-1.6-3.7-3.44-7.76-5.55-12.18v11.09a1.67,1.67,0,0,0,.3.79,6.73,6.73,0,0,1,.39.67,3.22,3.22,0,0,1,.21,1.13,1.34,1.34,0,0,1-1.54,1.49,17.65,17.65,0,0,1-4.22-.74,8.37,8.37,0,0,1-2.9-1.17,1.26,1.26,0,0,1,0-1.53,4.21,4.21,0,0,0,.52-1.16V328.38a3.08,3.08,0,0,0-.13-.68,1.29,1.29,0,0,1,0-.71,2.63,2.63,0,0,1,1.67-1.72,3.47,3.47,0,0,1,.94-.08,16.34,16.34,0,0,1,3.41.38,6.7,6.7,0,0,1,3.15,1.27c.8.75,1.83,3,3.11,6.86a73,73,0,0,0,3.67,9.51V328.49a3.15,3.15,0,0,0-.17-.84,3.29,3.29,0,0,1-.17-.85,1.11,1.11,0,0,1,.08-.41c.15-.42.69-.74,1.62-.94a7.19,7.19,0,0,1,2.14-.18,14.11,14.11,0,0,1,2.34.41C1121.34,326,1122,326.42,1122,326.84Z"/><path class="cls-11" d="M1144.89,351.57a3.22,3.22,0,0,1-.75,1.36,2.6,2.6,0,0,1-1.09.88c-.08,0-.24,0-.47-.13a1.3,1.3,0,0,0-.55-.16.51.51,0,0,0-.17,0,19.59,19.59,0,0,0-2.64.9,25.5,25.5,0,0,0-5.8,3.26l-4.65-1.68q-2.64-1-2.64-1.5V326.35c0-.17.33-.42,1-.75a3.46,3.46,0,0,1,1.47-.45,10.4,10.4,0,0,1,2.05.59,7.94,7.94,0,0,0,2.51.54,8.15,8.15,0,0,0,3.33-1c1.25-.65,2-.93,2.34-.83a10.52,10.52,0,0,1,3.05,2c1.35,1.11,2.08,1.91,2.2,2.38.05.22-.21.61-.79,1.16a2.43,2.43,0,0,1-1.43.82,1.47,1.47,0,0,1-.68-.11c-.15-.07-.25-.1-.3-.07a25.43,25.43,0,0,0-2.86.71,13.46,13.46,0,0,0-4.65,2.17v6.11a32.84,32.84,0,0,1,3.88-1.39c.46-.05,1.42.51,2.88,1.67s2.2,2,2.2,2.42a1.51,1.51,0,0,1-.6,1,2.86,2.86,0,0,1-1.15.71c-.28,0-.78,0-1.49.08a23.42,23.42,0,0,0-5.72,2.39v3.94q1.29-.67,3.48-1.59a10.77,10.77,0,0,1,2.71-.92,9.08,9.08,0,0,1,3,1.63C1144.17,350.57,1144.94,351.27,1144.89,351.57Z"/><path class="cls-11" d="M1168.38,337.52a19.3,19.3,0,0,1-2.52,8.88,35.76,35.76,0,0,1-5,7.26q-2.68,2.93-4,3.41a4.37,4.37,0,0,1-1.45.23,10.76,10.76,0,0,1-4.27-1.05,10.25,10.25,0,0,1-3.2-1.87v-27a1.34,1.34,0,0,1,1.28-1.16,18.47,18.47,0,0,1,2.14.26,9.83,9.83,0,0,0,2.53-.78,10.7,10.7,0,0,1,3.69-.83,7.9,7.9,0,0,1,3.58.86,24.81,24.81,0,0,1,2.94,2,10.31,10.31,0,0,1,3.71,4.57A17.27,17.27,0,0,1,1168.38,337.52Zm-7.08-7.23a1.45,1.45,0,0,0-.68-.12,11.82,11.82,0,0,0-5.42,1.73v16.86c1.94-1,3.58-3.36,5-7.16a27,27,0,0,0,1.75-8.91Q1161.9,330.59,1161.3,330.29Z"/><path class="cls-11" d="M1202.23,331.34a2.57,2.57,0,0,1-.94-.25,1.82,1.82,0,0,0-1-.17l-4.39,1.05v19.71a5.73,5.73,0,0,0,.59,2.36,2.45,2.45,0,0,1-.08,1.42,2.06,2.06,0,0,1-.81,1.46,1.26,1.26,0,0,1-.43,0,21.74,21.74,0,0,1-3.92-.49,8.24,8.24,0,0,1-3.33-1.08c-.39-.45-.38-1.05,0-1.8a3.4,3.4,0,0,0,.55-1.42V333.62l-3,.68a2.68,2.68,0,0,0-.7.31,1.19,1.19,0,0,1-.83.21,6.47,6.47,0,0,1-2.69-2.23c-1.13-1.33-1.63-2.24-1.49-2.71s.9-1,2-1.32a3.22,3.22,0,0,1,1.1,0,3.76,3.76,0,0,0,1.07,0l14.84-3.34a8.63,8.63,0,0,0,1.23-.45,2.58,2.58,0,0,1,1.24-.18,2.08,2.08,0,0,1,1.62.82,6.55,6.55,0,0,1,.64,1.69,9.42,9.42,0,0,1,.43,2.54,2.66,2.66,0,0,1-.24,1.26C1203.58,331.15,1203.08,331.31,1202.23,331.34Z"/><path class="cls-11" d="M1230.75,341.56c0,.35-.36.78-1,1.3a2.89,2.89,0,0,1-1.39.76,4.1,4.1,0,0,0-.72,0v9.44a11.44,11.44,0,0,1,.42,1.39c.26,1.6,0,2.53-.64,2.81a2,2,0,0,1-.64.07,11,11,0,0,1-3.83-.93c-1.68-.65-2.7-1.3-3.07-1.95,0-.23-.07-.56-.13-1-.06-.18,0-.41.3-.71a1.61,1.61,0,0,0,.38-.57v-7.56c-.54.05-1.6.23-3.2.56a28.76,28.76,0,0,0-3.15.75v7.6a1,1,0,0,0,.28.62,1.86,1.86,0,0,1,.32.54c-.12.4-.22.79-.3,1.16a.75.75,0,0,1-.47.53c-.46.15-1.73-.08-3.82-.69s-3.19-1.11-3.3-1.48a2.23,2.23,0,0,1-.09-.9,6.78,6.78,0,0,0,.13-1.05v-24a9.47,9.47,0,0,1,.39-2.06q.08-.37,1.44-1.05a1.88,1.88,0,0,1,.47,0,13.42,13.42,0,0,1,3.33.45c1.51.4,2.3.93,2.39,1.58a3.29,3.29,0,0,1-.37,1.27,4.07,4.07,0,0,0-.4,1.28v9.14q2.89-.64,6.35-1.31V327.1a3,3,0,0,0-.19-.56,1.32,1.32,0,0,1-.11-.79c.14-.45.61-.73,1.41-.86l1.79-.19a7.06,7.06,0,0,1,2.75.49c1.21.4,1.88.83,2,1.28a1.1,1.1,0,0,1-.18.78,2.79,2.79,0,0,0-.29,1.05v10.34c.14.15.81.69,2,1.61C1230.41,340.85,1230.78,341.29,1230.75,341.56Z"/><path class="cls-11" d="M1253.13,351.57a3.11,3.11,0,0,1-.75,1.36,2.59,2.59,0,0,1-1.08.88c-.09,0-.24,0-.47-.13a1.34,1.34,0,0,0-.56-.16l-.17,0a19.59,19.59,0,0,0-2.64.9,25.71,25.71,0,0,0-5.8,3.26L1237,356q-2.64-1-2.64-1.5V326.35c0-.17.33-.42,1-.75a3.46,3.46,0,0,1,1.47-.45,10.21,10.21,0,0,1,2.05.59,7.93,7.93,0,0,0,2.52.54,8.07,8.07,0,0,0,3.32-1c1.25-.65,2-.93,2.35-.83a10.51,10.51,0,0,1,3,2c1.35,1.11,2.09,1.91,2.2,2.38.06.22-.21.61-.79,1.16a2.4,2.4,0,0,1-1.43.82,1.47,1.47,0,0,1-.68-.11c-.14-.07-.24-.1-.3-.07a25.79,25.79,0,0,0-2.85.71,13.28,13.28,0,0,0-4.65,2.17v6.11a32.2,32.2,0,0,1,3.88-1.39c.45-.05,1.41.51,2.88,1.67s2.19,2,2.19,2.42a1.51,1.51,0,0,1-.6,1,2.8,2.8,0,0,1-1.15.71c-.28,0-.78,0-1.49.08a23.4,23.4,0,0,0-5.71,2.39v3.94c.85-.45,2-1,3.47-1.59a10.9,10.9,0,0,1,2.71-.92,9.08,9.08,0,0,1,3,1.63C1252.41,350.57,1253.19,351.27,1253.13,351.57Z"/><path class="cls-11" d="M1286.34,337.52a19.4,19.4,0,0,1-2.51,8.88,36.17,36.17,0,0,1-5,7.26q-2.7,2.93-4,3.41a4.37,4.37,0,0,1-1.45.23,10.76,10.76,0,0,1-4.26-1.05,10.25,10.25,0,0,1-3.2-1.87v-27a1.34,1.34,0,0,1,1.28-1.16,18.72,18.72,0,0,1,2.13.26,9.84,9.84,0,0,0,2.54-.78,10.6,10.6,0,0,1,3.69-.83,7.9,7.9,0,0,1,3.58.86,25.67,25.67,0,0,1,2.94,2,10.38,10.38,0,0,1,3.71,4.57A17.34,17.34,0,0,1,1286.34,337.52Zm-7.08-7.23a1.45,1.45,0,0,0-.68-.12,11.75,11.75,0,0,0-5.41,1.73v16.86q2.89-1.47,4.94-7.16a26.7,26.7,0,0,0,1.75-8.91Q1279.86,330.59,1279.26,330.29Z"/><path class="cls-11" d="M1304.33,356.85a6.06,6.06,0,0,1-2-.21c-.74-.18-1.46-.38-2.18-.58s-2.18-.56-4-1.08a9.31,9.31,0,0,1-5.16-5.17,20.08,20.08,0,0,1-1.54-8.25,33.38,33.38,0,0,1,1.54-9.17q2.09-7,5.41-7.05a4.14,4.14,0,0,1,.83.13,6.5,6.5,0,0,0,.84.17,23,23,0,0,1,4-.78l.85,0q5.12.57,8.06,5.62a21.44,21.44,0,0,1,2.64,10.9,21,21,0,0,1-2.39,10.31Q1308.73,356.4,1304.33,356.85Zm-.76-27.46c-.63-.15-1.25.59-1.86,2.21s-1.23,2.43-1.85,2.43a1.44,1.44,0,0,1-.62-.2,2.43,2.43,0,0,0-.66-.25,17.84,17.84,0,0,0-1.45,8,22,22,0,0,0,1,7q1.11,3.25,3.07,3.59,2.29.38,3.71-4.15a32.15,32.15,0,0,0,1.23-9.45,25.37,25.37,0,0,0-.64-6.21C1305,330.59,1304.39,329.59,1303.57,329.39Z"/><path class="cls-11" d="M1341.38,343a2,2,0,0,1-1.49,1.91,1,1,0,0,1-.6-.13,1.39,1.39,0,0,0-.55-.17,1.73,1.73,0,0,0-.56.11,55.49,55.49,0,0,1-2.6,7.5,8.63,8.63,0,0,1-4.43,4.64,3.85,3.85,0,0,1-1.49.3,18,18,0,0,1-3.8-1c-.76-.18-2-.54-3.62-1.09s-2.93-2.31-3.84-4.83a24.47,24.47,0,0,1-1.23-8.21,29,29,0,0,1,2-11c1.42-3.52,3.29-5.5,5.62-5.92a6.77,6.77,0,0,1,.69,0,14.82,14.82,0,0,1,5.2,1.2,10.07,10.07,0,0,1,4.43,2.81,6.85,6.85,0,0,1,1.24,3.15,22.37,22.37,0,0,0,.47,2.36c.08.42.19.93.34,1.53a1.82,1.82,0,0,1-.43,1.15,2.11,2.11,0,0,1-.89.8,9,9,0,0,1-3.33-.54,13.79,13.79,0,0,1-3.33-1.14,1.66,1.66,0,0,1-.63-1.76.85.85,0,0,1,.21-.47.9.9,0,0,0,.21-.51c0-1.77-.23-2.66-.68-2.66q-1.45,0-2.56,4.27a36.17,36.17,0,0,0-1,8.84q0,7.13,2.26,8.17c.45.2,1.07-.49,1.85-2.06a13.05,13.05,0,0,0,1.39-4.42,14.44,14.44,0,0,0-2.6-1.16c-1-.38-1.58-.7-1.66-1a2.14,2.14,0,0,1,.42-1.59,3.13,3.13,0,0,1,1.26-1.33,5.08,5.08,0,0,1,1.85-.34,14.2,14.2,0,0,0,2-.07,16.53,16.53,0,0,0,2.35-.64,6.88,6.88,0,0,1,2-.45,3.3,3.3,0,0,1,.47,0,9.12,9.12,0,0,1,3.14,1.69C1340.73,341.93,1341.41,342.6,1341.38,343Z"/><path class="cls-11" d="M1346,351.83a2.55,2.55,0,0,1-.52,1.42,3.87,3.87,0,0,0-.68,1.8,4,4,0,0,1,0,.86c-.11.73-.34,1.15-.68,1.28s-1.34-.08-2.81-.68a6.15,6.15,0,0,1-2.48-1.38q-.21-.35.6-2.1a15.51,15.51,0,0,1,1.19-2.25,1.07,1.07,0,0,1,.94-.38,21.59,21.59,0,0,0,2.56.46C1345.25,351,1345.87,351.36,1346,351.83Z"/><path class="cls-11" d="M1356.43,351.83a2.51,2.51,0,0,1-.51,1.42,3.79,3.79,0,0,0-.69,1.8,4,4,0,0,1,0,.86c-.11.73-.34,1.15-.68,1.28s-1.33-.08-2.81-.68a6.08,6.08,0,0,1-2.47-1.38c-.15-.23,0-.93.59-2.1a16.42,16.42,0,0,1,1.2-2.25,1,1,0,0,1,.93-.38,22.29,22.29,0,0,0,2.56.46C1355.69,351,1356.31,351.36,1356.43,351.83Z"/><path class="cls-8" d="M1131.18,615.12c9.77,2.46,19.56.28,26.06-6.86,10.8-11.86,8.4-32.9-5.35-47-13.25-13.57-32.2-15.74-43.23-5.28-22.85-16.77-48.28-33.68-50.58-36l-38.2-51.42.49-.5c10.34-11.36,8.05-31.49-5.12-45S983,407.85,972.7,419.21c-6.23,6.84-7.86,16.88-5.3,26.72-10.74-5.07-22.53-3.88-29.81,4.12-9.87,10.84-7.68,30.08,4.89,43,9.06,9.28,21,12.73,30.7,9.89l62.42,40.88c2.44,2.49,21.87,31.82,40,56.21-6,11.56-2.74,28.09,8.57,39.68,13.09,13.41,32,15.13,42.31,3.85C1133,636.29,1134.44,625.48,1131.18,615.12Z"/><path class="cls-8" d="M1135,468.44a43.52,43.52,0,0,0,.93-37.08c-9-20.55-31.74-29.6-50.72-20.22-18.29,9-26.44,31.89-18.94,51.93-24.62,19.4-50.16,42-53.33,43.6l-65.54,19-.38-.92c-8.64-19.67-30.38-28.33-48.55-19.35s-25.89,32.21-17.25,51.88c5.21,11.86,15.18,19.71,26.26,22.12a39.39,39.39,0,0,0-5,40.26c8.26,18.8,29,27.07,46.38,18.49,12.5-6.18,19.82-19.41,19.86-33.35l62.07-55.86c3.36-1.67,40-9.5,71.1-18.47,10.22,14.24,28.48,19.65,44.1,11.92,18.07-8.93,25.75-32,17.15-51.58C1157.68,478.28,1146.84,470.26,1135,468.44Z"/><path class="cls-11" d="M912.53,710.53a4.09,4.09,0,0,1-1.4-.37,2.67,2.67,0,0,0-1.47-.25l-6.59,1.57V741a8.47,8.47,0,0,0,.89,3.54,3.82,3.82,0,0,1-.12,2.13,3.12,3.12,0,0,1-1.22,2.2,2.5,2.5,0,0,1-.64.05,32.83,32.83,0,0,1-5.88-.73q-4.23-.84-5-1.63c-.6-.67-.57-1.57.06-2.7a5.09,5.09,0,0,0,.84-2.13V714l-4.54,1a4,4,0,0,0-1.06.48,1.79,1.79,0,0,1-1.25.31c-1-.22-2.32-1.34-4-3.34s-2.45-3.36-2.23-4.08,1.34-1.51,3-2a4.61,4.61,0,0,1,1.66-.06,5.25,5.25,0,0,0,1.6,0l22.26-5a14.86,14.86,0,0,0,1.85-.68,3.86,3.86,0,0,1,1.86-.28,3.15,3.15,0,0,1,2.43,1.24,10.45,10.45,0,0,1,1,2.53,14.13,14.13,0,0,1,.64,3.82,3.94,3.94,0,0,1-.36,1.88C914.57,710.25,913.81,710.49,912.53,710.53Z"/><path class="cls-11" d="M955.25,740.42q.59,1-2.27,4.69c-1.9,2.49-3.48,3.72-4.76,3.68a3.83,3.83,0,0,1-3.26-1.91,7.69,7.69,0,0,0-1-1.63l-13.5-11.07v10.4a3.32,3.32,0,0,0,.55,1.57,3.41,3.41,0,0,1,.54,1.41c0,1.12-.83,1.74-2.49,1.85a21.29,21.29,0,0,1-5.7-.62c-2.72-.52-4.09-1.08-4.09-1.68a2.79,2.79,0,0,1,.16-.76,3.77,3.77,0,0,0,.16-1.21V705.92a1.3,1.3,0,0,0-.19-.71,1,1,0,0,1-.19-.47c0-1,.89-1.61,2.56-1.8a12.33,12.33,0,0,1,3.48.53,15.92,15.92,0,0,0,3.87.59,16.57,16.57,0,0,0,4.44-1.54,14.72,14.72,0,0,1,5.86-1.49,11.35,11.35,0,0,1,2,.17,7.57,7.57,0,0,1,3.26,1.46c1,.75,1.92,1.5,2.81,2.24,2.35,2,3.56,3,3.65,3.1a5.78,5.78,0,0,1,1.79,3.76q.39,6.53-12.66,16.75,2.69,2.13,11.83,10.39a14,14,0,0,1,1.66.68A9.82,9.82,0,0,1,955.25,740.42ZM941.12,709c-2,0-5.54,1.83-10.62,5.5v8.6c1.84-.63,4.24-2.56,7.23-5.79s4.48-5.62,4.48-7.19A1,1,0,0,0,941.12,709Z"/><path class="cls-11" d="M996.82,705.64c.26,1.94-.26,3.18-1.53,3.7-.73.31-1.07.45-1,.45q-3.71,5-9.78,17.59-5.7,11.93-6,14.33a4.45,4.45,0,0,0,.26,1.58,5.42,5.42,0,0,1,.25,1.85c-.25,2.55-1,3.92-2.17,4.1a16.38,16.38,0,0,1-4.45-.84,24.88,24.88,0,0,1-4.76-1.63c-1.45-.9-2.18-1.8-2.18-2.7a3.25,3.25,0,0,1,.45-1.51q.9-2.19,3.77-9-5.31-9.62-7.16-13.27a90.1,90.1,0,0,1-5.24-12,3.47,3.47,0,0,0-.74-.84,1.53,1.53,0,0,1-.61-1c0-.56.84-1.41,2.5-2.53q5.31-3.6,7.29-3.37a2.73,2.73,0,0,1,1.85,1.18,3.6,3.6,0,0,1,.84,1.52,23.29,23.29,0,0,0,.38,3.42A52.9,52.9,0,0,0,975,721.82q3.59-7.7,4-8.49a63.2,63.2,0,0,1,5.5-8.93,17.54,17.54,0,0,1,.89-2.3,4,4,0,0,1,3.46-1.07,14.44,14.44,0,0,1,4.7,2C995.64,704.19,996.73,705.07,996.82,705.64Z"/><path class="cls-11" d="M1054.82,744.8c0,.34-.13,1.15-.26,2.42a2.45,2.45,0,0,1-.51,1.52,2.5,2.5,0,0,1-1.08.17,18.59,18.59,0,0,1-5.25-1,10.4,10.4,0,0,1-4.6-2.13c-.34-.34-.69-1.47-1-3.38a41.47,41.47,0,0,0-1.6-6.23,52.06,52.06,0,0,0-7.1,1.54,28.83,28.83,0,0,0-6.08,2.11q-1,2.42-2.56,6c-.12.52-.26,1-.41,1.48a2,2,0,0,1-1.12,1.16,1.24,1.24,0,0,1-.58.11,16.74,16.74,0,0,1-5.14-1.41c-2.41-.93-3.66-1.55-3.75-1.85-.17-.52.24-1.82,1.22-3.88,1.36-3,2.15-4.83,2.37-5.5a3.27,3.27,0,0,1-1.35-2.36,2.81,2.81,0,0,1,.07-.62q.12-.68,3.9-2.42l8.25-24.78a8.16,8.16,0,0,0,.06-2.47c-.08-1,0-1.65.39-1.92a2.69,2.69,0,0,1,1.53-.28,39.39,39.39,0,0,1,8.57,1.35c3.71.9,5.92,1.71,6.65,2.42a154.58,154.58,0,0,0,2.88,18.71Q1051.5,739,1054.82,744.8Zm-16.69-17.08c-.55-2.36-.9-3.91-1-4.66a64.52,64.52,0,0,1-1-7.82q-1.29,2.76-3,7.65a38.2,38.2,0,0,0-2,6.4A67.35,67.35,0,0,1,1038.13,727.72Z"/><path class="cls-11" d="M1092.93,727.94a3,3,0,0,1-2.23,2.87,1.53,1.53,0,0,1-.9-.2,2.14,2.14,0,0,0-.83-.25,2.41,2.41,0,0,0-.83.17,85.44,85.44,0,0,1-3.9,11.24q-2.57,5.34-6.65,7a5.82,5.82,0,0,1-2.24.45,27.44,27.44,0,0,1-5.69-1.46c-1.15-.27-3-.81-5.44-1.63q-3.71-1.58-5.75-7.25a36.44,36.44,0,0,1-1.86-12.31,43.65,43.65,0,0,1,2.94-16.52q3.2-7.92,8.44-8.88a7.83,7.83,0,0,1,1-.06,22.21,22.21,0,0,1,7.8,1.8c3.28,1.28,5.5,2.68,6.65,4.22a10.17,10.17,0,0,1,1.85,4.72c.39,2.17.62,3.35.71,3.54.13.63.3,1.4.51,2.3a2.71,2.71,0,0,1-.64,1.72,3.17,3.17,0,0,1-1.34,1.2q-.84.28-5-.81a20.33,20.33,0,0,1-5-1.71c-.77-.45-1.09-1.33-1-2.65a1.31,1.31,0,0,1,.32-.7,1.32,1.32,0,0,0,.32-.76q0-4-1-4c-1.45,0-2.73,2.1-3.84,6.41a54.17,54.17,0,0,0-1.53,13.26q0,10.68,3.39,12.25c.68.3,1.6-.73,2.78-3.09a19.79,19.79,0,0,0,2.08-6.63,22.39,22.39,0,0,0-3.9-1.74c-1.54-.56-2.37-1-2.5-1.46a3.28,3.28,0,0,1,.64-2.39,4.65,4.65,0,0,1,1.89-2,7.51,7.51,0,0,1,2.78-.5A21.92,21.92,0,0,0,1078,724a26.86,26.86,0,0,0,3.52-1,10.24,10.24,0,0,1,3-.67,5.16,5.16,0,0,1,.71,0,13.58,13.58,0,0,1,4.7,2.53Q1093,727.16,1092.93,727.94Z"/><path class="cls-11" d="M1132.26,744.8c0,.34-.12,1.15-.25,2.42a2.45,2.45,0,0,1-.51,1.52,2.59,2.59,0,0,1-1.09.17,18.53,18.53,0,0,1-5.24-1,10.45,10.45,0,0,1-4.61-2.13c-.34-.34-.68-1.47-1-3.38a40.29,40.29,0,0,0-1.6-6.23,52.06,52.06,0,0,0-7.1,1.54,28.68,28.68,0,0,0-6.07,2.11c-.64,1.61-1.5,3.6-2.56,6-.13.52-.27,1-.42,1.48a2,2,0,0,1-1.12,1.16,1.2,1.2,0,0,1-.57.11,16.78,16.78,0,0,1-5.15-1.41c-2.41-.93-3.66-1.55-3.74-1.85-.17-.52.23-1.82,1.21-3.88,1.37-3,2.16-4.83,2.37-5.5a3.26,3.26,0,0,1-1.34-2.36,3.5,3.5,0,0,1,.06-.62q.13-.68,3.9-2.42l8.25-24.78a8.4,8.4,0,0,0,.07-2.47c-.09-1,0-1.65.38-1.92a2.69,2.69,0,0,1,1.53-.28,39.3,39.3,0,0,1,8.57,1.35q5.57,1.35,6.65,2.42a154.58,154.58,0,0,0,2.88,18.71Q1128.94,739,1132.26,744.8Zm-16.69-17.08c-.55-2.36-.89-3.91-1-4.66a64.52,64.52,0,0,1-1-7.82q-1.27,2.76-3,7.65a39.75,39.75,0,0,0-2,6.4A68.06,68.06,0,0,1,1115.57,727.72Z"/><path class="cls-11" d="M1150.11,703.78a3,3,0,0,1-.29,1.07c-.19.45-.31.73-.35.84a23.16,23.16,0,0,0-.77,3.49v34.5a2.07,2.07,0,0,0,.38,1.21,1.6,1.6,0,0,1,.39.87c0,2.4-.51,3.69-1.54,3.88a22.24,22.24,0,0,1-4.47-.73q-4.1-.9-4.74-1.41c-.94-.71-1.4-1.37-1.4-2a.81.81,0,0,1,.25-.5,1.43,1.43,0,0,0,.26-1V704.46a1.38,1.38,0,0,0-.23-.71,1.3,1.3,0,0,1-.22-.7c.09-.9.87-1.5,2.37-1.8a19.16,19.16,0,0,1,2.94,0,26.58,26.58,0,0,1,4.6.62C1149.17,702.32,1150.11,703,1150.11,703.78Z"/><path class="cls-11" d="M1191.8,703.78a2.82,2.82,0,0,1-.26,1.18,8.18,8.18,0,0,0-.57,1.52v37.09c0-.11.1.58.32,2.08.25,1.72,0,2.84-.77,3.37s-2.49.67-5.18.45a25.29,25.29,0,0,1-5.31-1.07q-3.9-1.06-4.28-2.25a11.44,11.44,0,0,0-.19-2.41q-3.58-8.32-8.32-18.27v16.64a2.47,2.47,0,0,0,.45,1.18,10.09,10.09,0,0,1,.58,1,4.76,4.76,0,0,1,.32,1.68,2,2,0,0,1-2.31,2.25,25.81,25.81,0,0,1-6.33-1.12q-3.84-1.12-4.35-1.74a1.92,1.92,0,0,1,0-2.31,5.72,5.72,0,0,0,.77-1.74V706.09a4,4,0,0,0-.19-1,1.8,1.8,0,0,1-.06-1.06,3.91,3.91,0,0,1,2.49-2.59,5.62,5.62,0,0,1,1.41-.11,24.66,24.66,0,0,1,5.11.56,10,10,0,0,1,4.73,1.91q1.8,1.68,4.67,10.29,3.53,10.56,5.5,14.27V706.25a4.49,4.49,0,0,0-.25-1.26,4.58,4.58,0,0,1-.26-1.26,1.38,1.38,0,0,1,.13-.62q.31-1,2.43-1.41a10.74,10.74,0,0,1,3.2-.28,22.16,22.16,0,0,1,3.51.62C1190.76,702.56,1191.76,703.14,1191.8,703.78Z"/></g><ellipse class="cls-51" cx="1849.82" cy="103.03" rx="29.62" ry="30.67"/><ellipse class="cls-51" cx="1846.61" cy="66.59" rx="29.62" ry="30.67"/><rect class="cls-51" x="1499.23" y="69.44" width="359.95" height="31.14" rx="15.57"/><rect class="cls-52" x="1497.79" y="70.38" width="320.61" height="30.43" rx="15.21"/><ellipse class="cls-51" cx="1494.33" cy="104.68" rx="28.94" ry="29.97"/><ellipse class="cls-51" cx="1496.27" cy="63.95" rx="28.94" ry="29.97"/></svg>
