<svg id="Layer_1" data-name="Layer 1" xmlns="http://www.w3.org/2000/svg" width="1177" height="1049" viewBox="0 0 1177 1049"><defs><style>.cls-1{fill:#723c29;}.cls-2{fill:#935934;}.cls-3{fill:#936037;opacity:0.45;}.cls-4{fill:#ce825d;}.cls-11,.cls-5{fill:#c96;}.cls-5,.cls-7{stroke:#c96;stroke-miterlimit:10;}.cls-6{fill:#fff;}.cls-7{fill:#d5965d;}.cls-8{fill:#683c11;}.cls-9{fill:#e20d18;opacity:0.85;}.cls-10{fill:#e64065;}.cls-12{fill:#010101;}.cls-13{fill:#230d0f;}</style></defs><title>gladhund</title><path class="cls-1" d="M487.05,74.36l36.1,30.53c20.26,17.13,21.74,46.28,3.31,65.1l-6.25,6.39c-18.43,18.81-49.77,20.18-70,3.06l-36.1-30.53c-20.26-17.12-21.74-46.27-3.31-65.1L417,77.43C435.46,58.61,466.8,57.24,487.05,74.36Z"/><path class="cls-1" d="M891.29,153.89l-30,27.85c-19.36,18-50.73,18-70.09,0l-4.55-4.23c-19.37-18-19.36-47.17,0-65.17l30-27.85c19.36-18,50.74-18,70.09,0l4.55,4.23C910.66,106.71,910.66,135.89,891.29,153.89Z"/><path class="cls-2" d="M290,744.63c-56.59-128-84.36-238.73-62-247.25s86.31,88.36,142.9,216.39"/><path class="cls-1" d="M954.58,988.7l-294.69,7.83a74.81,74.81,0,0,1-21.76,2.39L319,987.16q-3.33-.12-6.65-.54L202.74,972.78c-54-6.83-79.2-66-44.81-105.29L513.35,461.12c21.32-24.37,58.35-31.07,87.95-15.91L813.61,554a66.34,66.34,0,0,1,32.54,36.28l94.25,262C953,887.41,993,978.62,954.58,988.7Z"/><path class="cls-2" d="M396.32,383.1c0-166.33,113.62-301.17,253.78-301.17S903.88,216.77,903.88,383.1"/><path class="cls-3" d="M397.87,378.9c0-164,113.27-297,253-297s253,133,253,297"/><path class="cls-4" d="M771.45,517.32c0,60.36-54.33,109.29-121.35,109.29S528.75,577.68,528.75,517.32"/><ellipse class="cls-5" cx="847.25" cy="492.5" rx="145.39" ry="129.62"/><path class="cls-6" d="M676.44,375.49c0-63.95,24.7-115.8,55.17-115.8s55.17,51.85,55.17,115.8"/><path class="cls-6" d="M516.57,375.49c0-66.32,25-120.09,55.92-120.09s55.92,53.77,55.92,120.09"/><ellipse class="cls-7" cx="472.77" cy="492.5" rx="137.46" ry="128.06"/><ellipse class="cls-6" cx="557.36" cy="310.57" rx="22.03" ry="20.3"/><ellipse class="cls-8" cx="571.46" cy="325.41" rx="30.84" ry="28.89"/><ellipse class="cls-8" cx="734.47" cy="324.62" rx="29.96" ry="28.11"/><path class="cls-9" d="M584.15,530.64C550,611.69,537.06,682.76,555.27,689.39s60.67-53.7,94.83-134.75"/><ellipse class="cls-1" cx="372.32" cy="88.03" rx="51.97" ry="139.66" transform="translate(229.93 443.14) rotate(-81.45)"/><ellipse class="cls-1" cx="951.23" cy="141.13" rx="48.71" ry="140.27" transform="translate(447.39 960.21) rotate(-66.84)"/><ellipse class="cls-10" cx="577.63" cy="700.21" ry="15.6"/><ellipse class="cls-11" cx="657.81" cy="459.71" rx="296.94" ry="94.48"/><path class="cls-12" d="M606.42,408.06c0-27.57,21.25-49.92,47.46-49.92s47.45,22.35,47.45,49.92"/><path class="cls-13" d="M846.81,1004.92c0-62.87,33.93-113.84,75.78-113.84s75.78,51,75.78,113.84"/><path class="cls-13" d="M582.89,1032.59c0-64,37.75-116,84.32-116s84.32,51.92,84.32,116"/><path class="cls-13" d="M81.63,974.61c0-64.92,33.74-117.54,75.35-117.54s75.34,52.62,75.34,117.54"/><path class="cls-13" d="M335.65,997.38c0-63.07,32.32-114.2,72.2-114.2s72.2,51.13,72.2,114.2"/><ellipse class="cls-12" cx="573.22" cy="319.94" rx="20.27" ry="18.74"/><ellipse class="cls-12" cx="733.59" cy="319.94" rx="20.27" ry="18.74"/><ellipse class="cls-6" cx="563.53" cy="316.04" rx="2.34" ry="7.51" transform="translate(-76.93 230.85) rotate(-21.71)"/><ellipse class="cls-6" cx="727.42" cy="309.79" rx="3.52" ry="5.47"/><ellipse class="cls-6" cx="723.9" cy="316.82" rx="2.38" ry="6.76" transform="translate(-66.25 324.7) rotate(-24.21)"/><ellipse class="cls-6" cx="568.82" cy="309.79" rx="3.52" ry="5.47"/><ellipse class="cls-12" cx="930.08" cy="423.01" rx="3.52" ry="3.12"/><ellipse class="cls-12" cx="970.61" cy="452.68" rx="3.52" ry="3.12"/><ellipse class="cls-12" cx="930.08" cy="466.74" rx="3.52" ry="3.12"/><ellipse class="cls-12" cx="357.34" cy="472.98" rx="3.52" ry="3.12"/><ellipse class="cls-12" cx="396.11" cy="463.61" rx="3.52" ry="3.12"/><ellipse class="cls-12" cx="374.97" cy="430.82" rx="3.52" ry="3.12"/><path class="cls-12" d="M609,220.29c.66,2.53-22.84-1.64-48,5.7s-42.24,25.75-42.89,23.23,13.77-28.06,38.9-35.4S608.3,217.77,609,220.29Z"/><path class="cls-12" d="M781.25,256.46c-1,2.7-17.54-18.52-41.76-28.71s-48.8-2.83-47.79-5.54,27.1-16.72,51.31-6.53S782.26,253.75,781.25,256.46Z"/><ellipse class="cls-7" cx="468.37" cy="490.94" rx="60.8" ry="64.03"/></svg>
