<svg id="Layer_1" data-name="Layer 1" xmlns="http://www.w3.org/2000/svg" xmlns:xlink="http://www.w3.org/1999/xlink" width="1920" height="1080" viewBox="0 0 1920 1080"><defs><style>.cls-1,.cls-11,.cls-12{stroke-miterlimit:10;}.cls-1{stroke-width:6px;fill:url(#linear-gradient);stroke:url(#linear-gradient-2);}.cls-2{fill:#00a24e;}.cls-3{fill:#010101;}.cls-4{fill:none;}.cls-5{fill:#edebd5;}.cls-6{fill:#1e1e1c;}.cls-7{fill:#fff;}.cls-8{fill:#723c29;}.cls-9{fill:#935934;}.cls-10{fill:#cd835d;}.cls-11,.cls-14{fill:#c96;}.cls-11,.cls-12{stroke:#c96;}.cls-12{fill:#d5975d;}.cls-13{fill:#e64165;}.cls-15{fill:#240c0e;}.cls-16,.cls-18{fill:#143d6c;}.cls-17{fill:#132237;}.cls-18{opacity:0.7;}.cls-19{fill:#d0ccb1;}.cls-20{fill:#d3d2c0;}.cls-21{fill:#d5d3c0;}.cls-22{fill:#dedcc8;}.cls-23{fill:#7e645e;}.cls-24{fill:#00823b;opacity:0.9;}.cls-25,.cls-26,.cls-27,.cls-28,.cls-29,.cls-30,.cls-31,.cls-32,.cls-33{fill:#a94672;}.cls-25{opacity:0.65;}.cls-27{opacity:0.79;}.cls-28{opacity:0.61;}.cls-29{opacity:0.72;}.cls-30{opacity:0.67;}.cls-31{opacity:0.84;}.cls-32{opacity:0.56;}.cls-33{opacity:0.75;}.cls-34{fill:#fdd777;}.cls-35{opacity:0.14;fill:url(#linear-gradient-3);}.cls-36{fill:#0c0c15;opacity:0.46;}.cls-37{fill:#d9d3a5;}</style><linearGradient id="linear-gradient" x1="-8549.32" y1="-306.57" x2="-5528.4" y2="-306.57" gradientTransform="translate(2852.95 1882.48) scale(0.27 4.81)" gradientUnits="userSpaceOnUse"><stop offset="0" stop-color="#6aacde"/><stop offset="0" stop-color="#f6fafd"/><stop offset="0" stop-color="#f2f9fe"/><stop offset="0" stop-color="#626161"/><stop offset="0" stop-color="#9dd8f7"/><stop offset="0.04" stop-color="#94d5f7"/><stop offset="0.1" stop-color="#a7dcf8"/><stop offset="0.12" stop-color="#8dd3f6"/><stop offset="0.14" stop-color="#abddf9"/><stop offset="0.2" stop-color="#80cff5"/><stop offset="0.51" stop-color="#5ea5db"/><stop offset="0.77" stop-color="#9dd8f7"/><stop offset="0.93" stop-color="#a4dbf8"/><stop offset="1" stop-color="#d2ecfc"/><stop offset="1" stop-color="#8ccbf1"/><stop offset="1" stop-color="#e8f5fc" stop-opacity="0.7"/></linearGradient><linearGradient id="linear-gradient-2" x1="-8552.32" y1="-306.57" x2="-5525.4" y2="-306.57" gradientTransform="translate(2852.95 1882.48) scale(0.27 4.81)" gradientUnits="userSpaceOnUse"><stop offset="0" stop-color="#fff"/><stop offset="1"/></linearGradient><linearGradient id="linear-gradient-3" x1="-1312.34" y1="257.23" x2="-392.06" y2="257.23" gradientTransform="matrix(2.26, 0.16, 0.43, 1.03, 2774.96, 17.02)" gradientUnits="userSpaceOnUse"><stop offset="0" stop-color="#6baade"/><stop offset="0" stop-color="#f6fafc"/><stop offset="0" stop-color="#f1f9fd"/><stop offset="0" stop-color="#626262"/><stop offset="0" stop-color="#fcec50"/><stop offset="0" stop-color="#ffe68b"/><stop offset="0.1" stop-color="#fac68b"/><stop offset="0.16" stop-color="#fbf3a3"/><stop offset="0.2" stop-color="#f8ea41"/><stop offset="0.49" stop-color="#ffda5c"/><stop offset="0.57" stop-color="#f3e62a"/><stop offset="0.77" stop-color="#f69f34"/><stop offset="0.93" stop-color="#e7a800"/><stop offset="1" stop-color="#d2ebfb"/><stop offset="1" stop-color="#8ccaf0"/><stop offset="1" stop-color="#e6f3fc" stop-opacity="0.7"/></linearGradient></defs><title>lydmenubaggrund</title><rect class="cls-1" x="564.72" y="-552.89" width="808.55" height="1920" transform="translate(561.89 1376.11) rotate(-90)"/><rect class="cls-2" x="9" y="417.21" width="1923.61" height="676.27"/><polyline class="cls-2" points="897.49 396.35 891.28 445.2 866.67 439.85"/><polyline class="cls-2" points="856.56 390.64 850.35 439.5 825.74 434.15"/><polyline class="cls-2" points="877.17 403.17 870.96 452.02 846.35 446.67"/><polyline class="cls-2" points="912.59 391.29 907.67 433.69 884.63 433.52"/><polyline class="cls-2" points="936.61 384.97 930.39 433.82 905.79 428.48"/><path class="cls-3" d="M889.3,907.18a11.89,11.89,0,0,1-3.95,9.22q-3.95,3.6-11,3.75a15,15,0,0,1-3.79-.53c-2.48-.66-3.77-1-3.88-1l-3.91-.79a7.34,7.34,0,0,1-3.42-1.71,12.8,12.8,0,0,1-3.55-5.91,29.5,29.5,0,0,0-2.58-6,10.05,10.05,0,0,1-1.53-2.12,2.9,2.9,0,0,1,.44-2.24,3.08,3.08,0,0,1,1.65-1.4,6.44,6.44,0,0,1,1.78-.16,45.26,45.26,0,0,1,6.89.65c2.72.43,4.23.82,4.56,1.17s.75,2.18,1.29,5.46c.48,3,1.21,4.73,2.18,5.08a1.66,1.66,0,0,0,.72.15c1,0,1.9-.79,2.62-2.38A12.91,12.91,0,0,0,875,903q0-6.59-4.35-8.79-10-5.09-14-9.4A15.12,15.12,0,0,1,852.37,873a23.18,23.18,0,0,1,4.4-11.48q4-5.81,8.42-6.79,1.86-.37,11.29,3.34c1.56.55,3.13,1.14,4.72,1.74a9.05,9.05,0,0,1,3.83,2.66c1.51,1.77,2.26,4.82,2.26,9.17,0,.81,0,2-.08,3.56-.06,1.37-.08,2.33-.08,2.88a9,9,0,0,0,.56,1.75,3,3,0,0,1,.32,1.66c-.1,2.23-1.1,3.47-3,3.72q-1.6.22-6-1.14c-3.22-1-5.27-2-6.13-3.11a3.93,3.93,0,0,1-.16-1.51c0-.76.1-2.48.29-5.16s.28-4.62.28-5.84q0-3.26-.81-3.18c-1.67.1-3,1.23-4.15,3.37a15.85,15.85,0,0,0-1.66,7.32q0,6.82,4.28,9.7l9.68,5.77a19.37,19.37,0,0,1,6.37,5.61Q889.3,900.66,889.3,907.18Z"/><path class="cls-3" d="M933.74,868.14a4.84,4.84,0,0,1-1.78-.49,3.17,3.17,0,0,0-1.85-.34l-8.31,2.12v39.88a12,12,0,0,0,1.13,4.77,5.44,5.44,0,0,1-.16,2.88c-.32,1.57-.83,2.56-1.53,3a2.51,2.51,0,0,1-.81.08,39,39,0,0,1-7.42-1q-5.31-1.14-6.29-2.2c-.75-.91-.72-2.12.08-3.64a7.22,7.22,0,0,0,1.05-2.88V872.77l-5.72,1.36a4.73,4.73,0,0,0-1.33.65,2.22,2.22,0,0,1-1.58.41c-1.23-.3-2.93-1.8-5.08-4.51s-3.09-4.53-2.82-5.5q.64-1.74,3.79-2.65a5.42,5.42,0,0,1,2.1-.07,6.64,6.64,0,0,0,2,0l28.07-6.75a18.84,18.84,0,0,0,2.34-.91,4.48,4.48,0,0,1,2.33-.38,3.91,3.91,0,0,1,3.07,1.67,13.89,13.89,0,0,1,1.21,3.41,20.27,20.27,0,0,1,.8,5.15,5.82,5.82,0,0,1-.44,2.54C936.3,867.78,935.35,868.09,933.74,868.14Z"/><path class="cls-3" d="M981.24,914.39c-.06.45-.17,1.54-.33,3.26a3.48,3.48,0,0,1-.64,2,3,3,0,0,1-1.37.23,22,22,0,0,1-6.61-1.29c-2.86-.81-4.79-1.77-5.81-2.88-.43-.45-.86-2-1.29-4.55a58,58,0,0,0-2-8.41,63.5,63.5,0,0,0-8.95,2.08,35.7,35.7,0,0,0-7.66,2.84c-.81,2.18-1.88,4.86-3.23,8-.16.71-.33,1.38-.52,2a2.67,2.67,0,0,1-1.41,1.55,1.39,1.39,0,0,1-.73.16c-1.29,0-3.45-.64-6.49-1.9s-4.61-2.1-4.72-2.5q-.32-1.07,1.54-5.23c1.72-4.05,2.71-6.52,3-7.43a4.49,4.49,0,0,1-1.69-3.19,4.22,4.22,0,0,1,.08-.83c.1-.61,1.74-1.69,4.92-3.26l10.4-33.43a12.07,12.07,0,0,0,.08-3.34q-.16-2,.48-2.58a3.22,3.22,0,0,1,1.94-.37,46.58,46.58,0,0,1,10.8,1.81q7,1.83,8.39,3.26.48,8.41,3.63,25.25Q977,906.51,981.24,914.39Zm-21-23q-1.05-4.77-1.29-6.29a92.46,92.46,0,0,1-1.21-10.54q-1.62,3.72-3.79,10.31a56,56,0,0,0-2.5,8.64A80.91,80.91,0,0,1,960.19,891.34Z"/><path class="cls-3" d="M1032.68,908.47c.49.86-.47,3-2.86,6.33s-4.4,5-6,5a4.82,4.82,0,0,1-4.11-2.58,9.79,9.79,0,0,0-1.21-2.2l-17-14.93v14a4.81,4.81,0,0,0,.69,2.13,4.74,4.74,0,0,1,.69,1.89c0,1.52-1.05,2.35-3.15,2.5a25.2,25.2,0,0,1-7.18-.83q-5.16-1.07-5.16-2.28a3.81,3.81,0,0,1,.2-1,5.33,5.33,0,0,0,.21-1.63V861.92a1.86,1.86,0,0,0-.25-.94,1.49,1.49,0,0,1-.24-.65c.05-1.36,1.13-2.17,3.23-2.42a15,15,0,0,1,4.39.72,19,19,0,0,0,4.88.79q1.37-.07,5.61-2.08a17.69,17.69,0,0,1,7.37-2,14.53,14.53,0,0,1,2.5.23,9.32,9.32,0,0,1,4.12,2c1.23,1,2.42,2,3.54,3q4.44,3.95,4.6,4.17a8,8,0,0,1,2.26,5.08q.48,8.79-16,22.59,3.39,2.88,14.92,14a15,15,0,0,1,2.1.91A12.47,12.47,0,0,1,1032.68,908.47Zm-17.82-42.38q-3.79,0-13.39,7.43v11.6c2.32-.86,5.35-3.46,9.12-7.81s5.64-7.58,5.64-9.7C1016.23,866.6,1015.77,866.09,1014.86,866.09Z"/><path class="cls-3" d="M1075.9,868.14a4.75,4.75,0,0,1-1.77-.49,3.17,3.17,0,0,0-1.85-.34l-8.31,2.12v39.88a12,12,0,0,0,1.13,4.77,5.55,5.55,0,0,1-.16,2.88c-.32,1.57-.84,2.56-1.53,3a2.51,2.51,0,0,1-.81.08,39,39,0,0,1-7.42-1c-3.55-.76-5.64-1.49-6.29-2.2-.75-.91-.73-2.12.08-3.64a7.22,7.22,0,0,0,1-2.88V872.77l-5.73,1.36a4.87,4.87,0,0,0-1.33.65,2.19,2.19,0,0,1-1.57.41q-1.86-.45-5.08-4.51t-2.82-5.5q.65-1.74,3.79-2.65a5.4,5.4,0,0,1,2.1-.07,6.64,6.64,0,0,0,2,0l28.06-6.75a17.63,17.63,0,0,0,2.34-.91,4.53,4.53,0,0,1,2.34-.38,3.91,3.91,0,0,1,3.07,1.67,14,14,0,0,1,1.2,3.41,19.89,19.89,0,0,1,.81,5.15,5.82,5.82,0,0,1-.44,2.54C1078.47,867.78,1077.52,868.09,1075.9,868.14Z"/><rect class="cls-4" x="541.95" y="478.1" width="969.33" height="557.63"/><rect class="cls-4" x="1342.27" y="530.53" width="15.7"/><rect class="cls-4" x="1125.1" y="645.67" width="15.7"/><line class="cls-4" x1="699.33" y1="925.15" x2="786.18" y2="808.16"/><polyline class="cls-2" points="1488.07 389.68 1479.26 444.63 1444.36 438.62"/><polyline class="cls-2" points="1393.83 382.4 1385.02 437.35 1350.12 431.33"/><polyline class="cls-2" points="683.17 392.05 674.36 447 639.46 440.98"/><polyline class="cls-2" points="747.56 390.3 738.4 458.06 696.6 449.76"/><polyline class="cls-2" points="608.6 390.95 599.44 458.71 557.64 450.41"/><polyline class="cls-2" points="1430.02 383.26 1421.21 438.22 1386.31 432.2"/><polyline class="cls-2" points="1606.15 378.46 1597.34 433.41 1562.44 427.4"/><polyline class="cls-2" points="712.46 394.89 703.64 449.84 668.74 443.82"/><polyline class="cls-2" points="652.31 385.01 643.5 439.96 608.6 433.94"/><polyline class="cls-2" points="1459.25 397.36 1450.44 452.31 1415.54 446.29"/><polyline class="cls-2" points="350.97 374.44 341.81 442.19 300.01 433.89"/><polyline class="cls-2" points="435.48 387.86 426.67 442.81 391.76 436.79"/><polyline class="cls-2" points="816.31 392.93 807.5 447.88 772.6 441.87"/><polyline class="cls-2" points="596.49 382.45 589.14 437.29 555.36 430.54"/><polyline class="cls-2" points="1509.49 383.99 1502.51 431.68 1469.84 431.5"/><path class="cls-5" d="M356.64,687c11.85,2.74,23.74.3,31.63-7.68,13.11-13.28,10.2-36.82-6.49-52.59-16.09-15.18-39.09-17.61-52.48-5.91-27.74-18.77-58.62-37.69-61.42-40.31L221.51,523l.6-.57c12.55-12.7,9.76-35.24-6.22-50.33s-39.11-17-51.66-4.33c-7.57,7.66-9.55,18.89-6.44,29.91-13-5.68-27.36-4.34-36.19,4.61-12,12.13-9.33,33.66,5.94,48.08,11,10.38,25.52,14.24,37.27,11.06l75.78,45.75c3,2.79,26.56,35.62,48.51,62.91-7.25,12.94-3.34,31.44,10.4,44.41,15.89,15,38.89,16.93,51.37,4.3C358.86,710.72,360.59,698.63,356.64,687Z"/><path class="cls-5" d="M361.29,522.88a45.27,45.27,0,0,0,1.12-41.49,47,47,0,0,0-61.58-22.63,45,45,0,0,0-23,58.11c-29.87,21.71-60.89,47-64.73,48.79l-79.58,21.26c-.16-.34-.3-.68-.46-1a45,45,0,0,0-58.94-21.66,43.13,43.13,0,0,0-21,58.07,45,45,0,0,0,31.88,24.74,41.32,41.32,0,0,0-6,45.07,42.94,42.94,0,0,0,56.3,20.69,41.06,41.06,0,0,0,24.12-37.33L234.8,613c4.08-1.87,48.59-10.64,86.33-20.67a44.64,44.64,0,0,0,53.53,13.34,42.87,42.87,0,0,0,20.83-57.73A44.81,44.81,0,0,0,361.29,522.88Z"/><path class="cls-6" d="M242.07,593c-.09,1.78-.45,2.8-1.06,3-.88.34-2.62.27-5.27-.26-2.82-.55-4.5-1.25-5-2.08a2.81,2.81,0,0,1-.32-1,8.75,8.75,0,0,1,0-1.28,9,9,0,0,0-.07-1.47q-2.16-14.7-4.3-29.4c-1.49,3.88-2.83,12.73-3.31,27.31a3.23,3.23,0,0,0,0,.6,18.37,18.37,0,0,0,.58,2.13c.31,1,.48,1.59.53,1.86a23.82,23.82,0,0,1,.29,2.69,1.78,1.78,0,0,1-.91,1.74,6.3,6.3,0,0,1-1.93.44c-4.88.6-8.46,0-10.8-1.94a2.56,2.56,0,0,1-.74-1.75,9.61,9.61,0,0,0-.46-2.08c-2.65-5.31-5.09-10.08-7.26-14.25-5.25-10.08-8.82-16.37-10.19-18.27L199.29,589a13,13,0,0,0,1.14,2.66c.74,1.36,1.16,2.21,1.29,2.55a20,20,0,0,1,1,3.57c.34,1.7.33,2.78,0,3.25a1.94,1.94,0,0,1-1.22.49,16.13,16.13,0,0,1-5.19-.25c-2.24-.36-3.66-.89-4.24-1.57a3.44,3.44,0,0,1-.66-1.31,11.54,11.54,0,0,1-.23-1.6,10.12,10.12,0,0,0-.28-1.76l-15.36-55.94a3.42,3.42,0,0,1,.11-2.06,1.88,1.88,0,0,1,1.2-1.35c.7-.25,4,.91,9.78,3.23,6,2.36,9.23,4,9.81,5.15a4.88,4.88,0,0,1,.47,1.75c.09,1,.16,1.59.2,1.79a4.1,4.1,0,0,0,.47,1.18q7.63,13.61,14.39,26.19c.34-4.13.77-12.51,1.92-24.47.56-6.1,1.46-9.13,2.5-9.26a4.18,4.18,0,0,1,1.12,0,28.36,28.36,0,0,1,4.15,1.08,33.2,33.2,0,0,0,4.45,1.28c3.78.72,5.94,1.12,6.52,1.27,2.26.61,3.58,1.41,4,2.42a3.32,3.32,0,0,1,.23.94,5.61,5.61,0,0,1-.17,1.73,6.46,6.46,0,0,0-.17,1.67q2,18.92,3.92,37.84a4.4,4.4,0,0,0,.91,1.79A3.11,3.11,0,0,1,242.07,593Z"/><path class="cls-6" d="M269.52,582.31c.34.53-.53,2.17-2.48,5a24,24,0,0,1-5.94,6.39,2.49,2.49,0,0,1-1,.26,16,16,0,0,1-5.78-.88c-2.57-.71-4.31-1.6-5.18-2.65-2.41-2.8-3.91-6.95-4.34-12.3-.4-5.08.3-9.56,2.27-13.3,2.12-4.1,5.18-6,9-5.89a16,16,0,0,1,5,1.16,17.57,17.57,0,0,1,5.86,3.42c.39.34.73,1.35,1,3a21.06,21.06,0,0,1,.46,5.19c-.09,2.5-.61,4.22-1.54,5.2A57.18,57.18,0,0,1,254,579.28a20.32,20.32,0,0,0,.93,6c.62,2.06,1.21,3.08,1.79,3.08.77,0,1.68-.7,2.77-2a9.36,9.36,0,0,0,1.82-2.87,25.83,25.83,0,0,1,1.15-3.53,10.78,10.78,0,0,1,3.79.79C268.16,581.26,269.22,581.81,269.52,582.31Zm-10.85-17.08c-.74-.09-1.76.9-3,3a14.1,14.1,0,0,0-2,6.19,8.57,8.57,0,0,0,4.47-1.28c.66-.46,1-2.36.94-5.7C259,566.06,258.89,565.32,258.67,565.23Z"/><path class="cls-6" d="M299.81,586.84a3.74,3.74,0,0,1,0,1.85,3,3,0,0,1-1.79,2.09,5.34,5.34,0,0,1-1.45.23,22.43,22.43,0,0,1-4.45-.26,6.94,6.94,0,0,1-3.05-.85.8.8,0,0,1-.17-.65,5.24,5.24,0,0,1,1.17-1.85,5.31,5.31,0,0,0,1.2-1.84q3.74-20,3.25-20.12c-.58-.18-2.38,1.3-5.22,4.52-3,3.41-4.5,6.06-4.73,7.82-.43,3.24-.85,6.48-1.28,9.73a1.76,1.76,0,0,1,.53,1.62,3.48,3.48,0,0,1-2.28,2.82,1.87,1.87,0,0,1-.69.15,20.35,20.35,0,0,1-4.38-.34c-1.92-.31-3-.6-3.21-.87a1.37,1.37,0,0,1-.27-.95,2.43,2.43,0,0,1,.75-1.33,3.29,3.29,0,0,0,.74-1l1.89-25a2,2,0,0,0-.44-1.14,1.18,1.18,0,0,1-.25-1.2,2.54,2.54,0,0,1,2.19-1.36,17.63,17.63,0,0,1,5,.8c2.81.68,4.29,1.3,4.48,1.9a2.37,2.37,0,0,1-.43,1.71,13.73,13.73,0,0,0-1,2.06,3.43,3.43,0,0,0,.1,1.25,16.33,16.33,0,0,1,3.4-4.53c1.71-1.57,3.32-2.31,4.8-2.26a18.43,18.43,0,0,1,5.69,1.4c2.25.86,3.46,1.6,3.67,2.23C304.35,565.64,303.07,573.42,299.81,586.84Z"/><path class="cls-6" d="M342.5,562.72a1,1,0,0,1,0,.92,3.43,3.43,0,0,1-1.28,1.08,4.42,4.42,0,0,0-1.15.81q-5,10.59-9.94,21.19a1.9,1.9,0,0,0-.08.94,2.09,2.09,0,0,1-.11,1c-.26.55-1,1-2.3,1.25a12.86,12.86,0,0,1-4-.35c-2.19-.4-3.32-.85-3.35-1.34a2.55,2.55,0,0,1,.82-1.63,8.22,8.22,0,0,0,1.24-1.69,5.35,5.35,0,0,0,.32-1.21,27.06,27.06,0,0,1-4.06,4.22c-1.81,1.48-3.3,2.26-4.54,2.31a12.37,12.37,0,0,1-4.6-.86c-1.81-.65-2.79-1.27-2.92-1.87q-.69-3,4.81-22.87a3.46,3.46,0,0,1,0-1.86,2.8,2.8,0,0,1,2.11-2,6.63,6.63,0,0,1,1.72-.09,32.4,32.4,0,0,1,5.29.65c2,.39,3.14.76,3.47,1.11a.62.62,0,0,1,.11.62,5.45,5.45,0,0,1-1.59,1.66,5.46,5.46,0,0,0-1.56,1.66q-6.56,18.66-6.12,18.78c.49.15,2.34-1.36,5.73-4.45s5.52-5.38,6.15-7l3.49-8.68a1.29,1.29,0,0,1-.26-1.51,4.19,4.19,0,0,1,3.26-2.41,2.89,2.89,0,0,1,.85-.07,30.67,30.67,0,0,1,5.06.69C341.25,562.19,342.38,562.5,342.5,562.72Z"/><ellipse class="cls-7" cx="1416.46" cy="137.33" rx="38.4" ry="27.47"/><ellipse class="cls-7" cx="1523.43" cy="143.16" rx="39" ry="27.9"/><ellipse class="cls-7" cx="1494.78" cy="167.55" rx="40.38" ry="32.15"/><ellipse class="cls-7" cx="1470.76" cy="135.41" rx="37.72" ry="26.98"/><ellipse class="cls-7" cx="1435.64" cy="181.73" rx="35.12" ry="29.48"/><ellipse class="cls-7" cx="1391.18" cy="169.71" rx="28.6" ry="16.55"/><ellipse class="cls-7" cx="1384.67" cy="143.16" rx="28.6" ry="16.55"/><ellipse class="cls-7" cx="579.95" cy="72.07" rx="33.34" ry="26.64"/><ellipse class="cls-7" cx="672.84" cy="77.73" rx="33.87" ry="27.06"/><ellipse class="cls-7" cx="647.95" cy="101.39" rx="35.06" ry="31.18"/><ellipse class="cls-7" cx="627.1" cy="70.21" rx="32.75" ry="26.17"/><ellipse class="cls-7" cx="596.6" cy="115.14" rx="30.5" ry="28.59"/><ellipse class="cls-7" cx="557.99" cy="103.48" rx="24.84" ry="16.05"/><ellipse class="cls-7" cx="552.33" cy="77.73" rx="24.84" ry="16.05"/><circle class="cls-5" cx="736.18" cy="382.4" r="20.94"/><ellipse class="cls-7" cx="97.62" cy="77.4" rx="28.32" ry="20.23"/><ellipse class="cls-7" cx="176.51" cy="81.7" rx="28.76" ry="20.55"/><ellipse class="cls-7" cx="155.38" cy="99.67" rx="29.78" ry="23.68"/><ellipse class="cls-7" cx="137.67" cy="75.99" rx="27.82" ry="19.87"/><ellipse class="cls-7" cx="111.77" cy="110.11" rx="25.9" ry="21.71"/><ellipse class="cls-7" cx="78.98" cy="101.26" rx="21.09" ry="12.19"/><ellipse class="cls-7" cx="74.18" cy="81.7" rx="21.09" ry="12.19"/><ellipse class="cls-7" cx="1781.76" cy="83.83" rx="27.5" ry="20.61"/><ellipse class="cls-7" cx="1858.38" cy="88.2" rx="27.94" ry="20.93"/><ellipse class="cls-7" cx="1837.85" cy="106.51" rx="28.92" ry="24.12"/><ellipse class="cls-7" cx="1820.65" cy="82.39" rx="27.02" ry="20.24"/><ellipse class="cls-7" cx="1795.5" cy="117.15" rx="25.15" ry="22.12"/><ellipse class="cls-7" cx="1763.65" cy="108.13" rx="20.49" ry="12.42"/><ellipse class="cls-7" cx="1758.99" cy="88.2" rx="20.49" ry="12.42"/><ellipse class="cls-7" cx="297.75" cy="154.18" rx="27.5" ry="20.61"/><ellipse class="cls-7" cx="374.37" cy="158.55" rx="27.94" ry="20.93"/><ellipse class="cls-7" cx="353.84" cy="176.85" rx="28.92" ry="24.12"/><ellipse class="cls-7" cx="336.64" cy="152.74" rx="27.02" ry="20.24"/><ellipse class="cls-7" cx="311.49" cy="187.49" rx="25.15" ry="22.12"/><ellipse class="cls-7" cx="279.64" cy="178.47" rx="20.49" ry="12.42"/><ellipse class="cls-7" cx="274.98" cy="158.55" rx="20.49" ry="12.42"/><circle class="cls-5" cx="856.56" cy="418.5" r="16.43"/><circle class="cls-5" cx="794.46" cy="407.38" r="16.43"/><polyline class="cls-2" points="1606.15 398.7 1597.34 453.65 1562.44 447.63"/><polyline class="cls-2" points="1818.47 394.76 1809.66 449.71 1774.76 443.69"/><polyline class="cls-2" points="1671.57 413.65 1662.76 468.61 1627.86 462.59"/><polyline class="cls-2" points="1721.81 400.28 1714.83 447.98 1682.16 447.8"/><polyline class="cls-2" points="1565.41 386.87 1556.6 441.82 1521.7 435.8"/><polyline class="cls-2" points="1777.73 382.93 1768.92 437.88 1734.02 431.87"/><polyline class="cls-2" points="1630.84 401.83 1622.03 456.78 1587.13 450.76"/><polyline class="cls-2" points="1681.08 388.46 1674.09 436.15 1641.42 435.97"/><polyline class="cls-2" points="1720.3 391.93 1711.48 446.88 1676.58 440.86"/><polyline class="cls-2" points="1932.61 387.99 1923.8 442.94 1888.9 436.92"/><polyline class="cls-2" points="1785.72 406.88 1776.91 461.83 1742.01 455.82"/><polyline class="cls-2" points="1835.96 393.51 1828.98 441.21 1796.31 441.02"/><polyline class="cls-2" points="1543.56 376.89 1534.75 431.84 1499.85 425.82"/><polyline class="cls-2" points="1755.88 372.95 1747.07 427.9 1712.16 421.88"/><polyline class="cls-2" points="1608.98 391.85 1600.17 446.8 1565.27 440.78"/><polyline class="cls-2" points="1659.22 378.48 1652.24 426.17 1619.57 425.99"/><polyline class="cls-2" points="1654.3 376.89 1644.57 431.84 1606.01 425.82"/><polyline class="cls-2" points="1888.9 372.95 1879.17 427.9 1840.61 421.88"/><polyline class="cls-2" points="1726.59 391.85 1716.86 446.8 1678.29 440.78"/><polyline class="cls-2" points="1782.11 378.48 1774.39 426.17 1738.29 425.99"/><polyline class="cls-2" points="40.33 388.81 34.01 446.98 9 440.61"/><polyline class="cls-2" points="182.59 403.06 176.27 461.23 151.26 454.86"/><polyline class="cls-2" points="84.24 403.28 77.93 461.45 52.92 455.08"/><polyline class="cls-2" points="120.25 389.12 115.25 439.62 91.83 439.42"/><polyline class="cls-2" points="120.25 389.12 111.44 444.07 76.54 438.06"/><polyline class="cls-2" points="72.01 383.67 63.2 438.62 28.3 432.6"/><polyline class="cls-2" points="91.43 396.8 82.62 451.75 47.72 445.73"/><polyline class="cls-2" points="148.88 384.46 141.9 432.16 109.23 431.98"/><polyline class="cls-2" points="182.59 403.06 173.78 458.01 138.88 451.99"/><polyline class="cls-2" points="79.04 396.79 72.73 454.96 47.72 448.59"/><polyline class="cls-2" points="107.09 392.38 98.28 447.33 63.38 441.31"/><polyline class="cls-2" points="12.28 397.75 44.32 443.25 15.13 463.31"/><polyline class="cls-2" points="1361.46 387.4 1387.69 436.49 1356.26 452.81"/><path class="cls-8" d="M778.08,169.59l31.26,27c17.54,15.16,18.83,41,2.86,57.63l-5.41,5.65c-15.95,16.65-43.09,17.87-60.62,2.71l-31.27-27c-17.54-15.16-18.82-41-2.86-57.62l5.41-5.65C733.41,155.65,760.55,154.44,778.08,169.59Z"/><path class="cls-8" d="M1128.11,240l-25.95,24.65c-16.76,15.92-43.93,15.92-60.69,0l-4-3.74a39.38,39.38,0,0,1,0-57.69l26-24.65c16.76-15.92,43.93-15.92,60.69,0l3.94,3.75A39.35,39.35,0,0,1,1128.11,240Z"/><path class="cls-9" d="M607.47,762.87c-49-113.33-73-211.31-53.7-218.85s74.74,78.2,123.74,191.52"/><path class="cls-8" d="M1182.92,978.89l-255.18,6.93a63.25,63.25,0,0,1-18.84,2.12L632.53,977.53q-2.88-.1-5.75-.47L531.9,964.8c-46.79-6-68.58-58.39-38.8-93.19L800.85,511.92c18.46-21.57,50.53-27.5,76.16-14.08l183.84,96.25A58.3,58.3,0,0,1,1089,626.21l81.61,231.92C1181.59,889.24,1216.16,970,1182.92,978.89Z"/><path class="cls-9" d="M699.52,442.86c0-147.22,98.38-266.57,219.75-266.57S1139,295.64,1139,442.86"/><path class="cls-10" d="M1024.34,561.66c0,53.43-47,96.74-105.07,96.74s-105.08-43.31-105.08-96.74"/><ellipse class="cls-11" cx="1089.6" cy="540.08" rx="125.97" ry="115"/><path class="cls-7" d="M942.08,436.13c0-56.61,21.39-102.49,47.77-102.49s47.77,45.88,47.77,102.49"/><path class="cls-7" d="M803.64,436.13c0-58.7,21.68-106.29,48.42-106.29s48.43,47.59,48.43,106.29"/><ellipse class="cls-12" cx="766.08" cy="540.08" rx="119.1" ry="113.13"/><ellipse class="cls-7" cx="838.24" cy="378.09" rx="18.88" ry="17.93"/><ellipse class="cls-8" cx="851.15" cy="391.3" rx="26.86" ry="25.52"/><ellipse class="cls-8" cx="992.22" cy="390.57" rx="26.09" ry="24.79"/><path class="cls-13" d="M862.16,573.46c-29.58,71.73-40.77,134.64-25,140.51s52.53-47.53,82.11-119.27"/><ellipse class="cls-8" cx="699.52" cy="259.77" rx="112.11" ry="41.26" transform="translate(128.73 740.4) rotate(-60.47)"/><ellipse class="cls-8" cx="1140.25" cy="255.39" rx="38.89" ry="102.46" transform="translate(36.06 637.71) rotate(-31.72)"/><ellipse class="cls-13" cx="857.12" cy="723.54" ry="13.81"/><ellipse class="cls-14" cx="926.38" cy="510.82" rx="257.19" ry="83.86"/><path class="cls-3" d="M881.45,465c0-24.41,18.39-44.19,41.09-44.19s41.09,19.78,41.09,44.19"/><path class="cls-15" d="M1089.6,993.25c0-55.65,29.38-100.76,65.62-100.76s65.62,45.11,65.62,100.76"/><path class="cls-15" d="M861.07,1017.74c0-56.69,32.69-102.64,73-102.64s73,45.95,73,102.64"/><path class="cls-15" d="M427,966.42c0-57.46,29.21-104,65.24-104s65.24,46.58,65.24,104"/><path class="cls-15" d="M647,986.57c0-55.82,28-101.07,62.52-101.07S772,930.75,772,986.57"/><ellipse class="cls-3" cx="852.06" cy="386.49" rx="17.53" ry="16.65"/><ellipse class="cls-3" cx="992.22" cy="386.49" rx="17.53" ry="16.65"/><ellipse class="cls-7" cx="843.74" cy="383.33" rx="1.82" ry="6.31" transform="translate(-79.39 301.7) rotate(-19.38)"/><ellipse class="cls-7" cx="986.96" cy="378.09" rx="2.89" ry="4.7"/><ellipse class="cls-7" cx="983.23" cy="384.77" rx="1.95" ry="6.15" transform="translate(-72.49 368.93) rotate(-20.51)"/><ellipse class="cls-7" cx="849.07" cy="378.47" rx="2.89" ry="4.7"/><ellipse class="cls-3" cx="1161.42" cy="478.77" rx="3.03" ry="2.88"/><ellipse class="cls-3" cx="1197.01" cy="505.07" rx="3.03" ry="2.88"/><ellipse class="cls-3" cx="1161.42" cy="516.57" rx="3.03" ry="2.88"/><ellipse class="cls-3" cx="666.17" cy="522.47" rx="3.03" ry="2.88"/><ellipse class="cls-3" cx="699.52" cy="513.7" rx="3.03" ry="2.88"/><ellipse class="cls-3" cx="680.53" cy="485.17" rx="3.03" ry="2.88"/><path class="cls-16" d="M1390.12,802.29,1479,1018.18a2.91,2.91,0,0,0,.31.55c1.91,2.59,18.34,25.26,8.72,25.26l-656.2-4.75c-8.79,0-42.11,2.87-50.79-1.76-1.62-.86-.85,1.85,0,0L888.25,802.29"/><ellipse class="cls-17" cx="1140.02" cy="811.67" rx="256.95" ry="56.32"/><ellipse class="cls-18" cx="1149.49" cy="850.63" rx="256.95" ry="56.32"/><path class="cls-3" d="M892.32,288.84c.77,2.79-26.85-4.43-56.23,3.68S786.71,321,785.94,318.19s16.1-31,45.48-39.11S891.55,286.05,892.32,288.84Z"/><path class="cls-3" d="M1066.78,329.92c-1.19,3-18.27-20.92-46.59-32.18s-57.14-5.62-56-8.61,32.61-17.66,60.93-6.39S1068,326.93,1066.78,329.92Z"/><ellipse class="cls-19" cx="85.74" cy="739.1" rx="56.86" ry="72.88" transform="translate(-51.48 7.81) rotate(-4.01)"/><ellipse class="cls-19" cx="83.27" cy="862.14" rx="54.32" ry="69.62" transform="matrix(1, -0.07, 0.07, 1, -60.09, 7.93)"/><ellipse class="cls-19" cx="408.84" cy="715.8" rx="59.4" ry="76.14" transform="translate(-49.06 30.34) rotate(-4.01)"/><ellipse class="cls-19" cx="422.01" cy="837.71" rx="56.54" ry="72.46" transform="translate(-57.55 31.56) rotate(-4.01)"/><path class="cls-19" d="M253.92,837.55,105.73,900.77c-10.49.8-20.66-21-22.7-48.76l-5.19-70.47c-2-27.72,4.8-50.84,15.29-51.63L248.8,751.78c10.49-.79,181.78-75.22,183.82-47.49l10.94,148.39C445.61,880.4,264.42,836.75,253.92,837.55Z"/><path class="cls-3" d="M180,834.13c1.14,7.13.53,13.29-1.74,18.73a18.86,18.86,0,0,1-11.26,11,10.16,10.16,0,0,1-4.45.32c-3-.41-4.6-.6-4.71-.56-1.55,0-3.12-.1-4.71-.19a6.79,6.79,0,0,1-4.5-2.27c-2.09-2-4.18-5.71-6.28-11.19-2.51-6.38-4.3-10.43-5.31-12a24.81,24.81,0,0,1-2.62-4.15,11.36,11.36,0,0,1-.38-5,5.69,5.69,0,0,1,1.38-3.46,4.84,4.84,0,0,1,2-.76,30.37,30.37,0,0,1,8.35-.31c3.36.25,5.28.69,5.79,1.34s1.68,4.31,3.48,10.88c1.65,6.06,3.07,9.27,4.31,9.68a1.19,1.19,0,0,0,.89.08c1.17-.31,1.9-2.18,2.2-5.57a43.28,43.28,0,0,0-.59-11.16q-2.25-13.2-8.24-16.86c-9.16-5.62-16-11.55-20.41-17.4-5.11-6.77-8.47-15.4-10-25.56a73.24,73.24,0,0,1,.67-25.64c1.75-8.52,4.42-13.29,8-14.49,1.48-.48,6.79,2.31,15.79,7.82,2.2,1.24,4.43,2.52,6.68,3.82a18.35,18.35,0,0,1,5.83,5.54q3.81,5.42,6,18.36c.27,1.61.64,4,1.09,7.08.39,2.7.68,4.61.86,5.71a28.43,28.43,0,0,0,1.28,3.39,10,10,0,0,1,.94,3.25c.59,4.37-.22,6.91-2.43,7.64-1.26.44-3.8-.06-7.66-1.53-4.26-1.55-7.13-3.45-8.59-5.65a13.27,13.27,0,0,1-.75-3.12q-.42-2.34-1.55-10.7t-1.82-12.17c-.81-4.53-1.55-6.76-2.21-6.65-2.06.2-3.38,2.58-3.93,7.16a52.47,52.47,0,0,0,.75,15.59c1.75,9.64,4.71,16.27,8.87,19.84q6.91,5.28,13.7,10.2a34.9,34.9,0,0,1,9.47,9.86Q178,821.71,180,834.13Z"/><path class="cls-3" d="M212.52,780.62a8.77,8.77,0,0,1-.61,4.35c-.56,1.3-1.27,2-2.13,2a1.86,1.86,0,0,1-.72-.08c-1-.38-3.12-.45-6.36-.21q3.92,27,7.51,53.28a20.9,20.9,0,0,1,.9,2,14.73,14.73,0,0,1,1.14,3.83,4.21,4.21,0,0,1-3.14,5c-1.28.41-3.76.24-7.45-.58-4-.84-6.28-2-6.76-3.54a12.29,12.29,0,0,1,0-4.25,20.64,20.64,0,0,0,.13-5q-3.66-24.53-7.58-49.71l-3.37.28c-1.25.11-3.05-1.35-5.43-4.47s-3.75-5.69-4.07-7.65a6.58,6.58,0,0,1,.5-4,2.71,2.71,0,0,1,2.28-1.87l7.26-.27c-.68-4.3-1.37-8.63-2.06-13a15.34,15.34,0,0,1-2.55-6.25c-.33-2,.09-3.29,1.25-3.75a8.37,8.37,0,0,1,2.54-.23,33.75,33.75,0,0,1,9.21,1.84c3.58,1.15,6,2.27,7.16,3.39a3.31,3.31,0,0,1,1,1.95,8.38,8.38,0,0,1-1,4.14,10.31,10.31,0,0,0-1.16,3.89l1.11,7.47,3.24-.1c.68,0,2.34,1.59,5,4.75S212.34,779.28,212.52,780.62Z"/><path class="cls-3" d="M271,832.05a4.83,4.83,0,0,1-.93,2.94,2.81,2.81,0,0,1-2.28,1.35q-11.81.27-13.46-3a2.34,2.34,0,0,1-.28-.92,2.74,2.74,0,0,1,.3-1.38,4.15,4.15,0,0,0,.41-1.34,3,3,0,0,1,.28-1.07,23.9,23.9,0,0,0-.29-4.17c-.7.83-1.66,2.92-2.88,6.3a37.59,37.59,0,0,1-3.44,8c-1.77,2.81-3.9,4.52-6.45,5.08a5.49,5.49,0,0,1-4.63-1.37,49.31,49.31,0,0,1-4.19-4.06c-3.52-3.89-5.48-6.09-5.78-6.46a13.43,13.43,0,0,1-2.82-6.41,11.05,11.05,0,0,1-.07-2.08c.27-7.74,3.14-15.5,8.84-22.83,4.15-5.29,10.3-10.92,18.62-16.61-.26-2.58-1-4.22-2.13-4.9-.72-.45-3,.55-6.76,3.13a35.46,35.46,0,0,0-7.72,6.6,33,33,0,0,1-2.26,3,3.16,3.16,0,0,1-3,1c-.76-.19-2.49-1.58-5.25-4.24s-4.31-4.52-4.63-5.46c-.85-2.33-.53-4.21,1-5.6.06-.08,1.33-.67,3.84-1.74q3.4-2.75,6.86-5.42c4.91-3.29,9.25-5,12.92-5.31,1.57-.1,3.47.87,5.67,2.87,2,1.83,3.95,3.63,5.94,5.37s4,3.41,6,5c2.37,2.12,3.64,4.17,3.81,6.2q1.95,22.15,3.58,43.75A11.9,11.9,0,0,1,271,832.05ZM252.59,800a20.93,20.93,0,0,0-7.51,7.94l-4.2,8.41a30.82,30.82,0,0,0-3,7.33,18.68,18.68,0,0,0-1.07,6.45c.07.66.3,1,.68.89,1.33-.24,3.85-4.57,7.76-12.63S251.63,804.31,252.59,800Z"/><path class="cls-3" d="M314.41,772a2.43,2.43,0,0,1-1,2.79,23.79,23.79,0,0,0-2.32,1.45c-4.06,7-9.49,16.49-16,29,.56,11.52.82,17.38.91,17.73s.36,1.23.83,2.64a13.19,13.19,0,0,1,.76,3.38,3.22,3.22,0,0,1-1.51,3,7,7,0,0,1-2.81,1,19.53,19.53,0,0,1-8-.49c-3.73-.84-5.68-2.43-5.83-4.74a12,12,0,0,1,.55-3.36,12,12,0,0,0,.53-3.8q-1.41-22.12-3.16-44.83c-1.08-4.25-1.64-6.49-1.66-6.64-.19-2.39.65-3.9,2.54-4.54a11.36,11.36,0,0,1,3-.37,25.73,25.73,0,0,1,7.71,1.22q4.08,1.24,4.89,2.67a2.83,2.83,0,0,1,.27,1.11,44.46,44.46,0,0,1-1.13,5.35c.11,1.78.21,3.55.31,5.31q2.18-4.85,4.29-9.63c1.92-4,3.41-6.09,4.44-6.32,1.51-.3,3.89.64,7.1,2.75S314,770.54,314.41,772Z"/><path class="cls-3" d="M358.39,774.84a5.49,5.49,0,0,1-1.34,3.15,3.49,3.49,0,0,1-2.51,1.45,2.32,2.32,0,0,1-.72-.07,25.72,25.72,0,0,0-6.46-.25q-.33,19.53-1,38.64a9.14,9.14,0,0,1,.58,1.47,7.52,7.52,0,0,1,.52,2.81q-.12,2.79-3.95,3.49c-1.34.25-3.77,0-7.32-.76-3.86-.79-5.93-1.74-6.18-2.84a6.8,6.8,0,0,1,.7-3,11.37,11.37,0,0,0,.9-3.55q.17-17.69,0-35.72l-3.48.13c-1.3,0-2.91-1-4.88-3.28s-3-4.11-3-5.5a4,4,0,0,1,1.12-2.85,3.59,3.59,0,0,1,2.63-1.3l7.51-.1q-.06-4.62-.13-9.26a7.4,7.4,0,0,1-1.67-4.47,2.39,2.39,0,0,1,1.87-2.67,13.19,13.19,0,0,1,2.67-.15,45,45,0,0,1,9.25,1.33c3.53.83,5.82,1.64,6.88,2.45a1.76,1.76,0,0,1,.73,1.41c0,.66-.59,1.65-1.73,3a7.44,7.44,0,0,0-1.82,2.79l-.06,5.39,3.36,0c.69,0,2.14,1.17,4.31,3.48S358.42,773.87,358.39,774.84Z"/><polyline class="cls-2" points="164.78 386.09 158.47 444.27 133.46 437.9"/><polyline class="cls-2" points="244.71 386.41 235.9 441.36 200.99 435.34"/><polyline class="cls-2" points="196.47 380.95 187.66 435.9 152.75 429.89"/><polyline class="cls-2" points="203.5 394.07 197.19 452.25 172.17 445.88"/><polyline class="cls-2" points="231.55 389.66 222.74 444.61 187.84 438.6"/><polyline class="cls-2" points="253.08 392.65 246.77 450.83 221.75 444.46"/><polyline class="cls-2" points="333 392.97 324.19 447.92 289.29 441.9"/><polyline class="cls-2" points="284.76 387.51 275.95 442.46 241.05 436.45"/><polyline class="cls-2" points="291.8 400.63 285.49 458.81 260.47 452.44"/><polyline class="cls-2" points="319.85 396.22 311.04 451.18 276.14 445.16"/><polyline class="cls-2" points="358.33 389.35 352.02 447.52 327.01 441.15"/><polyline class="cls-2" points="438.26 389.66 429.45 444.61 394.55 438.6"/><polyline class="cls-2" points="390.02 384.21 381.21 439.16 346.31 433.14"/><polyline class="cls-2" points="397.05 397.33 390.74 455.5 365.73 449.13"/><polyline class="cls-2" points="425.1 392.92 416.29 447.87 381.39 441.86"/><polyline class="cls-2" points="439.93 389.02 433.61 447.19 408.6 440.82"/><polyline class="cls-2" points="519.85 389.33 511.04 444.28 476.14 438.27"/><polyline class="cls-2" points="471.61 383.88 462.8 438.83 427.9 432.81"/><polyline class="cls-2" points="478.64 397 472.33 455.17 447.32 448.8"/><polyline class="cls-2" points="506.69 392.59 497.88 447.54 462.98 441.52"/><polyline class="cls-2" points="519.98 391.82 513.67 449.99 488.65 443.62"/><polyline class="cls-2" points="599.9 392.13 591.09 447.08 556.19 441.07"/><polyline class="cls-2" points="551.66 386.68 542.85 441.63 507.95 435.61"/><polyline class="cls-2" points="558.7 399.8 552.38 457.97 527.37 451.6"/><polyline class="cls-2" points="586.75 395.39 577.94 450.34 543.04 444.32"/><polyline class="cls-2" points="1229.82 397.32 1230.03 433.38 1217.59 426.91"/><polyline class="cls-2" points="1188.48 386.75 1185.36 429.98 1160.66 423.27"/><polyline class="cls-2" points="1161.42 395.54 1161.56 437.3 1140.01 429.18"/><polyline class="cls-2" points="1213.77 400.37 1210.36 446.19 1192.88 438.91"/><polyline class="cls-2" points="1202.39 399.16 1199.27 442.39 1174.57 435.68"/><polyline class="cls-2" points="1829.42 383.84 1823.1 442.01 1798.09 435.64"/><polyline class="cls-2" points="1909.34 384.15 1900.53 439.1 1865.63 433.09"/><polyline class="cls-2" points="1861.1 378.7 1852.29 433.65 1817.39 427.63"/><polyline class="cls-2" points="1868.13 391.82 1861.82 449.99 1836.81 443.62"/><polyline class="cls-2" points="1896.18 387.41 1887.37 442.36 1852.47 436.35"/><polyline class="cls-2" points="18.39 408.6 37.6 463.87 12.28 468.83"/><polyline class="cls-2" points="90.75 374.65 106.32 428.08 72.21 437.59"/><polyline class="cls-2" points="44.82 390.38 60.4 443.81 26.28 453.32"/><polyline class="cls-2" points="56.8 399.23 76.01 454.5 50.68 459.46"/><polyline class="cls-2" points="80.25 383.23 95.83 436.66 61.72 446.17"/><circle class="cls-20" cx="1255.66" cy="77.73" r="26.89"/><circle class="cls-21" cx="1161.42" cy="91.21" r="21.4"/><circle class="cls-20" cx="1067.77" cy="119.34" r="21.82"/><path class="cls-22" d="M1868.52,323.34c8,184.26-121.89,249.67-322.21,288.16-196.27,37.71-332.15-99.89-322.22-288.16,8.38-158.87,42.45-335.13,324.7-257.94C1721.79,112.71,1855,14,1868.52,323.34Z"/><path class="cls-3" d="M1453,145c-7.6,9-14.88,23.43-21.93,43.33-5.81,16.32-8.71,26.42-8.51,29.83a3.09,3.09,0,0,0,0,2.06,3.55,3.55,0,0,1,.18,1.85q-1.29,4.94-4.19,5.46c-1.55.33-6.3-.53-14.17-2.44-8.16-1.8-12.45-3.22-12.93-4.44-.08-.13-.08-2.31,0-6.56a93.48,93.48,0,0,1-6.07-27.77q-4.48,8.14-8.87,16.42a43.52,43.52,0,0,0-4.64,17.18,5.83,5.83,0,0,0-.19,2.59,5.42,5.42,0,0,1-.06,2.67q-1.64,4.82-4.39,5.9a10.89,10.89,0,0,1-2.29.59,58.6,58.6,0,0,1-14.59.35c-6.56-.52-10.17-1.86-10.9-4.19a36.87,36.87,0,0,0,.2-5.58,144.32,144.32,0,0,1-5.91-31.55q-1-13.83,1.27-34.48-.78-4.74-.12-6.19c1.46-3.43,3.24-5.42,5.34-5.9,2.37-.56,6.06-.41,11.11.64s7.71,2.34,8,3.57a48.18,48.18,0,0,1-.91,6.27,87.5,87.5,0,0,0-1.29,9.34c-.5,6.15,0,16,1.62,29.45,7.8-17,15.51-33.82,23.11-50.25a17.18,17.18,0,0,1,1.94-4,8.24,8.24,0,0,1,4.28-2.3c1-.22,4.62.59,10.82,2.65s9.35,3.66,9.38,4.56c0,.5-.26,2.86-.72,7.09q-.9,7.53-1.26,13.13a103.79,103.79,0,0,0,.75,23.42,293.32,293.32,0,0,1,11.69-30.32c3.56-8.2,6.24-13.68,8.08-16.56q1.82-5.17,7.61-4.36a47.32,47.32,0,0,1,10.16,2.82C1449.46,141.11,1452.26,143.05,1453,145Z"/><path class="cls-3" d="M1525.68,220a4.33,4.33,0,0,1-3.25,3.26,16,16,0,0,1-3.66.09,90.78,90.78,0,0,1-11.79-1.51q-6.82-1.26-8.26-2.26a1.45,1.45,0,0,1-.55-1.16,7.36,7.36,0,0,1,1.38-2.81l1.93-1.59a2.93,2.93,0,0,0,1.07-2.29q1.15-37.42,0-37.81c-1.42-.44-4.74,1.57-10,6.21-5.67,4.93-8.58,9.12-8.68,12.36q-.35,10.77-.7,21.54a3.37,3.37,0,0,1,1.47,4.11c-.65,2-2.24,3.32-4.78,4a6.16,6.16,0,0,1-1.76.17,83.11,83.11,0,0,1-11.42-1.25c-5-.81-7.72-1.38-8.19-1.78q-1.52-1.57-.13-3.69a4.9,4.9,0,0,1,1.42-1c.84-.5,1.27-1,1.29-1.45q1.48-35.16,2.94-70.36a3.86,3.86,0,0,0-1-2.18c-.71-.92-.9-1.68-.6-2.25.62-1.35,2.09-2.13,4.43-2.31,1.49-.13,5,.55,10.4,2.1,5.91,1.66,9.14,3.09,9.66,4.25.35.75.18,1.8-.52,3.15a11.94,11.94,0,0,0-1.14,5.14q-.3,9.09-.58,18.16c5.43-4.2,10.58-6,15.47-5.52a49,49,0,0,1,12.41,3.47q7.62,3,8.73,4.89,3.88,6.41,3.45,44.39A5.15,5.15,0,0,1,1525.68,220Z"/><path class="cls-3" d="M1586.73,175.74a25.18,25.18,0,0,1,12.36,10.69,31.58,31.58,0,0,1,4.29,15.5c.22,8-1.8,14.68-6.13,20.1a18.46,18.46,0,0,1-18.38,6.82c-2.75-.65-6.85-1.52-12.31-2.57a109.43,109.43,0,0,1-10.83-2.21,21,21,0,0,1-13.26-9.85,33,33,0,0,1,.24-33.4,23.17,23.17,0,0,1,14.39-10.13,12.81,12.81,0,0,1,4.26,0,108.79,108.79,0,0,1,11.25,2.48A143.09,143.09,0,0,1,1586.73,175.74ZM1570.86,182c-2.57-.28-4.93,1.41-7.1,5.11a21.44,21.44,0,0,0-3.23,11,36.77,36.77,0,0,0,2.55,13q2.82,7.1,6.47,8,4.67,1,8.21-5.69a30,30,0,0,0,3.23-14.68,25.26,25.26,0,0,0-2-9.22Q1576.28,182.61,1570.86,182Z"/><path class="cls-3" d="M1373.61,285.12c.12,1-.41,2.33-1.58,3.87s-2.33,2.39-3.49,2.52a4.57,4.57,0,0,1-2.68-.64,5.57,5.57,0,0,0-3-.68c-4.41.23-6.86,3.71-7.4,10.4-.06.79-.15,1.91-.26,3.35s0,2.42-.09,3l4.66-.88c1.07-.21,3.06.7,6,2.7s4.31,3.54,4.14,4.63a7,7,0,0,1-2,3.76,6.93,6.93,0,0,1-3.65,2.16,3.8,3.8,0,0,1-1,.09c-1.25-.11-4.32.29-9.2,1.24q-1.66,21.3-3.37,42.57a2.62,2.62,0,0,0,1.09,1.95,2,2,0,0,1,.78,2.11q-1.17,3.74-6.53,5.07c-2,.48-5.74.62-11.22.39-5.87-.23-8.92-1-9.2-2.1-.16-.47.28-1.6,1.29-3.39a11.67,11.67,0,0,0,1.64-4l3.27-38.3-4.92,1q-2.75.56-6.38-2.27c-2.43-1.88-3.57-3.54-3.44-5a5.28,5.28,0,0,1,1.84-3.24,7.5,7.5,0,0,1,3.7-2l10.36-2.1q1-11.91,3.28-16.95c3.45-7.36,9.89-12,19.41-13.79,1.25-.23,2.5-.43,3.74-.58a19.14,19.14,0,0,1,9.58,1.81C1372,283,1373.49,284.16,1373.61,285.12Z"/><path class="cls-3" d="M1434.37,335.13c.86.89-1.28,4.17-6.42,10-5.58,6.25-11,10.86-16.17,13.74a10.52,10.52,0,0,1-2.76.83,62.45,62.45,0,0,1-15.32.5c-6.65-.34-10.93-1.29-12.89-2.85-5.44-4.13-7.77-11-7.07-20.42a48.45,48.45,0,0,1,9.24-25c5.94-8.39,13.07-13.27,21.46-14.64a37.09,37.09,0,0,1,11,.09,33.84,33.84,0,0,1,12.92,4.13c.87.5,1.61,2.23,2.25,5.19a30.43,30.43,0,0,1,1,9.39c-.25,4.62-1.52,8-3.84,10.07a231.37,231.37,0,0,1-31.83,9.06,23.75,23.75,0,0,0,1.09,10.48c1.16,3.52,2.5,5.16,4,4.94,2-.31,4.51-1.91,7.48-4.77,2.64-2.46,4.31-4.42,5-5.91a51.37,51.37,0,0,1,3.25-6.89q2.42-.6,9.43.13C1430.87,333.64,1433.6,334.31,1434.37,335.13Zm-25-27.45c-1.68.12-4.15,2.35-7.43,6.74s-5.29,8.47-6,12.13a31.21,31.21,0,0,0,10.91-4.13q2.48-1.64,3-10.79C1410,309.06,1409.87,307.75,1409.38,307.68Z"/><path class="cls-3" d="M1519.09,271.28c.19.62-.21,1.83-1.18,3.64a16.41,16.41,0,0,0-1.48,3.09q-.48,30.51-1,61c0,2.06.2,3.32.71,3.79,1.53,1.53,2,2.58,1.35,3.18s-1.87.87-4.06,1c-2.38.17-6,.15-10.84,0-5.47-.23-8.34-.29-8.66-.27a4.1,4.1,0,0,1-4-1.9,2.78,2.78,0,0,1-.12-1.24,64.35,64.35,0,0,1,2-11.84q-3.81,4.9-7.5,9.9c-3.51,4.14-6.62,6.25-9.29,6.24-20.21-.09-29.85-6.51-29.19-20.11.36-7.69,3.93-16,10.59-24.48,6.46-8.23,13.34-13.64,20.73-16.34a9.31,9.31,0,0,1,2.86-.65c2.5-.14,6.79,1.64,12.91,5.32.16-6.19.34-12.38.5-18.58a9.87,9.87,0,0,0-1.26-2.69,6.28,6.28,0,0,1-1.11-2.9c0-1.34,1.44-2.05,4.22-2.09a57.12,57.12,0,0,1,10.69,1.21q4.46.92,8.77,1.77Q1518.52,269,1519.09,271.28Zm-26.68,25c-5.69,1.88-10.9,5.74-15.69,11.62s-7.3,11.3-7.48,16.07c-.21,5.56,3,8.2,9.77,8C1482.58,331.89,1487.13,319.81,1492.41,296.26Z"/><path class="cls-3" d="M1620,301.58a3.38,3.38,0,0,1-1.72,2.65,5.31,5.31,0,0,1-3.58.88,5.62,5.62,0,0,1-1.06-.19,58.7,58.7,0,0,0-9.55-1.29l1,35.08a12.49,12.49,0,0,1,1,1.5,5.6,5.6,0,0,1,1.07,2.75c0,1.71-2,2.46-6.1,2.29-2.16-.09-6.14-.89-11.94-2.3-6.31-1.49-9.68-2.69-10.1-3.72-.22-.42.13-1.29,1-2.6a6.06,6.06,0,0,0,1.34-3l-.51-31.66-5.17-.26q-2.88-.14-7.16-3.32t-4.28-5A2.8,2.8,0,0,1,1566,291a6.9,6.9,0,0,1,3.84-.91c3.63.17,7.25.36,10.88.58q-.08-4-.13-8.05a5.45,5.45,0,0,1-2.32-4c0-1.25.87-2,2.67-2.15a29.55,29.55,0,0,1,3.74.08,90,90,0,0,1,13,2c5,1.09,8.2,2.08,9.72,2.92.71.42,1.07.87,1.08,1.34s-.75,1.41-2.32,2.45-2.39,1.8-2.48,2.26c0,1.6.09,3.2.13,4.8,1.61.13,3.21.27,4.82.42q1.5.14,6.42,3.79C1618.34,299,1620,300.69,1620,301.58Z"/><path class="cls-3" d="M1701.89,358.25a3,3,0,0,1-3.1,2.53,19,19,0,0,1-3.74-.75c-3.41-.92-7.5-2.29-12.28-4s-7.69-3-8.73-3.81a1.75,1.75,0,0,1-.66-1.22,4.91,4.91,0,0,1,1.21-2.44c.58-.35,1.21-.75,1.88-1.17a2.05,2.05,0,0,0,.93-2q-1.67-35.88-2.88-36.36c-1.51-.58-4.81,1-10,4.79q-8.33,6-8.13,10.51.49,10,1,20,2.49,1.86,1.85,4.07c-.51,1.75-2.08,2.71-4.69,2.91a6.75,6.75,0,0,1-1.82-.13c-2.75-.45-6.8-1.48-12.14-3s-8.28-2.38-8.81-2.81c-1.16-1.09-1.3-2.19-.43-3.33a3.89,3.89,0,0,1,1.42-.75c.84-.33,1.26-.71,1.25-1.12q-1.26-31.45-2.51-62.88a3.88,3.88,0,0,0-1.27-2c-.82-.86-1.1-1.54-.82-2q.83-1.77,4.51-1.87c1.58-.05,5.3.71,11.18,2.35,6.37,1.76,9.88,3.24,10.53,4.34.42.71.32,1.68-.3,2.9a9.05,9.05,0,0,0-.81,4.7q.4,8.39.82,16.78c5.38-3.4,10.64-4.69,15.79-3.81a56.91,56.91,0,0,1,13.21,4.52c5.42,2.47,8.57,4.45,9.43,5.79q4.5,6.83,6.81,45.16C1701.68,355.79,1702.12,357.21,1701.89,358.25Z"/><path class="cls-3" d="M1772.85,370.81c.93,1.51-.74,3.78-5,6.69a22.26,22.26,0,0,1-14.13,4,10.39,10.39,0,0,1-2.61-.91,136.86,136.86,0,0,1-15.14-8.78c-6.69-4.18-11.15-7.36-13.34-9.88-6-6.8-9.34-14.22-9.86-22.68-.5-8,1.59-14.36,6.21-19.19,5-5.28,11.6-7,19.87-4.65a47.51,47.51,0,0,1,11,5.08A59,59,0,0,1,1763.11,331c.91,1,1.84,3.2,2.81,6.71a45.93,45.93,0,0,1,2.06,10.64q.43,7.28-2.56,8.6a313,313,0,0,1-30.39-8.47,30.63,30.63,0,0,0,2.41,10.88c1.6,4.1,3.14,6.5,4.61,7.16,2,.86,4.24.72,6.83-.43q3.46-1.41,4.21-3.09a23.75,23.75,0,0,1,2.36-5.22c1.54.53,4.63,2.36,9.25,5.73S1772,369.41,1772.85,370.81ZM1745,328.05c-1.66-.69-3.85.37-6.59,3.12a14.35,14.35,0,0,0-4.53,8.92c4.4,1.35,7.86,1.87,10.41,1.48q2.25-.36,1.69-9.31C1745.86,329.76,1745.53,328.35,1745,328.05Z"/><path class="cls-3" d="M1381.81,417.81c.16.65-.32,2.12-1.44,4.39a25.43,25.43,0,0,0-1.71,3.83q-2.43,34.44-4.89,68.79c-.16,2.31,0,3.68.49,4.1q2.17,2.07,1.16,3.28-.86,1.07-4.18,2a93.74,93.74,0,0,1-11,2.11c-5.49.73-8.37,1.1-8.68,1.18-1.86.36-3.14-.15-3.85-1.5a3,3,0,0,1,0-1.35,85.67,85.67,0,0,1,2.73-13.46q-4.12,6.07-8.09,12.1-5.61,7.59-9.57,8c-20,1.9-28.88-5.43-27.61-19.91.74-8.28,4.6-17.21,11.62-27Q1327,450.22,1338.29,444a11.25,11.25,0,0,1,2.92-1.18c2.52-.57,6.73.67,12.71,3.58q.8-10.36,1.61-20.75a9.18,9.18,0,0,0-1.13-2.74,6,6,0,0,1-1-3q.18-2.25,4.42-3.22a59.15,59.15,0,0,1,10.84-1q4.5,0,8.89-.09Q1381.37,415.43,1381.81,417.81Zm-28.75,33.84q-8.77,4.73-16.44,15.43t-8.32,18.55c-.51,6.09,2.55,8.72,9.25,7.68C1341.11,492.74,1346.34,478.8,1353.06,451.65Z"/><path class="cls-3" d="M1445.72,423a16.52,16.52,0,0,1,13.08,7.55q4,6.18,3.66,15.78a46.35,46.35,0,0,1-8.41,24.76c-5.83,8.33-12.91,13.36-21.11,14.93-3,.36-7.52,1-13.52,2a109.63,109.63,0,0,1-11.85,1.83c-6,.7-10.69-1.25-13.92-5.94-3-4.35-4.17-10.1-3.69-17.21a49.2,49.2,0,0,1,6.31-20.81A46.54,46.54,0,0,1,1413,428.64a17.85,17.85,0,0,1,4.75-1.73,106.43,106.43,0,0,1,12.38-1.56A134.64,134.64,0,0,1,1445.72,423Zm-18.23,13.08c-2.86.68-5.62,3.53-8.3,8.6s-4.16,9.67-4.39,13.76a34.4,34.4,0,0,0,1.87,13.81c1.73,4.63,3.95,6.77,6.61,6.44,3.41-.46,6.62-3.72,9.58-9.72a45.25,45.25,0,0,0,4.72-17.87,22.51,22.51,0,0,0-1.58-9.65C1434.34,436.92,1431.5,435.11,1427.49,436.06Z"/><path class="cls-3" d="M1546,412.29a22.23,22.23,0,0,1-1.77,1.95,4,4,0,0,0-1.14,2.09q0,20-.11,40.05c0,10.14-6.81,17.22-20.45,22.24a108.59,108.59,0,0,1-17.28,5.06c-7.51,1.43-14,1.37-19.42-.36a59.67,59.67,0,0,1-7.76-3.23L1475,479c-1.07-.46-1.64-1.06-1.73-1.81-.07-.94,1.6-2.1,5-3.43a13.86,13.86,0,0,1,2-.53,48.64,48.64,0,0,1,8.6-1q5-.16,7.11.65c1.72.92,3.51,1.87,5.35,2.83a10.8,10.8,0,0,0,6.56.94c4.51-.57,7.47-2.8,8.85-6.74.69-1.91,1.06-5.16,1.13-9.76l-3.16,2.91a23.23,23.23,0,0,1-3.49,2.72,9.72,9.72,0,0,1-3.8,1.59c-5.82,1-10.68,1-14.57,0-11.57-3.37-17.07-10.63-16.68-22,.24-7.16,3-14.1,8.2-20.62a41.57,41.57,0,0,1,20.82-14.41,8.89,8.89,0,0,1,1.76-.42,13.25,13.25,0,0,1,5.74.67q2.7.89,5.41,1.87c.66-1.13,1.33-2.24,2-3.34a4.76,4.76,0,0,1,3.31-2.07c2.24-.42,6.21-.4,11.92.13s8.93,1.21,9.68,1.89C1546.3,410.2,1546.62,411.28,1546,412.29Zm-28.79,25.61a59.69,59.69,0,0,0,1.46-10.71q.11-7.54-4.07-8c-2.24-.21-5,2.36-8.34,7.79s-5.06,10.25-5.15,14.34q-.25,11.17,4,16.92C1511.78,451.31,1515.79,444.61,1517.19,437.9Z"/><path class="cls-3" d="M1621,406.31c.89,4.88-1.32,9-6.72,12.59-3,2-9,4.68-18,8.45-8.49,3.57-14.21,6.82-17.09,9.35-2.14,1.93-4,2.84-5.48,2.7-3.68-.33-9.08-2.7-16.12-7a1,1,0,0,1-.49-.88c0-1.09.86-2.32,2.57-3.67,2.15-1.66,8.42-5.27,18.68-10.22s17.15-8.34,20.8-10.79c5.84-3.85,7.1-7,3.88-9.56-1.83-1.47-4.8-2.32-8.91-2.48-7.29-.29-16.71,1.35-28.37,5.38a3.59,3.59,0,0,1-1,.11c-1.59,0-4-.89-7.19-2.77a40.13,40.13,0,0,1-6.38-4.64c-.85-.75-.55-1.67.87-2.77s5.58-2.54,12.43-4.15a89.77,89.77,0,0,1,22.26-2.38,44.1,44.1,0,0,1,14.7,2.6C1612.83,390.63,1619.34,397.55,1621,406.31Zm-34.54,46.37a1.1,1.1,0,0,1,.34.71c0,.48-.69,1.12-2.09,1.93a7.55,7.55,0,0,0-2.58,2c-.75,1.2-1.49,2.44-2.24,3.71a4.65,4.65,0,0,1-4.56,2.54c-4.6-.4-10.66-2.49-18.11-6.18-.55-.26-.72-.55-.49-.87s.43-.52.65-.77c.76-1.14,1.57-2.28,2.44-3.43a6.4,6.4,0,0,0,1.29-4c-.12-.78.56-1.47,2-2.06a14.61,14.61,0,0,1,4.81-1c2.5-.1,6,.78,10.46,2.71S1585.57,451.55,1586.47,452.68Z"/><ellipse class="cls-23" cx="1073.85" cy="949.1" rx="12.97" ry="15.84" transform="translate(-206.39 304.95) rotate(-14.76)"/><ellipse class="cls-23" cx="1106.84" cy="923.21" rx="14.42" ry="17.69" transform="translate(-136.55 194.24) rotate(-9.45)"/><ellipse class="cls-23" cx="1155.78" cy="925.57" rx="16.55" ry="14.44" transform="translate(-25.03 1818.99) rotate(-75.8)"/><ellipse class="cls-23" cx="1189.83" cy="946.97" rx="18.54" ry="13.52" transform="matrix(0.58, -0.81, 0.81, 0.58, -272.11, 1365.54)"/><path class="cls-23" d="M1182.78,1015.68c-1.44,30-35-9.19-63.6,1.43-29.73,11-39.57,14.87-38.14-15.17s23.3-52.84,53.59-51.18S1184.21,985.65,1182.78,1015.68Z"/><path class="cls-24" d="M1664.73,924c0,56.32-14.66,102-17.72,102s6.09-45.65,6.09-102S1644,822,1647,822,1664.73,867.66,1664.73,924Z"/><ellipse class="cls-25" cx="1639.63" cy="755.39" rx="12.92" ry="39.35"/><ellipse class="cls-26" cx="1639.63" cy="851.62" rx="12.08" ry="40.24"/><ellipse class="cls-26" cx="1700.84" cy="799.2" rx="47.18" ry="8.18"/><ellipse class="cls-26" cx="1585.5" cy="811.38" rx="44.29" ry="8.21" transform="translate(-147.3 399.61) rotate(-13.73)"/><ellipse class="cls-27" cx="1582.08" cy="822.01" rx="45.28" ry="7.07" transform="translate(-171.92 502.39) rotate(-17.13)"/><ellipse class="cls-28" cx="1697.57" cy="815.29" rx="7.63" ry="46.72" transform="translate(554.99 2312.27) rotate(-78.3)"/><ellipse class="cls-26" cx="1587.47" cy="831.79" rx="44.86" ry="7.14" transform="translate(-199.56 695.92) rotate(-23.31)"/><ellipse class="cls-26" cx="1594.74" cy="838.24" rx="43.84" ry="7.31" transform="translate(-190.61 1079.87) rotate(-35.44)"/><ellipse class="cls-26" cx="1690.67" cy="826.04" rx="7.68" ry="46.4" transform="translate(391.15 2186.9) rotate(-72.36)"/><ellipse class="cls-29" cx="1685.86" cy="833.26" rx="7.8" ry="45.72" transform="translate(179.55 1959.08) rotate(-63.08)"/><ellipse class="cls-26" cx="1654.91" cy="757.94" rx="40.63" ry="10.07" transform="translate(492.77 2158.88) rotate(-74.93)"/><ellipse class="cls-26" cx="1616.9" cy="759.27" rx="10" ry="40.57" transform="translate(-166.38 655.46) rotate(-21.82)"/><ellipse class="cls-26" cx="1690.03" cy="766.93" rx="45.66" ry="8.45" transform="translate(-157.55 942.46) rotate(-29.84)"/><ellipse class="cls-26" cx="1594.74" cy="763.89" rx="9.63" ry="37.1" transform="translate(-93.89 1288.55) rotate(-42.85)"/><ellipse class="cls-30" cx="1671.59" cy="763.89" rx="42.71" ry="9.71" transform="translate(28.82 1587.94) rotate(-51.2)"/><ellipse class="cls-31" cx="1615.46" cy="848.66" rx="40.88" ry="11.89" transform="translate(211.36 2014.18) rotate(-67.41)"/><ellipse class="cls-32" cx="1665.74" cy="848.4" rx="11.81" ry="41.15" transform="translate(-203.6 853.58) rotate(-27.15)"/><ellipse class="cls-33" cx="1702.04" cy="781.78" rx="50.54" ry="8.22" transform="translate(-116.72 334.32) rotate(-10.85)"/><ellipse class="cls-25" cx="1572.26" cy="797.16" rx="44.64" ry="8.14"/><ellipse class="cls-26" cx="1585.5" cy="782.74" rx="8.25" ry="44.08" transform="translate(359.9 2057.26) rotate(-72.4)"/><ellipse class="cls-26" cx="1685.86" cy="844.6" rx="8.71" ry="39.12" transform="translate(-159.73 1230.96) rotate(-38.43)"/><ellipse class="cls-34" cx="1643.42" cy="801.22" rx="41.22" ry="18.48"/><path class="cls-24" d="M462.55,538.83c0,24.83-6.63,45-8,45s2.76-20.14,2.76-45-4.15-45-2.76-45S462.55,514,462.55,538.83Z"/><ellipse class="cls-25" cx="451.18" cy="464.47" rx="5.85" ry="17.36"/><ellipse class="cls-26" cx="451.18" cy="506.92" rx="5.47" ry="17.75"/><ellipse class="cls-26" cx="478.92" cy="483.79" rx="21.38" ry="3.61"/><ellipse class="cls-26" cx="426.66" cy="489.17" rx="20.04" ry="3.63" transform="translate(-101.47 111.81) rotate(-13.36)"/><ellipse class="cls-27" cx="425.11" cy="493.85" rx="20.47" ry="3.13" transform="translate(-123.85 142.77) rotate(-16.68)"/><ellipse class="cls-28" cx="477.44" cy="490.89" rx="3.37" ry="21.15" transform="translate(-98.01 862.07) rotate(-78.62)"/><ellipse class="cls-26" cx="427.55" cy="498.17" rx="20.24" ry="3.16" transform="translate(-159.24 203.81) rotate(-22.72)"/><ellipse class="cls-26" cx="430.85" cy="501.01" rx="19.69" ry="3.25" transform="translate(-208.5 334.03) rotate(-34.67)"/><ellipse class="cls-26" cx="474.31" cy="495.63" rx="3.4" ry="20.98" transform="translate(-139.28 802.43) rotate(-72.82)"/><ellipse class="cls-29" cx="472.13" cy="498.82" rx="3.46" ry="20.6" transform="translate(-184.13 701.41) rotate(-63.73)"/><ellipse class="cls-26" cx="458.11" cy="465.6" rx="17.95" ry="4.56" transform="translate(-113.06 782.47) rotate(-74.49)"/><ellipse class="cls-26" cx="440.88" cy="466.18" rx="4.51" ry="17.96" transform="translate(-144.53 203.51) rotate(-22.43)"/><ellipse class="cls-26" cx="474.02" cy="469.56" rx="20.55" ry="3.75" transform="translate(-168.62 290.12) rotate(-29.13)"/><ellipse class="cls-26" cx="430.85" cy="468.22" rx="4.31" ry="16.57" transform="translate(-204.15 427.78) rotate(-43.74)"/><ellipse class="cls-30" cx="465.67" cy="468.22" rx="19.04" ry="4.35" transform="matrix(0.64, -0.77, 0.77, 0.64, -191.97, 528.11)"/><ellipse class="cls-31" cx="440.23" cy="505.61" rx="18.1" ry="5.37" transform="translate(-198.09 710.53) rotate(-66.75)"/><ellipse class="cls-32" cx="463.01" cy="505.49" rx="5.32" ry="18.26" transform="translate(-182.71 275.39) rotate(-27.9)"/><ellipse class="cls-33" cx="479.46" cy="476.11" rx="22.88" ry="3.63" transform="translate(-79.08 95.86) rotate(-10.55)"/><ellipse class="cls-25" cx="420.66" cy="482.89" rx="20.22" ry="3.59"/><ellipse class="cls-26" cx="426.66" cy="476.53" rx="3.65" ry="19.93" transform="translate(-154.42 743.87) rotate(-72.87)"/><ellipse class="cls-26" cx="472.13" cy="503.82" rx="3.91" ry="17.44" transform="translate(-212.28 412.59) rotate(-39.27)"/><ellipse class="cls-34" cx="452.9" cy="484.69" rx="18.68" ry="8.15"/><path class="cls-24" d="M1843.94,691.3c0,34.54-8.49,62.54-10.26,62.54s3.52-28,3.52-62.54-5.3-62.54-3.52-62.54S1843.94,656.76,1843.94,691.3Z"/><ellipse class="cls-25" cx="1829.39" cy="587.9" rx="7.49" ry="24.14"/><ellipse class="cls-26" cx="1829.39" cy="646.93" rx="7" ry="24.68"/><ellipse class="cls-26" cx="1864.88" cy="614.77" rx="27.35" ry="5.02"/><ellipse class="cls-26" cx="1798.01" cy="622.24" rx="25.76" ry="5.02" transform="matrix(0.97, -0.25, 0.25, 0.97, -98.68, 471.88)"/><ellipse class="cls-27" cx="1796.03" cy="628.76" rx="26.38" ry="4.32" transform="translate(-106.47 589.39) rotate(-18.11)"/><ellipse class="cls-28" cx="1862.98" cy="624.64" rx="4.67" ry="27.15" transform="translate(852.96 2310.09) rotate(-77.6)"/><ellipse class="cls-26" cx="1799.16" cy="634.76" rx="26.25" ry="4.34" transform="translate(-101.03 805.52) rotate(-24.57)"/><ellipse class="cls-26" cx="1803.38" cy="638.72" rx="25.92" ry="4.39" transform="translate(-20.59 1216) rotate(-37.07)"/><ellipse class="cls-26" cx="1858.98" cy="631.23" rx="4.69" ry="27.05" transform="translate(666.35 2190.69) rotate(-71.35)"/><ellipse class="cls-29" cx="1856.2" cy="635.66" rx="4.72" ry="26.83" transform="translate(415.73 1967.8) rotate(-61.67)"/><ellipse class="cls-26" cx="1838.25" cy="589.47" rx="24.83" ry="5.86" transform="translate(816.37 2227.27) rotate(-75.82)"/><ellipse class="cls-26" cx="1816.22" cy="590.28" rx="5.84" ry="24.7" transform="translate(-91.56 676.7) rotate(-20.6)"/><ellipse class="cls-26" cx="1858.61" cy="594.98" rx="26.86" ry="5.11" transform="translate(-38.16 1053.98) rotate(-31.35)"/><ellipse class="cls-26" cx="1803.38" cy="593.12" rx="5.73" ry="22.19" transform="translate(53.46 1329.15) rotate(-41.02)"/><ellipse class="cls-30" cx="1847.93" cy="593.12" rx="25.64" ry="5.75" transform="translate(260.84 1710.16) rotate(-52.93)"/><ellipse class="cls-31" cx="1815.39" cy="645.11" rx="24.88" ry="6.95" transform="translate(555.61 2102.76) rotate(-68.73)"/><ellipse class="cls-32" cx="1844.53" cy="644.95" rx="6.93" ry="24.96" transform="translate(-97.45 861.68) rotate(-25.64)"/><ellipse class="cls-33" cx="1865.58" cy="604.09" rx="29.36" ry="5.03" transform="translate(-82.98 383.99) rotate(-11.5)"/><ellipse class="cls-25" cx="1790.34" cy="613.52" rx="25.88" ry="5"/><ellipse class="cls-26" cx="1798.01" cy="604.68" rx="5.03" ry="25.7" transform="translate(650.6 2115.28) rotate(-71.37)"/><ellipse class="cls-26" cx="1856.2" cy="642.62" rx="5.16" ry="23.5" transform="translate(-15.98 1237.08) rotate(-36.71)"/><path class="cls-35" d="M752.23,119.28,59.28,286C11.73,289.5,12,290.74,11.73,289.5L-.54,5.15-12.89,12,358.64,7.92,1039.16,2.3c2.8,0,872.68,0,870.37.93L752.6,119.16A2.29,2.29,0,0,1,752.23,119.28Z"/><ellipse class="cls-34" cx="1831.59" cy="616.01" rx="23.9" ry="11.33"/><rect class="cls-36" x="373.04" y="125.74" width="1305.36" height="723.46" rx="260.58"/><circle class="cls-7" cx="1594.89" cy="411.29" r="21.09"/><rect class="cls-7" x="1022.19" y="402.62" width="565.97" height="17.32"/><path class="cls-7" d="M513.8,411.14a7.75,7.75,0,0,1-2.35,5.83,9.28,9.28,0,0,1-6.52,2.38,8.16,8.16,0,0,1-2.26-.34c-1.47-.41-2.24-.62-2.31-.62l-2.32-.5a4.3,4.3,0,0,1-2-1.08,8.17,8.17,0,0,1-2.11-3.75,19.94,19.94,0,0,0-1.54-3.79,5.89,5.89,0,0,1-.91-1.34,2,2,0,0,1,.26-1.42,1.88,1.88,0,0,1,1-.89,4.2,4.2,0,0,1,1.06-.09,25.61,25.61,0,0,1,4.11.4,7,7,0,0,1,2.71.75,13,13,0,0,1,.76,3.45c.29,1.92.72,3,1.3,3.22a1,1,0,0,0,.43.1c.61,0,1.13-.51,1.56-1.52a8.63,8.63,0,0,0,.65-3.43q0-4.17-2.59-5.57-6-3.21-8.35-5.95a9.91,9.91,0,0,1-2.5-7.49,15.2,15.2,0,0,1,2.62-7.27q2.37-3.68,5-4.29,1.11-.24,6.72,2.11c.93.35,1.87.72,2.81,1.1a5.58,5.58,0,0,1,2.28,1.68c.9,1.12,1.34,3.06,1.34,5.81,0,.51,0,1.27,0,2.26s0,1.47,0,1.82a5.32,5.32,0,0,0,.34,1.1,2.23,2.23,0,0,1,.19,1.06c-.07,1.41-.66,2.19-1.78,2.35a9.22,9.22,0,0,1-3.55-.72c-1.92-.6-3.14-1.26-3.65-2a2.67,2.67,0,0,1-.09-1c0-.48,0-1.56.16-3.26s.17-2.93.17-3.7q0-2.06-.48-2c-1,.06-1.82.77-2.47,2.14a10.46,10.46,0,0,0-1,4.63c0,2.88.85,4.92,2.55,6.14l5.76,3.65a11.72,11.72,0,0,1,3.79,3.55A12.8,12.8,0,0,1,513.8,411.14Z"/><path class="cls-7" d="M533.92,390.5c1.76.83,3.12,2.52,4.08,5a23.37,23.37,0,0,1,1.29,8.16,26.29,26.29,0,0,1-2.21,11.23c-1.63,3.4-3.66,4.93-6.09,4.61-.9-.22-2.24-.49-4-.81a21.1,21.1,0,0,1-3.56-.72c-1.82-.48-3.28-2-4.36-4.66a22.36,22.36,0,0,1-1.49-8.54,25.14,25.14,0,0,1,1.53-9,11.66,11.66,0,0,1,4.85-6.19,3,3,0,0,1,1.44-.29,22.57,22.57,0,0,1,3.79.62A28.38,28.38,0,0,1,533.92,390.5Zm-5.38,4.32q-1.29,0-2.4,3.15a18,18,0,0,0-1.1,6,29,29,0,0,0,.81,6.82q.92,3.65,2.11,3.93,1.54.35,2.74-3.45a26.63,26.63,0,0,0,1.15-8.07,19.55,19.55,0,0,0-.62-4.85C530.65,396,529.76,394.82,528.54,394.82Z"/><path class="cls-7" d="M565.36,390.6a1.69,1.69,0,0,1,.33,1,2,2,0,0,1-.55,1.15,2.31,2.31,0,0,0-.55.86v22.32a3,3,0,0,0,.31,1,3,3,0,0,1,.31,1.06c0,.57-.49,1-1.49,1.25a10.32,10.32,0,0,1-3.6-.53c-2-.51-3.16-1-3.36-1.54a2.44,2.44,0,0,1,.15-1.68,6,6,0,0,0,.48-1.72,6.71,6.71,0,0,0-.15-1.25,15.15,15.15,0,0,1-2,4.27c-1.06,1.47-2.11,2.21-3.17,2.21a11.32,11.32,0,0,1-4.22-1.11c-1.73-.73-2.72-1.41-3-2q-1.35-3.08-1.34-22.71a4.59,4.59,0,0,1-.39-1.82,2,2,0,0,1,1.11-2,3.57,3.57,0,0,1,1.2-.14,18.55,18.55,0,0,1,3.88.5,6.07,6.07,0,0,1,2.74,1,1,1,0,0,1,.24.62,4,4,0,0,1-.72,1.7,4,4,0,0,0-.72,1.71q-.09,18.9.29,19c.45.16,1.57-1.32,3.38-4.44s2.71-5.49,2.71-7.13v-9a2.12,2.12,0,0,1-.62-1.54,2.5,2.5,0,0,1,1.63-2.54,1.26,1.26,0,0,1,.58-.1,17.73,17.73,0,0,1,3.79.6A7.5,7.5,0,0,1,565.36,390.6Z"/><path class="cls-7" d="M591.85,414.93a4.62,4.62,0,0,1,.38,1.83,2,2,0,0,1-1.1,2,3.57,3.57,0,0,1-1.2.14,18.64,18.64,0,0,1-3.89-.5,6.81,6.81,0,0,1-2.73-1,1,1,0,0,1-.24-.62,4,4,0,0,1,.72-1.71,4,4,0,0,0,.72-1.7q.09-18.92-.29-19.06-.68-.24-3.31,4.32c-1.86,3.21-2.79,5.62-2.79,7.25v9a2.07,2.07,0,0,1,.63,1.53,2.48,2.48,0,0,1-1.64,2.5,1.35,1.35,0,0,1-.57.1,17.73,17.73,0,0,1-3.79-.6,7.06,7.06,0,0,1-2.79-1,1.39,1.39,0,0,1-.28-.86,2,2,0,0,1,.55-1.15,2.38,2.38,0,0,0,.55-.87V392.18a2.13,2.13,0,0,0-.39-1,1.31,1.31,0,0,1-.24-1.05,1.86,1.86,0,0,1,1.49-1.3,10.32,10.32,0,0,1,3.6.53c2,.51,3.17,1,3.36,1.58a2.65,2.65,0,0,1-.14,1.59,13.79,13.79,0,0,0-.53,1.92,3.83,3.83,0,0,0,.19,1.15,14.9,14.9,0,0,1,2-4.27c1.05-1.5,2.11-2.26,3.17-2.26a11.32,11.32,0,0,1,4.22,1.13c1.73.75,2.72,1.43,3,2Q591.85,395.3,591.85,414.93Z"/><path class="cls-7" d="M618.73,381.09a4.82,4.82,0,0,1-.36,1.88,11.92,11.92,0,0,0-.46,1.58v31.3a4.69,4.69,0,0,0,.24,2c.48.84.63,1.4.44,1.68s-.58.39-1.25.39a19.43,19.43,0,0,1-3.36-.43c-1.7-.36-2.59-.53-2.69-.53a1.53,1.53,0,0,1-1.25-1.15,2.29,2.29,0,0,1,0-.63,48,48,0,0,1,.53-5.85c-.77,1.53-1.52,3.07-2.25,4.6-1.06,1.89-2,2.76-2.84,2.6Q596,416.57,596,406.87a24,24,0,0,1,3-11.23q2.93-5.52,6.43-7.2a2.07,2.07,0,0,1,.92-.24q1.2,0,4.17,3v-9.31a6.72,6.72,0,0,0-.43-1.37,4.37,4.37,0,0,1-.38-1.46c0-.67.44-1,1.34-1a13.29,13.29,0,0,1,3.46.68c1,.32,1.9.62,2.83.91A1.76,1.76,0,0,1,618.73,381.09Zm-8.35,12.39c-1.79.8-3.42,2.56-4.87,5.28a16.19,16.19,0,0,0-2.19,7.58q0,4.08,3.17,4.47Q608.17,411,610.38,393.48Z"/><path class="cls-7" d="M639.08,413.25a5.41,5.41,0,0,1-1.75,4.23,7.28,7.28,0,0,1-4.92,1.63,6.66,6.66,0,0,1-1.68-.24c-1.09-.29-1.67-.45-1.73-.48-.57-.13-1.16-.26-1.75-.41a3.57,3.57,0,0,1-1.51-.74,11.72,11.72,0,0,1-2.07-2.64c-.54-.9-1.07-1.81-1.58-2.74a6.28,6.28,0,0,1-.77-1.68c0-.44.32-.78,1-1a2.83,2.83,0,0,1,.87-.09,26.15,26.15,0,0,1,3.62.31,7.35,7.35,0,0,1,2.38.53,11.48,11.48,0,0,1,.52,2.76c.2,1.47.53,2.21,1,2.21.74,0,1.11-1,1.11-3,0-2.53-.68-4.11-2-4.75q-4.6-2.16-6-3.84-1.77-2.07-1.77-6.24a9.91,9.91,0,0,1,1.44-5.16,5.67,5.67,0,0,1,3.4-2.91c.58-.12,2.43.48,5.57,1.83.29.09,1.14.27,2.55.53a3.63,3.63,0,0,1,2.11,1,6,6,0,0,1,1.05,3.51c0,1.18,0,2.37,0,3.55a15.93,15.93,0,0,1,.34,1.92,1.38,1.38,0,0,1-1.3,1.54,7.54,7.54,0,0,1-2.64-.53,5.85,5.85,0,0,1-2.73-1.49,19.28,19.28,0,0,1-.29-3.6c-.1-2.14-.32-3.22-.67-3.22s-.93.63-1.35,1.88a12,12,0,0,0-.62,3.88c0,1.7.36,2.77,1.1,3.22,1.57.86,3.13,1.74,4.68,2.62a9.26,9.26,0,0,1,3.24,2.71A8.78,8.78,0,0,1,639.08,413.25Z"/><rect class="cls-37" x="1031.8" y="492.29" width="565.97" height="17.32"/><circle class="cls-7" cx="1034.66" cy="499.93" r="21.09"/><path class="cls-7" d="M538.2,515.16c-.23,1.37-.61,2.12-1.16,2.25-.77.2-2.24,0-4.41-.62s-3.62-1.28-3.94-1.92a1.89,1.89,0,0,1-.14-.72,6,6,0,0,1,.12-.94,6.09,6.09,0,0,0,.12-1.08V490.34q-2.26,4.43-5.91,19.87a2,2,0,0,0,0,.44,10.9,10.9,0,0,0,.16,1.53,12.48,12.48,0,0,1,.17,1.35,14.18,14.18,0,0,1-.14,1.92,1.42,1.42,0,0,1-1,1.15,7,7,0,0,1-1.68.14c-4.16,0-7-.72-8.59-2.16a1.3,1.3,0,0,1-.29-1.2,5,5,0,0,0,0-1.39q-1.79-5.48-3.17-9.6-3.36-10-4.37-11.76v19.1a5.56,5.56,0,0,0,.39,1.73,15,15,0,0,1,.53,1.68,9.35,9.35,0,0,1,.09,2.31c-.06,1.08-.29,1.75-.67,2a2.15,2.15,0,0,1-1.1.19,17.26,17.26,0,0,1-4.23-.62c-1.76-.42-2.8-.85-3.12-1.3a1.34,1.34,0,0,1-.24-.81,4.82,4.82,0,0,1,.17-1,4.81,4.81,0,0,0,.17-1.06v-34a2.55,2.55,0,0,1,.48-1.32,2.31,2.31,0,0,1,1.1-1c.54-.23,2.64.16,6.29,1.15,3.81,1,5.82,1.85,6.05,2.59a2.78,2.78,0,0,1,.05,1.15q-.15,1-.15,1.2a1.86,1.86,0,0,0,.15.77l6.47,17.42q1.35-4.26,4.9-17.32,1.77-6.67,2.88-7a2.57,2.57,0,0,1,.77-.1,14.42,14.42,0,0,1,2.74.43,19.17,19.17,0,0,0,2.92.58c2.53.22,4,.37,4.37.43,1.5.29,2.35.82,2.54,1.58a2.46,2.46,0,0,1,.1.72,5.69,5.69,0,0,1-.24,1.37,5.61,5.61,0,0,0-.24,1.32v29.38a3.19,3.19,0,0,0,.6,1.44A2.33,2.33,0,0,1,538.2,515.16Z"/><path class="cls-7" d="M563.87,488.66a1.63,1.63,0,0,1,.34,1,2,2,0,0,1-.55,1.15,2.23,2.23,0,0,0-.55.87V514a3.05,3.05,0,0,0,.31,1,3,3,0,0,1,.31,1c0,.58-.5,1-1.49,1.25a10.07,10.07,0,0,1-3.6-.53c-2-.51-3.17-1-3.36-1.54a2.41,2.41,0,0,1,.15-1.67,6,6,0,0,0,.48-1.73,6.81,6.81,0,0,0-.15-1.25,15.15,15.15,0,0,1-2,4.27c-1.06,1.47-2.12,2.21-3.17,2.21a11.56,11.56,0,0,1-4.23-1.1c-1.72-.74-2.72-1.41-3-2Q542,510.84,542,491.2a4.71,4.71,0,0,1-.38-1.82,2,2,0,0,1,1.1-2,3.65,3.65,0,0,1,1.2-.14,18,18,0,0,1,3.89.51,6.1,6.1,0,0,1,2.74,1,1,1,0,0,1,.24.62,4,4,0,0,1-.72,1.7,4,4,0,0,0-.72,1.71q-.11,18.91.29,19.06.66.24,3.38-4.44c1.81-3.13,2.71-5.5,2.71-7.13v-9a2.1,2.1,0,0,1-.62-1.53,2.51,2.51,0,0,1,1.63-2.55,1.41,1.41,0,0,1,.58-.1,17.34,17.34,0,0,1,3.79.61A7.62,7.62,0,0,1,563.87,488.66Z"/><path class="cls-7" d="M585.14,511.32a5.42,5.42,0,0,1-1.75,4.22,7.23,7.23,0,0,1-4.92,1.63,6.54,6.54,0,0,1-1.68-.24c-1.09-.28-1.67-.44-1.73-.48-.58-.13-1.16-.26-1.75-.41a3.61,3.61,0,0,1-1.52-.74,11.7,11.7,0,0,1-2.06-2.64c-.54-.89-1.07-1.81-1.58-2.73a5.93,5.93,0,0,1-.77-1.69c0-.44.32-.78,1-1a2.45,2.45,0,0,1,.86-.1,27.94,27.94,0,0,1,3.63.31,7.55,7.55,0,0,1,2.37.53,10.79,10.79,0,0,1,.53,2.76c.19,1.47.53,2.21,1,2.21.73,0,1.1-1,1.1-3,0-2.52-.67-4.11-2-4.75-3.08-1.44-5.09-2.72-6.05-3.84q-1.78-2.06-1.78-6.24a10,10,0,0,1,1.44-5.16,5.7,5.7,0,0,1,3.41-2.9c.58-.13,2.43.48,5.57,1.82.29.1,1.13.27,2.54.53a3.6,3.6,0,0,1,2.11,1,6,6,0,0,1,1.06,3.5c0,1.19,0,2.37,0,3.55a17.18,17.18,0,0,1,.33,1.92,1.38,1.38,0,0,1-1.29,1.54,7.54,7.54,0,0,1-2.64-.53,5.87,5.87,0,0,1-2.74-1.49,21.32,21.32,0,0,1-.29-3.6c-.09-2.14-.32-3.21-.67-3.21s-.93.62-1.34,1.87a12.1,12.1,0,0,0-.63,3.89c0,1.69.37,2.77,1.11,3.21q2.36,1.31,4.68,2.62a9.26,9.26,0,0,1,3.24,2.71A8.82,8.82,0,0,1,585.14,511.32Z"/><path class="cls-7" d="M598.43,515.11a1.76,1.76,0,0,1-1.2,2.16,3.73,3.73,0,0,1-.67.05,16.19,16.19,0,0,1-4.27-.72c-1.83-.52-2.9-1.06-3.22-1.63-.16-.26,0-.76.43-1.49a5.56,5.56,0,0,0,.44-2.64V490.68a10.14,10.14,0,0,1-.58-2.45c0-.42.59-.62,1.78-.62a13.22,13.22,0,0,1,4,.88,7.93,7.93,0,0,1,3.1,1.56.76.76,0,0,1,.15.48,4,4,0,0,1-.56,1.44,3.94,3.94,0,0,0-.55,1.59v19.29a2.14,2.14,0,0,0,.55,1.2A2.81,2.81,0,0,1,598.43,515.11Zm.15-33.17a1.1,1.1,0,0,1,0,.38,11.37,11.37,0,0,1-.43,2.74c-.32,1.22-.62,1.89-.91,2s-1.7-.22-4.13-1-3.73-1.39-3.89-1.75a1.5,1.5,0,0,1-.14-.72,6.43,6.43,0,0,1,.67-2.73c.51-1.09,1.09-1.7,1.73-1.83a9,9,0,0,1,3.84.84C597.18,480.54,598.26,481.24,598.58,481.94Z"/><path class="cls-7" d="M622.38,506.71c0,.61-.52,1.42-1.58,2.45a20.12,20.12,0,0,1-2.3,4.08,8.48,8.48,0,0,1-5.43,3.41,9.77,9.77,0,0,1-1.29.09c-1.8,0-4-.86-6.63-2.59q-3.4-2.31-3.41-10.61a31.42,31.42,0,0,1,1.88-11.13q2.05-5.43,5-5.62a13.54,13.54,0,0,1,5.76,1.25,10.42,10.42,0,0,1,4.6,3.07,6.12,6.12,0,0,1,1,3.7q0,.62-.09,1.8a10.11,10.11,0,0,0-.05,1.65c.06.86.09,1.27.09,1.2,0,1-.49,1.52-1.48,1.49a12,12,0,0,1-3.27-.53,3.61,3.61,0,0,1-2.49-2c-.1-.29,0-.67.4-1.15a1.62,1.62,0,0,0,.46-1.2,8.58,8.58,0,0,0,.1-1.68c0-1.92-.34-2.91-1-3q-1.55-.1-2.59,4.65a41.63,41.63,0,0,0-1,9.22q0,5.9,1.39,6.24,1.1.24,2.88-2.4a10.59,10.59,0,0,0,1.61-3.05c.08-.53.15-1.06.21-1.61a1.51,1.51,0,0,1,1.73-1.25,12.28,12.28,0,0,1,3,1.11c1.44.67,2.2,1.17,2.28,1.51A3.74,3.74,0,0,1,622.38,506.71Z"/><path class="cls-5" d="M628.89,295c6.59,1.54,13.2.18,17.58-4.29,7.29-7.43,5.67-20.61-3.61-29.43-8.93-8.5-21.72-9.86-29.16-3.31-15.42-10.51-32.57-21.09-34.13-22.56L553.8,203.2c.11-.11.23-.21.33-.32,7-7.11,5.43-19.72-3.45-28.16s-21.74-9.53-28.71-2.42c-4.2,4.28-5.31,10.57-3.58,16.73-7.24-3.18-15.2-2.43-20.11,2.58-6.66,6.79-5.18,18.84,3.3,26.91,6.11,5.81,14.18,8,20.71,6.19l42.12,25.6c1.64,1.56,14.75,19.93,27,35.21-4,7.24-1.85,17.59,5.78,24.85,8.83,8.4,21.61,9.47,28.55,2.4C630.13,308.25,631.09,301.48,628.89,295Z"/><path class="cls-5" d="M631.48,203.13a25.5,25.5,0,0,0,.62-23.22,26,26,0,0,0-34.22-12.67,25.28,25.28,0,0,0-12.78,32.52c-16.6,12.16-33.84,26.32-36,27.31L504.9,239c-.08-.19-.16-.38-.25-.57a24.92,24.92,0,0,0-32.76-12.13,24.21,24.21,0,0,0-11.64,32.5A25.08,25.08,0,0,0,478,272.62a23.27,23.27,0,0,0-3.35,25.22,23.79,23.79,0,0,0,31.29,11.58,23,23,0,0,0,13.4-20.89l41.88-35c2.27-1.05,27-6,48-11.57a24.7,24.7,0,0,0,29.75,7.46,24.05,24.05,0,0,0,11.57-32.3A24.89,24.89,0,0,0,631.48,203.13Z"/><path class="cls-6" d="M565.23,242.39c-.06,1-.25,1.57-.59,1.7a6.29,6.29,0,0,1-2.93-.14c-1.57-.31-2.5-.71-2.78-1.17a1.56,1.56,0,0,1-.18-.54,4.58,4.58,0,0,1,0-.71,6.21,6.21,0,0,0,0-.82q-1.2-8.24-2.39-16.46c-.82,2.17-1.57,7.12-1.84,15.28a2,2,0,0,0,0,.34,8.15,8.15,0,0,0,.32,1.19c.17.55.26.89.29,1a11.58,11.58,0,0,1,.16,1.51c0,.51-.18.84-.5,1a3.62,3.62,0,0,1-1.08.24c-2.71.34-4.69,0-6-1.08a1.48,1.48,0,0,1-.41-1,4.94,4.94,0,0,0-.26-1.16c-1.47-3-2.82-5.65-4-8-2.92-5.64-4.9-9.16-5.66-10.22l4.14,16.72a7.1,7.1,0,0,0,.63,1.48c.41.77.64,1.24.71,1.43a10.16,10.16,0,0,1,.55,2c.19.95.19,1.56,0,1.82a1.06,1.06,0,0,1-.68.27,8.62,8.62,0,0,1-2.88-.14,4.14,4.14,0,0,1-2.36-.88,1.85,1.85,0,0,1-.36-.73,4.77,4.77,0,0,1-.13-.9,5.37,5.37,0,0,0-.16-1q-4.26-15.66-8.54-31.31a2,2,0,0,1,.06-1.15,1,1,0,0,1,.67-.76c.39-.14,2.22.51,5.43,1.81s5.14,2.24,5.46,2.88a2.79,2.79,0,0,1,.26,1c0,.56.09.89.11,1a2.75,2.75,0,0,0,.26.66q4.25,7.62,8,14.66c.19-2.31.43-7,1.07-13.7.31-3.41.8-5.11,1.39-5.18a2.13,2.13,0,0,1,.62,0,16.08,16.08,0,0,1,2.3.6,20,20,0,0,0,2.48.72c2.1.4,3.3.63,3.62.71,1.26.34,2,.79,2.2,1.36a1.8,1.8,0,0,1,.13.52,3.78,3.78,0,0,1-.09,1,3.24,3.24,0,0,0-.1.93q1.1,10.6,2.18,21.19a2.46,2.46,0,0,0,.5,1A1.78,1.78,0,0,1,565.23,242.39Z"/><path class="cls-6" d="M580.48,236.39c.19.3-.29,1.22-1.38,2.8a13.15,13.15,0,0,1-3.3,3.58,1.37,1.37,0,0,1-.56.14,8.6,8.6,0,0,1-3.21-.49,5.74,5.74,0,0,1-2.88-1.48,11.93,11.93,0,0,1-2.41-6.89A13.57,13.57,0,0,1,568,226.6c1.18-2.3,2.88-3.36,5-3.3a8.86,8.86,0,0,1,2.8.65,9.77,9.77,0,0,1,3.26,1.92,3.49,3.49,0,0,1,.57,1.69,12.07,12.07,0,0,1,.25,2.9,4.48,4.48,0,0,1-.86,2.92,31.6,31.6,0,0,1-7.13,1.31,11.5,11.5,0,0,0,.51,3.34c.34,1.15.67,1.72,1,1.72s.94-.39,1.54-1.15a5,5,0,0,0,1-1.6,15.63,15.63,0,0,1,.64-2,6,6,0,0,1,2.11.44Q580.24,236,580.48,236.39Zm-6-9.56c-.41-.06-1,.5-1.67,1.69a7.88,7.88,0,0,0-1.14,3.47,4.67,4.67,0,0,0,2.48-.72c.37-.26.55-1.32.53-3.19C574.64,227.29,574.57,226.87,574.45,226.83Z"/><path class="cls-6" d="M597.31,238.93a2.11,2.11,0,0,1,0,1,1.66,1.66,0,0,1-1,1.17,2.56,2.56,0,0,1-.8.13,13.12,13.12,0,0,1-2.48-.14,3.79,3.79,0,0,1-1.69-.48.43.43,0,0,1-.09-.36,2.78,2.78,0,0,1,.65-1,3,3,0,0,0,.66-1q2.08-11.18,1.81-11.27c-.32-.1-1.32.73-2.9,2.54s-2.5,3.39-2.63,4.37c-.24,1.82-.47,3.63-.71,5.45a1,1,0,0,1,.29.91,1.94,1.94,0,0,1-1.26,1.58,1.18,1.18,0,0,1-.39.09,12.23,12.23,0,0,1-2.43-.2,4,4,0,0,1-1.78-.49.75.75,0,0,1-.16-.53,1.46,1.46,0,0,1,.42-.74,1.66,1.66,0,0,0,.41-.57l1-14a1.11,1.11,0,0,0-.24-.64.67.67,0,0,1-.14-.67,1.4,1.4,0,0,1,1.22-.76,9.84,9.84,0,0,1,2.78.45c1.56.38,2.38.73,2.48,1.06a1.37,1.37,0,0,1-.23,1,7.11,7.11,0,0,0-.56,1.15,1.92,1.92,0,0,0,.06.7,8.91,8.91,0,0,1,1.89-2.54,3.83,3.83,0,0,1,2.66-1.26,10.29,10.29,0,0,1,3.16.78c1.25.48,1.93.9,2,1.25C599.84,227.06,599.12,231.41,597.31,238.93Z"/><path class="cls-6" d="M621,225.42a.56.56,0,0,1,0,.52,1.81,1.81,0,0,1-.71.6,2.93,2.93,0,0,0-.64.45l-5.52,11.86a1.1,1.1,0,0,0,0,.53,1.28,1.28,0,0,1,0,.56c-.15.3-.58.53-1.28.69a6.91,6.91,0,0,1-2.22-.19c-1.22-.23-1.85-.48-1.87-.75a1.53,1.53,0,0,1,.46-.91,4.83,4.83,0,0,0,.69-.95,3.52,3.52,0,0,0,.18-.67,15.31,15.31,0,0,1-2.26,2.36,4.66,4.66,0,0,1-2.52,1.29,6.68,6.68,0,0,1-2.56-.48c-1-.36-1.55-.71-1.62-1.05-.25-1.12.63-5.39,2.68-12.8a1.84,1.84,0,0,1,0-1,1.57,1.57,0,0,1,1.17-1.12,4.67,4.67,0,0,1,1,0,18.69,18.69,0,0,1,2.94.37,4.65,4.65,0,0,1,1.92.62.35.35,0,0,1,.07.35,3.23,3.23,0,0,1-.89.93,3,3,0,0,0-.87.93q-3.63,10.44-3.4,10.51c.28.08,1.3-.76,3.19-2.49s3.07-3,3.42-3.9q1-2.43,1.94-4.86a.72.72,0,0,1-.15-.84,2.34,2.34,0,0,1,1.81-1.35,1.58,1.58,0,0,1,.47,0,16.92,16.92,0,0,1,2.82.39A5.42,5.42,0,0,1,621,225.42Z"/></svg>
