<svg id="Layer_1" data-name="Layer 1" xmlns="http://www.w3.org/2000/svg" width="1920" height="1080" viewBox="0 0 1920 1080"><defs><style>.cls-1{fill:#0c0c15;opacity:0.46;}.cls-2{fill:#fff;}.cls-3{fill:#d9d3a5;}.cls-4{fill:#edebd5;}.cls-5{fill:#1e1e1c;}</style></defs><title>lydmenu</title><rect class="cls-1" x="227.56" y="147.88" width="1305.36" height="723.46" rx="260.58"/><circle class="cls-2" cx="1449.42" cy="433.43" r="21.09"/><rect class="cls-2" x="876.72" y="424.77" width="565.97" height="17.32"/><path class="cls-2" d="M368.33,433.29a7.75,7.75,0,0,1-2.35,5.83,9.36,9.36,0,0,1-6.53,2.38,8.61,8.61,0,0,1-2.26-.34c-1.47-.42-2.24-.62-2.3-.62l-2.33-.51a4.22,4.22,0,0,1-2-1.08,8.22,8.22,0,0,1-2.11-3.74,19.18,19.18,0,0,0-1.53-3.79,6.22,6.22,0,0,1-.92-1.35,1.94,1.94,0,0,1,.27-1.41,1.84,1.84,0,0,1,1-.89,3.58,3.58,0,0,1,1.06-.1,25.66,25.66,0,0,1,4.1.41,7,7,0,0,1,2.71.74,13,13,0,0,1,.77,3.46c.29,1.92.72,3,1.3,3.22a1,1,0,0,0,.43.09c.61,0,1.13-.5,1.56-1.51a8.67,8.67,0,0,0,.65-3.43c0-2.79-.87-4.64-2.6-5.57q-5.94-3.21-8.35-5.95a9.9,9.9,0,0,1-2.49-7.49,15.28,15.28,0,0,1,2.61-7.27q2.39-3.67,5-4.3c.74-.16,3,.55,6.72,2.11.93.36,1.86.72,2.81,1.11a5.4,5.4,0,0,1,2.28,1.68c.89,1.12,1.34,3,1.34,5.81,0,.51,0,1.26-.05,2.25s0,1.47,0,1.83a6,6,0,0,0,.33,1.1,2.08,2.08,0,0,1,.19,1.06c-.06,1.4-.65,2.19-1.77,2.35a9.67,9.67,0,0,1-3.56-.72c-1.92-.61-3.13-1.27-3.64-2a2.42,2.42,0,0,1-.1-1c0-.48.06-1.57.17-3.26s.17-2.93.17-3.7c0-1.38-.16-2.05-.48-2-1,.07-1.82.78-2.47,2.14a10.46,10.46,0,0,0-1,4.63q0,4.32,2.54,6.15l5.76,3.64a11.79,11.79,0,0,1,3.8,3.56A12.88,12.88,0,0,1,368.33,433.29Z"/><path class="cls-2" d="M388.44,412.65q2.64,1.25,4.08,5a23.05,23.05,0,0,1,1.3,8.16,26.47,26.47,0,0,1-2.21,11.23q-2.44,5.09-6.1,4.61c-.89-.23-2.24-.5-4-.82a21.18,21.18,0,0,1-3.55-.72q-2.73-.72-4.37-4.65a22.6,22.6,0,0,1-1.49-8.55,25.09,25.09,0,0,1,1.54-9,11.64,11.64,0,0,1,4.85-6.2,3,3,0,0,1,1.44-.28,21.67,21.67,0,0,1,3.79.62A28.17,28.17,0,0,1,388.44,412.65ZM383.07,417c-.87,0-1.67,1-2.4,3.14a18.13,18.13,0,0,0-1.11,6,28.45,28.45,0,0,0,.82,6.81c.6,2.43,1.31,3.75,2.11,3.94,1,.22,1.94-.93,2.74-3.46a26.92,26.92,0,0,0,1.15-8.06,19,19,0,0,0-.63-4.85C385.18,418.15,384.28,417,383.07,417Z"/><path class="cls-2" d="M419.88,412.74a1.63,1.63,0,0,1,.34,1,2,2,0,0,1-.55,1.16,2.24,2.24,0,0,0-.56.86V438a3.15,3.15,0,0,0,.32,1,3.26,3.26,0,0,1,.31,1.05c0,.58-.5,1-1.49,1.25a10.07,10.07,0,0,1-3.6-.53q-3.07-.76-3.36-1.53a2.49,2.49,0,0,1,.14-1.68,5.92,5.92,0,0,0,.48-1.73,6.66,6.66,0,0,0-.14-1.25,14.77,14.77,0,0,1-2,4.27c-1.05,1.48-2.11,2.21-3.16,2.21a11.56,11.56,0,0,1-4.23-1.1c-1.73-.74-2.72-1.41-3-2q-1.35-3.06-1.35-22.7a4.8,4.8,0,0,1-.38-1.83,2,2,0,0,1,1.1-2,3.3,3.3,0,0,1,1.2-.15,18.07,18.07,0,0,1,3.89.51,6.16,6.16,0,0,1,2.74,1,1,1,0,0,1,.23.62,3.94,3.94,0,0,1-.71,1.71,4,4,0,0,0-.72,1.7q-.11,18.92.28,19.06.68.24,3.39-4.44t2.71-7.13v-9a2.05,2.05,0,0,1-.63-1.53,2.52,2.52,0,0,1,1.64-2.55,1.38,1.38,0,0,1,.57-.09,17.64,17.64,0,0,1,3.79.6A7.62,7.62,0,0,1,419.88,412.74Z"/><path class="cls-2" d="M446.38,437.08a4.79,4.79,0,0,1,.38,1.82,2,2,0,0,1-1.1,2,3.34,3.34,0,0,1-1.2.15,18,18,0,0,1-3.89-.51,6.69,6.69,0,0,1-2.74-1,1,1,0,0,1-.24-.63,4,4,0,0,1,.72-1.7,4,4,0,0,0,.72-1.7q.11-18.92-.29-19.06c-.44-.16-1.55,1.28-3.31,4.32q-2.78,4.8-2.78,7.25v9a2.12,2.12,0,0,1,.62,1.54,2.48,2.48,0,0,1-1.63,2.5,1.43,1.43,0,0,1-.58.09,17.82,17.82,0,0,1-3.79-.6,7.31,7.31,0,0,1-2.78-1,1.44,1.44,0,0,1-.29-.87,2,2,0,0,1,.55-1.15c.37-.45.55-.73.55-.86V414.33a2.05,2.05,0,0,0-.38-1,1.25,1.25,0,0,1-.24-1.06,1.84,1.84,0,0,1,1.49-1.29,10.07,10.07,0,0,1,3.6.53c2.05.51,3.17,1,3.36,1.58a2.56,2.56,0,0,1-.15,1.58,13,13,0,0,0-.52,1.92,3.9,3.9,0,0,0,.19,1.16,15.21,15.21,0,0,1,2-4.28c1.06-1.5,2.12-2.25,3.17-2.25a11.12,11.12,0,0,1,4.23,1.13q2.6,1.13,3,2Q446.38,417.44,446.38,437.08Z"/><path class="cls-2" d="M473.26,403.24a4.78,4.78,0,0,1-.36,1.87,10.31,10.31,0,0,0-.46,1.59V438a4.75,4.75,0,0,0,.24,2c.48.83.62,1.39.43,1.68s-.57.38-1.25.38a19.66,19.66,0,0,1-3.36-.43c-1.69-.35-2.59-.53-2.68-.53a1.49,1.49,0,0,1-1.25-1.15,2.15,2.15,0,0,1-.05-.62,48.14,48.14,0,0,1,.53-5.86c-.77,1.54-1.52,3.07-2.26,4.61-1.05,1.89-2,2.75-2.83,2.59q-9.46-1.92-9.46-11.61a23.89,23.89,0,0,1,3-11.24q2.93-5.52,6.43-7.2a2,2,0,0,1,.91-.24c.8,0,2.19,1,4.18,3V404a7.23,7.23,0,0,0-.43-1.37,4.45,4.45,0,0,1-.39-1.46c0-.68.45-1,1.35-1a13.05,13.05,0,0,1,3.45.67c1,.32,1.91.62,2.83.91A1.78,1.78,0,0,1,473.26,403.24Zm-8.36,12.38q-2.68,1.2-4.87,5.28a16.17,16.17,0,0,0-2.18,7.59c0,2.72,1,4.21,3.17,4.46Q462.7,433.15,464.9,415.62Z"/><path class="cls-2" d="M493.61,435.4a5.42,5.42,0,0,1-1.75,4.22,7.28,7.28,0,0,1-4.92,1.64,6.54,6.54,0,0,1-1.68-.24c-1.09-.29-1.67-.45-1.73-.48l-1.75-.41a3.62,3.62,0,0,1-1.52-.75,11.7,11.7,0,0,1-2.06-2.64c-.55-.89-1.07-1.8-1.58-2.73a6.06,6.06,0,0,1-.77-1.68c0-.45.32-.79,1-1a2.67,2.67,0,0,1,.86-.1,26.51,26.51,0,0,1,3.63.32,7.39,7.39,0,0,1,2.37.52,11.46,11.46,0,0,1,.53,2.76c.19,1.48.53,2.21,1,2.21.73,0,1.1-1,1.1-3,0-2.53-.67-4.11-2-4.76-3.08-1.44-5.09-2.72-6.05-3.84q-1.78-2.06-1.78-6.24a10,10,0,0,1,1.44-5.16,5.7,5.7,0,0,1,3.41-2.9q.85-.2,5.57,1.82a24.5,24.5,0,0,0,2.54.53,3.6,3.6,0,0,1,2.11,1,6.07,6.07,0,0,1,1.06,3.5c0,1.19,0,2.37,0,3.56a16.42,16.42,0,0,1,.33,1.92,1.37,1.37,0,0,1-1.29,1.53,7.3,7.3,0,0,1-2.64-.53,6,6,0,0,1-2.74-1.48,21.63,21.63,0,0,1-.29-3.6c-.09-2.15-.32-3.22-.67-3.22s-.93.62-1.34,1.87a12.15,12.15,0,0,0-.63,3.89c0,1.7.37,2.77,1.11,3.22,1.56.86,3.13,1.73,4.68,2.61a9.36,9.36,0,0,1,3.24,2.71A8.82,8.82,0,0,1,493.61,435.4Z"/><rect class="cls-3" x="886.32" y="514.44" width="565.97" height="17.32"/><circle class="cls-2" cx="889.19" cy="522.07" r="21.09"/><path class="cls-2" d="M392.72,537.3c-.22,1.38-.61,2.13-1.15,2.26a10.61,10.61,0,0,1-4.42-.63q-3.45-1-3.93-1.92a1.72,1.72,0,0,1-.15-.72,5.8,5.8,0,0,1,.12-.93,6.09,6.09,0,0,0,.12-1.08V512.49q-2.25,4.41-5.9,19.87a1.88,1.88,0,0,0-.05.43,11.59,11.59,0,0,0,.17,1.54,12.42,12.42,0,0,1,.17,1.34,13.59,13.59,0,0,1-.15,1.92,1.4,1.4,0,0,1-1,1.15,6.51,6.51,0,0,1-1.68.15q-6.24,0-8.6-2.16a1.37,1.37,0,0,1-.29-1.2,4.39,4.39,0,0,0,0-1.4q-1.77-5.46-3.16-9.6-3.36-10-4.37-11.76v19.11a5.91,5.91,0,0,0,.38,1.73,12,12,0,0,1,.53,1.68,8.76,8.76,0,0,1,.1,2.3c-.07,1.09-.29,1.76-.67,2a2.34,2.34,0,0,1-1.11.19,17.32,17.32,0,0,1-4.22-.63c-1.76-.41-2.8-.85-3.12-1.29a1.39,1.39,0,0,1-.24-.82,4.17,4.17,0,0,1,.17-1,4.69,4.69,0,0,0,.16-1.05V501a2.55,2.55,0,0,1,.48-1.32,2.38,2.38,0,0,1,1.11-1c.54-.22,2.64.16,6.28,1.15,3.81,1,5.83,1.86,6.05,2.59a2.52,2.52,0,0,1,0,1.16,11.72,11.72,0,0,0-.14,1.2,1.84,1.84,0,0,0,.14.76L370.88,523q1.35-4.28,4.9-17.33,1.77-6.68,2.88-7a2.91,2.91,0,0,1,.76-.1,14.44,14.44,0,0,1,2.74.44,19,19,0,0,0,2.93.57c2.53.23,4,.37,4.37.43,1.5.29,2.35.82,2.54,1.59a2.72,2.72,0,0,1,.1.72,5.76,5.76,0,0,1-.24,1.37,5.61,5.61,0,0,0-.24,1.32v29.37a3.19,3.19,0,0,0,.6,1.44A2.24,2.24,0,0,1,392.72,537.3Z"/><path class="cls-2" d="M418.4,510.81a1.7,1.7,0,0,1,.34,1,2,2,0,0,1-.56,1.15c-.36.45-.55.73-.55.86V536.1a3.05,3.05,0,0,0,.31,1,3.07,3.07,0,0,1,.32,1.06c0,.57-.5,1-1.49,1.24a10,10,0,0,1-3.6-.52c-2.05-.52-3.17-1-3.36-1.54a2.49,2.49,0,0,1,.14-1.68,5.92,5.92,0,0,0,.48-1.73,7.74,7.74,0,0,0-.14-1.25,15,15,0,0,1-2,4.28c-1,1.47-2.11,2.2-3.17,2.2a11.36,11.36,0,0,1-4.22-1.1c-1.73-.74-2.72-1.41-3-2q-1.33-3.06-1.34-22.7a4.61,4.61,0,0,1-.38-1.82,2,2,0,0,1,1.1-2,3.32,3.32,0,0,1,1.2-.14,18,18,0,0,1,3.89.5,6.22,6.22,0,0,1,2.73,1,1,1,0,0,1,.24.63,4,4,0,0,1-.72,1.7,4,4,0,0,0-.72,1.7q-.09,18.92.29,19.06.68.24,3.39-4.44c1.8-3.12,2.71-5.5,2.71-7.13v-9a2.09,2.09,0,0,1-.63-1.54,2.5,2.5,0,0,1,1.64-2.54,1.21,1.21,0,0,1,.57-.1,17.64,17.64,0,0,1,3.79.6A7.33,7.33,0,0,1,418.4,510.81Z"/><path class="cls-2" d="M439.66,533.46a5.43,5.43,0,0,1-1.75,4.23,7.28,7.28,0,0,1-4.92,1.63,6.66,6.66,0,0,1-1.68-.24c-1.09-.29-1.66-.45-1.73-.48l-1.75-.41a3.57,3.57,0,0,1-1.51-.74,11.7,11.7,0,0,1-2.06-2.64c-.55-.9-1.08-1.81-1.59-2.74a6.42,6.42,0,0,1-.77-1.68c0-.45.32-.78,1-1a2.83,2.83,0,0,1,.87-.09,26.15,26.15,0,0,1,3.62.31,7.26,7.26,0,0,1,2.38.53,11.18,11.18,0,0,1,.53,2.76c.19,1.47.52,2.2,1,2.2q1.11,0,1.11-3,0-3.79-2-4.75-4.61-2.16-6.05-3.84-1.77-2.07-1.77-6.24a9.91,9.91,0,0,1,1.44-5.16,5.66,5.66,0,0,1,3.41-2.91c.57-.13,2.43.48,5.56,1.83.29.09,1.14.27,2.55.52a3.7,3.7,0,0,1,2.11,1,6.11,6.11,0,0,1,1.06,3.51c0,1.18,0,2.36,0,3.55a15.93,15.93,0,0,1,.34,1.92,1.37,1.37,0,0,1-1.3,1.53,7.52,7.52,0,0,1-2.64-.52,5.85,5.85,0,0,1-2.73-1.49,20.39,20.39,0,0,1-.29-3.6c-.1-2.15-.32-3.22-.67-3.22s-.93.63-1.35,1.87a12.42,12.42,0,0,0-.62,3.89c0,1.7.37,2.77,1.1,3.22q2.35,1.29,4.68,2.61a9.09,9.09,0,0,1,3.24,2.72A8.76,8.76,0,0,1,439.66,533.46Z"/><path class="cls-2" d="M453,537.25q.19,1.74-1.2,2.16a3,3,0,0,1-.67.05,16.25,16.25,0,0,1-4.28-.72c-1.82-.51-2.89-1-3.21-1.63-.16-.26,0-.75.43-1.49a5.58,5.58,0,0,0,.43-2.64V512.82a10.36,10.36,0,0,1-.57-2.45c0-.41.59-.62,1.77-.62a13.35,13.35,0,0,1,4,.89,7.81,7.81,0,0,1,3.1,1.56.83.83,0,0,1,.14.48,4.08,4.08,0,0,1-.55,1.44,3.86,3.86,0,0,0-.55,1.58V535a2.14,2.14,0,0,0,.55,1.2A2.79,2.79,0,0,1,453,537.25Zm.14-33.16a1,1,0,0,1,0,.38,11.45,11.45,0,0,1-.43,2.74c-.32,1.21-.63,1.88-.91,2s-1.7-.21-4.13-1-3.73-1.4-3.89-1.75a1.39,1.39,0,0,1-.14-.72,6.44,6.44,0,0,1,.67-2.74c.51-1.09,1.09-1.69,1.73-1.82a8.7,8.7,0,0,1,3.84.84C451.71,502.69,452.78,503.38,453.1,504.09Z"/><path class="cls-2" d="M476.91,528.85c0,.61-.53,1.43-1.58,2.45a20.55,20.55,0,0,1-2.31,4.08,8.42,8.42,0,0,1-5.42,3.41,9.86,9.86,0,0,1-1.3.1q-2.69,0-6.62-2.6-3.4-2.29-3.41-10.6a31.48,31.48,0,0,1,1.87-11.14q2.07-5.43,5-5.62a13.63,13.63,0,0,1,5.76,1.25,10.46,10.46,0,0,1,4.61,3.07,6.19,6.19,0,0,1,1,3.7c0,.42,0,1-.1,1.8a11.57,11.57,0,0,0,0,1.66c.07.86.1,1.26.1,1.2,0,1-.5,1.52-1.49,1.48a11.89,11.89,0,0,1-3.26-.52,3.66,3.66,0,0,1-2.5-2c-.09-.29,0-.67.41-1.15a1.62,1.62,0,0,0,.46-1.2,9.08,9.08,0,0,0,.09-1.68c0-1.92-.33-2.92-1-3q-1.53-.09-2.59,4.66a41.47,41.47,0,0,0-1,9.21c0,3.94.47,6,1.39,6.24q1.11.24,2.88-2.4a10.21,10.21,0,0,0,1.61-3c.08-.52.15-1.06.22-1.6a1.49,1.49,0,0,1,1.73-1.25,11.84,11.84,0,0,1,3,1.1c1.44.67,2.2,1.18,2.28,1.51A3.82,3.82,0,0,1,476.91,528.85Z"/><path class="cls-4" d="M483.42,317.14c6.59,1.54,13.19.17,17.58-4.3,7.28-7.43,5.67-20.6-3.61-29.43-8.94-8.5-21.72-9.85-29.16-3.31-15.42-10.5-32.58-21.09-34.13-22.56l-25.77-32.2.33-.31c7-7.11,5.43-19.72-3.45-28.17s-21.74-9.53-28.71-2.42c-4.21,4.29-5.31,10.57-3.58,16.74-7.25-3.18-15.2-2.43-20.11,2.57-6.67,6.8-5.19,18.84,3.3,26.91,6.1,5.81,14.18,8,20.71,6.19l42.11,25.6c1.65,1.57,14.76,19.94,27,35.21-4,7.24-1.86,17.59,5.78,24.85,8.83,8.4,21.61,9.48,28.54,2.41C484.65,330.39,485.62,323.63,483.42,317.14Z"/><path class="cls-4" d="M486,225.27a25.5,25.5,0,0,0,.63-23.22,26,26,0,0,0-34.22-12.66,25.25,25.25,0,0,0-12.78,32.52c-16.61,12.15-33.84,26.32-36,27.3l-44.22,11.9-.26-.57a24.89,24.89,0,0,0-32.75-12.12,24.2,24.2,0,0,0-11.64,32.49,25,25,0,0,0,17.72,13.85A23.23,23.23,0,0,0,329.15,320a23.79,23.79,0,0,0,31.29,11.58,23,23,0,0,0,13.4-20.89l41.87-35c2.27-1.05,27-5.95,48-11.57a24.72,24.72,0,0,0,29.76,7.47A24.06,24.06,0,0,0,505,239.28,24.93,24.93,0,0,0,486,225.27Z"/><path class="cls-5" d="M419.75,264.54c-.05,1-.24,1.56-.59,1.69a6.15,6.15,0,0,1-2.93-.14c-1.56-.31-2.5-.7-2.78-1.17a1.57,1.57,0,0,1-.17-.53,6.09,6.09,0,0,1,0-.72,5.06,5.06,0,0,0,0-.82l-2.4-16.46c-.82,2.17-1.56,7.13-1.83,15.29a1.37,1.37,0,0,0,0,.34,12,12,0,0,0,.32,1.19c.17.54.27.89.3,1a13.58,13.58,0,0,1,.16,1.51c0,.5-.19.83-.51,1a3.7,3.7,0,0,1-1.07.25c-2.71.33-4.7,0-6-1.09a1.47,1.47,0,0,1-.42-1,5.1,5.1,0,0,0-.25-1.16c-1.47-3-2.82-5.65-4-8-2.93-5.65-4.9-9.17-5.67-10.23L396,262.26a7.13,7.13,0,0,0,.63,1.49,15,15,0,0,1,.72,1.43,10.77,10.77,0,0,1,.55,2,2.73,2.73,0,0,1,0,1.82,1,1,0,0,1-.67.28,9.23,9.23,0,0,1-2.89-.14,4.2,4.2,0,0,1-2.36-.89,1.87,1.87,0,0,1-.36-.72,6,6,0,0,1-.13-.9,6.8,6.8,0,0,0-.15-1Q387,250,382.77,234.33a1.94,1.94,0,0,1,.06-1.16,1,1,0,0,1,.67-.75c.39-.14,2.22.5,5.43,1.81s5.13,2.23,5.45,2.88a2.67,2.67,0,0,1,.26,1,8.55,8.55,0,0,0,.12,1,2.08,2.08,0,0,0,.26.67q4.25,7.6,8,14.66c.18-2.32.43-7,1.06-13.7.31-3.42.81-5.12,1.39-5.19a2.56,2.56,0,0,1,.62,0,16.92,16.92,0,0,1,2.31.61,18.92,18.92,0,0,0,2.47.71c2.1.4,3.31.63,3.63.71,1.25.34,2,.79,2.2,1.36a1.87,1.87,0,0,1,.13.53,3.36,3.36,0,0,1-.1,1,3.64,3.64,0,0,0-.09.94q1.08,10.59,2.17,21.19a2.64,2.64,0,0,0,.51,1A1.75,1.75,0,0,1,419.75,264.54Z"/><path class="cls-5" d="M435,258.53c.19.3-.3,1.22-1.39,2.8a13,13,0,0,1-3.29,3.58,1.25,1.25,0,0,1-.56.15,9.06,9.06,0,0,1-3.22-.49,5.83,5.83,0,0,1-2.88-1.49,11.92,11.92,0,0,1-2.4-6.89,13.5,13.5,0,0,1,1.26-7.45c1.17-2.29,2.88-3.36,5-3.29a8.92,8.92,0,0,1,2.8.65,9.86,9.86,0,0,1,3.26,1.91,3.56,3.56,0,0,1,.56,1.69,12.17,12.17,0,0,1,.26,2.91,4.54,4.54,0,0,1-.86,2.91,31.06,31.06,0,0,1-7.14,1.32,11.43,11.43,0,0,0,.51,3.33c.35,1.15.67,1.73,1,1.73s.93-.4,1.54-1.15a5.33,5.33,0,0,0,1-1.61,14.18,14.18,0,0,1,.64-2,6,6,0,0,1,2.11.44C434.25,258,434.85,258.25,435,258.53ZM429,249c-.41-.05-1,.5-1.68,1.7a7.91,7.91,0,0,0-1.13,3.46,4.7,4.7,0,0,0,2.48-.72c.37-.25.54-1.32.52-3.19C429.16,249.44,429.1,249,429,249Z"/><path class="cls-5" d="M451.84,261.07a2,2,0,0,1,0,1,1.65,1.65,0,0,1-1,1.17,3.35,3.35,0,0,1-.8.13,12.38,12.38,0,0,1-2.48-.15,3.79,3.79,0,0,1-1.69-.48.42.42,0,0,1-.1-.36,2.91,2.91,0,0,1,.65-1,3,3,0,0,0,.67-1c1.38-7.46,2-11.21,1.8-11.27s-1.32.72-2.9,2.53-2.49,3.39-2.63,4.38c-.23,1.81-.47,3.63-.7,5.44a1,1,0,0,1,.29.91,2,2,0,0,1-1.27,1.59,1.14,1.14,0,0,1-.38.08,11.45,11.45,0,0,1-2.44-.19,4.5,4.5,0,0,1-1.78-.49.75.75,0,0,1-.15-.53,1.37,1.37,0,0,1,.42-.75,1.84,1.84,0,0,0,.41-.56l1.05-14a1.16,1.16,0,0,0-.25-.65.71.71,0,0,1-.14-.67,1.43,1.43,0,0,1,1.22-.76,9.75,9.75,0,0,1,2.78.45c1.56.38,2.38.73,2.49,1.07a1.33,1.33,0,0,1-.24.95,7,7,0,0,0-.55,1.15,2,2,0,0,0,.05.71,9,9,0,0,1,1.89-2.54,3.87,3.87,0,0,1,2.67-1.26,10,10,0,0,1,3.16.78c1.25.48,1.92.89,2,1.25C454.36,249.2,453.65,253.55,451.84,261.07Z"/><path class="cls-5" d="M475.56,247.57a.54.54,0,0,1,0,.51,1.89,1.89,0,0,1-.71.61,2.15,2.15,0,0,0-.64.45L468.7,261a1.13,1.13,0,0,0,0,.53,1.08,1.08,0,0,1-.06.55c-.14.31-.57.54-1.28.7a7,7,0,0,1-2.22-.2c-1.22-.22-1.84-.47-1.86-.74a1.44,1.44,0,0,1,.46-.92,4.88,4.88,0,0,0,.69-.94,3.05,3.05,0,0,0,.17-.68,14.81,14.81,0,0,1-2.25,2.36,4.72,4.72,0,0,1-2.52,1.3,6.92,6.92,0,0,1-2.56-.49c-1-.36-1.55-.71-1.62-1-.26-1.13.62-5.4,2.67-12.81a1.9,1.9,0,0,1,0-1,1.55,1.55,0,0,1,1.18-1.12,3.5,3.5,0,0,1,1-.05,18.59,18.59,0,0,1,2.93.36,4.61,4.61,0,0,1,1.93.63.33.33,0,0,1,.06.34,2.91,2.91,0,0,1-.88.93,3.05,3.05,0,0,0-.87.93Q460,260,460.18,260.13c.27.08,1.3-.77,3.19-2.5s3.06-3,3.41-3.89q1-2.43,1.94-4.86a.75.75,0,0,1-.14-.85,2.35,2.35,0,0,1,1.81-1.35,2,2,0,0,1,.47,0,18.13,18.13,0,0,1,2.81.39A5.45,5.45,0,0,1,475.56,247.57Z"/></svg>
