<svg id="Layer_1" data-name="Layer 1" xmlns="http://www.w3.org/2000/svg" xmlns:xlink="http://www.w3.org/1999/xlink" width="1920" height="1080" viewBox="0 0 1920 1080"><defs><style>.cls-1{fill:#00a24e;}.cls-2{stroke-miterlimit:10;stroke-width:6px;fill:url(#linear-gradient);stroke:url(#linear-gradient-2);}.cls-3{fill:none;}.cls-4{fill:#fff;}.cls-5{opacity:0.11;fill:url(#radial-gradient);}</style><linearGradient id="linear-gradient" x1="-258.35" y1="607.82" x2="1358.25" y2="607.82" gradientTransform="translate(811.69 -2708.77) scale(0.27 4.81)" gradientUnits="userSpaceOnUse"><stop offset="0" stop-color="#6aacde"/><stop offset="0" stop-color="#f6fafd"/><stop offset="0" stop-color="#f2f9fe"/><stop offset="0" stop-color="#626161"/><stop offset="0" stop-color="#9dd8f7"/><stop offset="0.04" stop-color="#94d5f7"/><stop offset="0.1" stop-color="#a7dcf8"/><stop offset="0.12" stop-color="#8dd3f6"/><stop offset="0.14" stop-color="#abddf9"/><stop offset="0.2" stop-color="#80cff5"/><stop offset="0.51" stop-color="#5ea5db"/><stop offset="0.77" stop-color="#9dd8f7"/><stop offset="0.93" stop-color="#a4dbf8"/><stop offset="1" stop-color="#d2ecfc"/><stop offset="1" stop-color="#8ccbf1"/><stop offset="1" stop-color="#e8f5fc" stop-opacity="0.7"/></linearGradient><linearGradient id="linear-gradient-2" x1="-261.35" y1="607.82" x2="1361.25" y2="607.82" gradientTransform="translate(811.69 -2708.77) scale(0.27 4.81)" gradientUnits="userSpaceOnUse"><stop offset="0" stop-color="#fff"/><stop offset="1"/></linearGradient><radialGradient id="radial-gradient" cx="567.82" cy="-2.07" r="357.71" gradientTransform="matrix(2.27, 0.21, 0.47, 0.87, -314.47, -29.55)" gradientUnits="userSpaceOnUse"><stop offset="0" stop-color="#6aacde"/><stop offset="0" stop-color="#f6fafd"/><stop offset="0" stop-color="#f2f9fe"/><stop offset="0" stop-color="#626161"/><stop offset="0" stop-color="#fded4c"/><stop offset="0" stop-color="#ffe68b"/><stop offset="0.1" stop-color="#fbc78b"/><stop offset="0.16" stop-color="#fdf3a4"/><stop offset="0.2" stop-color="#f9ea3c"/><stop offset="0.49" stop-color="#ffdb5b"/><stop offset="0.57" stop-color="#f6e826"/><stop offset="0.77" stop-color="#f6a033"/><stop offset="0.93" stop-color="#e7a800"/><stop offset="1" stop-color="#d2ecfc"/><stop offset="1" stop-color="#8ccbf1"/><stop offset="1" stop-color="#e8f5fc" stop-opacity="0.7"/></radialGradient></defs><title>spilleboard</title><rect class="cls-1" x="-2.7" y="429.7" width="1926.94" height="650.3"/><rect class="cls-2" x="742.55" y="-745.25" width="432.68" height="1923.18" transform="translate(742.55 1175.23) rotate(-90)"/><polyline class="cls-1" points="450.78 361.9 437.19 457.97 377.5 446.51"/><rect class="cls-3" x="1108.61" y="957.39" width="540.92" height="62.39"/><rect class="cls-3" x="391.31" y="463.62" width="1055.68" height="652.45"/><rect class="cls-3" x="1262.92" y="524.96" width="17.1"/><rect class="cls-3" x="1026.4" y="659.68" width="17.1"/><line class="cls-3" x1="562.71" y1="986.67" x2="657.29" y2="849.8"/><polyline class="cls-1" points="1421.71 360.17 1412.12 424.46 1374.11 417.42"/><polyline class="cls-1" points="1295.27 347.04 1285.67 411.33 1247.66 404.29"/><polyline class="cls-1" points="546.3 347.04 536.71 411.33 498.7 404.29"/><polyline class="cls-1" points="634.22 345.17 624.25 424.44 578.73 414.73"/><polyline class="cls-1" points="463.9 361.65 453.92 440.93 408.4 431.22"/><polyline class="cls-1" points="1358.49 352.66 1348.89 416.95 1310.89 409.91"/><polyline class="cls-1" points="1263.97 352.24 1254.37 416.53 1216.36 409.49"/><polyline class="cls-1" points="602.53 360.17 592.93 424.46 554.92 417.42"/><polyline class="cls-1" points="511.5 347.04 501.91 411.33 463.9 404.29"/><polyline class="cls-1" points="1390.32 369.14 1380.73 433.44 1342.72 426.4"/><polyline class="cls-1" points="1063.32 458.66 1053.34 537.94 1007.82 528.22"/><polyline class="cls-1" points="1193.25 360.17 1183.65 424.46 1145.64 417.42"/><polyline class="cls-1" points="658.81 360.17 649.21 424.46 611.2 417.42"/><polyline class="cls-1" points="450.71 351.7 442.71 415.87 405.92 407.97"/><polyline class="cls-1" points="1445.04 353.5 1437.44 409.31 1401.86 409.09"/><ellipse class="cls-4" cx="69.8" cy="69.69" rx="31.7" ry="28.25"/><ellipse class="cls-4" cx="158.12" cy="75.69" rx="32.2" ry="28.69"/><ellipse class="cls-4" cx="134.46" cy="100.78" rx="33.34" ry="33.06"/><ellipse class="cls-4" cx="114.63" cy="67.72" rx="31.14" ry="27.75"/><ellipse class="cls-4" cx="85.63" cy="115.36" rx="29" ry="30.32"/><ellipse class="cls-4" cx="48.92" cy="103" rx="23.61" ry="17.02"/><ellipse class="cls-4" cx="43.54" cy="75.69" rx="23.61" ry="17.02"/><ellipse class="cls-4" cx="1785.25" cy="222.22" rx="27.77" ry="23.13"/><ellipse class="cls-4" cx="1862.6" cy="227.13" rx="28.2" ry="23.49"/><ellipse class="cls-4" cx="1841.88" cy="247.67" rx="29.2" ry="27.07"/><ellipse class="cls-4" cx="1824.52" cy="220.61" rx="27.27" ry="22.72"/><ellipse class="cls-4" cx="1799.12" cy="259.61" rx="25.39" ry="24.82"/><ellipse class="cls-4" cx="1766.97" cy="249.49" rx="20.68" ry="13.94"/><ellipse class="cls-4" cx="1762.26" cy="227.13" rx="20.68" ry="13.94"/><ellipse class="cls-4" cx="679.04" cy="65.18" rx="25.74" ry="18.54"/><ellipse class="cls-4" cx="750.75" cy="69.11" rx="26.15" ry="18.83"/><ellipse class="cls-4" cx="731.54" cy="85.58" rx="27.07" ry="21.69"/><ellipse class="cls-4" cx="715.44" cy="63.88" rx="25.29" ry="18.21"/><ellipse class="cls-4" cx="691.9" cy="95.15" rx="23.54" ry="19.89"/><ellipse class="cls-4" cx="662.09" cy="87.03" rx="19.17" ry="11.17"/><ellipse class="cls-4" cx="657.72" cy="69.11" rx="19.17" ry="11.17"/><polyline class="cls-1" points="343.64 363.29 330.05 459.36 270.35 447.91"/><polyline class="cls-1" points="707.72 361.27 694.13 457.34 634.44 445.88"/><polyline class="cls-1" points="883.1 368.92 869.51 464.99 809.81 453.53"/><polyline class="cls-1" points="839.98 363.29 826.39 459.36 766.69 447.91"/><polyline class="cls-1" points="731.43 420.51 717.85 516.58 658.15 505.13"/><polyline class="cls-1" points="655.25 355.94 641.66 452.01 581.97 440.55"/><polyline class="cls-1" points="1112.07 367.84 1098.48 463.91 1038.79 452.45"/><polyline class="cls-1" points="1203.56 367.84 1189.97 463.91 1130.27 452.45"/><polyline class="cls-1" points="1155.51 372.48 1141.92 468.55 1082.22 457.09"/><polyline class="cls-1" points="1371.33 363.29 1357.74 459.36 1298.04 447.91"/><polyline class="cls-1" points="1305.72 372.48 1292.13 468.55 1232.43 457.09"/><polyline class="cls-1" points="958.14 372.48 944.56 468.55 884.86 457.09"/><polyline class="cls-1" points="621.25 367.47 607.66 463.54 547.97 452.08"/><polyline class="cls-1" points="770.95 376.41 757.36 472.48 697.67 461.02"/><polyline class="cls-1" points="1853.03 355.94 1839.44 452.01 1779.74 440.55"/><ellipse class="cls-4" cx="315.26" cy="112.4" rx="43.35" ry="34.08"/><ellipse class="cls-4" cx="436.02" cy="119.63" rx="44.03" ry="34.61"/><ellipse class="cls-4" cx="403.67" cy="149.91" rx="45.58" ry="39.88"/><ellipse class="cls-4" cx="376.56" cy="110.02" rx="42.58" ry="33.48"/><ellipse class="cls-4" cx="336.91" cy="167.5" rx="39.65" ry="36.57"/><ellipse class="cls-4" cx="286.72" cy="152.58" rx="32.29" ry="20.54"/><ellipse class="cls-4" cx="279.36" cy="119.63" rx="32.29" ry="20.54"/><ellipse class="cls-4" cx="1015.15" cy="82.49" rx="31.32" ry="30.44"/><ellipse class="cls-4" cx="1102.41" cy="88.95" rx="31.82" ry="30.92"/><ellipse class="cls-4" cx="1079.03" cy="115.99" rx="32.94" ry="35.63"/><ellipse class="cls-4" cx="1059.44" cy="80.36" rx="30.77" ry="29.91"/><ellipse class="cls-4" cx="1030.79" cy="131.71" rx="28.65" ry="32.68"/><ellipse class="cls-4" cx="994.53" cy="118.38" rx="23.33" ry="18.35"/><ellipse class="cls-4" cx="989.21" cy="88.95" rx="23.33" ry="18.35"/><polyline class="cls-1" points="322.36 365.3 308.77 461.37 249.07 449.92"/><polyline class="cls-1" points="300.07 367.84 286.48 463.91 226.78 452.45"/><polyline class="cls-1" points="279.62 379.18 266.03 475.25 206.33 463.79"/><polyline class="cls-1" points="259.18 372.48 245.59 468.55 185.89 457.09"/><polyline class="cls-1" points="69.55 369.85 55.96 465.92 -3.74 454.46"/><polyline class="cls-1" points="112.78 361.27 99.19 457.34 39.49 445.88"/><polyline class="cls-1" points="230.65 367.84 217.06 463.91 157.37 452.45"/><polyline class="cls-1" points="195.01 367.6 181.43 463.67 121.73 452.21"/><polyline class="cls-1" points="164.36 372.8 150.77 468.87 91.07 457.41"/><polyline class="cls-1" points="617.36 365.3 603.77 461.37 544.08 449.92"/><polyline class="cls-1" points="588.46 367.33 574.87 463.4 515.18 451.94"/><polyline class="cls-1" points="358.01 372.8 344.43 468.87 284.73 457.41"/><polyline class="cls-1" points="1090.06 365.57 1076.47 461.64 1016.77 450.19"/><polyline class="cls-1" points="1061.16 367.6 1047.57 463.67 987.87 452.21"/><polyline class="cls-1" points="987.87 372.8 974.28 468.87 914.58 457.41"/><polyline class="cls-1" points="1901.88 357.66 1888.29 453.73 1828.59 442.27"/><polyline class="cls-1" points="1872.98 359.68 1859.39 455.75 1799.69 444.29"/><polyline class="cls-1" points="1799.69 364.88 1786.1 460.95 1726.4 449.5"/><polyline class="cls-1" points="1774.99 368.92 1761.4 464.99 1701.7 453.53"/><polyline class="cls-1" points="1746.09 370.94 1732.5 467.01 1672.8 455.55"/><polyline class="cls-1" points="1672.8 376.14 1659.21 472.21 1599.52 460.75"/><polyline class="cls-1" points="1749.55 356.07 1735.96 452.14 1676.27 440.68"/><polyline class="cls-1" points="1720.65 358.09 1707.06 454.16 1647.37 442.7"/><polyline class="cls-1" points="1647.37 363.29 1633.78 459.36 1574.08 447.91"/><polyline class="cls-1" points="1519.48 363.48 1505.89 459.55 1446.19 448.09"/><polyline class="cls-1" points="1490.58 365.5 1476.99 461.57 1417.29 450.12"/><polyline class="cls-1" points="1417.29 370.71 1403.7 466.78 1344.01 455.32"/><polyline class="cls-1" points="144.04 352.33 130.45 448.4 70.75 436.94"/><polyline class="cls-1" points="98.82 363.29 85.23 459.36 25.53 447.91"/><polyline class="cls-1" points="20.8 367.46 61.14 455.7 4.68 478.23"/><polyline class="cls-1" points="494.35 357.36 480.76 453.43 421.07 441.97"/><polyline class="cls-1" points="473.07 359.37 459.49 455.44 399.79 443.98"/><polyline class="cls-1" points="430.33 373.25 416.74 469.32 357.04 457.86"/><polyline class="cls-1" points="409.89 366.54 396.3 462.61 336.6 451.15"/><polyline class="cls-1" points="381.37 361.9 367.78 457.97 308.08 446.51"/><polyline class="cls-1" points="508.73 366.86 495.14 462.93 435.44 451.48"/><polyline class="cls-1" points="625.72 361.24 612.13 457.31 552.43 445.85"/><polyline class="cls-1" points="604.44 363.25 590.85 459.32 531.15 447.86"/><polyline class="cls-1" points="582.15 365.78 568.56 461.85 508.86 450.4"/><polyline class="cls-1" points="552 376.41 538.41 472.48 478.71 461.02"/><polyline class="cls-1" points="531 368.84 517.41 464.91 457.71 453.45"/><polyline class="cls-1" points="512.73 365.78 499.14 461.85 439.45 450.4"/><polyline class="cls-1" points="640.09 370.75 626.5 466.82 566.81 455.36"/><polyline class="cls-1" points="216.31 365.3 202.72 461.37 143.02 449.92"/><polyline class="cls-1" points="195.03 367.31 181.44 463.38 121.74 451.92"/><polyline class="cls-1" points="172.73 369.85 159.14 465.92 99.45 454.46"/><polyline class="cls-1" points="152.28 381.19 138.69 477.26 78.99 465.8"/><polyline class="cls-1" points="131.84 374.49 118.25 470.56 58.55 459.1"/><polyline class="cls-1" points="103.32 369.85 89.73 465.92 30.03 454.46"/><polyline class="cls-1" points="230.68 374.81 217.09 470.88 157.39 459.42"/><polyline class="cls-1" points="793.08 355.31 779.49 451.38 719.79 439.92"/><polyline class="cls-1" points="771.8 357.31 758.21 453.38 698.51 441.93"/><polyline class="cls-1" points="749.5 359.85 735.92 455.92 676.22 444.46"/><polyline class="cls-1" points="729.05 371.19 715.46 467.26 655.76 455.81"/><polyline class="cls-1" points="708.61 364.49 695.02 460.56 635.33 449.1"/><polyline class="cls-1" points="680.09 359.85 666.5 455.92 606.8 444.46"/><polyline class="cls-1" points="807.45 364.81 793.86 460.88 734.16 449.42"/><polyline class="cls-1" points="945.27 359.65 931.68 455.72 871.98 444.26"/><polyline class="cls-1" points="923.99 361.66 910.4 457.73 850.7 446.27"/><polyline class="cls-1" points="901.7 364.19 888.11 460.26 828.41 448.81"/><polyline class="cls-1" points="881.24 375.54 867.65 471.61 807.96 460.15"/><polyline class="cls-1" points="860.8 368.84 847.22 464.91 787.52 453.45"/><polyline class="cls-1" points="832.28 364.19 818.69 460.26 758.99 448.81"/><polyline class="cls-1" points="959.64 369.16 946.05 465.23 886.35 453.77"/><polyline class="cls-1" points="1122.6 364.86 1109.01 460.93 1049.31 449.47"/><polyline class="cls-1" points="1101.32 366.86 1087.73 462.93 1028.03 451.48"/><polyline class="cls-1" points="1079.03 369.4 1065.44 465.47 1005.74 454.01"/><polyline class="cls-1" points="1058.57 380.74 1044.98 476.81 985.29 465.36"/><polyline class="cls-1" points="1038.13 374.04 1024.55 470.11 964.85 458.65"/><polyline class="cls-1" points="1009.61 369.4 996.02 465.47 936.32 454.01"/><polyline class="cls-1" points="1136.97 374.36 1123.38 470.43 1063.68 458.97"/><polyline class="cls-1" points="1292.05 356.25 1278.46 452.32 1218.77 440.86"/><polyline class="cls-1" points="1270.77 358.26 1257.18 454.33 1197.49 442.87"/><polyline class="cls-1" points="1248.48 360.79 1234.89 456.86 1175.19 445.4"/><polyline class="cls-1" points="1228.03 372.14 1214.44 468.21 1154.74 456.75"/><polyline class="cls-1" points="1207.59 365.43 1194 461.5 1134.3 450.05"/><polyline class="cls-1" points="1179.07 360.79 1165.48 456.86 1105.78 445.4"/><polyline class="cls-1" points="1306.43 365.76 1292.84 461.83 1233.14 450.37"/><polyline class="cls-1" points="1435.69 364.86 1422.1 460.93 1362.4 449.47"/><polyline class="cls-1" points="1414.41 366.86 1400.82 462.93 1341.12 451.48"/><polyline class="cls-1" points="1392.12 369.4 1378.53 465.47 1318.83 454.01"/><polyline class="cls-1" points="1371.66 380.74 1358.08 476.81 1298.38 465.36"/><polyline class="cls-1" points="1351.23 374.04 1337.64 470.11 1277.94 458.65"/><polyline class="cls-1" points="1322.7 369.4 1309.11 465.47 1249.42 454.01"/><polyline class="cls-1" points="1458.36 374.36 1444.77 470.43 1385.07 458.97"/><polyline class="cls-1" points="1909.87 363 1896.28 459.06 1836.58 447.61"/><polyline class="cls-1" points="1888.59 365 1875 461.07 1815.3 449.62"/><polyline class="cls-1" points="1866.3 367.54 1852.71 463.61 1793.01 452.15"/><polyline class="cls-1" points="1845.85 378.88 1832.26 474.95 1772.56 463.5"/><polyline class="cls-1" points="1825.41 372.18 1811.82 468.25 1752.12 456.79"/><polyline class="cls-1" points="1796.88 367.54 1783.29 463.61 1723.6 452.15"/><polyline class="cls-1" points="1932.86 373.64 1919.27 469.71 1859.58 458.25"/><polyline class="cls-1" points="1673.37 364.86 1663.1 418.16 1627.99 413.22"/><polyline class="cls-1" points="1660.72 366.45 1650.45 419.76 1615.34 414.82"/><polyline class="cls-1" points="1647.45 368.37 1637.18 421.68 1602.07 416.73"/><polyline class="cls-1" points="1635.07 375.1 1624.8 428.41 1589.69 423.46"/><polyline class="cls-1" points="1609.52 371.87 1599.25 425.18 1564.14 420.24"/><polyline class="cls-1" points="1609.52 368.37 1599.25 421.68 1564.14 416.73"/><polyline class="cls-1" points="1691.08 368.37 1680.81 421.68 1645.69 416.73"/><polyline class="cls-1" points="1619.85 360.71 1609.63 436.06 1563.13 426.85"/><polyline class="cls-1" points="1603.29 362.21 1593.08 437.56 1546.57 428.34"/><polyline class="cls-1" points="1585.95 364.11 1575.74 439.46 1529.23 430.25"/><polyline class="cls-1" points="1570.08 372.94 1559.86 448.29 1513.36 439.08"/><polyline class="cls-1" points="1554.15 367.6 1543.93 442.95 1497.42 433.74"/><polyline class="cls-1" points="1531.93 363.85 1521.71 439.21 1475.21 429.99"/><polyline class="cls-1" points="1631.07 368.22 1620.85 443.58 1574.35 434.36"/><path class="cls-5" d="M764,56.82,74.74,171.15c-47.56,1.3-47.2,2.34-47.56,1.3L5.28-62.86-6.87-57.63l372.4,9.18,682.18,18.32c2.8.07,875.05,29.46,872.77,30.13L764.32,56.73A2.49,2.49,0,0,1,764,56.82Z"/><polyline class="cls-1" points="0.19 382.42 27.59 428.52 -1.38 448.84"/></svg>
