<svg id="Layer_1" data-name="Layer 1" xmlns="http://www.w3.org/2000/svg" xmlns:xlink="http://www.w3.org/1999/xlink" width="1920" height="1080" viewBox="0 0 1920 1080"><defs><style>.cls-1,.cls-10,.cls-11{stroke-miterlimit:10;}.cls-1{stroke-width:6px;fill:url(#linear-gradient);stroke:url(#linear-gradient-2);}.cls-2{fill:#00a24e;}.cls-3{fill:#010101;}.cls-4{fill:none;}.cls-5{fill:#edebd5;}.cls-6{fill:#fff;}.cls-7{fill:#723c29;}.cls-8{fill:#935934;}.cls-9{fill:#cd835d;}.cls-10,.cls-13{fill:#c96;}.cls-10,.cls-11{stroke:#c96;}.cls-11{fill:#d5975d;}.cls-12{fill:#e64165;}.cls-14{fill:#240c0e;}.cls-15,.cls-17{fill:#143d6c;}.cls-16{fill:#132237;}.cls-17{opacity:0.7;}.cls-18{fill:#d0ccb1;}.cls-19{fill:#d3d2c0;}.cls-20{fill:#d5d3c0;}.cls-21{fill:#dedcc8;}.cls-22{fill:#7e645e;}.cls-23{fill:#00823b;opacity:0.9;}.cls-24,.cls-25,.cls-26,.cls-27,.cls-28,.cls-29,.cls-30,.cls-31,.cls-32{fill:#a94672;}.cls-24{opacity:0.65;}.cls-26{opacity:0.79;}.cls-27{opacity:0.61;}.cls-28{opacity:0.72;}.cls-29{opacity:0.67;}.cls-30{opacity:0.84;}.cls-31{opacity:0.56;}.cls-32{opacity:0.75;}.cls-33{fill:#fdd777;}.cls-34{opacity:0.14;fill:url(#linear-gradient-3);}.cls-35{fill:#1e1e1c;}</style><linearGradient id="linear-gradient" x1="-6586.01" y1="-712.99" x2="-3587.5" y2="-712.99" gradientTransform="translate(2314.63 3835.08) scale(0.27 4.81)" gradientUnits="userSpaceOnUse"><stop offset="0" stop-color="#6aacde"/><stop offset="0" stop-color="#f6fafd"/><stop offset="0" stop-color="#f2f9fe"/><stop offset="0" stop-color="#626161"/><stop offset="0" stop-color="#9dd8f7"/><stop offset="0.04" stop-color="#94d5f7"/><stop offset="0.1" stop-color="#a7dcf8"/><stop offset="0.12" stop-color="#8dd3f6"/><stop offset="0.14" stop-color="#abddf9"/><stop offset="0.2" stop-color="#80cff5"/><stop offset="0.51" stop-color="#5ea5db"/><stop offset="0.77" stop-color="#9dd8f7"/><stop offset="0.93" stop-color="#a4dbf8"/><stop offset="1" stop-color="#d2ecfc"/><stop offset="1" stop-color="#8ccbf1"/><stop offset="1" stop-color="#e8f5fc" stop-opacity="0.7"/></linearGradient><linearGradient id="linear-gradient-2" x1="-6589.01" y1="-712.99" x2="-3584.5" y2="-712.99" gradientTransform="translate(2314.63 3835.08) scale(0.27 4.81)" gradientUnits="userSpaceOnUse"><stop offset="0" stop-color="#fff"/><stop offset="1"/></linearGradient><linearGradient id="linear-gradient-3" x1="-263.97" y1="388.65" x2="656.32" y2="388.65" gradientTransform="matrix(2.26, 0.16, 0.43, 1.03, 332.08, -290.93)" gradientUnits="userSpaceOnUse"><stop offset="0" stop-color="#6baade"/><stop offset="0" stop-color="#f6fafc"/><stop offset="0" stop-color="#f1f9fd"/><stop offset="0" stop-color="#626262"/><stop offset="0" stop-color="#fcec50"/><stop offset="0" stop-color="#ffe68b"/><stop offset="0.1" stop-color="#fac68b"/><stop offset="0.16" stop-color="#fbf3a3"/><stop offset="0.2" stop-color="#f8ea41"/><stop offset="0.49" stop-color="#ffda5c"/><stop offset="0.57" stop-color="#f3e62a"/><stop offset="0.77" stop-color="#f69f34"/><stop offset="0.93" stop-color="#e7a800"/><stop offset="1" stop-color="#d2ebfb"/><stop offset="1" stop-color="#8ccaf0"/><stop offset="1" stop-color="#e6f3fc" stop-opacity="0.7"/></linearGradient></defs><title>starskærm</title><rect class="cls-1" x="551.88" y="-557.94" width="802.55" height="1923.61" transform="translate(549.29 1357.03) rotate(-90)"/><rect class="cls-2" x="-8.65" y="410.97" width="1923.61" height="676.27"/><polyline class="cls-2" points="879.84 390.11 873.63 438.96 849.02 433.61"/><polyline class="cls-2" points="838.91 384.4 832.7 433.26 808.1 427.91"/><polyline class="cls-2" points="859.52 396.93 853.31 445.78 828.7 440.44"/><polyline class="cls-2" points="894.94 385.05 890.02 427.45 866.99 427.28"/><polyline class="cls-2" points="918.96 378.73 912.75 427.58 888.14 422.24"/><path class="cls-3" d="M871.66,901a11.92,11.92,0,0,1-3.95,9.21q-4,3.6-11,3.75a15.08,15.08,0,0,1-3.79-.53q-3.71-1-3.87-1c-1.29-.25-2.6-.52-3.91-.79a7.38,7.38,0,0,1-3.43-1.71,12.88,12.88,0,0,1-3.55-5.91,29.5,29.5,0,0,0-2.58-6,10.05,10.05,0,0,1-1.53-2.12,3,3,0,0,1,.44-2.24,3.07,3.07,0,0,1,1.66-1.4,6.78,6.78,0,0,1,1.77-.16,45.49,45.49,0,0,1,6.9.65c2.71.43,4.23.82,4.55,1.17s.75,2.18,1.29,5.46c.49,3,1.21,4.73,2.18,5.08a1.66,1.66,0,0,0,.72.15c1,0,1.9-.79,2.63-2.38a13,13,0,0,0,1.08-5.42q0-6.6-4.35-8.8-10-5.07-14-9.4a15.09,15.09,0,0,1-4.2-11.83,23.18,23.18,0,0,1,4.4-11.48q4-5.81,8.43-6.79,1.85-.37,11.29,3.34c1.55.56,3.13,1.14,4.71,1.74a9,9,0,0,1,3.83,2.66c1.51,1.77,2.26,4.82,2.26,9.17,0,.81,0,2-.08,3.56,0,1.37-.08,2.33-.08,2.88a8.53,8.53,0,0,0,.57,1.75,3.18,3.18,0,0,1,.32,1.66q-.17,3.35-3,3.72-1.61.22-6-1.14c-3.23-1-5.27-2-6.13-3.11a3.73,3.73,0,0,1-.16-1.51c0-.76.09-2.48.28-5.16s.28-4.62.28-5.84q0-3.26-.81-3.18c-1.66.1-3,1.23-4.15,3.37a15.84,15.84,0,0,0-1.65,7.32q0,6.82,4.27,9.7l9.68,5.77a19.27,19.27,0,0,1,6.37,5.61Q871.65,894.42,871.66,901Z"/><path class="cls-3" d="M916.09,861.9a4.75,4.75,0,0,1-1.77-.49,3.2,3.2,0,0,0-1.86-.34l-8.3,2.12v39.88a12,12,0,0,0,1.12,4.77,5.34,5.34,0,0,1-.16,2.88c-.32,1.57-.83,2.56-1.53,3a2.51,2.51,0,0,1-.81.08,39,39,0,0,1-7.41-1q-5.32-1.14-6.29-2.2c-.76-.91-.73-2.12.08-3.64a7.32,7.32,0,0,0,1-2.88V866.53l-5.72,1.36a4.87,4.87,0,0,0-1.33.65,2.19,2.19,0,0,1-1.57.41q-1.86-.45-5.08-4.51c-2.15-2.7-3.1-4.53-2.83-5.49.43-1.17,1.7-2.05,3.79-2.66a5.42,5.42,0,0,1,2.1-.07,6.71,6.71,0,0,0,2,0l28.06-6.75a17.63,17.63,0,0,0,2.34-.91,4.53,4.53,0,0,1,2.34-.38,3.9,3.9,0,0,1,3.06,1.67,13.48,13.48,0,0,1,1.21,3.41,19.89,19.89,0,0,1,.81,5.15A5.66,5.66,0,0,1,919,861C918.66,861.54,917.7,861.85,916.09,861.9Z"/><path class="cls-3" d="M963.59,908.15c-.06.45-.16,1.54-.32,3.26a3.47,3.47,0,0,1-.65,2,2.86,2.86,0,0,1-1.37.23,22.1,22.1,0,0,1-6.61-1.29q-4.27-1.21-5.81-2.88c-.43-.45-.86-2-1.29-4.55a56.74,56.74,0,0,0-2-8.41,63.82,63.82,0,0,0-8.95,2.08,35.22,35.22,0,0,0-7.66,2.85c-.8,2.17-1.88,4.85-3.22,8-.16.71-.34,1.38-.53,2a2.67,2.67,0,0,1-1.41,1.55,1.28,1.28,0,0,1-.72.16c-1.29,0-3.46-.64-6.5-1.9s-4.61-2.1-4.71-2.5q-.33-1.07,1.53-5.23,2.58-6.06,3-7.43a4.47,4.47,0,0,1-1.69-3.18,5.16,5.16,0,0,1,.08-.84c.11-.61,1.75-1.69,4.92-3.26L930,855.46a12.07,12.07,0,0,0,.08-3.34c-.11-1.36.06-2.22.49-2.58a3.16,3.16,0,0,1,1.93-.37A46.31,46.31,0,0,1,943.35,851c4.67,1.21,7.47,2.3,8.38,3.25q.49,8.43,3.63,25.25Q959.4,900.27,963.59,908.15Zm-21.05-23q-1-4.77-1.29-6.29A94.77,94.77,0,0,1,940,868.27q-1.6,3.72-3.79,10.31a56,56,0,0,0-2.5,8.64A80.91,80.91,0,0,1,942.54,885.1Z"/><path class="cls-3" d="M1015,902.23q.72,1.29-2.87,6.33t-6,5a4.82,4.82,0,0,1-4.12-2.58,9.79,9.79,0,0,0-1.21-2.2l-17-14.93v14a4.9,4.9,0,0,0,.68,2.13,4.74,4.74,0,0,1,.69,1.89c0,1.52-1.05,2.35-3.15,2.5a24.75,24.75,0,0,1-7.17-.83c-3.45-.71-5.16-1.47-5.16-2.27a3.45,3.45,0,0,1,.2-1,5.7,5.7,0,0,0,.2-1.63V855.69a1.86,1.86,0,0,0-.24-1,1.49,1.49,0,0,1-.24-.65c.05-1.36,1.12-2.17,3.22-2.42a15,15,0,0,1,4.4.72,19,19,0,0,0,4.87.79q1.38-.07,5.61-2.08a17.69,17.69,0,0,1,7.38-2,14.62,14.62,0,0,1,2.5.23,9.34,9.34,0,0,1,4.11,2q1.86,1.51,3.55,3c3,2.63,4.49,4,4.59,4.17a8,8,0,0,1,2.26,5.08q.5,8.79-16,22.59,3.38,2.88,14.91,14a14.48,14.48,0,0,1,2.1.91A12,12,0,0,1,1015,902.23Zm-17.83-42.37q-3.78,0-13.38,7.42v11.6q3.46-1.27,9.11-7.81t5.64-9.7C998.58,860.36,998.13,859.86,997.21,859.86Z"/><path class="cls-3" d="M1058.26,861.9a4.84,4.84,0,0,1-1.78-.49,3.17,3.17,0,0,0-1.85-.34l-8.31,2.12v39.88a12,12,0,0,0,1.13,4.77,5.44,5.44,0,0,1-.16,2.88c-.32,1.57-.83,2.56-1.53,3a2.51,2.51,0,0,1-.81.08,39.14,39.14,0,0,1-7.42-1q-5.31-1.14-6.29-2.2c-.75-.91-.72-2.12.08-3.64a7.22,7.22,0,0,0,1-2.88V866.53l-5.72,1.36a4.73,4.73,0,0,0-1.33.65,2.22,2.22,0,0,1-1.58.41c-1.23-.3-2.93-1.8-5.08-4.51s-3.09-4.53-2.82-5.49c.43-1.17,1.69-2.05,3.79-2.66a5.42,5.42,0,0,1,2.1-.07,6.64,6.64,0,0,0,2,0l28.07-6.75a18.21,18.21,0,0,0,2.34-.91,4.5,4.5,0,0,1,2.33-.38,3.91,3.91,0,0,1,3.07,1.67,13.89,13.89,0,0,1,1.21,3.41,19.83,19.83,0,0,1,.8,5.15,5.68,5.68,0,0,1-.44,2.54C1060.82,861.54,1059.87,861.85,1058.26,861.9Z"/><rect class="cls-4" x="524.3" y="471.86" width="969.33" height="557.63"/><rect class="cls-4" x="1324.62" y="524.29" width="15.7"/><rect class="cls-4" x="1107.45" y="639.44" width="15.7"/><line class="cls-4" x1="681.69" y1="918.91" x2="768.53" y2="801.92"/><polyline class="cls-2" points="1470.42 383.44 1461.61 438.39 1426.71 432.38"/><polyline class="cls-2" points="1376.18 376.16 1367.37 431.11 1332.47 425.09"/><polyline class="cls-2" points="665.53 385.81 656.72 440.76 621.82 434.74"/><polyline class="cls-2" points="729.91 384.06 720.75 451.82 678.96 443.52"/><polyline class="cls-2" points="590.95 384.71 581.79 452.47 540 444.17"/><polyline class="cls-2" points="1412.38 377.03 1403.56 431.98 1368.66 425.96"/><polyline class="cls-2" points="1588.5 372.22 1579.69 427.17 1544.79 421.16"/><polyline class="cls-2" points="694.81 388.65 686 443.6 651.1 437.58"/><polyline class="cls-2" points="634.66 378.77 625.85 433.72 590.95 427.71"/><polyline class="cls-2" points="1441.6 391.12 1432.79 446.07 1397.89 440.05"/><polyline class="cls-2" points="333.32 368.2 324.16 435.95 282.36 427.65"/><polyline class="cls-2" points="417.83 381.62 409.02 436.57 374.12 430.56"/><polyline class="cls-2" points="798.66 386.69 789.85 441.64 754.95 435.63"/><polyline class="cls-2" points="578.85 376.21 571.5 431.05 537.71 424.3"/><polyline class="cls-2" points="1491.85 377.75 1484.86 425.44 1452.19 425.26"/><path class="cls-5" d="M371.6,590.31a42.51,42.51,0,0,0,13.52-36c-2.43-23.62-23-41.17-45.91-39.21-22.08,1.89-38.29,21.2-37.28,43.72-32.18,9.65-66.41,22.09-70.24,22.43l-74.61-6.38c0-.34,0-.69-.08-1-2.33-22.6-22-39.4-43.94-37.52S75.21,558,77.54,580.62a42.35,42.35,0,0,0,19.82,31.72A38.55,38.55,0,0,0,78.57,650c2.22,21.59,21,37.64,42,35.85a37.26,37.26,0,0,0,32-25.15L236,629.54c4.07-.36,44.85,6,80.21,9,5.81,17.87,23,30.14,41.83,28.53,21.82-1.87,37.63-21.6,35.32-44.08A42,42,0,0,0,371.6,590.31Z"/><ellipse class="cls-6" cx="1398.82" cy="131.09" rx="38.4" ry="27.47"/><ellipse class="cls-6" cx="1505.79" cy="136.92" rx="39" ry="27.9"/><ellipse class="cls-6" cx="1477.13" cy="161.31" rx="40.38" ry="32.15"/><ellipse class="cls-6" cx="1453.11" cy="129.17" rx="37.72" ry="26.98"/><ellipse class="cls-6" cx="1417.99" cy="175.5" rx="35.12" ry="29.48"/><ellipse class="cls-6" cx="1373.54" cy="163.47" rx="28.6" ry="16.55"/><ellipse class="cls-6" cx="1367.02" cy="136.92" rx="28.6" ry="16.55"/><ellipse class="cls-6" cx="562.3" cy="65.83" rx="33.34" ry="26.64"/><ellipse class="cls-6" cx="655.19" cy="71.49" rx="33.87" ry="27.06"/><ellipse class="cls-6" cx="630.3" cy="95.15" rx="35.06" ry="31.18"/><ellipse class="cls-6" cx="609.45" cy="63.97" rx="32.75" ry="26.17"/><ellipse class="cls-6" cx="578.95" cy="108.9" rx="30.5" ry="28.59"/><ellipse class="cls-6" cx="540.34" cy="97.24" rx="24.84" ry="16.05"/><ellipse class="cls-6" cx="534.69" cy="71.49" rx="24.84" ry="16.05"/><circle class="cls-5" cx="718.53" cy="376.16" r="20.94"/><ellipse class="cls-6" cx="79.98" cy="71.17" rx="28.32" ry="20.23"/><ellipse class="cls-6" cx="158.86" cy="75.46" rx="28.76" ry="20.55"/><ellipse class="cls-6" cx="137.73" cy="93.43" rx="29.78" ry="23.68"/><ellipse class="cls-6" cx="120.02" cy="69.75" rx="27.82" ry="19.87"/><ellipse class="cls-6" cx="94.12" cy="103.87" rx="25.9" ry="21.71"/><ellipse class="cls-6" cx="61.33" cy="95.02" rx="21.09" ry="12.19"/><ellipse class="cls-6" cx="56.53" cy="75.46" rx="21.09" ry="12.19"/><ellipse class="cls-6" cx="1764.11" cy="77.59" rx="27.5" ry="20.61"/><ellipse class="cls-6" cx="1840.73" cy="81.97" rx="27.94" ry="20.93"/><ellipse class="cls-6" cx="1820.21" cy="100.27" rx="28.92" ry="24.12"/><ellipse class="cls-6" cx="1803.01" cy="76.15" rx="27.02" ry="20.24"/><ellipse class="cls-6" cx="1777.85" cy="110.91" rx="25.15" ry="22.12"/><ellipse class="cls-6" cx="1746.01" cy="101.89" rx="20.49" ry="12.42"/><ellipse class="cls-6" cx="1741.34" cy="81.97" rx="20.49" ry="12.42"/><ellipse class="cls-6" cx="280.1" cy="147.94" rx="27.5" ry="20.61"/><ellipse class="cls-6" cx="356.72" cy="152.31" rx="27.94" ry="20.93"/><ellipse class="cls-6" cx="336.2" cy="170.62" rx="28.92" ry="24.12"/><ellipse class="cls-6" cx="318.99" cy="146.5" rx="27.02" ry="20.24"/><ellipse class="cls-6" cx="293.84" cy="181.25" rx="25.15" ry="22.12"/><ellipse class="cls-6" cx="262" cy="172.24" rx="20.49" ry="12.42"/><ellipse class="cls-6" cx="257.33" cy="152.31" rx="20.49" ry="12.42"/><circle class="cls-5" cx="838.91" cy="412.26" r="16.43"/><circle class="cls-5" cx="776.81" cy="401.14" r="16.43"/><polyline class="cls-2" points="1588.5 392.46 1579.69 447.41 1544.79 441.39"/><polyline class="cls-2" points="1800.82 388.52 1792.01 443.47 1757.11 437.45"/><polyline class="cls-2" points="1653.92 407.42 1645.11 462.37 1610.21 456.35"/><polyline class="cls-2" points="1704.16 394.05 1697.18 441.74 1664.51 441.56"/><polyline class="cls-2" points="1547.76 380.63 1538.95 435.58 1504.05 429.56"/><polyline class="cls-2" points="1760.08 376.69 1751.27 431.64 1716.37 425.63"/><polyline class="cls-2" points="1613.19 395.59 1604.38 450.54 1569.48 444.52"/><polyline class="cls-2" points="1663.43 382.22 1656.45 429.92 1623.78 429.73"/><polyline class="cls-2" points="1702.65 385.69 1693.84 440.64 1658.94 434.62"/><polyline class="cls-2" points="1914.97 381.75 1906.16 436.7 1871.26 430.69"/><polyline class="cls-2" points="1768.07 400.64 1759.26 455.6 1724.36 449.58"/><polyline class="cls-2" points="1818.31 387.27 1811.33 434.97 1778.66 434.79"/><polyline class="cls-2" points="1525.91 370.65 1517.1 425.6 1482.2 419.58"/><polyline class="cls-2" points="1738.23 366.71 1729.42 421.66 1694.52 415.65"/><polyline class="cls-2" points="1591.33 385.61 1582.52 440.56 1547.62 434.54"/><polyline class="cls-2" points="1641.57 372.24 1634.59 419.93 1601.92 419.75"/><polyline class="cls-2" points="1636.65 370.65 1626.92 425.6 1588.36 419.58"/><polyline class="cls-2" points="1871.26 366.71 1861.52 421.66 1822.96 415.65"/><polyline class="cls-2" points="1708.94 385.61 1699.21 440.56 1660.65 434.54"/><polyline class="cls-2" points="1764.46 372.24 1756.74 419.93 1720.64 419.75"/><polyline class="cls-2" points="22.68 382.57 16.36 440.74 -8.65 434.38"/><polyline class="cls-2" points="164.94 396.82 158.63 454.99 133.61 448.62"/><polyline class="cls-2" points="66.6 397.04 60.28 455.21 35.27 448.84"/><polyline class="cls-2" points="102.6 382.88 97.6 433.38 74.18 433.18"/><polyline class="cls-2" points="102.6 382.88 93.79 437.83 58.89 431.82"/><polyline class="cls-2" points="54.36 377.43 45.55 432.38 10.65 426.36"/><polyline class="cls-2" points="73.78 390.56 64.97 445.51 30.07 439.49"/><polyline class="cls-2" points="131.24 378.23 124.25 425.92 91.58 425.74"/><polyline class="cls-2" points="164.94 396.82 156.13 451.77 121.23 445.75"/><polyline class="cls-2" points="61.4 390.55 55.08 448.72 30.07 442.36"/><polyline class="cls-2" points="89.44 386.14 80.63 441.09 45.73 435.08"/><polyline class="cls-2" points="-5.37 391.52 26.67 437.02 -2.52 457.07"/><polyline class="cls-2" points="1343.81 381.17 1370.04 430.25 1338.61 446.57"/><path class="cls-7" d="M760.43,163.35l31.27,27c17.54,15.16,18.82,41,2.86,57.62l-5.42,5.65c-15.95,16.65-43.09,17.87-60.62,2.71l-31.27-27c-17.54-15.16-18.82-41-2.86-57.62l5.42-5.65C715.76,149.42,742.9,148.2,760.43,163.35Z"/><path class="cls-7" d="M1110.47,233.74l-26,24.65c-16.76,15.93-43.93,15.93-60.69,0l-3.94-3.74a39.37,39.37,0,0,1,0-57.69l25.95-24.65c16.76-15.92,43.93-15.92,60.69,0l4,3.75A39.35,39.35,0,0,1,1110.47,233.74Z"/><path class="cls-8" d="M589.83,756.63c-49-113.33-73.05-211.31-53.71-218.85S610.86,616,659.86,729.31"/><path class="cls-7" d="M1165.27,972.65,910.1,979.58a63.33,63.33,0,0,1-18.84,2.12L614.89,971.3q-2.89-.12-5.76-.48l-94.88-12.26c-46.78-6-68.58-58.39-38.8-93.19L783.21,505.69c18.46-21.58,50.53-27.51,76.16-14.09l183.84,96.26A58.23,58.23,0,0,1,1071.38,620L1153,851.89C1163.94,883,1198.51,963.73,1165.27,972.65Z"/><path class="cls-8" d="M681.87,436.63c0-147.23,98.39-266.57,219.75-266.57s219.75,119.34,219.75,266.57"/><path class="cls-9" d="M1006.7,555.42c0,53.43-47.05,96.74-105.08,96.74s-105.08-43.31-105.08-96.74"/><ellipse class="cls-10" cx="1071.95" cy="533.85" rx="125.97" ry="115"/><path class="cls-6" d="M924.43,429.89c0-56.61,21.39-102.49,47.77-102.49S1020,373.28,1020,429.89"/><path class="cls-6" d="M786,429.89c0-58.7,21.68-106.29,48.42-106.29s48.42,47.59,48.42,106.29"/><ellipse class="cls-11" cx="748.43" cy="533.85" rx="119.1" ry="113.13"/><ellipse class="cls-6" cx="820.6" cy="371.85" rx="18.88" ry="17.93"/><ellipse class="cls-7" cx="833.51" cy="385.06" rx="26.86" ry="25.52"/><ellipse class="cls-7" cx="974.58" cy="384.33" rx="26.09" ry="24.79"/><path class="cls-12" d="M844.51,567.22c-29.58,71.73-40.77,134.64-25,140.51S872,660.2,901.62,588.46"/><ellipse class="cls-7" cx="681.87" cy="253.53" rx="112.11" ry="41.26" transform="translate(125.21 721.88) rotate(-60.47)"/><ellipse class="cls-7" cx="1122.61" cy="249.15" rx="38.89" ry="102.46" transform="translate(36.71 627.5) rotate(-31.72)"/><ellipse class="cls-12" cx="839.47" cy="717.3" ry="13.81"/><ellipse class="cls-13" cx="908.73" cy="504.58" rx="257.19" ry="83.86"/><path class="cls-3" d="M863.8,458.72c0-24.4,18.4-44.19,41.09-44.19S946,434.32,946,458.72"/><path class="cls-14" d="M1072,987c0-55.65,29.38-100.76,65.62-100.76s65.62,45.11,65.62,100.76"/><path class="cls-14" d="M843.42,1011.5c0-56.68,32.69-102.64,73-102.64s73,46,73,102.64"/><path class="cls-14" d="M409.38,960.18c0-57.46,29.21-104,65.24-104s65.24,46.58,65.24,104"/><path class="cls-14" d="M629.34,980.33c0-55.82,28-101.07,62.51-101.07s62.52,45.25,62.52,101.07"/><ellipse class="cls-3" cx="834.42" cy="380.25" rx="17.53" ry="16.65"/><ellipse class="cls-3" cx="974.58" cy="380.25" rx="17.53" ry="16.65"/><ellipse class="cls-6" cx="826.1" cy="377.1" rx="1.82" ry="6.31" transform="translate(-78.32 295.49) rotate(-19.38)"/><ellipse class="cls-6" cx="969.31" cy="371.85" rx="2.89" ry="4.7"/><ellipse class="cls-6" cx="965.58" cy="378.53" rx="1.95" ry="6.15" transform="translate(-71.42 362.35) rotate(-20.51)"/><ellipse class="cls-6" cx="831.43" cy="372.23" rx="2.89" ry="4.7"/><ellipse class="cls-3" cx="1143.77" cy="472.54" rx="3.03" ry="2.88"/><ellipse class="cls-3" cx="1179.36" cy="498.83" rx="3.03" ry="2.88"/><ellipse class="cls-3" cx="1143.77" cy="510.33" rx="3.03" ry="2.88"/><ellipse class="cls-3" cx="648.52" cy="516.23" rx="3.03" ry="2.88"/><ellipse class="cls-3" cx="681.87" cy="507.46" rx="3.03" ry="2.88"/><ellipse class="cls-3" cx="662.89" cy="478.94" rx="3.03" ry="2.88"/><path class="cls-15" d="M1372.48,796.05l88.85,215.9a2.35,2.35,0,0,0,.3.54c1.92,2.59,18.34,25.26,8.73,25.26L814.16,1033c-8.8,0-42.12,2.87-50.8-1.76-1.61-.86-.84,1.85,0,0L870.6,796.05"/><ellipse class="cls-16" cx="1122.37" cy="805.43" rx="256.95" ry="56.32"/><ellipse class="cls-17" cx="1131.84" cy="844.39" rx="256.95" ry="56.32"/><path class="cls-3" d="M874.67,282.6c.77,2.79-26.85-4.43-56.22,3.68S769.06,314.74,768.29,312s16.11-31,45.48-39.11S873.9,279.81,874.67,282.6Z"/><path class="cls-3" d="M1049.13,323.68c-1.19,3-18.27-20.91-46.58-32.18s-57.15-5.62-56-8.61,32.61-17.66,60.92-6.39S1050.32,320.69,1049.13,323.68Z"/><ellipse class="cls-18" cx="78.87" cy="715.48" rx="58.44" ry="76.25" transform="translate(-46.43 6.66) rotate(-3.73)"/><ellipse class="cls-18" cx="76.32" cy="844.22" rx="55.82" ry="72.84" transform="translate(-54.82 6.76) rotate(-3.73)"/><ellipse class="cls-18" cx="410.91" cy="691.1" rx="61.05" ry="79.66" transform="translate(-44.14 28.23) rotate(-3.73)"/><ellipse class="cls-18" cx="424.45" cy="818.66" rx="58.11" ry="75.81" transform="translate(-52.42 29.38) rotate(-3.73)"/><path class="cls-18" d="M251.71,818.49,99.41,884.65c-10.79.83-21.23-22-23.33-51l-5.34-73.73c-2.1-29,4.94-53.2,15.72-54l160,22.88c10.78-.83,186.81-78.7,188.91-49.69l11.24,155.26C448.7,863.33,262.49,817.66,251.71,818.49Z"/><path class="cls-3" d="M185.16,817.39c1.14,7.13.52,13.3-1.74,18.73a18.86,18.86,0,0,1-11.26,11,10.16,10.16,0,0,1-4.45.33c-3-.41-4.59-.61-4.71-.57q-2.33-.06-4.71-.18a6.74,6.74,0,0,1-4.5-2.28c-2.09-2-4.18-5.7-6.28-11.19-2.51-6.38-4.3-10.42-5.31-12a24.17,24.17,0,0,1-2.62-4.15,11.39,11.39,0,0,1-.38-5,5.63,5.63,0,0,1,1.38-3.46,4.76,4.76,0,0,1,2-.77,30.84,30.84,0,0,1,8.35-.3q5,.36,5.79,1.34c.51.65,1.68,4.31,3.48,10.87,1.65,6.07,3.07,9.27,4.31,9.69a1.24,1.24,0,0,0,.89.08c1.17-.32,1.91-2.18,2.2-5.57a43.71,43.71,0,0,0-.59-11.16q-2.26-13.21-8.24-16.86c-9.16-5.63-16-11.56-20.41-17.41-5.11-6.77-8.47-15.39-10-25.55a73.24,73.24,0,0,1,.67-25.64c1.75-8.53,4.42-13.29,8-14.49,1.48-.48,6.79,2.3,15.79,7.82q3.3,1.86,6.68,3.82a18.31,18.31,0,0,1,5.83,5.53q3.81,5.43,6,18.37c.27,1.61.64,4,1.09,7.08q.59,4.05.86,5.7a29.59,29.59,0,0,0,1.28,3.4,10,10,0,0,1,.94,3.25c.59,4.37-.22,6.91-2.43,7.64-1.26.43-3.8-.06-7.66-1.54-4.26-1.54-7.13-3.44-8.59-5.64a13.27,13.27,0,0,1-.75-3.12q-.42-2.36-1.55-10.7t-1.82-12.17c-.81-4.53-1.55-6.76-2.21-6.66-2.06.21-3.38,2.58-3.93,7.17a52.48,52.48,0,0,0,.75,15.59c1.75,9.63,4.71,16.27,8.87,19.83q6.92,5.28,13.7,10.21a34.59,34.59,0,0,1,9.46,9.86Q183.19,805,185.16,817.39Z"/><path class="cls-3" d="M217.7,763.88a8.79,8.79,0,0,1-.61,4.36q-.84,1.95-2.13,2a1.84,1.84,0,0,1-.72-.07c-1-.38-3.12-.46-6.36-.21q3.92,27,7.51,53.28a19.27,19.27,0,0,1,.9,2,15.13,15.13,0,0,1,1.14,3.83,4.2,4.2,0,0,1-3.14,5c-1.28.42-3.76.24-7.45-.58-4-.83-6.28-2-6.76-3.53a12.29,12.29,0,0,1,0-4.25,20.64,20.64,0,0,0,.13-5q-3.66-24.54-7.58-49.71l-3.37.28c-1.25.1-3.05-1.36-5.43-4.47s-3.75-5.69-4.07-7.66a6.58,6.58,0,0,1,.5-4,2.7,2.7,0,0,1,2.28-1.86l7.26-.27q-1-6.46-2.06-13a15.11,15.11,0,0,1-2.55-6.24c-.33-2,.09-3.3,1.25-3.75a8.37,8.37,0,0,1,2.54-.23,33.75,33.75,0,0,1,9.21,1.84c3.58,1.15,6,2.27,7.16,3.39a3.37,3.37,0,0,1,1,1.94,8.34,8.34,0,0,1-1,4.14,10.12,10.12,0,0,0-1.16,3.89l1.11,7.48,3.24-.1c.68,0,2.34,1.58,5,4.74S217.51,762.55,217.7,763.88Z"/><path class="cls-3" d="M276.2,815.32a4.78,4.78,0,0,1-.93,2.93,2.82,2.82,0,0,1-2.28,1.36c-7.87.17-12.36-.83-13.47-3.05a2.45,2.45,0,0,1-.27-.91,2.7,2.7,0,0,1,.3-1.38,4.22,4.22,0,0,0,.41-1.34,3,3,0,0,1,.28-1.08,23.9,23.9,0,0,0-.29-4.17c-.7.84-1.67,2.93-2.88,6.31a37.83,37.83,0,0,1-3.44,8c-1.76,2.81-3.9,4.52-6.45,5.08a5.48,5.48,0,0,1-4.63-1.37,46.89,46.89,0,0,1-4.19-4.07c-3.52-3.88-5.48-6.09-5.78-6.46a13.26,13.26,0,0,1-2.82-6.4,11.16,11.16,0,0,1-.07-2.09c.27-7.74,3.14-15.49,8.84-22.82,4.15-5.3,10.3-10.92,18.62-16.61-.26-2.59-1-4.22-2.13-4.9-.73-.45-3,.55-6.77,3.13a35.41,35.41,0,0,0-7.72,6.6,33.43,33.43,0,0,1-2.25,3,3.16,3.16,0,0,1-3,1c-.76-.2-2.49-1.58-5.25-4.25s-4.31-4.51-4.63-5.45c-.85-2.33-.53-4.21,1-5.6a36.27,36.27,0,0,1,3.84-1.74q3.41-2.76,6.86-5.42c4.91-3.29,9.25-5,12.92-5.31,1.57-.11,3.46.87,5.67,2.86q3,2.76,5.94,5.38t6,5c2.37,2.12,3.63,4.17,3.81,6.2q1.95,22.15,3.58,43.75A12.1,12.1,0,0,1,276.2,815.32Zm-18.43-32.06a20.93,20.93,0,0,0-7.51,7.94l-4.2,8.4a31.18,31.18,0,0,0-3,7.33,18.7,18.7,0,0,0-1.07,6.46c.07.66.3,1,.68.89,1.33-.24,3.85-4.57,7.76-12.63S256.81,787.57,257.77,783.26Z"/><path class="cls-3" d="M319.59,755.21a2.42,2.42,0,0,1-1,2.79,26,26,0,0,0-2.32,1.46c-4.06,7-9.49,16.48-16,29,.56,11.53.82,17.38.91,17.74s.36,1.23.83,2.63a13.25,13.25,0,0,1,.76,3.39,3.25,3.25,0,0,1-1.51,3,6.93,6.93,0,0,1-2.81,1,19.55,19.55,0,0,1-8-.5c-3.73-.83-5.69-2.42-5.84-4.73a12.14,12.14,0,0,1,.56-3.36,12.07,12.07,0,0,0,.53-3.8q-1.41-22.14-3.16-44.83c-1.08-4.26-1.65-6.49-1.66-6.64-.19-2.39.65-3.91,2.54-4.54a11,11,0,0,1,3-.37,25.42,25.42,0,0,1,7.71,1.22c2.72.83,4.35,1.71,4.89,2.67a2.82,2.82,0,0,1,.27,1.1,44.82,44.82,0,0,1-1.13,5.36c.11,1.77.21,3.54.31,5.31,1.45-3.23,2.88-6.45,4.29-9.63,1.92-4,3.41-6.09,4.44-6.32,1.51-.3,3.89.63,7.1,2.74S319.2,753.81,319.59,755.21Z"/><path class="cls-3" d="M363.57,758.11a5.55,5.55,0,0,1-1.34,3.15,3.52,3.52,0,0,1-2.51,1.45,2.32,2.32,0,0,1-.72-.07,25.22,25.22,0,0,0-6.46-.25q-.33,19.53-1,38.63a9.77,9.77,0,0,1,.58,1.47,7.35,7.35,0,0,1,.51,2.82c-.07,1.86-1.39,3-3.94,3.49-1.34.24-3.77,0-7.32-.77-3.87-.79-5.94-1.74-6.18-2.84a6.62,6.62,0,0,1,.7-3,11.37,11.37,0,0,0,.9-3.55q.16-17.68,0-35.73l-3.48.14c-1.3.05-2.91-1-4.88-3.28s-3-4.11-3-5.51a4,4,0,0,1,1.12-2.85,3.55,3.55,0,0,1,2.63-1.29l7.51-.1q-.06-4.62-.13-9.27a7.35,7.35,0,0,1-1.67-4.46,2.39,2.39,0,0,1,1.87-2.67,13.06,13.06,0,0,1,2.67-.16,45.12,45.12,0,0,1,9.25,1.34c3.53.83,5.82,1.64,6.88,2.45a1.74,1.74,0,0,1,.73,1.4c0,.67-.59,1.66-1.73,3a7.31,7.31,0,0,0-1.82,2.8l-.06,5.38,3.35,0c.7,0,2.15,1.17,4.32,3.48S363.6,757.14,363.57,758.11Z"/><polyline class="cls-2" points="147.13 379.85 140.82 438.03 115.81 431.66"/><polyline class="cls-2" points="227.06 380.17 218.25 435.12 183.35 429.1"/><polyline class="cls-2" points="178.82 374.71 170.01 429.66 135.11 423.65"/><polyline class="cls-2" points="185.85 387.83 179.54 446.01 154.53 439.64"/><polyline class="cls-2" points="235.43 386.41 229.12 444.59 204.11 438.22"/><polyline class="cls-2" points="315.36 386.73 306.55 441.68 271.65 435.66"/><polyline class="cls-2" points="267.12 381.27 258.31 436.22 223.41 430.21"/><polyline class="cls-2" points="274.15 394.39 267.84 452.57 242.82 446.2"/><polyline class="cls-2" points="302.2 389.99 293.39 444.94 258.49 438.92"/><polyline class="cls-2" points="340.69 383.11 334.37 441.28 309.36 434.92"/><polyline class="cls-2" points="420.61 383.43 411.8 438.38 376.9 432.36"/><polyline class="cls-2" points="372.37 377.97 363.56 432.92 328.66 426.9"/><polyline class="cls-2" points="379.4 391.09 373.09 449.26 348.08 442.89"/><polyline class="cls-2" points="407.45 386.68 398.64 441.63 363.74 435.62"/><polyline class="cls-2" points="422.28 382.78 415.96 440.95 390.95 434.58"/><polyline class="cls-2" points="502.2 383.09 493.39 438.04 458.49 432.03"/><polyline class="cls-2" points="453.96 377.64 445.15 432.59 410.25 426.57"/><polyline class="cls-2" points="461 390.76 454.68 448.93 429.67 442.56"/><polyline class="cls-2" points="489.04 386.35 480.23 441.3 445.33 435.29"/><polyline class="cls-2" points="502.33 385.58 496.02 443.75 471.01 437.38"/><polyline class="cls-2" points="582.26 385.89 573.45 440.84 538.55 434.83"/><polyline class="cls-2" points="534.02 380.44 525.21 435.39 490.31 429.37"/><polyline class="cls-2" points="541.05 393.56 534.74 451.73 509.73 445.36"/><polyline class="cls-2" points="569.1 389.15 560.29 444.1 525.39 438.08"/><polyline class="cls-2" points="1212.17 391.09 1212.38 427.14 1199.94 420.67"/><polyline class="cls-2" points="1170.84 380.51 1167.71 423.74 1143.02 417.03"/><polyline class="cls-2" points="1143.77 389.3 1143.92 431.06 1122.37 422.94"/><polyline class="cls-2" points="1196.12 394.13 1192.72 439.95 1175.24 432.67"/><polyline class="cls-2" points="1184.74 392.92 1181.62 436.15 1156.93 429.44"/><polyline class="cls-2" points="1811.77 377.6 1805.45 435.77 1780.44 429.4"/><polyline class="cls-2" points="1891.69 377.91 1882.88 432.87 1847.98 426.85"/><polyline class="cls-2" points="1843.45 372.46 1834.64 427.41 1799.74 421.39"/><polyline class="cls-2" points="1850.49 385.58 1844.17 443.75 1819.16 437.38"/><polyline class="cls-2" points="1878.53 381.17 1869.72 436.12 1834.82 430.11"/><polyline class="cls-2" points="73.1 368.41 88.67 421.84 54.56 431.35"/><polyline class="cls-2" points="27.17 384.14 42.75 437.57 8.63 447.09"/><polyline class="cls-2" points="39.15 392.99 58.36 448.26 33.03 453.22"/><polyline class="cls-2" points="62.6 376.99 78.18 430.42 44.07 439.93"/><circle class="cls-19" cx="1238.02" cy="71.5" r="26.89"/><circle class="cls-20" cx="1143.77" cy="84.97" r="21.4"/><circle class="cls-19" cx="1050.13" cy="113.1" r="21.82"/><path class="cls-21" d="M1850.87,317.1c8.05,184.27-121.88,249.67-322.21,288.16C1332.4,643,1196.51,505.37,1206.44,317.1c8.39-158.86,42.46-335.13,324.7-257.94C1704.14,106.47,1837.36,7.79,1850.87,317.1Z"/><path class="cls-3" d="M1474.42,142.55c-7.61,9-14.88,23.43-21.93,43.33-5.82,16.32-8.71,26.41-8.52,29.83a3.15,3.15,0,0,0,0,2.06,3.57,3.57,0,0,1,.19,1.85q-1.29,4.92-4.2,5.46c-1.55.32-6.29-.54-14.16-2.45-8.16-1.8-12.45-3.22-12.94-4.43-.08-.14-.07-2.32,0-6.56a93.62,93.62,0,0,1-6.07-27.77q-4.5,8.15-8.88,16.41a43.86,43.86,0,0,0-4.64,17.18,6,6,0,0,0-.19,2.59,5.3,5.3,0,0,1-.06,2.67q-1.63,4.83-4.38,5.91a11.23,11.23,0,0,1-2.3.58,58.52,58.52,0,0,1-14.58.35c-6.56-.52-10.17-1.85-10.9-4.19a38.4,38.4,0,0,0,.2-5.58,143.73,143.73,0,0,1-5.91-31.55q-1-13.83,1.27-34.47-.79-4.74-.12-6.19c1.46-3.44,3.23-5.42,5.33-5.91,2.37-.55,6.07-.41,11.11.65s7.72,2.34,8,3.57a50.86,50.86,0,0,1-.91,6.27,90.56,90.56,0,0,0-1.3,9.33c-.49,6.16,0,16,1.63,29.45q11.7-25.53,23.1-50.25a17.6,17.6,0,0,1,1.94-4,8.35,8.35,0,0,1,4.28-2.3c1-.22,4.62.6,10.83,2.66s9.35,3.65,9.38,4.56q0,.74-.73,7.09-.88,7.51-1.25,13.12a102.6,102.6,0,0,0,.75,23.42,290.91,290.91,0,0,1,11.69-30.31c3.56-8.2,6.24-13.69,8.07-16.57,1.21-3.44,3.75-4.91,7.61-4.35a47.24,47.24,0,0,1,10.17,2.82C1470.86,138.68,1473.67,140.62,1474.42,142.55Z"/><path class="cls-3" d="M1547.08,217.56a4.31,4.31,0,0,1-3.25,3.27,15.94,15.94,0,0,1-3.65.09,90.7,90.7,0,0,1-11.8-1.51c-4.55-.85-7.3-1.59-8.25-2.26a1.45,1.45,0,0,1-.55-1.17,7.12,7.12,0,0,1,1.38-2.81l1.92-1.59a2.9,2.9,0,0,0,1.07-2.28q1.15-37.44,0-37.82c-1.41-.43-4.73,1.58-10,6.21-5.66,4.94-8.57,9.13-8.68,12.36l-.69,21.55a3.37,3.37,0,0,1,1.46,4.11c-.64,2-2.24,3.31-4.78,4a5.69,5.69,0,0,1-1.75.18,82,82,0,0,1-11.43-1.26c-5-.8-7.72-1.38-8.18-1.77-1-1.05-1.06-2.29-.13-3.69a4.7,4.7,0,0,1,1.42-1.06c.83-.5,1.27-1,1.28-1.44q1.48-35.17,3-70.36a3.91,3.91,0,0,0-1-2.19c-.71-.92-.91-1.67-.61-2.25q.93-2,4.43-2.31c1.5-.13,5,.56,10.41,2.1,5.9,1.66,9.13,3.09,9.66,4.25.35.75.17,1.8-.52,3.16a12,12,0,0,0-1.15,5.14q-.29,9.07-.58,18.15c5.44-4.19,10.58-6,15.48-5.51a48.56,48.56,0,0,1,12.4,3.47q7.62,3,8.74,4.89,3.88,6.39,3.44,44.39A5.14,5.14,0,0,1,1547.08,217.56Z"/><path class="cls-3" d="M1608.13,173.31A25.12,25.12,0,0,1,1620.49,184a31.62,31.62,0,0,1,4.29,15.51c.22,8-1.8,14.67-6.13,20.1-4.8,5.79-11,8.06-18.38,6.82q-4.11-1-12.31-2.57a109.28,109.28,0,0,1-10.83-2.22,21,21,0,0,1-13.26-9.85,33,33,0,0,1,.25-33.4,23.22,23.22,0,0,1,14.38-10.13,13.1,13.1,0,0,1,4.26,0A109.19,109.19,0,0,1,1594,170.7,142.56,142.56,0,0,1,1608.13,173.31Zm-15.86,6.24q-3.87-.44-7.1,5.11a21.39,21.39,0,0,0-3.23,11,36.72,36.72,0,0,0,2.55,13c1.87,4.74,4,7.38,6.46,8,3.11.69,5.86-1.21,8.21-5.7a30,30,0,0,0,3.24-14.67,25.23,25.23,0,0,0-2-9.22Q1597.69,180.16,1592.27,179.55Z"/><path class="cls-3" d="M1395,282.69c.11,1-.41,2.33-1.58,3.87s-2.34,2.38-3.5,2.52a4.66,4.66,0,0,1-2.68-.64,5.55,5.55,0,0,0-3-.69c-4.4.23-6.86,3.71-7.39,10.41-.07.79-.15,1.9-.27,3.34s-.05,2.42-.09,3l4.67-.89q1.59-.3,6,2.7c2.93,2,4.32,3.54,4.14,4.63a7,7,0,0,1-2,3.76,6.83,6.83,0,0,1-3.64,2.17,4.91,4.91,0,0,1-1,.09c-1.25-.12-4.32.29-9.19,1.24q-1.68,21.3-3.37,42.57a2.6,2.6,0,0,0,1.08,1.94,2,2,0,0,1,.78,2.12q-1.17,3.74-6.53,5.06c-2,.48-5.74.62-11.22.39-5.86-.23-8.92-.95-9.2-2.09-.15-.47.28-1.6,1.3-3.4a11.44,11.44,0,0,0,1.63-4l3.27-38.3-4.91,1c-1.83.37-4-.39-6.39-2.28s-3.56-3.54-3.43-5a5.24,5.24,0,0,1,1.83-3.23,7.46,7.46,0,0,1,3.7-2l10.36-2.11q1-11.91,3.28-16.94c3.45-7.37,9.89-12,19.41-13.8,1.25-.23,2.5-.42,3.75-.58a19.36,19.36,0,0,1,9.58,1.81C1393.35,280.61,1394.9,281.72,1395,282.69Z"/><path class="cls-3" d="M1455.77,332.7c.86.88-1.27,4.16-6.42,10-5.57,6.24-11,10.85-16.17,13.74a10.58,10.58,0,0,1-2.76.82,62.4,62.4,0,0,1-15.32.5c-6.64-.34-10.92-1.28-12.89-2.84-5.43-4.13-7.76-11-7.07-20.43a48.59,48.59,0,0,1,9.25-25c5.94-8.39,13.06-13.26,21.46-14.63a37.08,37.08,0,0,1,11,.09,34,34,0,0,1,12.92,4.12c.86.5,1.61,2.24,2.24,5.2a30.1,30.1,0,0,1,1,9.39c-.24,4.62-1.52,8-3.83,10.07a231.46,231.46,0,0,1-31.84,9.05,24,24,0,0,0,1.1,10.49c1.15,3.51,2.49,5.15,4,4.94,2-.31,4.51-1.91,7.47-4.78,2.65-2.46,4.31-4.42,5-5.9a52,52,0,0,1,3.25-6.89c1.62-.4,4.76-.37,9.43.12S1455,331.87,1455.77,332.7Zm-25-27.46c-1.68.12-4.15,2.35-7.42,6.75s-5.3,8.46-6,12.12a31.21,31.21,0,0,0,10.91-4.12c1.65-1.1,2.67-4.69,3-10.8C1431.44,306.63,1431.27,305.31,1430.78,305.24Z"/><path class="cls-3" d="M1540.49,268.84c.19.63-.2,1.84-1.18,3.65a15,15,0,0,0-1.47,3.09q-.49,30.51-1,61c0,2.06.21,3.32.72,3.79q2.28,2.28,1.34,3.18c-.53.53-1.87.87-4.05,1-2.38.16-6,.14-10.85,0-5.47-.23-8.34-.29-8.65-.26a4.07,4.07,0,0,1-4-1.91,2.6,2.6,0,0,1-.12-1.23,62.4,62.4,0,0,1,2-11.84q-3.82,4.91-7.51,9.9c-3.51,4.14-6.62,6.24-9.28,6.24-20.22-.09-29.85-6.52-29.2-20.12.37-7.69,3.93-16,10.6-24.48,6.45-8.22,13.34-13.64,20.72-16.34a9.74,9.74,0,0,1,2.87-.65c2.5-.13,6.78,1.65,12.9,5.33l.51-18.58a10.21,10.21,0,0,0-1.27-2.7,6.26,6.26,0,0,1-1.11-2.89q.06-2,4.22-2.1a59.07,59.07,0,0,1,10.7,1.21c3,.62,5.88,1.21,8.76,1.78C1538.68,266.37,1540.11,267.35,1540.49,268.84Zm-26.68,25c-5.68,1.88-10.9,5.73-15.69,11.61s-7.29,11.31-7.47,16.07c-.21,5.57,3,8.21,9.77,8C1504,329.46,1508.53,317.38,1513.81,293.83Z"/><path class="cls-3" d="M1641.43,299.14a3.38,3.38,0,0,1-1.71,2.66,5.38,5.38,0,0,1-3.59.88,5.77,5.77,0,0,1-1.06-.19,59.29,59.29,0,0,0-9.55-1.3l1,35.09a12.49,12.49,0,0,1,1,1.5,5.6,5.6,0,0,1,1.08,2.74c.05,1.72-2,2.46-6.1,2.3-2.16-.09-6.15-.89-11.94-2.3-6.31-1.49-9.68-2.69-10.11-3.72-.21-.43.14-1.3,1-2.6a6,6,0,0,0,1.34-3l-.51-31.65-5.16-.26c-1.92-.1-4.32-1.2-7.17-3.33s-4.27-3.78-4.28-5a2.81,2.81,0,0,1,1.72-2.36,6.72,6.72,0,0,1,3.84-.91c3.62.17,7.25.36,10.87.57,0-2.68-.09-5.36-.13-8a5.49,5.49,0,0,1-2.31-4c0-1.25.87-2,2.66-2.15a29.34,29.34,0,0,1,3.75.07,91.43,91.43,0,0,1,13,2c5,1.09,8.19,2.08,9.71,2.93.71.42,1.07.87,1.09,1.34s-.76,1.4-2.32,2.44-2.4,1.8-2.49,2.26c0,1.6.09,3.2.13,4.8l4.82.43c1,.09,3.14,1.34,6.43,3.79S1641.4,298.26,1641.43,299.14Z"/><path class="cls-3" d="M1723.29,355.81a3,3,0,0,1-3.1,2.53,17.78,17.78,0,0,1-3.74-.75c-3.41-.91-7.5-2.29-12.27-4s-7.69-3-8.73-3.81a1.78,1.78,0,0,1-.67-1.22,4.87,4.87,0,0,1,1.21-2.44l1.89-1.18a2,2,0,0,0,.93-2q-1.68-35.88-2.88-36.37c-1.52-.57-4.82,1-10,4.79-5.54,4-8.27,7.53-8.12,10.52q.48,10,1,19.94c1.67,1.24,2.29,2.61,1.86,4.07-.52,1.75-2.08,2.71-4.69,2.92a6.79,6.79,0,0,1-1.83-.13c-2.75-.46-6.8-1.49-12.14-3s-8.28-2.39-8.8-2.81q-1.74-1.64-.44-3.33a3.68,3.68,0,0,1,1.42-.75c.85-.34,1.27-.71,1.25-1.13q-1.26-31.44-2.51-62.87a3.84,3.84,0,0,0-1.26-2c-.83-.87-1.1-1.54-.82-2,.54-1.18,2.05-1.81,4.51-1.87,1.57-.05,5.29.7,11.18,2.34,6.37,1.76,9.88,3.25,10.52,4.34.43.72.33,1.69-.3,2.9a9.18,9.18,0,0,0-.8,4.71l.81,16.78c5.38-3.4,10.64-4.69,15.8-3.81a56.59,56.59,0,0,1,13.21,4.52c5.42,2.47,8.56,4.45,9.43,5.79q4.5,6.82,6.8,45.15C1723.09,353.35,1723.52,354.77,1723.29,355.81Z"/><path class="cls-3" d="M1794.26,368.37c.93,1.52-.75,3.78-5,6.69a22.19,22.19,0,0,1-14.12,4,9.63,9.63,0,0,1-2.61-.91,134.37,134.37,0,0,1-15.14-8.78c-6.7-4.18-11.16-7.35-13.35-9.88-6-6.79-9.33-14.21-9.85-22.67-.5-8,1.59-14.37,6.21-19.19,5-5.28,11.6-7,19.86-4.65a47.41,47.41,0,0,1,11,5.07,59,59,0,0,1,13.27,10.57c.91,1,1.85,3.19,2.81,6.71a45.93,45.93,0,0,1,2.06,10.64q.45,7.28-2.56,8.59c-9.79-2.15-19.92-5-30.39-8.46a30.66,30.66,0,0,0,2.42,10.87c1.59,4.1,3.14,6.51,4.61,7.16,2,.86,4.24.73,6.82-.43,2.31-.94,3.71-2,4.21-3.09a24.37,24.37,0,0,1,2.36-5.21c1.55.52,4.64,2.36,9.25,5.73S1793.42,367,1794.26,368.37Zm-27.81-42.75c-1.67-.7-3.86.37-6.6,3.12a14.31,14.31,0,0,0-4.53,8.92c4.4,1.34,7.87,1.87,10.41,1.47q2.26-.36,1.7-9.3C1767.27,327.32,1766.94,325.92,1766.45,325.62Z"/><path class="cls-3" d="M1403.22,415.37q.22,1-1.45,4.39a25.77,25.77,0,0,0-1.71,3.84q-2.43,34.42-4.88,68.78c-.17,2.32,0,3.69.48,4.1q2.17,2.07,1.16,3.28-.85,1.07-4.17,2a91.91,91.91,0,0,1-11,2.1c-5.49.74-8.36,1.1-8.68,1.19q-2.79.53-3.85-1.5a3.15,3.15,0,0,1,0-1.35,84.79,84.79,0,0,1,2.73-13.47q-4.12,6.08-8.1,12.1-5.61,7.61-9.57,8c-20,1.91-28.87-5.43-27.6-19.9.73-8.28,4.6-17.22,11.62-27q10.18-14.18,21.51-20.39a10.85,10.85,0,0,1,2.91-1.18c2.53-.57,6.73.66,12.71,3.58q.81-10.38,1.61-20.76a8.74,8.74,0,0,0-1.13-2.74,5.94,5.94,0,0,1-1-3q.18-2.25,4.42-3.21a58.49,58.49,0,0,1,10.85-1q4.5,0,8.88-.09Q1402.77,413,1403.22,415.37Zm-28.75,33.84q-8.79,4.74-16.44,15.43t-8.33,18.55c-.51,6.1,2.55,8.72,9.26,7.68C1362.51,490.31,1367.74,476.37,1374.47,449.21Z"/><path class="cls-3" d="M1467.12,420.55a16.5,16.5,0,0,1,13.09,7.54c2.68,4.13,3.92,9.38,3.66,15.79a46.43,46.43,0,0,1-8.41,24.75c-5.83,8.34-12.91,13.36-21.11,14.94-3,.35-7.53,1-13.53,2a109.25,109.25,0,0,1-11.84,1.82c-6,.71-10.69-1.25-13.93-5.93-3-4.35-4.16-10.11-3.69-17.21a49.16,49.16,0,0,1,6.32-20.82,46.49,46.49,0,0,1,16.68-17.26,17.14,17.14,0,0,1,4.76-1.73,103.2,103.2,0,0,1,12.38-1.57A132.91,132.91,0,0,1,1467.12,420.55Zm-18.23,13.08c-2.85.68-5.61,3.53-8.3,8.59s-4.15,9.67-4.39,13.77a34.25,34.25,0,0,0,1.88,13.81c1.73,4.63,3.94,6.76,6.6,6.44,3.42-.46,6.62-3.73,9.58-9.73a44.82,44.82,0,0,0,4.72-17.86,22.67,22.67,0,0,0-1.57-9.66C1455.75,434.49,1452.91,432.68,1448.89,433.63Z"/><path class="cls-3" d="M1567.38,409.86a22.23,22.23,0,0,1-1.77,1.95,3.94,3.94,0,0,0-1.13,2.09l-.12,40.05c0,10.14-6.8,17.22-20.44,22.24a108.78,108.78,0,0,1-17.28,5.05c-7.52,1.44-14,1.38-19.43-.36a57.4,57.4,0,0,1-7.76-3.23l-3.06-1.12c-1.07-.46-1.65-1.06-1.73-1.81-.08-1,1.59-2.11,5-3.44a16.12,16.12,0,0,1,2-.53,48.61,48.61,0,0,1,8.6-1,19.78,19.78,0,0,1,7.1.65c1.72.92,3.51,1.86,5.35,2.83a10.89,10.89,0,0,0,6.57.94c4.51-.57,7.47-2.8,8.84-6.74.69-1.91,1.06-5.17,1.14-9.76-.34.3-1.39,1.26-3.16,2.91a24.47,24.47,0,0,1-3.5,2.72,9.72,9.72,0,0,1-3.8,1.58c-5.82,1-10.67,1-14.57,0-11.57-3.38-17.06-10.64-16.68-22,.25-7.16,3-14.1,8.2-20.63a41.61,41.61,0,0,1,20.82-14.41,10.06,10.06,0,0,1,1.76-.42,13.27,13.27,0,0,1,5.74.68c1.81.59,3.61,1.21,5.42,1.87.65-1.13,1.33-2.25,2-3.35a4.72,4.72,0,0,1,3.3-2.07c2.24-.41,6.21-.4,11.92.14s8.94,1.21,9.69,1.89Q1568.34,408.34,1567.38,409.86Zm-28.78,25.6a58.41,58.41,0,0,0,1.45-10.71c.07-5-1.28-7.69-4.06-8-2.25-.21-5,2.35-8.34,7.78s-5.06,10.25-5.15,14.35c-.17,7.45,1.15,13.09,4,16.91C1533.19,448.87,1537.2,442.17,1538.6,435.46Z"/><path class="cls-3" d="M1642.41,403.88c.9,4.88-1.32,9-6.71,12.58-3,2-9,4.68-18,8.46-8.48,3.57-14.21,6.81-17.08,9.34q-3.21,2.91-5.49,2.7c-3.68-.33-9.07-2.69-16.12-7a1,1,0,0,1-.49-.88c0-1.08.86-2.31,2.58-3.66,2.14-1.66,8.41-5.27,18.67-10.22s17.15-8.35,20.81-10.79c5.83-3.85,7.1-7,3.88-9.56-1.84-1.47-4.8-2.32-8.92-2.49-7.29-.29-16.7,1.36-28.36,5.39a4.21,4.21,0,0,1-1,.11c-1.6,0-4-.89-7.19-2.77a38.65,38.65,0,0,1-6.38-4.65c-.86-.74-.56-1.67.87-2.76s5.58-2.54,12.43-4.16a89.26,89.26,0,0,1,22.26-2.37,44.22,44.22,0,0,1,14.7,2.59C1634.24,388.2,1640.74,395.11,1642.41,403.88Zm-34.54,46.36a1.09,1.09,0,0,1,.34.72c0,.47-.69,1.11-2.08,1.92a7.51,7.51,0,0,0-2.59,2c-.74,1.2-1.49,2.43-2.23,3.7a4.65,4.65,0,0,1-4.56,2.54c-4.61-.39-10.66-2.48-18.12-6.18-.54-.26-.71-.55-.49-.87s.43-.51.65-.77c.76-1.14,1.58-2.28,2.44-3.42a6.38,6.38,0,0,0,1.29-4c-.12-.77.56-1.46,2-2.05a14.25,14.25,0,0,1,4.8-1c2.5-.1,6,.78,10.46,2.7S1607,449.11,1607.87,450.24Z"/><ellipse class="cls-22" cx="1056.2" cy="942.86" rx="12.97" ry="15.84" transform="translate(-205.38 300.25) rotate(-14.76)"/><ellipse class="cls-22" cx="1089.19" cy="916.98" rx="14.42" ry="17.69" transform="translate(-135.76 191.26) rotate(-9.45)"/><ellipse class="cls-22" cx="1138.14" cy="919.33" rx="16.55" ry="14.44" transform="translate(-32.3 1797.17) rotate(-75.8)"/><ellipse class="cls-22" cx="1172.18" cy="940.73" rx="18.54" ry="13.52" transform="matrix(0.58, -0.81, 0.81, 0.58, -274.43, 1348.56)"/><path class="cls-22" d="M1165.13,1009.44c-1.43,30-35-9.19-63.6,1.43-29.73,11-39.57,14.87-38.14-15.17s23.3-52.83,53.6-51.18S1166.56,979.41,1165.13,1009.44Z"/><path class="cls-23" d="M1647.08,917.74c0,56.31-14.65,102-17.71,102s6.08-45.65,6.08-102-9.15-102-6.08-102S1647.08,861.42,1647.08,917.74Z"/><ellipse class="cls-24" cx="1621.98" cy="749.15" rx="12.92" ry="39.35"/><ellipse class="cls-25" cx="1621.98" cy="845.38" rx="12.08" ry="40.24"/><ellipse class="cls-25" cx="1683.19" cy="792.96" rx="47.18" ry="8.18"/><ellipse class="cls-25" cx="1567.85" cy="805.14" rx="44.29" ry="8.21" transform="translate(-146.32 395.24) rotate(-13.73)"/><ellipse class="cls-26" cx="1564.43" cy="815.77" rx="45.28" ry="7.07" transform="translate(-170.87 496.91) rotate(-17.13)"/><ellipse class="cls-27" cx="1679.92" cy="809.05" rx="7.63" ry="46.72" transform="translate(547.03 2290.02) rotate(-78.3)"/><ellipse class="cls-25" cx="1569.82" cy="825.55" rx="44.86" ry="7.14" transform="translate(-198.53 688.43) rotate(-23.31)"/><ellipse class="cls-25" cx="1577.1" cy="832" rx="43.84" ry="7.31" transform="translate(-190.26 1068.48) rotate(-35.44)"/><ellipse class="cls-25" cx="1673.02" cy="819.8" rx="7.68" ry="46.4" transform="translate(384.79 2165.73) rotate(-72.36)"/><ellipse class="cls-28" cx="1668.22" cy="827.02" rx="7.8" ry="45.72" transform="translate(175.46 1939.93) rotate(-63.08)"/><ellipse class="cls-25" cx="1637.26" cy="751.7" rx="40.63" ry="10.07" transform="translate(485.74 2137.22) rotate(-74.93)"/><ellipse class="cls-25" cx="1599.25" cy="753.03" rx="10" ry="40.57" transform="translate(-165.32 648.46) rotate(-21.82)"/><ellipse class="cls-25" cx="1672.38" cy="760.69" rx="45.66" ry="8.45" transform="translate(-156.79 932.85) rotate(-29.84)"/><ellipse class="cls-25" cx="1577.1" cy="757.65" rx="9.63" ry="37.1" transform="translate(-94.35 1274.88) rotate(-42.85)"/><ellipse class="cls-29" cx="1653.95" cy="757.65" rx="42.71" ry="9.71" transform="matrix(0.63, -0.78, 0.78, 0.63, 27.09, 1571.86)"/><ellipse class="cls-30" cx="1597.81" cy="842.42" rx="40.88" ry="11.89" transform="translate(206.26 1994.05) rotate(-67.41)"/><ellipse class="cls-31" cx="1648.09" cy="842.16" rx="11.81" ry="41.15" transform="translate(-202.7 844.84) rotate(-27.15)"/><ellipse class="cls-32" cx="1684.4" cy="775.54" rx="50.54" ry="8.22" transform="translate(-115.86 330.88) rotate(-10.85)"/><ellipse class="cls-24" cx="1554.62" cy="790.92" rx="44.64" ry="8.14"/><ellipse class="cls-25" cx="1567.85" cy="776.5" rx="8.25" ry="44.08" transform="translate(353.53 2036.08) rotate(-72.4)"/><ellipse class="cls-25" cx="1668.22" cy="838.36" rx="8.71" ry="39.12" transform="translate(-159.67 1218.64) rotate(-38.43)"/><ellipse class="cls-33" cx="1625.77" cy="794.98" rx="41.22" ry="18.48"/><path class="cls-23" d="M444.91,532.59c0,24.84-6.64,45-8,45s2.76-20.13,2.76-45-4.15-45-2.76-45S444.91,507.75,444.91,532.59Z"/><ellipse class="cls-24" cx="433.53" cy="458.23" rx="5.85" ry="17.36"/><ellipse class="cls-25" cx="433.53" cy="500.68" rx="5.47" ry="17.75"/><ellipse class="cls-25" cx="461.27" cy="477.55" rx="21.38" ry="3.61"/><ellipse class="cls-25" cx="409.01" cy="482.93" rx="20.04" ry="3.63" transform="translate(-100.51 107.56) rotate(-13.36)"/><ellipse class="cls-26" cx="407.46" cy="487.62" rx="20.47" ry="3.13" transform="translate(-122.8 137.45) rotate(-16.68)"/><ellipse class="cls-27" cx="459.79" cy="484.65" rx="3.37" ry="21.15" transform="translate(-106.06 839.77) rotate(-78.62)"/><ellipse class="cls-25" cx="409.9" cy="491.93" rx="20.24" ry="3.16" transform="translate(-158.2 196.51) rotate(-22.72)"/><ellipse class="cls-25" cx="413.2" cy="494.78" rx="19.69" ry="3.25" transform="translate(-208.08 322.89) rotate(-34.67)"/><ellipse class="cls-25" cx="456.66" cy="489.39" rx="3.4" ry="20.98" transform="translate(-145.75 781.18) rotate(-72.82)"/><ellipse class="cls-28" cx="454.49" cy="492.58" rx="3.46" ry="20.6" transform="translate(-188.37 682.11) rotate(-63.73)"/><ellipse class="cls-25" cx="440.46" cy="459.36" rx="17.95" ry="4.56" transform="translate(-119.98 760.9) rotate(-74.49)"/><ellipse class="cls-25" cx="423.24" cy="459.94" rx="4.51" ry="17.96" transform="translate(-143.48 196.3) rotate(-22.43)"/><ellipse class="cls-25" cx="456.37" cy="463.32" rx="20.55" ry="3.75" transform="translate(-167.81 280.74) rotate(-29.13)"/><ellipse class="cls-25" cx="413.2" cy="461.98" rx="4.31" ry="16.57" transform="translate(-204.74 413.85) rotate(-43.74)"/><ellipse class="cls-29" cx="448.02" cy="461.98" rx="19.04" ry="4.35" transform="matrix(0.64, -0.77, 0.77, 0.64, -193.56, 512.26)"/><ellipse class="cls-30" cx="422.59" cy="499.37" rx="18.1" ry="5.37" transform="translate(-203.04 690.54) rotate(-66.75)"/><ellipse class="cls-31" cx="445.37" cy="499.26" rx="5.32" ry="18.26" transform="translate(-181.84 266.4) rotate(-27.9)"/><ellipse class="cls-32" cx="461.82" cy="469.87" rx="22.88" ry="3.63" transform="translate(-78.24 92.52) rotate(-10.55)"/><ellipse class="cls-24" cx="403.01" cy="476.65" rx="20.22" ry="3.59"/><ellipse class="cls-25" cx="409.01" cy="470.3" rx="3.65" ry="19.93" transform="translate(-160.91 722.61) rotate(-72.87)"/><ellipse class="cls-25" cx="454.49" cy="497.58" rx="3.91" ry="17.44" transform="translate(-212.31 400.01) rotate(-39.27)"/><ellipse class="cls-33" cx="435.25" cy="478.45" rx="18.68" ry="8.15"/><path class="cls-23" d="M1826.3,685.06c0,34.54-8.5,62.54-10.27,62.54s3.53-28,3.53-62.54-5.31-62.54-3.53-62.54S1826.3,650.52,1826.3,685.06Z"/><ellipse class="cls-24" cx="1811.75" cy="581.66" rx="7.49" ry="24.14"/><ellipse class="cls-25" cx="1811.75" cy="640.69" rx="7" ry="24.68"/><ellipse class="cls-25" cx="1847.23" cy="608.53" rx="27.35" ry="5.02"/><ellipse class="cls-25" cx="1780.37" cy="616.01" rx="25.76" ry="5.02" transform="translate(-97.67 467.25) rotate(-14.56)"/><ellipse class="cls-26" cx="1778.38" cy="622.52" rx="26.38" ry="4.32" transform="translate(-105.41 583.6) rotate(-18.11)"/><ellipse class="cls-27" cx="1845.34" cy="618.4" rx="4.67" ry="27.15" transform="translate(845.2 2287.95) rotate(-77.6)"/><ellipse class="cls-25" cx="1781.51" cy="628.52" rx="26.25" ry="4.34" transform="translate(-100.04 797.62) rotate(-24.57)"/><ellipse class="cls-25" cx="1785.73" cy="632.48" rx="25.92" ry="4.39" transform="translate(-20.4 1204.11) rotate(-37.07)"/><ellipse class="cls-25" cx="1841.34" cy="624.99" rx="4.69" ry="27.05" transform="translate(660.26 2169.73) rotate(-71.35)"/><ellipse class="cls-28" cx="1838.55" cy="629.42" rx="4.72" ry="26.83" transform="translate(411.95 1948.98) rotate(-61.67)"/><ellipse class="cls-25" cx="1820.6" cy="583.23" rx="24.83" ry="5.86" transform="translate(809.1 2205.45) rotate(-75.82)"/><ellipse class="cls-25" cx="1798.57" cy="584.04" rx="5.84" ry="24.7" transform="translate(-90.49 670.09) rotate(-20.6)"/><ellipse class="cls-25" cx="1840.96" cy="588.74" rx="26.86" ry="5.11" transform="translate(-37.49 1043.89) rotate(-31.35)"/><ellipse class="cls-25" cx="1785.73" cy="586.88" rx="5.73" ry="22.19" transform="translate(53.22 1316.03) rotate(-41.02)"/><ellipse class="cls-29" cx="1830.28" cy="586.88" rx="25.64" ry="5.75" transform="translate(258.81 1693.6) rotate(-52.93)"/><ellipse class="cls-30" cx="1797.74" cy="638.87" rx="24.88" ry="6.95" transform="translate(550.17 2082.34) rotate(-68.73)"/><ellipse class="cls-31" cx="1826.88" cy="638.71" rx="6.93" ry="24.96" transform="translate(-96.49 853.43) rotate(-25.64)"/><ellipse class="cls-32" cx="1847.93" cy="597.85" rx="29.36" ry="5.03" transform="translate(-82.09 380.35) rotate(-11.5)"/><ellipse class="cls-24" cx="1772.7" cy="607.28" rx="25.88" ry="5"/><ellipse class="cls-25" cx="1780.37" cy="598.44" rx="5.03" ry="25.7" transform="translate(644.5 2094.31) rotate(-71.37)"/><ellipse class="cls-25" cx="1838.55" cy="636.38" rx="5.16" ry="23.5" transform="matrix(0.8, -0.6, 0.6, 0.8, -15.75, 1225.29)"/><path class="cls-34" d="M734.58,113,41.63,279.74c-47.55,3.52-47.23,4.77-47.55,3.52L-18.19-1.09-30.54,5.74,341,1.68l680.52-5.62c2.8,0,872.68,0,870.38.93L735,112.92A2.29,2.29,0,0,1,734.58,113Z"/><ellipse class="cls-33" cx="1813.94" cy="609.77" rx="23.9" ry="11.33"/><path class="cls-35" d="M194.58,614.87a9,9,0,0,1-.4,6.82,6.42,6.42,0,0,1-5.35,3.24,7,7,0,0,1-2.24-.23c-1.54-.39-2.34-.59-2.4-.58l-2.39-.45a5.23,5.23,0,0,1-2.36-1.19,16,16,0,0,1-3.56-4.56,40.81,40.81,0,0,0-3.09-4.72,12.92,12.92,0,0,1-1.47-1.69,3.08,3.08,0,0,1-.34-1.8,1.31,1.31,0,0,1,.61-1.12,2.54,2.54,0,0,1,1-.13,23.83,23.83,0,0,1,4.29.5,8.24,8.24,0,0,1,3,.9A24,24,0,0,1,182,614q1.52,3.48,2.47,3.84a.92.92,0,0,0,.45.1c.59,0,.91-.66,1-1.88a12.24,12.24,0,0,0-.59-4.11c-1-3.31-2.52-5.51-4.63-6.66a51.12,51.12,0,0,1-11-7.57,21.29,21.29,0,0,1-5.79-9.61,16.49,16.49,0,0,1-.15-8.86c.77-2.85,2.12-4.35,4-4.58.78-.08,3.64,1.15,8.44,3.53l3.56,1.68a10.79,10.79,0,0,1,3.12,2.24q2.06,2.1,3.37,6.84c.16.59.38,1.46.67,2.59s.42,1.7.53,2.1a12.54,12.54,0,0,0,.71,1.29,3.25,3.25,0,0,1,.55,1.23c.37,1.61,0,2.48-1.12,2.62a10.61,10.61,0,0,1-4-1A11.86,11.86,0,0,1,179,595.3a3.86,3.86,0,0,1-.45-1.16c-.18-.57-.51-1.87-1-3.89s-.88-3.49-1.15-4.4c-.5-1.65-.92-2.47-1.27-2.47-1.08,0-1.73.72-1.94,2.3a13.06,13.06,0,0,0,.68,5.54c1.11,3.51,2.79,6,5,7.59,2.46,1.55,4.88,3.05,7.27,4.52a19.93,19.93,0,0,1,5,4.18A20.69,20.69,0,0,1,194.58,614.87Z"/><path class="cls-35" d="M217,612.65c.38.49,0,2-1,4.48a14.09,14.09,0,0,1-3.53,5.66,1.67,1.67,0,0,1-.78.21,13.84,13.84,0,0,1-4.9-.94,11.11,11.11,0,0,1-4.69-2.52c-2.45-2.57-4.36-6.3-5.62-11.1-1.19-4.54-1.42-8.53-.56-11.87.91-3.65,2.9-5.34,5.85-5.21a12.83,12.83,0,0,1,4.08,1.08,18.37,18.37,0,0,1,5.21,3.15,8.16,8.16,0,0,1,1.4,2.74,25.18,25.18,0,0,1,1.43,4.71q.66,3.39-.15,4.69a34,34,0,0,1-9.72,1.91,22.87,22.87,0,0,0,1.85,5.37c.88,1.87,1.55,2.8,2,2.82.62,0,1.23-.6,1.84-1.79a6.58,6.58,0,0,0,.9-2.55,23.3,23.3,0,0,1,.22-3.18,8.89,8.89,0,0,1,3.19.78A7.13,7.13,0,0,1,217,612.65Zm-12-15.59c-.6-.1-1.2.79-1.77,2.69a12.74,12.74,0,0,0-.44,5.54,4.9,4.9,0,0,0,3.27-1.09q.64-.6-.36-5.13C205.47,597.81,205.23,597.13,205.05,597.06Z"/><path class="cls-35" d="M234.68,597.86a2.18,2.18,0,0,1-.45,1.45,1.35,1.35,0,0,1-1.14.6,1.25,1.25,0,0,1-.36,0,14,14,0,0,0-3.22-.34l2.4,18.49a6.22,6.22,0,0,1,.39.74,4.19,4.19,0,0,1,.48,1.39c.11.9-.43,1.41-1.62,1.55a12,12,0,0,1-3.61-.66c-1.94-.54-3-1.09-3.24-1.63a2.87,2.87,0,0,1,.09-1.44,4.63,4.63,0,0,0,.14-1.68q-1.38-8.53-2.77-17.07l-1.72-.06c-.64,0-1.52-.59-2.67-1.72a6.41,6.41,0,0,1-1.91-2.7,1.49,1.49,0,0,1,.35-1.3,1.45,1.45,0,0,1,1.22-.51l3.75.22c-.24-1.45-.47-2.9-.71-4.34a4.25,4.25,0,0,1-1.14-2.14c-.11-.68.14-1.07.76-1.18a7.6,7.6,0,0,1,1.33,0,26.7,26.7,0,0,1,4.74.92,13.12,13.12,0,0,1,3.6,1.36,1,1,0,0,1,.46.68,2.17,2.17,0,0,1-.68,1.34,2.57,2.57,0,0,0-.73,1.25l.33,2.53,1.66.09c.35,0,1.15.61,2.37,1.77S234.63,597.4,234.68,597.86Z"/><path class="cls-35" d="M256.31,598.6a2.1,2.1,0,0,1-.61,1.35,1.59,1.59,0,0,1-1.21.57,1.23,1.23,0,0,1-.35,0,13.83,13.83,0,0,0-3.19-.3q.23,8.57.46,17.13a4.13,4.13,0,0,1,.32.68,3.51,3.51,0,0,1,.33,1.29c0,.83-.58,1.31-1.78,1.42a11.49,11.49,0,0,1-3.51-.63c-1.88-.5-2.91-1-3.06-1.51a2.52,2.52,0,0,1,.23-1.33,4.51,4.51,0,0,0,.31-1.55q-.52-7.89-1-15.77l-1.72,0a4.37,4.37,0,0,1-2.5-1.58,5,5,0,0,1-1.65-2.48,1.36,1.36,0,0,1,.48-1.2,1.66,1.66,0,0,1,1.28-.48l3.74.18c-.08-1.33-.17-2.67-.26-4a3.25,3.25,0,0,1-.93-2,.93.93,0,0,1,.89-1.09,7.52,7.52,0,0,1,1.34,0,27.09,27.09,0,0,1,4.68.81,12.41,12.41,0,0,1,3.49,1.24.79.79,0,0,1,.38.62c0,.29-.27.71-.82,1.25a2.91,2.91,0,0,0-.87,1.17l.06,2.34,1.67.07c.34,0,1.08.57,2.19,1.64S256.31,598.18,256.31,598.6Z"/><path class="cls-35" d="M268.14,618.21a1.7,1.7,0,0,1-1.26,1.89,4.5,4.5,0,0,1-.64.06,15.2,15.2,0,0,1-4-.46c-1.71-.37-2.71-.81-3-1.31-.15-.22,0-.66.44-1.32a4.66,4.66,0,0,0,.47-2.32q.21-8.84.43-17.66a8.14,8.14,0,0,1-.58-2.17c0-.36.66-.52,1.95-.46a17.77,17.77,0,0,1,4.32.94,8.9,8.9,0,0,1,3.25,1.46.54.54,0,0,1,.13.41,3.39,3.39,0,0,1-.68,1.21,3,3,0,0,0-.68,1.34q-.57,8.25-1.12,16.5a1.56,1.56,0,0,0,.46,1A2.08,2.08,0,0,1,268.14,618.21ZM270.41,590a.52.52,0,0,1,0,.33,7.75,7.75,0,0,1-.65,2.31c-.43,1-.8,1.58-1.12,1.68s-1.83-.26-4.46-1.08-4.06-1.42-4.23-1.74a1.1,1.1,0,0,1-.15-.64,4.59,4.59,0,0,1,.8-2.35,2.82,2.82,0,0,1,2-1.48,12.83,12.83,0,0,1,4.31,1C269,588.69,270.1,589.35,270.41,590Z"/><path class="cls-35" d="M293.72,615.83a2.81,2.81,0,0,1,0,1.44,2.21,2.21,0,0,1-1.43,1.58,4.38,4.38,0,0,1-1.16.15,18.49,18.49,0,0,1-3.57-.3,5.91,5.91,0,0,1-2.43-.72.61.61,0,0,1-.13-.5,3.81,3.81,0,0,1,.95-1.4,3.86,3.86,0,0,0,1-1.38q3.12-15.26,2.74-15.37c-.45-.14-1.87,1-4.14,3.43s-3.61,4.57-3.82,5.91c-.39,2.45-.77,4.91-1.15,7.36a1.32,1.32,0,0,1,.4,1.24,2.61,2.61,0,0,1-1.86,2.1,1.52,1.52,0,0,1-.56.1,18.3,18.3,0,0,1-3.5-.38,6.4,6.4,0,0,1-2.54-.74,1,1,0,0,1-.2-.71,1.83,1.83,0,0,1,.63-1c.39-.38.59-.63.6-.73q1-9.36,2-18.71a1.39,1.39,0,0,0-.32-.86.85.85,0,0,1-.17-.89,2.09,2.09,0,0,1,1.74-1,14.62,14.62,0,0,1,3.87.58c2.17.51,3.31,1,3.45,1.43a1.8,1.8,0,0,1-.36,1.29,10.34,10.34,0,0,0-.81,1.56,2.61,2.61,0,0,0,.06,1,12.76,12.76,0,0,1,2.72-3.44,5.66,5.66,0,0,1,3.76-1.73,14.6,14.6,0,0,1,4.41,1c1.74.66,2.68,1.22,2.84,1.71C297.32,599.48,296.3,605.48,293.72,615.83Z"/><path class="cls-35" d="M324.7,598.67a10,10,0,0,1-.87.72,2.52,2.52,0,0,0-.69.79q-3.33,7.91-6.65,15.83a13.37,13.37,0,0,1-8.58,7.86,18.87,18.87,0,0,1-4.79,1,5.94,5.94,0,0,1-4.59-1.52,14.94,14.94,0,0,1-1.54-1.87l-.65-.69a1,1,0,0,1-.25-.85c.07-.38.61-.69,1.6-.94a2.51,2.51,0,0,1,.55-.05,8.88,8.88,0,0,1,2.27.27,3.36,3.36,0,0,1,1.69.77c.32.48.65,1,1,1.48a1.75,1.75,0,0,0,1.48.79c1.16.06,2.18-.65,3.08-2.12a24.77,24.77,0,0,0,1.65-3.78l-1.22,1a8.9,8.9,0,0,1-1.25.86,2.45,2.45,0,0,1-1.17.39,5.51,5.51,0,0,1-3.68-1c-2.54-2.16-3.32-5.47-2.11-9.86a16.14,16.14,0,0,1,4.47-7.44,15,15,0,0,1,8-4.26,3.38,3.38,0,0,1,.6-.06,3.13,3.13,0,0,1,1.68.6q.72.5,1.41,1c.36-.41.72-.81,1.1-1.21a1.91,1.91,0,0,1,1.32-.65,12.84,12.84,0,0,1,3.7.57c1.7.43,2.6.8,2.73,1.09A1.1,1.1,0,0,1,324.7,598.67Zm-12.39,8.87a36.05,36.05,0,0,0,1.91-4.14c.73-2,.7-3.09-.1-3.35-.64-.21-1.83.65-3.49,2.58a16.35,16.35,0,0,0-3.26,5.31,15.67,15.67,0,0,0-1,6.9A25.44,25.44,0,0,0,312.31,607.54Z"/><path class="cls-35" d="M338.57,614a8.16,8.16,0,0,1-3.46,3.1,12.28,12.28,0,0,1-5.3,1.25,6.36,6.36,0,0,1-1.48-.15c-.91-.2-1.4-.31-1.44-.34l-1.5-.27a2.21,2.21,0,0,1-1.16-.54,4.9,4.9,0,0,1-1-1.93c-.21-.67-.41-1.34-.59-2a3,3,0,0,1-.18-1.25c.15-.33.58-.59,1.29-.76a3.79,3.79,0,0,1,.89-.07,32,32,0,0,1,3.47.21,7.24,7.24,0,0,1,2.14.38,5.94,5.94,0,0,1-.52,2c-.38,1.08-.33,1.62.13,1.62.7,0,1.44-.74,2.22-2.2,1-1.86.94-3-.16-3.5-2.52-1.06-4.11-2-4.7-2.85-.72-1-.63-2.58.32-4.66a10.12,10.12,0,0,1,3.31-3.83,10.25,10.25,0,0,1,4.72-2.1c.67-.09,2.48.4,5.35,1.43.27.07,1.11.22,2.53.42a2.78,2.78,0,0,1,1.85.76c.35.55.23,1.41-.34,2.58-.47.86-.95,1.73-1.45,2.59a9.08,9.08,0,0,1-.46,1.41,2.41,2.41,0,0,1-2,1.12,8.5,8.5,0,0,1-2.48-.4c-1.28-.35-2-.72-2.22-1.1a13.15,13.15,0,0,1,1.1-2.65c.74-1.58.91-2.38.54-2.38s-1.23.45-2.14,1.37a11.55,11.55,0,0,0-2.12,2.87c-.63,1.25-.66,2-.08,2.38,1.27.64,2.51,1.28,3.71,1.92a4,4,0,0,1,2.12,2Q339.89,611.77,338.57,614Z"/></svg>
