<svg id="Layer_1" data-name="Layer 1" xmlns="http://www.w3.org/2000/svg" xmlns:xlink="http://www.w3.org/1999/xlink" width="1920" height="1080" viewBox="0 0 1920 1080"><defs><style>.cls-1{fill:#00a24e;}.cls-15,.cls-16,.cls-2{stroke-miterlimit:10;}.cls-2{stroke-width:6px;fill:url(#linear-gradient);stroke:url(#linear-gradient-2);}.cls-3{fill:none;}.cls-4{fill:#913a34;}.cls-31,.cls-4{opacity:0.67;}.cls-5,.cls-7{fill:#e7dbd2;}.cls-5{opacity:0.83;}.cls-6{fill:#bf5a4d;}.cls-45,.cls-8{fill:#edebd5;}.cls-9{fill:#c32b33;}.cls-10{fill:#78341f;}.cls-11{fill:#fff;}.cls-12{fill:#723c29;}.cls-13{fill:#935934;}.cls-14{fill:#cd835d;}.cls-15,.cls-18{fill:#c96;}.cls-15,.cls-16{stroke:#c96;}.cls-16{fill:#d5975d;}.cls-17{fill:#e64165;}.cls-19{fill:#010101;}.cls-20{fill:#240c0e;}.cls-21,.cls-23{fill:#143d6c;}.cls-22{fill:#132237;}.cls-23{opacity:0.7;}.cls-24{fill:#7d645e;}.cls-25{fill:#00813a;opacity:0.9;}.cls-26,.cls-27,.cls-28,.cls-29,.cls-30,.cls-31,.cls-32,.cls-33,.cls-34{fill:#a84571;}.cls-26{opacity:0.65;}.cls-28{opacity:0.79;}.cls-29{opacity:0.61;}.cls-30{opacity:0.72;}.cls-32{opacity:0.84;}.cls-33{opacity:0.56;}.cls-34{opacity:0.75;}.cls-35{fill:#fdd676;}.cls-36{opacity:0.11;fill:url(#radial-gradient);}.cls-37{fill:#ffcd18;}.cls-38{fill:#acbe36;}.cls-39{fill:#ac8e13;}.cls-40{fill:#faed63;}.cls-41{fill:#cad000;}.cls-42{fill:#c3d219;}.cls-43{fill:#cdd500;}.cls-44{fill:#7e8c26;}.cls-45{opacity:0.91;}.cls-46{fill:#982d3d;opacity:0.74;}</style><linearGradient id="linear-gradient" x1="-2987.02" y1="-1156.54" x2="-1219.63" y2="-1156.54" gradientTransform="translate(1514.85 5742.08) scale(0.27 4.81)" gradientUnits="userSpaceOnUse"><stop offset="0" stop-color="#6aacde"/><stop offset="0" stop-color="#f6fafd"/><stop offset="0" stop-color="#f2f9fe"/><stop offset="0" stop-color="#626161"/><stop offset="0" stop-color="#9dd8f7"/><stop offset="0.04" stop-color="#94d5f7"/><stop offset="0.1" stop-color="#a7dcf8"/><stop offset="0.12" stop-color="#8dd3f6"/><stop offset="0.14" stop-color="#abddf9"/><stop offset="0.2" stop-color="#80cff5"/><stop offset="0.51" stop-color="#5ea5db"/><stop offset="0.77" stop-color="#9dd8f7"/><stop offset="0.93" stop-color="#a4dbf8"/><stop offset="1" stop-color="#d2ecfc"/><stop offset="1" stop-color="#8ccbf1"/><stop offset="1" stop-color="#e8f5fc" stop-opacity="0.7"/></linearGradient><linearGradient id="linear-gradient-2" x1="-2990.02" y1="-1156.54" x2="-1216.63" y2="-1156.54" gradientTransform="translate(1514.85 5742.08) scale(0.27 4.81)" gradientUnits="userSpaceOnUse"><stop offset="0" stop-color="#fff"/><stop offset="1"/></linearGradient><radialGradient id="radial-gradient" cx="1380.48" cy="519.76" r="357.71" gradientTransform="matrix(2.27, 0.21, 0.47, 0.87, -2403.79, -649.44)" gradientUnits="userSpaceOnUse"><stop offset="0" stop-color="#6aacde"/><stop offset="0" stop-color="#f6fafd"/><stop offset="0" stop-color="#f2f9fe"/><stop offset="0" stop-color="#626161"/><stop offset="0" stop-color="#fded4c"/><stop offset="0" stop-color="#ffe68b"/><stop offset="0.1" stop-color="#fbc78b"/><stop offset="0.16" stop-color="#fdf3a4"/><stop offset="0.2" stop-color="#f9ea3c"/><stop offset="0.49" stop-color="#ffdb5b"/><stop offset="0.57" stop-color="#f6e826"/><stop offset="0.77" stop-color="#f6a033"/><stop offset="0.93" stop-color="#e7a800"/><stop offset="1" stop-color="#d2ecfc"/><stop offset="1" stop-color="#8ccbf1"/><stop offset="1" stop-color="#e8f5fc" stop-opacity="0.7"/></radialGradient></defs><title>startskærmmedele</title><rect class="cls-1" x="-2.7" y="427.46" width="1926.94" height="652.54"/><rect class="cls-2" x="715.38" y="-791.89" width="473.04" height="1936.43" transform="translate(775.57 1128.22) rotate(-90)"/><polyline class="cls-1" points="450.78 361.9 437.19 457.97 377.5 446.51"/><rect class="cls-3" x="1108.61" y="957.39" width="540.92" height="62.39"/><rect class="cls-3" x="391.31" y="463.62" width="1055.68" height="652.45"/><rect class="cls-3" x="1262.92" y="524.96" width="17.1"/><rect class="cls-3" x="1026.4" y="659.68" width="17.1"/><line class="cls-3" x1="562.71" y1="986.67" x2="657.29" y2="849.8"/><polyline class="cls-1" points="1421.71 360.17 1412.12 424.46 1374.11 417.42"/><polyline class="cls-1" points="1295.27 347.04 1285.67 411.33 1247.66 404.29"/><polyline class="cls-1" points="546.3 347.04 536.71 411.33 498.7 404.29"/><polyline class="cls-1" points="634.22 345.17 624.25 424.44 578.73 414.73"/><polyline class="cls-1" points="463.9 361.65 453.92 440.93 408.4 431.22"/><polyline class="cls-1" points="1358.49 352.66 1348.89 416.95 1310.89 409.91"/><polyline class="cls-1" points="1263.97 352.24 1254.37 416.53 1216.36 409.49"/><polyline class="cls-1" points="602.53 360.17 592.93 424.46 554.92 417.42"/><polyline class="cls-1" points="511.5 347.04 501.91 411.33 463.9 404.29"/><polyline class="cls-1" points="1390.32 369.14 1380.73 433.44 1342.72 426.4"/><polyline class="cls-1" points="1063.32 458.66 1053.34 537.94 1007.82 528.22"/><polyline class="cls-1" points="1193.25 360.17 1183.65 424.46 1145.64 417.42"/><polyline class="cls-1" points="658.81 360.17 649.21 424.46 611.2 417.42"/><polyline class="cls-1" points="450.71 351.7 442.71 415.87 405.92 407.97"/><polyline class="cls-1" points="1445.04 353.5 1437.44 409.31 1401.86 409.09"/><path class="cls-4" d="M1519.73,610.72c0-38.33,47-69.41,105-69.41s105,31.08,105,69.41-63.15,77.88-101.47,49.1C1579.22,623,1519.73,649.05,1519.73,610.72Z"/><path class="cls-5" d="M1524.82,595.26c0-28.21,44.74-51.08,99.94-51.08s99.94,22.87,99.94,51.08-60.1,57.32-96.57,36.14C1581.43,604.27,1524.82,623.48,1524.82,595.26Z"/><path class="cls-6" d="M1541.43,585.69c0-24.51,38.52-44.38,86-44.38s86,19.87,86,44.38-51.74,49.8-83.13,31.39C1590.16,593.51,1541.43,610.2,1541.43,585.69Z"/><ellipse class="cls-7" cx="1636.8" cy="582.36" rx="5.54" ry="35.5" transform="translate(628.15 1996.88) rotate(-74.09)"/><ellipse class="cls-7" cx="1669.77" cy="589.68" rx="21.69" ry="4.35" transform="translate(-25.89 1100.17) rotate(-36.21)"/><path class="cls-8" d="M1447.25,512.26a24.24,24.24,0,0,0-2.09-17.42c-6.71-12.45-23.19-16.58-36.81-9.24s-19.22,23.39-12.5,35.84a23.59,23.59,0,0,0,4.07,5.43c-18.75,12.42-38.74,26.44-41,27.68l-40,18a22.37,22.37,0,0,0-2.41-7c-6.42-11.91-22.2-15.87-35.23-8.84s-18.39,22.39-12,34.3a23.53,23.53,0,0,0,16.11,11.72,22.57,22.57,0,0,0,.72,19.48c6.14,11.38,21.21,15.16,33.66,8.45s17.57-21.39,11.43-32.77a21.68,21.68,0,0,0-3.24-4.46l37.15-26.24c2.52-1.37,29.57-12.53,51.57-22.49a22.61,22.61,0,0,0,1.94,5c6.39,11.85,22.08,15.79,35,8.8s18.28-22.26,11.89-34.11A23.62,23.62,0,0,0,1447.25,512.26Z"/><rect class="cls-9" x="1470.21" y="735.69" width="151.03" height="197.46" transform="translate(-209.07 755.58) rotate(-25.79)"/><path class="cls-10" d="M1530,648.06a11.34,11.34,0,0,1-6.06,1.73,11.17,11.17,0,0,1-7.05-2.44,9.87,9.87,0,0,1-17.24,3,8.9,8.9,0,0,1-16.37,2l-79.41,38.37,40.26,83.33,119-57.49Z"/><ellipse class="cls-11" cx="69.8" cy="69.69" rx="31.7" ry="28.25"/><ellipse class="cls-11" cx="158.12" cy="75.69" rx="32.2" ry="28.69"/><ellipse class="cls-11" cx="134.46" cy="100.78" rx="33.34" ry="33.06"/><ellipse class="cls-11" cx="114.63" cy="67.72" rx="31.14" ry="27.75"/><ellipse class="cls-11" cx="85.63" cy="115.36" rx="29" ry="30.32"/><ellipse class="cls-11" cx="48.92" cy="103" rx="23.61" ry="17.02"/><ellipse class="cls-11" cx="43.54" cy="75.69" rx="23.61" ry="17.02"/><ellipse class="cls-11" cx="1785.25" cy="222.22" rx="27.77" ry="23.13"/><ellipse class="cls-11" cx="1862.6" cy="227.13" rx="28.2" ry="23.49"/><ellipse class="cls-11" cx="1841.88" cy="247.67" rx="29.2" ry="27.07"/><ellipse class="cls-11" cx="1824.52" cy="220.61" rx="27.27" ry="22.72"/><ellipse class="cls-11" cx="1799.12" cy="259.61" rx="25.39" ry="24.82"/><ellipse class="cls-11" cx="1766.97" cy="249.49" rx="20.68" ry="13.94"/><ellipse class="cls-11" cx="1762.26" cy="227.13" rx="20.68" ry="13.94"/><ellipse class="cls-11" cx="679.04" cy="65.18" rx="25.74" ry="18.54"/><ellipse class="cls-11" cx="750.75" cy="69.11" rx="26.15" ry="18.83"/><ellipse class="cls-11" cx="731.54" cy="85.58" rx="27.07" ry="21.69"/><ellipse class="cls-11" cx="715.44" cy="63.88" rx="25.29" ry="18.21"/><ellipse class="cls-11" cx="691.9" cy="95.15" rx="23.54" ry="19.89"/><ellipse class="cls-11" cx="662.09" cy="87.03" rx="19.17" ry="11.17"/><ellipse class="cls-11" cx="657.72" cy="69.11" rx="19.17" ry="11.17"/><polyline class="cls-1" points="343.64 363.29 330.05 459.36 270.35 447.91"/><polyline class="cls-1" points="707.72 361.27 694.13 457.34 634.44 445.88"/><polyline class="cls-1" points="883.1 368.92 869.51 464.99 809.81 453.53"/><polyline class="cls-1" points="839.98 363.29 826.39 459.36 766.69 447.91"/><polyline class="cls-1" points="731.43 420.51 717.85 516.58 658.15 505.13"/><polyline class="cls-1" points="655.25 355.94 641.66 452.01 581.97 440.55"/><polyline class="cls-1" points="1112.07 367.84 1098.48 463.91 1038.79 452.45"/><polyline class="cls-1" points="1203.56 367.84 1189.97 463.91 1130.27 452.45"/><polyline class="cls-1" points="1155.51 372.48 1141.92 468.55 1082.22 457.09"/><polyline class="cls-1" points="1371.33 363.29 1357.74 459.36 1298.04 447.91"/><polyline class="cls-1" points="1305.72 372.48 1292.13 468.55 1232.43 457.09"/><polyline class="cls-1" points="958.14 372.48 944.56 468.55 884.86 457.09"/><polyline class="cls-1" points="621.25 367.47 607.66 463.54 547.97 452.08"/><polyline class="cls-1" points="770.95 376.41 757.36 472.48 697.67 461.02"/><polyline class="cls-1" points="1853.03 355.94 1839.44 452.01 1779.74 440.55"/><ellipse class="cls-11" cx="315.26" cy="112.4" rx="43.35" ry="34.08"/><ellipse class="cls-11" cx="436.02" cy="119.63" rx="44.03" ry="34.61"/><ellipse class="cls-11" cx="403.67" cy="149.91" rx="45.58" ry="39.88"/><ellipse class="cls-11" cx="376.56" cy="110.02" rx="42.58" ry="33.48"/><ellipse class="cls-11" cx="336.91" cy="167.5" rx="39.65" ry="36.57"/><ellipse class="cls-11" cx="286.72" cy="152.58" rx="32.29" ry="20.54"/><ellipse class="cls-11" cx="279.36" cy="119.63" rx="32.29" ry="20.54"/><ellipse class="cls-11" cx="1015.15" cy="82.49" rx="31.32" ry="30.44"/><ellipse class="cls-11" cx="1102.41" cy="88.95" rx="31.82" ry="30.92"/><ellipse class="cls-11" cx="1079.03" cy="115.99" rx="32.94" ry="35.63"/><ellipse class="cls-11" cx="1059.44" cy="80.36" rx="30.77" ry="29.91"/><ellipse class="cls-11" cx="1030.79" cy="131.71" rx="28.65" ry="32.68"/><ellipse class="cls-11" cx="994.53" cy="118.38" rx="23.33" ry="18.35"/><ellipse class="cls-11" cx="989.21" cy="88.95" rx="23.33" ry="18.35"/><polyline class="cls-1" points="322.36 365.3 308.77 461.37 249.07 449.92"/><polyline class="cls-1" points="300.07 367.84 286.48 463.91 226.78 452.45"/><polyline class="cls-1" points="279.62 379.18 266.03 475.25 206.33 463.79"/><polyline class="cls-1" points="259.18 372.48 245.59 468.55 185.89 457.09"/><polyline class="cls-1" points="69.55 369.85 55.96 465.92 -3.74 454.46"/><polyline class="cls-1" points="112.78 361.27 99.19 457.34 39.49 445.88"/><polyline class="cls-1" points="230.65 367.84 217.06 463.91 157.37 452.45"/><polyline class="cls-1" points="195.01 367.6 181.43 463.67 121.73 452.21"/><polyline class="cls-1" points="164.36 372.8 150.77 468.87 91.07 457.41"/><polyline class="cls-1" points="617.36 365.3 603.77 461.37 544.08 449.92"/><polyline class="cls-1" points="588.46 367.33 574.87 463.4 515.18 451.94"/><polyline class="cls-1" points="358.01 372.8 344.43 468.87 284.73 457.41"/><polyline class="cls-1" points="1090.06 365.57 1076.47 461.64 1016.77 450.19"/><polyline class="cls-1" points="1061.16 367.6 1047.57 463.67 987.87 452.21"/><polyline class="cls-1" points="987.87 372.8 974.28 468.87 914.58 457.41"/><polyline class="cls-1" points="1901.88 357.66 1888.29 453.73 1828.59 442.27"/><polyline class="cls-1" points="1872.98 359.68 1859.39 455.75 1799.69 444.29"/><polyline class="cls-1" points="1799.69 364.88 1786.1 460.95 1726.4 449.5"/><polyline class="cls-1" points="1774.99 368.92 1761.4 464.99 1701.7 453.53"/><polyline class="cls-1" points="1746.09 370.94 1732.5 467.01 1672.8 455.55"/><polyline class="cls-1" points="1672.8 376.14 1659.21 472.21 1599.52 460.75"/><polyline class="cls-1" points="1749.55 356.07 1735.96 452.14 1676.27 440.68"/><polyline class="cls-1" points="1720.65 358.09 1707.06 454.16 1647.37 442.7"/><polyline class="cls-1" points="1647.37 363.29 1633.78 459.36 1574.08 447.91"/><polyline class="cls-1" points="1519.48 363.48 1505.89 459.55 1446.19 448.09"/><polyline class="cls-1" points="1490.58 365.5 1476.99 461.57 1417.29 450.12"/><polyline class="cls-1" points="1417.29 370.71 1403.7 466.78 1344.01 455.32"/><polyline class="cls-1" points="144.04 352.33 130.45 448.4 70.75 436.94"/><polyline class="cls-1" points="98.82 363.29 85.23 459.36 25.53 447.91"/><polyline class="cls-1" points="20.8 367.46 61.14 455.7 4.68 478.23"/><polyline class="cls-1" points="494.35 357.36 480.76 453.43 421.07 441.97"/><polyline class="cls-1" points="473.07 359.37 459.49 455.44 399.79 443.98"/><polyline class="cls-1" points="430.33 373.25 416.74 469.32 357.04 457.86"/><polyline class="cls-1" points="409.89 366.54 396.3 462.61 336.6 451.15"/><polyline class="cls-1" points="381.37 361.9 367.78 457.97 308.08 446.51"/><polyline class="cls-1" points="508.73 366.86 495.14 462.93 435.44 451.48"/><polyline class="cls-1" points="625.72 361.24 612.13 457.31 552.43 445.85"/><polyline class="cls-1" points="604.44 363.25 590.85 459.32 531.15 447.86"/><polyline class="cls-1" points="582.15 365.78 568.56 461.85 508.86 450.4"/><polyline class="cls-1" points="561.7 377.13 548.11 473.2 488.41 461.74"/><polyline class="cls-1" points="541.26 370.43 527.67 466.5 467.97 455.04"/><polyline class="cls-1" points="512.73 365.78 499.14 461.85 439.45 450.4"/><polyline class="cls-1" points="640.09 370.75 626.5 466.82 566.81 455.36"/><polyline class="cls-1" points="216.31 365.3 202.72 461.37 143.02 449.92"/><polyline class="cls-1" points="195.03 367.31 181.44 463.38 121.74 451.92"/><polyline class="cls-1" points="172.73 369.85 159.14 465.92 99.45 454.46"/><polyline class="cls-1" points="152.28 381.19 138.69 477.26 78.99 465.8"/><polyline class="cls-1" points="131.84 374.49 118.25 470.56 58.55 459.1"/><polyline class="cls-1" points="103.32 369.85 89.73 465.92 30.03 454.46"/><polyline class="cls-1" points="230.68 374.81 217.09 470.88 157.39 459.42"/><polyline class="cls-1" points="793.08 355.31 779.49 451.38 719.79 439.92"/><polyline class="cls-1" points="771.8 357.31 758.21 453.38 698.51 441.93"/><polyline class="cls-1" points="749.5 359.85 735.92 455.92 676.22 444.46"/><polyline class="cls-1" points="729.05 371.19 715.46 467.26 655.76 455.81"/><polyline class="cls-1" points="708.61 364.49 695.02 460.56 635.33 449.1"/><polyline class="cls-1" points="680.09 359.85 666.5 455.92 606.8 444.46"/><polyline class="cls-1" points="807.45 364.81 793.86 460.88 734.16 449.42"/><polyline class="cls-1" points="945.27 359.65 931.68 455.72 871.98 444.26"/><polyline class="cls-1" points="923.99 361.66 910.4 457.73 850.7 446.27"/><polyline class="cls-1" points="901.7 364.19 888.11 460.26 828.41 448.81"/><polyline class="cls-1" points="881.24 375.54 867.65 471.61 807.96 460.15"/><polyline class="cls-1" points="860.8 368.84 847.22 464.91 787.52 453.45"/><polyline class="cls-1" points="832.28 364.19 818.69 460.26 758.99 448.81"/><polyline class="cls-1" points="959.64 369.16 946.05 465.23 886.35 453.77"/><polyline class="cls-1" points="1122.6 364.86 1109.01 460.93 1049.31 449.47"/><polyline class="cls-1" points="1101.32 366.86 1087.73 462.93 1028.03 451.48"/><polyline class="cls-1" points="1079.03 369.4 1065.44 465.47 1005.74 454.01"/><polyline class="cls-1" points="1058.57 380.74 1044.98 476.81 985.29 465.36"/><polyline class="cls-1" points="1038.13 374.04 1024.55 470.11 964.85 458.65"/><polyline class="cls-1" points="1009.61 369.4 996.02 465.47 936.32 454.01"/><polyline class="cls-1" points="1136.97 374.36 1123.38 470.43 1063.68 458.97"/><polyline class="cls-1" points="1292.05 356.25 1278.46 452.32 1218.77 440.86"/><polyline class="cls-1" points="1270.77 358.26 1257.18 454.33 1197.49 442.87"/><polyline class="cls-1" points="1248.48 360.79 1234.89 456.86 1175.19 445.4"/><polyline class="cls-1" points="1228.03 372.14 1214.44 468.21 1154.74 456.75"/><polyline class="cls-1" points="1207.59 365.43 1194 461.5 1134.3 450.05"/><polyline class="cls-1" points="1179.07 360.79 1165.48 456.86 1105.78 445.4"/><polyline class="cls-1" points="1306.43 365.76 1292.84 461.83 1233.14 450.37"/><polyline class="cls-1" points="1435.69 364.86 1422.1 460.93 1362.4 449.47"/><polyline class="cls-1" points="1414.41 366.86 1400.82 462.93 1341.12 451.48"/><polyline class="cls-1" points="1392.12 369.4 1378.53 465.47 1318.83 454.01"/><polyline class="cls-1" points="1371.66 380.74 1358.08 476.81 1298.38 465.36"/><polyline class="cls-1" points="1351.23 374.04 1337.64 470.11 1277.94 458.65"/><polyline class="cls-1" points="1322.7 369.4 1309.11 465.47 1249.42 454.01"/><polyline class="cls-1" points="1450.06 374.36 1436.47 470.43 1376.78 458.97"/><polyline class="cls-1" points="1909.87 363 1896.28 459.06 1836.58 447.61"/><polyline class="cls-1" points="1888.59 365 1875 461.07 1815.3 449.62"/><polyline class="cls-1" points="1866.3 367.54 1852.71 463.61 1793.01 452.15"/><polyline class="cls-1" points="1845.85 378.88 1832.26 474.95 1772.56 463.5"/><polyline class="cls-1" points="1825.41 372.18 1811.82 468.25 1752.12 456.79"/><polyline class="cls-1" points="1796.88 367.54 1783.29 463.61 1723.6 452.15"/><polyline class="cls-1" points="1924.24 372.5 1910.65 468.57 1850.96 457.11"/><polyline class="cls-1" points="1673.37 364.86 1663.1 418.16 1627.99 413.22"/><polyline class="cls-1" points="1660.72 366.45 1650.45 419.76 1615.34 414.82"/><polyline class="cls-1" points="1647.45 368.37 1637.18 421.68 1602.07 416.73"/><polyline class="cls-1" points="1635.07 375.1 1624.8 428.41 1589.69 423.46"/><polyline class="cls-1" points="1609.52 371.87 1599.25 425.18 1564.14 420.24"/><polyline class="cls-1" points="1609.52 368.37 1599.25 421.68 1564.14 416.73"/><polyline class="cls-1" points="1691.08 368.37 1680.81 421.68 1645.69 416.73"/><polyline class="cls-1" points="1619.85 360.71 1609.63 436.06 1563.13 426.85"/><polyline class="cls-1" points="1603.29 362.21 1593.08 437.56 1546.57 428.34"/><polyline class="cls-1" points="1585.95 364.11 1575.74 439.46 1529.23 430.25"/><polyline class="cls-1" points="1570.08 372.94 1559.86 448.29 1513.36 439.08"/><polyline class="cls-1" points="1554.15 367.6 1543.93 442.95 1497.42 433.74"/><polyline class="cls-1" points="1531.93 363.85 1521.71 439.21 1475.21 429.99"/><polyline class="cls-1" points="1631.07 368.22 1620.85 443.58 1574.35 434.36"/><path class="cls-12" d="M381.61,142.78l28.85,27.64c16.18,15.51,17.36,41.91,2.63,59l-5,5.78c-14.72,17-39.75,18.29-55.93,2.78l-28.84-27.64c-16.18-15.51-17.37-41.91-2.64-58.95l5-5.78C340.4,128.52,365.44,127.27,381.61,142.78Z"/><path class="cls-12" d="M704.54,214.79,680.59,240a38.18,38.18,0,0,1-56,0L621,236.18c-15.47-16.3-15.47-42.73,0-59l23.95-25.22a38.18,38.18,0,0,1,56,0l3.64,3.83C720,172.07,720,198.5,704.54,214.79Z"/><path class="cls-13" d="M224.22,749.73C179,633.79,156.83,533.55,174.67,525.83s69,80,114.16,195.95"/><path class="cls-12" d="M755.1,970.73l-235.41,7.09A53.07,53.07,0,0,1,502.3,980l-255-10.65a49.65,49.65,0,0,1-5.31-.49L154.5,956.32c-43.16-6.19-63.27-59.74-35.8-95.34L402.62,493c17-22.07,46.62-28.14,70.26-14.41l169.61,98.48a58.13,58.13,0,0,1,26,32.85l75.29,237.26C753.87,879,785.76,961.61,755.1,970.73Z"/><path class="cls-13" d="M309.14,422.35c0-150.62,90.76-272.72,202.72-272.72s202.73,122.1,202.73,272.72"/><path class="cls-14" d="M608.8,543.89c0,54.66-43.4,99-96.94,99s-96.93-44.31-96.93-99"/><ellipse class="cls-15" cx="669" cy="521.81" rx="116.21" ry="117.65"/><path class="cls-11" d="M532.91,415.46c0-57.91,19.73-104.86,44.07-104.86s44.07,46.95,44.07,104.86"/><path class="cls-11" d="M405.2,415.46c0-60.06,20-108.74,44.67-108.74s44.67,48.68,44.67,108.74"/><ellipse class="cls-16" cx="370.54" cy="521.81" rx="109.87" ry="115.73"/><ellipse class="cls-11" cx="437.12" cy="356.08" rx="17.42" ry="18.35"/><ellipse class="cls-12" cx="449.03" cy="369.59" rx="24.78" ry="26.1"/><ellipse class="cls-12" cx="579.17" cy="368.84" rx="24.07" ry="25.36"/><path class="cls-17" d="M459.18,556c-27.29,73.39-37.61,137.75-23.07,143.75s48.47-48.62,75.75-122"/><ellipse class="cls-12" cx="309.14" cy="235.03" rx="112.12" ry="38.94" transform="translate(-38.71 407.68) rotate(-63.64)"/><ellipse class="cls-12" cx="715.74" cy="230.55" rx="36.82" ry="102.15" transform="translate(-23.65 367.43) rotate(-28.34)"/><ellipse class="cls-17" cx="454.53" cy="709.5" ry="14.13"/><ellipse class="cls-18" cx="518.43" cy="491.87" rx="237.27" ry="85.8"/><path class="cls-19" d="M477,445c0-25,17-45.2,37.91-45.2S552.79,420,552.79,445"/><path class="cls-20" d="M669,985.42c0-56.93,27.11-103.08,60.54-103.08s60.54,46.15,60.54,103.08"/><path class="cls-20" d="M458.17,1010.48c0-58,30.16-105,67.36-105s67.36,47,67.36,105"/><path class="cls-20" d="M57.75,958c0-58.79,27-106.44,60.19-106.44S178.12,899.19,178.12,958"/><path class="cls-20" d="M260.67,978.59c0-57.11,25.82-103.4,57.68-103.4S376,921.48,376,978.59"/><ellipse class="cls-19" cx="449.87" cy="364.68" rx="16.17" ry="17.03"/><ellipse class="cls-19" cx="579.17" cy="364.68" rx="16.17" ry="17.03"/><ellipse class="cls-11" cx="442.19" cy="361.45" rx="1.69" ry="6.39" transform="translate(-87.55 148.02) rotate(-17.32)"/><ellipse class="cls-11" cx="574.32" cy="356.08" rx="2.67" ry="4.81"/><ellipse class="cls-11" cx="570.87" cy="362.91" rx="1.82" ry="6.22" transform="translate(-85.01 197.34) rotate(-18.28)"/><ellipse class="cls-11" cx="447.11" cy="356.47" rx="2.67" ry="4.81"/><ellipse class="cls-19" cx="735.26" cy="459.09" rx="2.79" ry="2.94"/><ellipse class="cls-19" cx="768.09" cy="485.99" rx="2.79" ry="2.94"/><ellipse class="cls-19" cx="735.26" cy="497.76" rx="2.79" ry="2.94"/><ellipse class="cls-19" cx="278.37" cy="503.79" rx="2.79" ry="2.94"/><ellipse class="cls-19" cx="309.14" cy="494.82" rx="2.79" ry="2.94"/><ellipse class="cls-19" cx="291.62" cy="465.64" rx="2.79" ry="2.94"/><path class="cls-21" d="M1060.7,775.35l97.1,228.48a2.59,2.59,0,0,0,.34.58c2.09,2.73,20,26.72,9.53,26.72l-717.09-5c-9.61,0-46,3-55.51-1.86-1.77-.91-.93,2,0,0l117.19-248.9"/><ellipse class="cls-22" cx="787.39" cy="785.27" rx="280.79" ry="59.61"/><ellipse class="cls-23" cx="797.74" cy="826.5" rx="280.79" ry="59.61"/><path class="cls-19" d="M488.44,260c.77,2.79-26.85-4.43-56.22,3.68s-49.39,28.46-50.16,25.67,16.11-31,45.48-39.12S487.67,257.23,488.44,260Z"/><path class="cls-19" d="M662.9,301.1c-1.19,3-18.27-20.92-46.59-32.18s-57.14-5.62-55.95-8.61,32.61-17.66,60.92-6.39S664.09,298.11,662.9,301.1Z"/><ellipse class="cls-24" cx="714.43" cy="909.57" rx="12.97" ry="15.84" transform="translate(-208.18 212.06) rotate(-14.76)"/><ellipse class="cls-24" cx="747.42" cy="883.68" rx="14.42" ry="17.69" transform="translate(-134.93 134.7) rotate(-9.45)"/><ellipse class="cls-24" cx="796.37" cy="886.04" rx="16.55" ry="14.44" transform="translate(-257.95 1440.72) rotate(-75.8)"/><ellipse class="cls-24" cx="830.41" cy="907.44" rx="18.54" ry="13.52" transform="translate(-390.59 1056.39) rotate(-54.49)"/><path class="cls-24" d="M823.36,976.15c-1.43,30-35-9.2-63.59,1.42-29.74,11-39.58,14.88-38.15-15.16s23.3-52.84,53.6-51.18S824.79,946.12,823.36,976.15Z"/><path class="cls-25" d="M95.76,498.49c0,29.28-6.27,53-7.58,53s2.6-23.73,2.6-53-3.91-53-2.6-53S95.76,469.21,95.76,498.49Z"/><ellipse class="cls-26" cx="85.02" cy="410.84" rx="5.52" ry="20.46"/><ellipse class="cls-27" cx="85.02" cy="460.88" rx="5.17" ry="20.92"/><ellipse class="cls-27" cx="111.19" cy="433.62" rx="20.17" ry="4.25"/><ellipse class="cls-27" cx="61.88" cy="439.95" rx="19.19" ry="4.21" transform="matrix(0.96, -0.29, 0.29, 0.96, -124.63, 36.71)"/><ellipse class="cls-28" cx="60.42" cy="445.48" rx="19.76" ry="3.6" transform="translate(-154 50.35) rotate(-20.76)"/><ellipse class="cls-29" cx="109.8" cy="441.99" rx="3.93" ry="20.17" transform="translate(-345.61 439.13) rotate(-75.69)"/><ellipse class="cls-27" cx="62.73" cy="450.56" rx="19.89" ry="3.58" transform="translate(-203.69 81.83) rotate(-27.92)"/><ellipse class="cls-27" cx="65.84" cy="453.92" rx="20.2" ry="3.52" transform="translate(-282.72 155.78) rotate(-41.21)"/><ellipse class="cls-27" cx="106.85" cy="447.57" rx="3.91" ry="20.28" transform="translate(-348.86 383.81) rotate(-68.61)"/><ellipse class="cls-30" cx="104.79" cy="451.33" rx="3.87" ry="20.49" transform="translate(-333.39 300.76) rotate(-57.96)"/><ellipse class="cls-27" cx="91.56" cy="412.17" rx="20.9" ry="4.35" transform="translate(-330.65 414.36) rotate(-77.77)"/><ellipse class="cls-27" cx="75.31" cy="412.86" rx="4.37" ry="20.63" transform="translate(-122.99 42.99) rotate(-17.86)"/><ellipse class="cls-27" cx="106.57" cy="416.84" rx="20.66" ry="4.15" transform="translate(-221.3 138.25) rotate(-35.3)"/><ellipse class="cls-27" cx="65.84" cy="415.26" rx="4.46" ry="17.81" transform="translate(-234.54 121.07) rotate(-36.59)"/><ellipse class="cls-31" cx="98.69" cy="415.26" rx="20.76" ry="4.44" transform="translate(-303.47 272.26) rotate(-57.06)"/><ellipse class="cls-32" cx="74.69" cy="459.33" rx="20.75" ry="5.21" transform="translate(-384.8 385.63) rotate(-71.65)"/><ellipse class="cls-33" cx="96.19" cy="459.2" rx="5.23" ry="20.68" transform="translate(-166.64 70.57) rotate(-22.24)"/><ellipse class="cls-34" cx="111.71" cy="424.56" rx="21.79" ry="4.24" transform="translate(-94.55 37.02) rotate(-13.28)"/><ellipse class="cls-26" cx="56.23" cy="432.56" rx="19.08" ry="4.23"/><ellipse class="cls-27" cx="61.88" cy="425.06" rx="4.19" ry="19.26" transform="translate(-356.42 327.41) rotate(-68.58)"/><ellipse class="cls-27" cx="104.79" cy="457.22" rx="3.98" ry="19.04" transform="translate(-229.97 128.64) rotate(-32.62)"/><ellipse class="cls-35" cx="86.65" cy="434.67" rx="17.62" ry="9.61"/><path class="cls-25" d="M1808.24,482.63c0,28.58-5.65,51.75-6.83,51.75s2.35-23.17,2.35-51.75-3.53-51.76-2.35-51.76S1808.24,454,1808.24,482.63Z"/><ellipse class="cls-26" cx="1798.56" cy="397.06" rx="4.98" ry="19.97"/><ellipse class="cls-27" cx="1798.56" cy="445.9" rx="4.66" ry="20.42"/><ellipse class="cls-27" cx="1822.17" cy="419.29" rx="18.19" ry="4.15"/><ellipse class="cls-27" cx="1777.69" cy="425.48" rx="17.44" ry="4.08" transform="translate(-43.8 578.39) rotate(-18.26)"/><ellipse class="cls-28" cx="1776.37" cy="430.87" rx="18.01" ry="3.48" transform="translate(-30.03 710.3) rotate(-22.43)"/><ellipse class="cls-29" cx="1820.91" cy="427.46" rx="3.81" ry="18.29" transform="translate(921.39 2067.37) rotate(-74.47)"/><ellipse class="cls-27" cx="1778.45" cy="435.83" rx="18.28" ry="3.43" transform="translate(20.15 946.93) rotate(-29.98)"/><ellipse class="cls-27" cx="1781.25" cy="439.11" rx="18.89" ry="3.32" transform="translate(188.6 1349.68) rotate(-43.61)"/><ellipse class="cls-27" cx="1818.25" cy="432.92" rx="3.77" ry="18.5" transform="translate(706.37 1935.3) rotate(-66.89)"/><ellipse class="cls-30" cx="1816.39" cy="436.58" rx="3.69" ry="18.93" transform="translate(432.8 1691.8) rotate(-55.73)"/><ellipse class="cls-27" cx="1804.45" cy="398.35" rx="20.33" ry="3.94" transform="translate(1061.77 2090.44) rotate(-78.75)"/><ellipse class="cls-27" cx="1789.8" cy="399.03" rx="3.97" ry="20" transform="translate(-39.69 523.76) rotate(-16.47)"/><ellipse class="cls-27" cx="1818" cy="402.91" rx="19.16" ry="3.94" transform="translate(132.6 1194.69) rotate(-37.66)"/><ellipse class="cls-27" cx="1781.25" cy="401.37" rx="4.13" ry="16.93" transform="translate(82.02 1069.64) rotate(-34.17)"/><ellipse class="cls-31" cx="1810.89" cy="401.37" rx="19.83" ry="4.09" transform="matrix(0.51, -0.86, 0.86, 0.51, 540.68, 1753.03)"/><ellipse class="cls-32" cx="1789.24" cy="444.4" rx="20.12" ry="4.73" transform="translate(844.52 2027.56) rotate(-73.12)"/><ellipse class="cls-33" cx="1808.63" cy="444.27" rx="4.76" ry="19.98" transform="translate(-41.04 661.65) rotate(-20.5)"/><ellipse class="cls-34" cx="1822.63" cy="410.45" rx="19.74" ry="4.12" transform="translate(-44.79 466.99) rotate(-14.43)"/><ellipse class="cls-26" cx="1772.59" cy="418.26" rx="17.21" ry="4.13"/><ellipse class="cls-27" cx="1777.69" cy="410.94" rx="4.05" ry="17.57" transform="translate(700.09 1883.3) rotate(-66.82)"/><ellipse class="cls-27" cx="1816.39" cy="442.34" rx="3.67" ry="18.19" transform="translate(26.13 980.76) rotate(-30.43)"/><ellipse class="cls-35" cx="1800.02" cy="420.32" rx="15.9" ry="9.38"/><path class="cls-25" d="M1335.49,902.53c0,34.5-9.74,62.47-11.77,62.47s4-28,4-62.47-6.08-62.46-4-62.46S1335.49,868,1335.49,902.53Z"/><ellipse class="cls-26" cx="1318.81" cy="799.25" rx="8.59" ry="24.11"/><ellipse class="cls-27" cx="1318.81" cy="858.21" rx="8.03" ry="24.65"/><ellipse class="cls-27" cx="1359.5" cy="826.09" rx="31.36" ry="5.01"/><ellipse class="cls-27" cx="1282.82" cy="833.56" rx="29.32" ry="5.05" transform="matrix(0.98, -0.22, 0.22, 0.98, -151.2, 300.61)"/><ellipse class="cls-28" cx="1280.55" cy="840.07" rx="29.9" ry="4.36" transform="translate(-180.34 380.37) rotate(-15.8)"/><ellipse class="cls-29" cx="1357.32" cy="835.95" rx="4.69" ry="30.96" transform="translate(282.64 2013.32) rotate(-79.24)"/><ellipse class="cls-27" cx="1284.14" cy="846.06" rx="29.47" ry="4.43" transform="translate(-221.14 531.49) rotate(-21.58)"/><ellipse class="cls-27" cx="1288.97" cy="850.01" rx="28.4" ry="4.59" transform="translate(-255.02 842.89) rotate(-33.14)"/><ellipse class="cls-27" cx="1352.74" cy="842.53" rx="4.74" ry="30.63" transform="translate(165 1905.1) rotate(-73.73)"/><ellipse class="cls-30" cx="1349.54" cy="846.96" rx="4.85" ry="29.92" transform="translate(11.9 1712.59) rotate(-65.02)"/><ellipse class="cls-27" cx="1328.96" cy="800.82" rx="25.04" ry="6.66" transform="translate(184.34 1848.33) rotate(-73.54)"/><ellipse class="cls-27" cx="1303.7" cy="801.63" rx="6.56" ry="25.16" transform="translate(-212.33 592.15) rotate(-23.72)"/><ellipse class="cls-27" cx="1352.31" cy="806.32" rx="29.78" ry="5.28" transform="translate(-219.87 721.81) rotate(-27.73)"/><ellipse class="cls-27" cx="1288.97" cy="804.46" rx="6.16" ry="23.65" transform="translate(-188.08 1160.75) rotate(-45.53)"/><ellipse class="cls-31" cx="1340.06" cy="804.46" rx="27.06" ry="6.24" transform="translate(-149.24 1278.71) rotate(-48.64)"/><ellipse class="cls-32" cx="1302.74" cy="856.39" rx="25.38" ry="7.8" transform="translate(-18.85 1683.41) rotate(-65.36)"/><ellipse class="cls-33" cx="1336.16" cy="856.23" rx="7.71" ry="25.68" transform="translate(-248.36 768.13) rotate(-29.47)"/><ellipse class="cls-34" cx="1360.3" cy="815.42" rx="33.5" ry="5.05" transform="translate(-120.69 247.98) rotate(-9.98)"/><ellipse class="cls-26" cx="1274.03" cy="824.84" rx="29.67" ry="4.99"/><ellipse class="cls-27" cx="1282.82" cy="816.01" rx="5.09" ry="29.1" transform="translate(141.05 1819.93) rotate(-73.78)"/><ellipse class="cls-27" cx="1349.54" cy="853.9" rx="5.6" ry="24.78" transform="translate(-229.28 1094.16) rotate(-40.98)"/><ellipse class="cls-35" cx="1321.32" cy="827.33" rx="27.4" ry="11.32"/><path class="cls-36" d="M764,56.82,74.74,171.15c-47.56,1.3-47.2,2.34-47.56,1.3L5.28-62.86-6.87-57.63l372.4,9.18,682.18,18.32c2.8.07,875.05,29.46,872.77,30.13L764.32,56.73A2.49,2.49,0,0,1,764,56.82Z"/><path class="cls-37" d="M1681.9,747.59c-3.65-42.15,49.86-83.2,110.37-76.55,58.88,6.46,130.41,38.34,110.38,76.55"/><path class="cls-38" d="M1835.5,747.59c-26.55,38.92-25.54,76.52-43.23,91-15.25,12.5-77.42-45.5-43.22-91"/><ellipse class="cls-39" cx="1738.93" cy="689.03" rx="13.95" ry="4.52"/><ellipse class="cls-39" cx="1750.49" cy="679.65" rx="8.86" ry="2.92"/><ellipse class="cls-39" cx="1761.35" cy="686.73" rx="5.82" ry="2.3"/><line class="cls-40" x1="1799.76" y1="747.59" x2="1793.9" y2="835.34"/><line class="cls-3" x1="1806.87" y1="760.79" x2="1802.72" y2="823.8"/><line class="cls-41" x1="1818.97" y1="747.59" x2="1815.51" y2="787.75"/><line class="cls-42" x1="1794.84" y1="747.59" x2="1787.21" y2="840.32"/><line class="cls-43" x1="1807.49" y1="747.59" x2="1803.06" y2="818.76"/><line class="cls-44" x1="1812.7" y1="747.59" x2="1810.49" y2="802.49"/><polyline class="cls-1" points="0.19 382.42 27.59 428.52 -1.38 448.84"/><path class="cls-25" d="M175.56,960.65c0,48.72-13.72,88.22-16.59,88.22s5.7-39.5,5.7-88.22-8.57-88.22-5.7-88.22S175.56,911.93,175.56,960.65Z"/><ellipse class="cls-26" cx="152.05" cy="814.79" rx="12.11" ry="34.05"/><ellipse class="cls-27" cx="152.05" cy="898.05" rx="11.32" ry="34.82"/><ellipse class="cls-27" cx="209.4" cy="852.69" rx="44.21" ry="7.08"/><ellipse class="cls-27" cx="101.33" cy="863.23" rx="41.33" ry="7.13" transform="translate(-186.63 43.16) rotate(-12.65)"/><ellipse class="cls-28" cx="98.12" cy="872.43" rx="42.15" ry="6.16" transform="matrix(0.96, -0.27, 0.27, 0.96, -234.25, 59.85)"/><ellipse class="cls-29" cx="206.34" cy="866.61" rx="6.62" ry="43.64" transform="translate(-683.58 907.18) rotate(-79.22)"/><ellipse class="cls-27" cx="103.18" cy="880.89" rx="41.54" ry="6.25" transform="translate(-317.24 99.96) rotate(-21.62)"/><ellipse class="cls-27" cx="109.99" cy="886.47" rx="40.05" ry="6.48" transform="translate(-467.36 204.86) rotate(-33.19)"/><ellipse class="cls-27" cx="199.87" cy="875.91" rx="6.69" ry="43.18" transform="translate(-696.93 821.92) rotate(-73.7)"/><ellipse class="cls-30" cx="195.37" cy="882.16" rx="6.85" ry="42.19" transform="translate(-686.62 686.02) rotate(-64.97)"/><ellipse class="cls-27" cx="166.36" cy="816.99" rx="35.36" ry="9.38" transform="translate(-664.33 745.5) rotate(-73.57)"/><ellipse class="cls-27" cx="130.75" cy="818.14" rx="9.25" ry="35.52" transform="translate(-317.49 121.34) rotate(-23.67)"/><ellipse class="cls-27" cx="199.27" cy="824.77" rx="41.99" ry="7.45" transform="translate(-361.42 187.92) rotate(-27.78)"/><ellipse class="cls-27" cx="109.99" cy="822.14" rx="8.68" ry="33.37" transform="translate(-553.2 323.96) rotate(-45.47)"/><ellipse class="cls-31" cx="182" cy="822.14" rx="38.19" ry="8.8" transform="translate(-555.78 416.29) rotate(-48.7)"/><ellipse class="cls-32" cx="129.41" cy="895.48" rx="35.82" ry="11" transform="translate(-738.71 640.5) rotate(-65.41)"/><ellipse class="cls-33" cx="176.51" cy="895.26" rx="10.87" ry="36.25" transform="translate(-416.9 202.08) rotate(-29.41)"/><ellipse class="cls-34" cx="210.53" cy="837.62" rx="47.23" ry="7.13" transform="translate(-142.2 49.26) rotate(-10)"/><ellipse class="cls-26" cx="88.93" cy="850.92" rx="41.82" ry="7.05"/><ellipse class="cls-27" cx="101.33" cy="838.45" rx="7.18" ry="41.03" transform="translate(-731.99 701.15) rotate(-73.75)"/><ellipse class="cls-27" cx="195.37" cy="891.97" rx="7.9" ry="34.97" transform="translate(-536.44 345.87) rotate(-40.91)"/><ellipse class="cls-35" cx="155.6" cy="854.44" rx="38.62" ry="15.99"/><ellipse class="cls-45" cx="1842.16" cy="102.35" rx="34.06" ry="32.8"/><ellipse class="cls-45" cx="1838.48" cy="63.38" rx="34.06" ry="32.8"/><rect class="cls-45" x="1439" y="66.43" width="413.93" height="33.3" rx="16.65"/><rect class="cls-46" x="1438.22" y="67.09" width="171.35" height="33.3" rx="16.65"/><ellipse class="cls-45" cx="1434.15" cy="104.62" rx="34.06" ry="32.8"/><ellipse class="cls-45" cx="1436.43" cy="60.05" rx="34.06" ry="32.8"/></svg>
