<svg id="Layer_1" data-name="Layer 1" xmlns="http://www.w3.org/2000/svg" width="1177" height="1049" viewBox="0 0 1177 1049"><defs><style>.cls-1{fill:#ffcd18;}.cls-2{fill:#acbe36;}.cls-3{fill:#ac8e13;}.cls-4{fill:#faed63;}.cls-5{fill:none;}.cls-6{fill:#cad000;}.cls-7{fill:#c3d219;}.cls-8{fill:#cdd500;}.cls-9{fill:#7e8c26;}</style></defs><title>svamp</title><path class="cls-1" d="M319.52,533.71c-9.13-101.3,124.72-200,276.08-184,147.26,15.54,326.18,92.15,276.07,184"/><path class="cls-2" d="M703.72,533.71c-66.4,93.53-63.89,183.88-108.12,218.69-38.15,30-193.65-109.34-108.12-218.69"/><ellipse class="cls-3" cx="462.16" cy="392.97" rx="34.89" ry="10.85"/><ellipse class="cls-3" cx="491.1" cy="370.43" rx="22.17" ry="7.03"/><ellipse class="cls-3" cx="518.25" cy="387.44" rx="14.57" ry="5.53"/><line class="cls-4" x1="614.32" y1="533.71" x2="599.68" y2="744.59"/><line class="cls-5" x1="632.12" y1="565.42" x2="621.74" y2="716.85"/><line class="cls-6" x1="662.39" y1="533.71" x2="653.73" y2="630.22"/><line class="cls-7" x1="602.02" y1="533.71" x2="582.94" y2="756.54"/><line class="cls-8" x1="633.67" y1="533.71" x2="622.57" y2="704.74"/><line class="cls-9" x1="646.69" y1="533.71" x2="641.16" y2="665.63"/></svg>
