<svg id="Layer_1" data-name="Layer 1" xmlns="http://www.w3.org/2000/svg" width="1177" height="1049" viewBox="0 0 1177 1049"><defs><style>.cls-1{fill:#723c29;}.cls-2{fill:#935934;}.cls-3{fill:#84bc26;opacity:0.45;}.cls-4{fill:#ce825d;}.cls-11,.cls-5{fill:#c96;}.cls-5,.cls-7{stroke:#c96;stroke-miterlimit:10;}.cls-6{fill:#fff;}.cls-7{fill:#d5965d;}.cls-8,.cls-9{fill:#e20d18;}.cls-9{opacity:0.85;}.cls-10{fill:#e64065;}.cls-12{fill:#010101;}.cls-13{fill:#230d0f;}</style></defs><title>syghund</title><path class="cls-1" d="M469.35,80.46,505.46,111c20.26,17.13,21.74,46.28,3.3,65.1l-6.25,6.39c-18.42,18.81-49.76,20.18-70,3.06L396.39,155c-20.25-17.12-21.73-46.27-3.3-65.1l6.25-6.38C417.76,64.71,449.11,63.34,469.35,80.46Z"/><path class="cls-1" d="M873.6,160l-30,27.85c-19.35,18-50.73,18-70.08,0L769,183.61c-19.36-18-19.36-47.17,0-65.17l30-27.85c19.36-18,50.73-18,70.09,0l4.55,4.23C893,112.81,893,142,873.6,160Z"/><path class="cls-2" d="M272.33,750.73C215.74,622.7,188,512,210.3,503.48s86.32,88.36,142.91,216.39"/><path class="cls-1" d="M936.89,994.8l-294.69,7.83a75.19,75.19,0,0,1-21.76,2.39L301.27,993.26q-3.33-.12-6.65-.54L185.05,978.88c-54-6.83-79.2-66-44.81-105.29L495.66,467.22C517,442.85,554,436.15,583.61,451.31L795.92,560.06a66.34,66.34,0,0,1,32.54,36.28l94.24,262C935.35,893.51,975.28,984.72,936.89,994.8Z"/><path class="cls-2" d="M378.63,389.2C378.63,222.87,492.25,88,632.41,88S886.18,222.87,886.18,389.2"/><path class="cls-3" d="M380.18,385c0-164,113.27-297,253-297s253,133,253,297"/><path class="cls-4" d="M753.76,523.42c0,60.36-54.33,109.29-121.35,109.29S511.06,583.78,511.06,523.42"/><ellipse class="cls-5" cx="829.56" cy="498.6" rx="145.39" ry="129.62"/><path class="cls-6" d="M658.75,381.59c0-63.95,24.7-115.8,55.17-115.8s55.17,51.85,55.17,115.8"/><path class="cls-6" d="M498.88,381.59c0-66.32,25-120.09,55.92-120.09s55.92,53.77,55.92,120.09"/><ellipse class="cls-7" cx="455.08" cy="498.6" rx="137.46" ry="128.06"/><ellipse class="cls-6" cx="539.67" cy="316.67" rx="22.03" ry="20.3"/><ellipse class="cls-8" cx="553.77" cy="331.51" rx="30.84" ry="28.89"/><ellipse class="cls-8" cx="716.78" cy="330.72" rx="29.96" ry="28.11"/><path class="cls-9" d="M566.45,536.74c-34.15,81-47.08,152.12-28.87,158.75s60.67-53.7,94.83-134.75"/><ellipse class="cls-1" cx="354.63" cy="94.13" rx="51.97" ry="139.66" transform="translate(208.84 430.83) rotate(-81.45)"/><ellipse class="cls-1" cx="933.53" cy="147.23" rx="48.71" ry="140.27" transform="translate(431.04 947.64) rotate(-66.84)"/><ellipse class="cls-10" cx="559.93" cy="706.31" ry="15.6"/><ellipse class="cls-11" cx="640.12" cy="465.81" rx="296.94" ry="94.48"/><path class="cls-12" d="M588.73,414.16c0-27.57,21.24-49.92,47.45-49.92s47.46,22.35,47.46,49.92"/><path class="cls-13" d="M829.12,1011c0-62.87,33.92-113.84,75.78-113.84s75.78,51,75.78,113.84"/><path class="cls-13" d="M565.19,1038.69c0-64,37.76-116,84.33-116s84.32,51.92,84.32,116"/><path class="cls-13" d="M63.94,980.71c0-64.92,33.73-117.54,75.34-117.54s75.34,52.62,75.34,117.54"/><path class="cls-13" d="M318,1003.48c0-63.07,32.32-114.2,72.2-114.2s72.2,51.13,72.2,114.2"/><ellipse class="cls-12" cx="555.53" cy="326.04" rx="20.27" ry="18.74"/><ellipse class="cls-12" cx="715.89" cy="326.04" rx="20.27" ry="18.74"/><ellipse class="cls-6" cx="545.84" cy="322.14" rx="2.34" ry="7.51" transform="translate(-80.44 224.74) rotate(-21.71)"/><ellipse class="cls-6" cx="709.73" cy="315.89" rx="3.52" ry="5.47"/><ellipse class="cls-6" cx="706.2" cy="322.92" rx="2.38" ry="6.76" transform="translate(-70.31 317.98) rotate(-24.21)"/><ellipse class="cls-6" cx="551.12" cy="315.89" rx="3.52" ry="5.47"/><ellipse class="cls-12" cx="912.39" cy="429.11" rx="3.52" ry="3.12"/><ellipse class="cls-12" cx="952.92" cy="458.78" rx="3.52" ry="3.12"/><ellipse class="cls-12" cx="912.39" cy="472.84" rx="3.52" ry="3.12"/><ellipse class="cls-12" cx="339.65" cy="479.08" rx="3.52" ry="3.12"/><ellipse class="cls-12" cx="378.42" cy="469.71" rx="3.52" ry="3.12"/><ellipse class="cls-12" cx="357.27" cy="436.92" rx="3.52" ry="3.12"/><path class="cls-12" d="M598,200.86c.66,2.53-12.84,21.74-38,29.08s-42.23,25.75-42.89,23.23,13.78-28.06,38.9-35.4S597.3,198.34,598,200.86Z"/><path class="cls-12" d="M755.26,256.11c-1,2.71-19.64-15.07-43.86-25.26s-44.88-30.21-43.87-32.91,19.66,8.75,43.88,18.94S756.28,253.41,755.26,256.11Z"/><ellipse class="cls-7" cx="450.67" cy="497.04" rx="60.8" ry="64.03"/><ellipse class="cls-3" cx="418.07" cy="482.99" rx="92.52" ry="86.67"/><ellipse class="cls-3" cx="877.14" cy="490.8" rx="91.64" ry="83.54" transform="translate(-12.03 22.16) rotate(-1.44)"/></svg>
